<svg width="256" height="256" viewBox="0 0 256 256" fill="none" xmlns="http://www.w3.org/2000/svg">
<path fill-rule="evenodd" clip-rule="evenodd" d="M127.998 170.667C175.127 170.667 213.333 132.457 213.333 85.3306C213.333 38.2036 175.127 0 127.998 0C80.8711 0 42.6665 38.2036 42.6665 85.3306C42.6665 132.457 80.8711 170.667 127.998 170.667ZM104.523 111.7C105.331 112.42 105.352 113.702 104.521 114.397L84.05 131.53C83.3279 132.134 82.2526 132.039 81.6473 131.318L74.4247 122.71C73.9135 122.101 73.8908 121.22 74.37 120.585L84.8648 106.684C83.2564 103.442 82.047 100.095 81.2207 96.7012L64.2577 92.8011C63.4827 92.6229 62.9334 91.933 62.9334 91.1378V79.5285C62.9334 78.7332 63.4827 78.0434 64.2577 77.8652L81.2341 73.962C82.0719 70.5184 83.2874 67.1685 84.8624 63.9793L74.37 50.0814C73.8908 49.4468 73.9135 48.5653 74.4247 47.9561L81.9576 38.9788C82.4274 38.4188 83.2218 38.2576 83.8728 38.59L104.663 56.16C105.491 56.8596 105.463 58.1433 104.649 58.8594C92.2866 69.7397 88.8842 88.171 97.4349 102.981C99.3727 106.338 101.779 109.255 104.523 111.7ZM164.909 91.1345C163.891 90.7627 162.791 91.4214 162.572 92.482C161.827 96.0804 160.503 99.6228 158.565 102.979C150.015 117.79 132.351 124.059 116.748 118.792C115.721 118.446 114.595 119.063 114.403 120.13L109.582 146.92C109.619 147.65 110.156 148.257 110.876 148.384L122.417 150.419C123.2 150.557 123.975 150.136 124.285 149.404L131.075 133.368C134.624 133.138 138.133 132.515 141.534 131.519L153.403 144.27C153.945 144.852 154.817 144.982 155.505 144.585L165.559 138.78C166.248 138.383 166.571 137.562 166.338 136.802L161.234 120.161C163.759 117.749 166.054 115.028 168.057 112.014L185.343 114.152C186.132 114.25 186.884 113.789 187.156 113.042L190.999 102.483C191.321 101.599 190.866 100.62 189.981 100.297L164.909 91.1345ZM116.904 51.8184C115.876 52.1586 114.755 51.5353 114.569 50.4684L109.967 24.1737C109.805 23.2461 110.424 22.3623 111.352 22.1988L122.418 20.2476C123.201 20.1095 123.975 20.5306 124.285 21.2629L131.077 37.3022C134.688 37.5302 138.192 38.1565 141.544 39.1376L153.403 26.3973C153.945 25.8152 154.817 25.6845 155.506 26.0821L165.56 31.8867C166.248 32.2843 166.571 33.1049 166.338 33.8652L161.23 50.5188C163.793 52.9662 166.087 55.6938 168.061 58.6524L185.343 56.5146C186.132 56.417 186.885 56.8774 187.156 57.6246L191.165 68.6369C191.415 69.3239 191.157 70.0924 190.544 70.49L164.932 79.71C163.913 80.0772 162.815 79.4108 162.602 78.3481C159.36 62.2017 145.1 50.0395 127.998 50.0395C124.123 50.0395 120.393 50.6642 116.904 51.8184Z" fill="#0064FF"/>
<g clip-path="url(#clip0_45_5660)">
<path d="M228.733 255.562C226.636 255.562 224.697 255.107 222.916 254.197C221.175 253.287 219.789 251.941 218.76 250.16C217.771 248.34 217.276 246.143 217.276 243.571V226H221.966V243.215C221.966 246.104 222.678 248.201 224.103 249.507C225.567 250.813 227.526 251.466 229.98 251.466C232.75 251.466 235.026 250.556 236.807 248.735C238.587 246.915 239.478 244.204 239.478 240.603V226H244.168V255.028H239.597V250.101H238.766C238.132 251.486 237.044 252.752 235.501 253.9C233.957 255.008 231.701 255.562 228.733 255.562Z" fill="#002866"/>
<path d="M201.014 255.028C199.352 255.028 198.065 254.573 197.155 253.663C196.285 252.753 195.849 251.506 195.849 249.923V230.096H187.123V226H195.849V215.671H200.539V226H210.037V230.096H200.539V249.211C200.539 250.398 201.113 250.991 202.26 250.991H208.731V255.028H201.014Z" fill="#002866"/>
<path d="M154.733 255.028V226H159.304V230.927H160.135C160.769 229.542 161.837 228.295 163.341 227.187C164.884 226.039 167.14 225.465 170.108 225.465C172.285 225.465 174.224 225.921 175.926 226.831C177.667 227.741 179.052 229.087 180.081 230.867C181.11 232.648 181.625 234.845 181.625 237.457V255.028H176.935V237.813C176.935 234.924 176.203 232.826 174.738 231.52C173.314 230.214 171.375 229.561 168.921 229.561C166.111 229.561 163.816 230.472 162.035 232.292C160.294 234.113 159.423 236.823 159.423 240.425V255.028H154.733Z" fill="#002866"/>
<path d="M129.487 255.562C127.39 255.562 125.451 255.107 123.67 254.197C121.928 253.287 120.543 251.941 119.514 250.16C118.525 248.34 118.03 246.143 118.03 243.571V226H122.72V243.215C122.72 246.104 123.432 248.201 124.857 249.507C126.321 250.813 128.28 251.466 130.734 251.466C133.504 251.466 135.78 250.556 137.56 248.735C139.341 246.915 140.232 244.204 140.232 240.603V226H144.921V255.028H140.351V250.101H139.519C138.886 251.486 137.798 252.752 136.254 253.9C134.711 255.008 132.455 255.562 129.487 255.562Z" fill="#002866"/>
<path d="M96.2713 255.859C93.2636 255.859 90.9089 255.285 89.2071 254.137C87.545 252.99 86.338 251.684 85.5861 250.22H84.755V255.028H80.1841V213.474H84.8737V230.571H85.7048C86.1797 229.66 86.8524 228.81 87.7231 228.018C88.5937 227.187 89.7216 226.514 91.1067 226C92.5314 225.446 94.2529 225.169 96.2713 225.169C98.8041 225.169 101.099 225.782 103.157 227.009C105.255 228.196 106.917 229.918 108.144 232.173C109.371 234.39 109.984 237.041 109.984 240.128V240.9C109.984 243.986 109.351 246.658 108.084 248.914C106.858 251.169 105.195 252.891 103.098 254.078C101.04 255.265 98.7645 255.859 96.2713 255.859ZM95.0247 251.704C98.0324 251.704 100.466 250.754 102.326 248.854C104.226 246.915 105.176 244.224 105.176 240.781V240.247C105.176 236.804 104.226 234.132 102.326 232.233C100.466 230.294 98.0324 229.324 95.0247 229.324C92.0565 229.324 89.6029 230.294 87.6637 232.233C85.7641 234.132 84.8143 236.804 84.8143 240.247V240.781C84.8143 244.224 85.7641 246.915 87.6637 248.854C89.6029 250.754 92.0565 251.704 95.0247 251.704Z" fill="#002866"/>
<path d="M54.9364 255.562C52.839 255.562 50.8998 255.107 49.1189 254.197C47.3776 253.287 45.9925 251.941 44.9636 250.16C43.9742 248.34 43.4795 246.143 43.4795 243.571V226H48.1691V243.215C48.1691 246.104 48.8815 248.201 50.3062 249.507C51.7704 250.813 53.7294 251.466 56.183 251.466C58.9533 251.466 61.2288 250.556 63.0097 248.735C64.7906 246.915 65.681 244.204 65.681 240.603V226H70.3706V255.028H65.7997V250.101H64.9687C64.3355 251.486 63.2471 252.752 61.7037 253.9C60.1603 255.008 57.9045 255.562 54.9364 255.562Z" fill="#002866"/>
<path d="M11.8936 255.028V213.474H16.5832V237.932H17.4142L30.7114 226H37.2413L21.1541 240.128L37.7162 255.028H31.2457L17.4142 242.384H16.5832V255.028H11.8936Z" fill="#002866"/>
</g>
<defs>
<clipPath id="clip0_45_5660">
<rect width="232.812" height="42.6667" fill="white" transform="translate(11.5942 213.333)"/>
</clipPath>
</defs>
</svg>
