<svg width="1364" height="256" viewBox="0 0 1364 256" fill="none" xmlns="http://www.w3.org/2000/svg">
<path fill-rule="evenodd" clip-rule="evenodd" d="M127.998 256C198.691 256 256 198.686 256 127.996C256 57.3054 198.691 0 127.998 0C57.3068 0 0 57.3054 0 127.996C0 198.686 57.3068 256 127.998 256ZM92.784 167.549C93.9972 168.63 94.0278 170.553 92.7819 171.596L62.0753 197.294C60.992 198.201 59.3792 198.059 58.4712 196.977L47.6373 184.065C46.8705 183.152 46.8365 181.829 47.5552 180.877L63.2975 160.026C60.8848 155.163 59.0707 150.142 57.8314 145.052L32.3868 139.202C31.2242 138.934 30.4004 137.9 30.4004 136.707V119.293C30.4004 118.1 31.2242 117.065 32.3868 116.798L57.8515 110.943C59.1082 105.778 60.9313 100.753 63.2938 95.9689L47.5552 75.1222C46.8365 74.1702 46.8705 72.8479 47.6373 71.9341L58.9366 58.4682C59.6414 57.6282 60.8329 57.3863 61.8095 57.885L92.9951 84.24C94.2368 85.2894 94.1944 87.215 92.974 88.2891C74.4301 104.61 69.3265 132.256 82.1526 154.472C85.0593 159.507 88.6682 163.883 92.784 167.549ZM183.363 136.702C181.837 136.144 180.187 137.132 179.858 138.723C178.741 144.121 176.755 149.434 173.848 154.469C161.022 176.684 134.527 186.088 111.121 178.189C109.581 177.669 107.892 178.595 107.604 180.195L100.373 220.38C100.429 221.475 101.235 222.386 102.315 222.576L119.626 225.629C120.801 225.836 121.963 225.204 122.428 224.106L132.612 200.052C137.937 199.707 143.2 198.773 148.302 197.279L166.104 216.404C166.917 217.277 168.225 217.474 169.258 216.877L184.339 208.17C185.372 207.574 185.856 206.343 185.507 205.202L177.851 180.242C181.639 176.623 185.081 172.542 188.085 168.021L214.015 171.228C215.198 171.375 216.327 170.684 216.734 169.563L222.499 153.725C222.982 152.398 222.299 150.93 220.972 150.445L183.363 136.702ZM111.356 77.7276C109.814 78.2379 108.133 77.303 107.853 75.7026L100.951 36.2605C100.707 34.8691 101.637 33.5434 103.028 33.2981L119.627 30.3714C120.801 30.1642 121.963 30.7959 122.428 31.8943L132.615 55.9533C138.033 56.2953 143.288 57.2347 148.316 58.7065L166.105 39.5959C166.918 38.7228 168.226 38.5267 169.259 39.1231L184.34 47.8301C185.373 48.4265 185.857 49.6574 185.507 50.7978L177.845 75.7783C181.69 79.4493 185.13 83.5406 188.092 87.9786L214.015 84.7719C215.199 84.6255 216.327 85.316 216.735 86.437L222.747 102.955C223.122 103.986 222.736 105.139 221.816 105.735L183.399 119.565C181.869 120.116 180.223 119.116 179.903 117.522C175.041 93.3025 153.65 75.0592 127.998 75.0592C122.184 75.0592 116.589 75.9963 111.356 77.7276Z" fill="#0064FF"/>
<path d="M1296.41 218.112C1287.37 218.112 1279 216.149 1271.32 212.224C1263.81 208.299 1257.84 202.496 1253.4 194.816C1249.14 186.965 1247 177.493 1247 166.4V90.624H1267.23V164.864C1267.23 177.323 1270.3 186.368 1276.44 192C1282.76 197.632 1291.21 200.448 1301.79 200.448C1313.73 200.448 1323.55 196.523 1331.23 188.672C1338.91 180.821 1342.75 169.131 1342.75 153.6V90.624H1362.97V215.808H1343.26V194.56H1339.68C1336.95 200.533 1332.25 205.995 1325.6 210.944C1318.94 215.723 1309.21 218.112 1296.41 218.112Z" fill="#002866"/>
<path d="M1176.87 215.808C1169.7 215.808 1164.16 213.845 1160.23 209.92C1156.48 205.995 1154.6 200.619 1154.6 193.792V108.288H1116.97V90.6241H1154.6V46.0801H1174.82V90.6241H1215.78V108.288H1174.82V190.72C1174.82 195.84 1177.3 198.4 1182.25 198.4H1210.15V215.808H1176.87Z" fill="#002866"/>
<path d="M977.289 215.808V90.6243H997.001V111.872H1000.59C1003.32 105.899 1007.92 100.523 1014.41 95.7443C1021.07 90.795 1030.79 88.3203 1043.59 88.3203C1052.98 88.3203 1061.34 90.283 1068.68 94.2083C1076.19 98.1337 1082.16 103.936 1086.6 111.616C1091.04 119.296 1093.26 128.768 1093.26 140.032V215.808H1073.03V141.568C1073.03 129.11 1069.88 120.064 1063.56 114.432C1057.42 108.8 1049.05 105.984 1038.47 105.984C1026.36 105.984 1016.46 109.91 1008.78 117.76C1001.27 125.611 997.513 137.302 997.513 152.832V215.808H977.289Z" fill="#002866"/>
<path d="M868.416 218.112C859.37 218.112 851.008 216.149 843.328 212.224C835.818 208.299 829.845 202.496 825.408 194.816C821.141 186.965 819.008 177.493 819.008 166.4V90.624H839.232V164.864C839.232 177.323 842.304 186.368 848.448 192C854.762 197.632 863.21 200.448 873.792 200.448C885.738 200.448 895.552 196.523 903.232 188.672C910.912 180.821 914.752 169.131 914.752 153.6V90.624H934.976V215.808H915.264V194.56H911.68C908.949 200.533 904.256 205.995 897.6 210.944C890.944 215.723 881.216 218.112 868.416 218.112Z" fill="#002866"/>
<path d="M725.165 219.392C712.194 219.392 702.04 216.918 694.701 211.968C687.533 207.019 682.328 201.387 679.085 195.072H675.501V215.808H655.789V36.6084H676.013V110.336H679.597C681.645 106.411 684.546 102.742 688.301 99.3284C692.056 95.7444 696.92 92.8431 702.893 90.6244C709.037 88.2351 716.461 87.0404 725.165 87.0404C736.088 87.0404 745.986 89.6857 754.861 94.9764C763.906 100.096 771.074 107.52 776.365 117.248C781.656 126.806 784.301 138.24 784.301 151.552V154.88C784.301 168.192 781.57 179.712 776.109 189.44C770.818 199.168 763.65 206.592 754.605 211.712C745.73 216.832 735.917 219.392 725.165 219.392ZM719.789 201.472C732.76 201.472 743.256 197.376 751.277 189.184C759.469 180.822 763.565 169.216 763.565 154.368V152.064C763.565 137.216 759.469 125.696 751.277 117.504C743.256 109.142 732.76 104.96 719.789 104.96C706.989 104.96 696.408 109.142 688.045 117.504C679.853 125.696 675.757 137.216 675.757 152.064V154.368C675.757 169.216 679.853 180.822 688.045 189.184C696.408 197.376 706.989 201.472 719.789 201.472Z" fill="#002866"/>
<path d="M546.916 218.112C537.87 218.112 529.508 216.149 521.828 212.224C514.318 208.299 508.345 202.496 503.908 194.816C499.641 186.965 497.508 177.493 497.508 166.4V90.624H517.732V164.864C517.732 177.323 520.804 186.368 526.948 192C533.262 197.632 541.71 200.448 552.292 200.448C564.238 200.448 574.052 196.523 581.732 188.672C589.412 180.821 593.252 169.131 593.252 153.6V90.624H613.476V215.808H593.764V194.56H590.18C587.449 200.533 582.756 205.995 576.1 210.944C569.444 215.723 559.716 218.112 546.916 218.112Z" fill="#002866"/>
<path d="M361.289 215.808V36.6084H381.513V142.08H385.097L442.441 90.6244H470.601L401.225 151.552L472.649 215.808H444.745L385.097 161.28H381.513V215.808H361.289Z" fill="#002866"/>
</svg>
