<?xml version="1.0" encoding="utf-8"?>
<!-- Generator: Adobe Illustrator 17.0.0, SVG Export Plug-In . SVG Version: 6.00 Build 0)  -->
<!DOCTYPE svg PUBLIC "-//W3C//DTD SVG 1.1//EN" "http://www.w3.org/Graphics/SVG/1.1/DTD/svg11.dtd">
<svg version="1.1" id="Layer_1" xmlns="http://www.w3.org/2000/svg" xmlns:xlink="http://www.w3.org/1999/xlink" x="0px" y="0px"
	 width="197.291px" height="169.951px" viewBox="0 0 197.291 169.951" enable-background="new 0 0 197.291 169.951"
	 xml:space="preserve">
<polygon fill="#CCCCCC" points="78.219,168.951 2.311,168.951 18.992,149.462 2.311,131.694 78.219,131.694 "/>
<path d="M79.219,169.951H0.139l17.511-20.458L0,130.694h79.219V169.951z M4.483,167.951h72.735v-35.257H4.621l15.714,16.737
	L4.483,167.951z"/>
<polygon fill="#CCCCCC" points="119.073,132.694 194.98,132.694 178.3,152.184 194.98,169.951 119.073,169.951 "/>
<path d="M197.291,169.951h-79.218v-39.257h79.079l-17.51,20.459L197.291,169.951z M120.073,167.951h72.597l-15.713-16.737
	l15.851-18.521h-72.734V167.951z"/>
<g>
	<path fill="#1D7193" d="M165.231,69.785c0,37.438-30.35,67.789-67.787,67.789s-67.786-30.35-67.786-67.789
		C29.658,32.35,60.007,2,97.444,2S165.231,32.35,165.231,69.785z"/>
	<path d="M97.444,139.573c-38.48,0-69.786-31.307-69.786-69.789C27.658,31.305,58.964,0,97.444,0s69.787,31.305,69.787,69.785
		C167.231,108.266,135.925,139.573,97.444,139.573z M97.444,4C61.17,4,31.658,33.511,31.658,69.785
		c0,36.276,29.512,65.789,65.786,65.789c36.275,0,65.787-29.513,65.787-65.789C163.231,33.511,133.72,4,97.444,4z"/>
</g>
<path fill="#0C5A73" d="M32.158,65.296c0,37.438,18.689,65.289,64.786,65.289c46.098,0,65.787-27.85,65.787-65.289
	c0-0.176-9.689-13.265-64.189-13.265S32.158,65.119,32.158,65.296z"/>
<g>
	<polygon fill="#828282" points="78.209,168.451 38.799,160.1 78.14,159.6 	"/>
	<polygon fill="#828282" points="119.083,168.451 155.993,160.1 119.153,159.6 	"/>
</g>
<path d="M79.219,169.688l-49.424-10.474l49.337-0.627L79.219,169.688z M47.801,160.985l29.398,6.23l-0.052-6.603L47.801,160.985z"/>
<path d="M118.073,169.705l0.088-11.119l46.277,0.628L118.073,169.705z M120.146,160.613l-0.053,6.584l27.456-6.212L120.146,160.613z
	"/>
<rect x="27.799" y="105.47" fill="#EFEFEF" width="139.292" height="53.828"/>
<g>
	<path fill="#FFFFFF" d="M43.526,144.543c0-0.308,0.116-0.601,0.347-0.878c0.231-0.277,0.469-0.415,0.715-0.415
		c0.186,0,0.463,0.2,0.832,0.6l1.248,1.34c0.463,0.493,1.208,0.94,2.24,1.339c1.032,0.401,2.225,0.601,3.58,0.601
		c2.371,0,4.188-0.585,5.451-1.756c1.263-1.17,1.894-2.894,1.894-5.173c0-1.725-0.385-3.157-1.154-4.297
		c-0.77-1.139-1.725-1.955-2.864-2.448c-1.14-0.493-2.378-1.001-3.719-1.525c-1.34-0.523-2.58-1.039-3.719-1.547
		c-1.14-0.509-2.094-1.347-2.864-2.518c-0.771-1.17-1.154-2.649-1.154-4.436c0-1.601,0.292-2.964,0.877-4.088
		c0.586-1.124,1.37-1.97,2.357-2.54c0.984-0.57,1.978-0.971,2.979-1.202c1-0.231,2.07-0.346,3.211-0.346
		c1.848,0,3.563,0.27,5.15,0.808c1.586,0.539,2.379,1.148,2.379,1.825c0,0.277-0.108,0.57-0.324,0.878
		c-0.215,0.308-0.461,0.462-0.738,0.462c-0.154,0-0.492-0.146-1.016-0.439c-0.523-0.292-1.271-0.585-2.242-0.878
		c-0.969-0.292-2.055-0.438-3.255-0.438c-2.003,0-3.681,0.438-5.035,1.316c-1.355,0.878-2.033,2.364-2.033,4.458
		c0,1.263,0.284,2.318,0.854,3.164c0.569,0.848,1.309,1.502,2.218,1.964c0.907,0.462,1.908,0.877,3.002,1.247
		c1.093,0.369,2.194,0.785,3.304,1.247c1.107,0.462,2.117,1.032,3.025,1.709c0.908,0.678,1.646,1.64,2.217,2.887
		c0.57,1.247,0.856,2.749,0.856,4.504c0,3.142-0.856,5.49-2.564,7.045c-1.71,1.555-3.996,2.333-6.861,2.333
		c-2.648,0-4.843-0.569-6.582-1.709C44.396,146.5,43.526,145.467,43.526,144.543z"/>
	<path fill="#FFFFFF" d="M65.439,140.802v-5.497c0-2.279,0.831-4.234,2.493-5.867c1.663-1.631,3.666-2.448,6.006-2.448
		c2.267,0,4.227,0.801,5.881,2.403c1.654,1.601,2.48,3.587,2.48,5.959c0,0.831-0.101,1.5-0.299,2.009
		c-0.199,0.509-0.514,0.871-0.944,1.086c-0.431,0.216-0.821,0.347-1.175,0.392c-0.354,0.047-0.852,0.07-1.496,0.07H67.703v1.94
		c0,1.941,0.692,3.496,2.077,4.665c1.387,1.171,3.173,1.756,5.359,1.756c1.106,0,2.043-0.154,2.812-0.462
		c0.768-0.308,1.352-0.616,1.751-0.924c0.4-0.308,0.708-0.462,0.923-0.462c0.271,0,0.514,0.123,0.724,0.37
		c0.21,0.247,0.317,0.493,0.317,0.739c0,0.585-0.636,1.201-1.908,1.848c-1.271,0.647-2.842,0.97-4.711,0.97
		c-2.834,0-5.143-0.785-6.93-2.356C66.332,145.421,65.439,143.358,65.439,140.802z M67.703,137.014h9.839
		c1.047,0,1.74-0.108,2.078-0.324c0.34-0.215,0.51-0.661,0.51-1.339c0-1.632-0.586-3.096-1.757-4.389
		c-1.171-1.294-2.648-1.94-4.435-1.94c-1.725,0-3.195,0.601-4.411,1.801c-1.217,1.202-1.824,2.634-1.824,4.296V137.014z"/>
	<path fill="#FFFFFF" d="M84.579,143.251c0-2.31,0.916-3.919,2.749-4.828c1.831-0.908,4.505-1.363,8.015-1.363h2.496v-1.201
		c0-1.848-0.486-3.442-1.457-4.781c-0.97-1.34-2.424-2.01-4.364-2.01c-1.172,0-2.265,0.216-3.28,0.646
		c-1.016,0.432-1.541,0.646-1.57,0.646c-0.309,0-0.555-0.138-0.739-0.415c-0.185-0.277-0.276-0.554-0.276-0.832
		c0-0.523,0.639-1.008,1.916-1.455c1.277-0.446,2.625-0.67,4.042-0.67c2.741,0,4.759,0.839,6.052,2.518
		c1.293,1.679,1.94,3.796,1.94,6.352v12.195c0,0.278-0.108,0.516-0.323,0.716c-0.217,0.201-0.479,0.3-0.786,0.3
		c-0.308,0-0.57-0.099-0.785-0.3c-0.216-0.2-0.323-0.438-0.323-0.716v-2.218c-2.032,2.341-4.342,3.511-6.93,3.511
		c-1.879,0-3.41-0.515-4.597-1.547C85.172,146.769,84.579,145.252,84.579,143.251z M86.843,143.158c0,1.386,0.408,2.425,1.225,3.118
		c0.815,0.693,1.886,1.04,3.21,1.04c1.571,0,3.058-0.562,4.458-1.686c1.4-1.124,2.104-2.225,2.104-3.303v-3.418h-2.266
		c-1.324,0-2.433,0.046-3.325,0.139c-0.894,0.093-1.786,0.27-2.679,0.531c-0.894,0.262-1.571,0.693-2.033,1.294
		C87.075,141.471,86.843,142.233,86.843,143.158z"/>
	<path fill="#FFFFFF" d="M107.366,138.769V125.88c0-3.634,0.979-6.305,2.934-8.015c1.957-1.709,4.521-2.564,7.692-2.564
		c3.264,0,5.921,0.801,7.968,2.403c2.049,1.601,3.072,3.757,3.072,6.467c0,1.109-0.238,1.864-0.715,2.264
		c-0.478,0.4-1.241,0.6-2.287,0.6c-1.971,0-2.973-0.63-3.004-1.893c-0.092-1.355-0.477-2.456-1.153-3.303
		c-0.679-0.847-1.895-1.27-3.649-1.27c-3.234,0-4.852,1.771-4.852,5.312v12.889c0,3.542,1.602,5.312,4.805,5.312
		c1.539,0,2.732-0.446,3.58-1.34c0.847-0.893,1.27-2.217,1.27-3.973v-2.726h-3.74c-0.586,0-1.041-0.23-1.363-0.692
		c-0.323-0.462-0.484-1.017-0.484-1.663c0-0.616,0.168-1.163,0.507-1.64c0.339-0.477,0.786-0.716,1.341-0.716h7.852
		c0.586,0,1.048,0.193,1.387,0.578c0.338,0.385,0.508,0.839,0.508,1.363v5.497c0,3.665-0.985,6.345-2.957,8.038
		c-1.971,1.694-4.604,2.541-7.898,2.541s-5.92-0.847-7.877-2.541C108.345,145.114,107.366,142.435,107.366,138.769z"/>
	<path fill="#FFFFFF" d="M132.79,147.455v-30.027c0-0.616,0.293-1.078,0.878-1.386c0.585-0.307,1.294-0.462,2.125-0.462
		c0.832,0,1.54,0.155,2.124,0.462c0.586,0.309,0.879,0.771,0.879,1.386v26.654h11.271c0.555,0,0.993,0.262,1.316,0.785
		c0.324,0.524,0.486,1.14,0.486,1.848c0,0.71-0.162,1.325-0.486,1.848c-0.323,0.524-0.762,0.785-1.316,0.785h-14.643
		c-0.708,0-1.324-0.168-1.848-0.508C133.052,148.501,132.79,148.04,132.79,147.455z"/>
</g>
<path d="M168.591,160.798H26.299V103.97h142.292V160.798z M29.299,157.798h136.292V106.97H29.299V157.798z"/>
<g>
	<path fill="#0C5A73" d="M43.526,143.236c0-0.308,0.116-0.601,0.347-0.878c0.231-0.277,0.469-0.415,0.715-0.415
		c0.186,0,0.463,0.2,0.832,0.6l1.248,1.34c0.463,0.493,1.208,0.94,2.24,1.339c1.032,0.401,2.225,0.601,3.58,0.601
		c2.371,0,4.188-0.585,5.451-1.756c1.263-1.169,1.894-2.894,1.894-5.173c0-1.725-0.385-3.157-1.154-4.297
		c-0.77-1.139-1.725-1.955-2.864-2.448c-1.14-0.493-2.378-1.001-3.719-1.525c-1.34-0.523-2.58-1.039-3.719-1.547
		c-1.14-0.509-2.094-1.347-2.864-2.518c-0.771-1.17-1.154-2.649-1.154-4.436c0-1.601,0.292-2.964,0.877-4.088
		c0.586-1.124,1.37-1.97,2.357-2.541c0.984-0.57,1.978-0.971,2.979-1.202c1-0.231,2.07-0.346,3.211-0.346
		c1.848,0,3.563,0.27,5.15,0.808c1.586,0.539,2.379,1.148,2.379,1.825c0,0.277-0.108,0.57-0.324,0.877
		c-0.215,0.308-0.461,0.462-0.738,0.462c-0.154,0-0.492-0.146-1.016-0.439c-0.523-0.292-1.271-0.584-2.242-0.878
		c-0.969-0.292-2.055-0.438-3.255-0.438c-2.003,0-3.681,0.438-5.035,1.316c-1.355,0.878-2.033,2.364-2.033,4.458
		c0,1.263,0.284,2.318,0.854,3.164c0.569,0.848,1.309,1.502,2.218,1.964c0.907,0.462,1.908,0.878,3.002,1.248
		c1.093,0.369,2.194,0.785,3.304,1.247c1.107,0.462,2.117,1.032,3.025,1.709c0.908,0.678,1.646,1.64,2.217,2.887
		c0.57,1.247,0.856,2.749,0.856,4.504c0,3.142-0.856,5.49-2.564,7.045c-1.71,1.555-3.996,2.333-6.861,2.333
		c-2.648,0-4.843-0.569-6.582-1.709C44.396,145.192,43.526,144.16,43.526,143.236z"/>
	<path fill="#0C5A73" d="M65.439,139.495v-5.497c0-2.279,0.831-4.234,2.493-5.867c1.663-1.631,3.666-2.448,6.006-2.448
		c2.267,0,4.227,0.801,5.881,2.403c1.654,1.601,2.48,3.587,2.48,5.959c0,0.831-0.101,1.5-0.299,2.009
		c-0.199,0.509-0.514,0.871-0.944,1.086c-0.431,0.216-0.821,0.347-1.175,0.392c-0.354,0.047-0.852,0.07-1.496,0.07H67.703v1.94
		c0,1.941,0.692,3.496,2.077,4.665c1.387,1.171,3.173,1.756,5.359,1.756c1.106,0,2.043-0.154,2.812-0.462
		c0.768-0.308,1.352-0.616,1.751-0.924c0.4-0.308,0.708-0.462,0.923-0.462c0.271,0,0.514,0.123,0.724,0.37
		c0.21,0.247,0.317,0.493,0.317,0.739c0,0.585-0.636,1.201-1.908,1.848c-1.271,0.647-2.842,0.97-4.711,0.97
		c-2.834,0-5.143-0.785-6.93-2.356C66.332,144.114,65.439,142.051,65.439,139.495z M67.703,135.707h9.839
		c1.047,0,1.74-0.108,2.078-0.324c0.34-0.215,0.51-0.661,0.51-1.339c0-1.632-0.586-3.096-1.757-4.389
		c-1.171-1.293-2.648-1.94-4.435-1.94c-1.725,0-3.195,0.601-4.411,1.801c-1.217,1.202-1.824,2.634-1.824,4.296V135.707z"/>
	<path fill="#0C5A73" d="M84.579,141.943c0-2.31,0.916-3.919,2.749-4.828c1.831-0.908,4.505-1.363,8.015-1.363h2.496v-1.201
		c0-1.848-0.486-3.442-1.457-4.781c-0.97-1.34-2.424-2.01-4.364-2.01c-1.172,0-2.265,0.216-3.28,0.647
		c-1.016,0.432-1.541,0.646-1.57,0.646c-0.309,0-0.555-0.138-0.739-0.416c-0.185-0.277-0.276-0.554-0.276-0.832
		c0-0.523,0.639-1.008,1.916-1.455c1.277-0.446,2.625-0.67,4.042-0.67c2.741,0,4.759,0.839,6.052,2.518
		c1.293,1.679,1.94,3.796,1.94,6.352v12.195c0,0.278-0.108,0.516-0.323,0.716c-0.217,0.201-0.479,0.3-0.786,0.3
		c-0.308,0-0.57-0.099-0.785-0.3c-0.216-0.2-0.323-0.438-0.323-0.716v-2.218c-2.032,2.341-4.342,3.511-6.93,3.511
		c-1.879,0-3.41-0.515-4.597-1.547C85.172,145.461,84.579,143.945,84.579,141.943z M86.843,141.851c0,1.386,0.408,2.425,1.225,3.118
		c0.815,0.693,1.886,1.04,3.21,1.04c1.571,0,3.058-0.562,4.458-1.686c1.4-1.124,2.104-2.225,2.104-3.303v-3.419h-2.266
		c-1.324,0-2.433,0.046-3.325,0.139c-0.894,0.093-1.786,0.27-2.679,0.531c-0.894,0.262-1.571,0.693-2.033,1.294
		C87.075,140.164,86.843,140.926,86.843,141.851z"/>
	<path fill="#0C5A73" d="M107.366,137.462v-12.889c0-3.634,0.979-6.305,2.934-8.015c1.957-1.709,4.521-2.564,7.692-2.564
		c3.264,0,5.921,0.801,7.968,2.403c2.049,1.602,3.072,3.757,3.072,6.467c0,1.109-0.238,1.864-0.715,2.264
		c-0.478,0.4-1.241,0.6-2.287,0.6c-1.971,0-2.973-0.63-3.004-1.894c-0.092-1.355-0.477-2.456-1.153-3.303
		c-0.679-0.847-1.895-1.27-3.649-1.27c-3.234,0-4.852,1.771-4.852,5.312v12.889c0,3.542,1.602,5.312,4.805,5.312
		c1.539,0,2.732-0.446,3.58-1.34c0.847-0.893,1.27-2.217,1.27-3.973v-2.726h-3.74c-0.586,0-1.041-0.23-1.363-0.692
		c-0.323-0.462-0.484-1.017-0.484-1.663c0-0.616,0.168-1.163,0.507-1.64c0.339-0.477,0.786-0.716,1.341-0.716h7.852
		c0.586,0,1.048,0.193,1.387,0.578c0.338,0.385,0.508,0.839,0.508,1.363v5.497c0,3.665-0.985,6.345-2.957,8.038
		c-1.971,1.694-4.604,2.54-7.898,2.54s-5.92-0.847-7.877-2.54C108.345,143.807,107.366,141.127,107.366,137.462z"/>
	<path fill="#0C5A73" d="M132.79,146.147V116.12c0-0.616,0.293-1.078,0.878-1.386c0.585-0.307,1.294-0.462,2.125-0.462
		c0.832,0,1.54,0.155,2.124,0.462c0.586,0.309,0.879,0.771,0.879,1.386v26.654h11.271c0.555,0,0.993,0.262,1.316,0.785
		c0.324,0.524,0.486,1.14,0.486,1.848c0,0.71-0.162,1.325-0.486,1.848c-0.323,0.524-0.762,0.785-1.316,0.785h-14.643
		c-0.708,0-1.324-0.169-1.848-0.508C133.052,147.194,132.79,146.732,132.79,146.147z"/>
</g>
<g>
	<path fill="#B1742A" d="M106.074,100.554l-3-25.131c0,0-0.511-1.182-2.284-1.182c-1.773,0-1.746,1.182-1.746,1.182l2.5,28.522
		h13.614l-3.068-2.322L106.074,100.554z"/>
	<path fill="#E0E0E0" d="M114.942,57.75c0,1.951-1.579,3.529-3.528,3.529h-2.171c-1.949,0-3.529-1.578-3.529-3.529V23.625
		c0-1.948,1.58-3.528,3.529-3.528h2.171c1.949,0,3.528,1.58,3.528,3.528V57.75z"/>
	<path fill="#FFFFFF" d="M112.289,57.75c0,1.951-1.579,3.529-3.527,3.529h-2.171c-1.949,0-3.529-1.578-3.529-3.529V23.625
		c0-1.948,1.58-3.528,3.529-3.528h2.171c1.948,0,3.527,1.58,3.527,3.528V57.75z"/>
	<path fill="#E0E0E0" d="M121.015,21.777c0,5.562-4.506,10.072-10.066,10.072c-5.564,0-10.072-4.509-10.072-10.072
		c0-5.564,4.508-10.07,10.072-10.07C116.509,11.707,121.015,16.213,121.015,21.777z"/>
	<path fill="#FFFFFF" d="M51.459,81.566h45.722c0,0,21.76-9.262,21.76-23.376L97.622,37.463L51.459,81.566z"/>
	<path fill="#E0E0E0" d="M51.79,81.566h45.721c0,0,21.168-9.262,21.168-23.376c0,0-3.274,6.175-14.811,14.775
		C92.333,81.566,51.79,81.566,51.79,81.566z"/>
	<path fill="#FFFFFF" d="M119.221,21.777c0,5.562-4.507,10.072-10.068,10.072c-5.565,0-10.072-4.509-10.072-10.072
		c0-5.564,4.507-10.07,10.072-10.07C114.714,11.707,119.221,16.213,119.221,21.777z"/>
	<polygon fill="#B2B3B3" points="85.8,46.066 56.178,72.216 56.178,101.39 85.8,74.751 	"/>
	<polygon fill="#CCCCCC" points="85.8,45.098 56.178,71.248 56.178,80.697 85.8,54.059 	"/>
	<polygon fill="#090D11" points="66.709,67.841 44.068,67.841 56.024,78.133 	"/>
	<polygon fill="#565656" points="66.379,67.841 43.736,67.841 61.61,72.216 	"/>
	<polygon fill="#090D11" points="62.389,87.004 39.014,87.004 48.535,77.484 73.268,77.484 	"/>
	<path fill="#FCB320" d="M93.862,100.554l2-25.131c0,0-0.51-1.182-2.284-1.182c-1.773,0-1.745,1.182-1.745,1.182l-2.5,28.522h13.613
		l-3.068-2.322L93.862,100.554z"/>
	<path d="M115.772,16.683c0,0.649-0.525,1.174-1.175,1.174c-0.647,0-2.298-1.174-2.298-1.174s1.65-1.171,2.298-1.171
		C115.247,15.511,115.772,16.037,115.772,16.683z"/>
	<polygon fill="#FCB320" points="120.598,18.907 130.624,20.969 133.282,20.68 135.703,23.171 131.305,23.171 128.718,24.65 
		120.663,24.65 115.683,22.414 	"/>
	<polygon fill="#B1742A" points="134.261,23.171 131.674,24.65 120.663,24.65 115.683,22.416 	"/>
	<path fill="#E0E0E0" d="M103.062,42.751l1.805,1.804V30.949c0,0-0.297-0.104-0.902-0.375c-0.605-0.271-0.902-0.775-0.902-0.775
		V42.751z"/>
</g>
</svg>
