<?xml version="1.0" encoding="UTF-8" standalone="no"?>
<svg
   width="400pt"
   height="75pt"
   viewBox="0 0 533.33333 100"
   version="1.1"
   id="svg4"
   sodipodi:docname="logo_no_reduced_letter_spacing.svg"
   inkscape:version="1.3.2 (091e20ef0f, 2023-11-25)"
   inkscape:export-filename="logo_no_reduced_letter_spacing.png"
   inkscape:export-xdpi="96"
   inkscape:export-ydpi="96"
   xmlns:inkscape="http://www.inkscape.org/namespaces/inkscape"
   xmlns:sodipodi="http://sodipodi.sourceforge.net/DTD/sodipodi-0.dtd"
   xmlns="http://www.w3.org/2000/svg"
   xmlns:svg="http://www.w3.org/2000/svg">
  <defs
     id="defs4" />
  <sodipodi:namedview
     id="namedview4"
     pagecolor="#ffffff"
     bordercolor="#000000"
     borderopacity="0.25"
     inkscape:showpageshadow="2"
     inkscape:pageopacity="0.0"
     inkscape:pagecheckerboard="0"
     inkscape:deskcolor="#d1d1d1"
     inkscape:zoom="4.1829812"
     inkscape:cx="325.12697"
     inkscape:cy="89.768513"
     inkscape:window-width="1920"
     inkscape:window-height="1011"
     inkscape:window-x="0"
     inkscape:window-y="0"
     inkscape:window-maximized="1"
     inkscape:current-layer="svg4"
     inkscape:document-units="pt" />
  <g
     id="g1">
    <polygon
       points="0,0 65,0 58,8.5 65,17 29.8,17 29.7,17.5 25.9,27.8 15,26 "
       fill="#009900"
       id="polygon1"
       transform="rotate(180,50,46.650635)"
       style="fill:#008443;fill-opacity:1" />
    <polygon
       points="0,0 65,0 58,8.5 65,17 29.8,17 29.7,17.5 25.9,27.8 15,26 "
       fill="#009900"
       id="polygon2"
       style="fill:#008443;fill-opacity:1"
       transform="rotate(-60,80.801271,46.650635)" />
    <polygon
       points="58,8.5 65,17 29.8,17 29.7,17.5 25.9,27.8 15,26 0,0 65,0 "
       fill="#009900"
       id="polygon3"
       transform="rotate(60,19.198729,46.650635)"
       style="fill:#008443;fill-opacity:1" />
  </g>
  <text
     xml:space="preserve"
     style="font-style:normal;font-variant:normal;font-weight:normal;font-stretch:normal;font-size:61.3333px;line-height:1.25;font-family:Ruda;-inkscape-font-specification:'Ruda, @wght=750';font-variant-ligatures:normal;font-variant-caps:normal;font-variant-numeric:normal;font-variant-east-asian:normal;font-variation-settings:'wght' 750;display:none;fill:#008443;fill-opacity:1;stroke:none"
     x="111.82133"
     y="76.394646"
     id="text1"><tspan
       sodipodi:role="line"
       id="tspan1"
       x="111.82133"
       y="76.394646">postmarketOS</tspan></text>
  <g
     id="g3">
    <path
       d="M 116.66666,86.575974 V 40.453331 h 4.968 l 0.91999,3.679998 h 0.30667 c 0.85867,-0.613333 1.84,-1.24711 2.944,-1.901332 1.104,-0.695111 2.33067,-1.287999 3.68,-1.778666 1.39022,-0.531555 2.88266,-0.797333 4.47733,-0.797333 2.28977,0 4.31377,0.633777 6.072,1.901332 1.75822,1.226666 3.128,3.189332 4.10933,5.887997 0.98133,2.657777 1.472,6.112886 1.472,10.365328 0,3.966221 -0.42933,7.216886 -1.288,9.751995 -0.81778,2.494221 -1.92178,4.456887 -3.312,5.887997 -1.34933,1.390221 -2.88267,2.371554 -4.6,2.943999 -1.67644,0.531555 -3.35288,0.797333 -5.02933,0.797333 -0.94045,0 -1.92178,-0.04089 -2.944,-0.122667 -1.02222,-0.08178 -1.92177,-0.184 -2.69866,-0.306666 -0.736,-0.08178 -1.20622,-0.143111 -1.41067,-0.184 v 9.997328 z m 14.96532,-15.762659 c 0.736,0 1.39022,-0.06133 1.96267,-0.184 0.61333,-0.122667 1.14489,-0.347555 1.59467,-0.674666 0.49066,-0.368 0.91999,-0.981333 1.28799,-1.839999 0.368,-0.858666 0.65422,-2.146665 0.85867,-3.863998 0.24533,-1.717333 0.368,-4.047998 0.368,-6.991996 0,-2.16711 -0.0613,-3.904887 -0.184,-5.213331 -0.0818,-1.349333 -0.22489,-2.391999 -0.42933,-3.127998 -0.20445,-0.776889 -0.47023,-1.328889 -0.79734,-1.656 -0.24533,-0.327111 -0.59289,-0.592888 -1.04266,-0.797332 -0.44978,-0.204445 -1.14489,-0.306667 -2.08533,-0.306667 -1.18578,0 -2.43289,0.204444 -3.74134,0.613333 -1.26755,0.368 -2.392,0.797333 -3.37333,1.287999 -0.94044,0.490667 -1.51288,0.838222 -1.71733,1.042667 v 20.669322 c 0.368,0.08178 1.26756,0.286222 2.69867,0.613333 1.43111,0.286222 2.96444,0.429333 4.59999,0.429333 z m 35.81864,6.378664 c -3.72089,0 -6.66489,-0.756444 -8.832,-2.269333 -2.16711,-1.553777 -3.72088,-3.720887 -4.66133,-6.50133 -0.89955,-2.821331 -1.34933,-6.153774 -1.34933,-9.997328 0,-3.843553 0.44978,-7.155552 1.34933,-9.935995 0.94045,-2.821331 2.49422,-4.988441 4.66133,-6.501329 2.16711,-1.553777 5.11111,-2.330666 8.832,-2.330666 3.76177,0 6.70577,0.776889 8.83199,2.330666 2.16711,1.512888 3.70045,3.679998 4.6,6.501329 0.89955,2.780443 1.34933,6.092442 1.34933,9.935995 0,3.843554 -0.44978,7.175997 -1.34933,9.997328 -0.89955,2.780443 -2.43289,4.947553 -4.6,6.50133 -2.12622,1.512889 -5.07022,2.269333 -8.83199,2.269333 z m 0,-6.071997 c 1.34933,0 2.45333,-0.163556 3.312,-0.490667 0.89955,-0.367999 1.61511,-1.001777 2.14666,-1.901332 0.57245,-0.899555 0.96089,-2.187555 1.16534,-3.863998 0.20444,-1.676443 0.30666,-3.823109 0.30666,-6.439997 0,-2.616887 -0.12267,-4.763553 -0.368,-6.439996 -0.20444,-1.676444 -0.57244,-2.964443 -1.104,-3.863998 -0.53155,-0.899555 -1.24711,-1.512888 -2.14666,-1.839999 -0.85867,-0.327111 -1.96267,-0.490667 -3.312,-0.490667 -1.34933,0 -2.47378,0.163556 -3.37333,0.490667 -0.85867,0.327111 -1.57422,0.940444 -2.14667,1.839999 -0.53155,0.899555 -0.92,2.187554 -1.16533,3.863998 -0.20445,1.676443 -0.30667,3.823109 -0.30667,6.439996 0,2.616888 0.10222,4.763554 0.30667,6.439997 0.24533,1.676443 0.63378,2.964443 1.16533,3.863998 0.57245,0.899555 1.288,1.533333 2.14667,1.901332 0.89955,0.327111 2.024,0.490667 3.37333,0.490667 z m 34.65332,6.071997 c -1.75822,0 -3.43466,-0.184 -5.02933,-0.552 -1.59467,-0.327111 -3.02578,-0.695111 -4.29333,-1.104 -1.26755,-0.449777 -2.28977,-0.838221 -3.06666,-1.165332 l -1.104,-0.490667 1.90133,-6.194663 1.104,0.490666 c 0.77689,0.286222 1.77866,0.654222 3.00533,1.104 1.22667,0.408889 2.55555,0.776888 3.98666,1.103999 1.472,0.286222 2.86222,0.429333 4.17067,0.429333 0.736,0 1.36978,-0.06133 1.90133,-0.184 0.57245,-0.122667 1.00178,-0.306666 1.288,-0.551999 0.40889,-0.327111 0.736,-0.776889 0.98133,-1.349333 0.24533,-0.613333 0.368,-1.308444 0.368,-2.085332 0,-1.308444 -0.368,-2.310221 -1.104,-3.005332 -0.69511,-0.695111 -1.63555,-1.24711 -2.82133,-1.655999 -1.14489,-0.449777 -2.43289,-0.858666 -3.864,-1.226666 -1.22667,-0.408889 -2.47378,-0.817777 -3.74133,-1.226666 -1.26755,-0.449778 -2.43289,-1.042667 -3.496,-1.778666 -1.02222,-0.776889 -1.86044,-1.778666 -2.51466,-3.005332 -0.61333,-1.226666 -0.92,-2.821332 -0.92,-4.783997 0,-3.066665 1.00178,-5.540442 3.00533,-7.42133 2.00355,-1.921777 5.27466,-2.882665 9.81333,-2.882665 1.63555,0 3.20977,0.122667 4.72266,0.368 1.55378,0.204444 2.92356,0.449777 4.10933,0.735999 1.18578,0.286223 2.08534,0.531556 2.69867,0.736 l -1.16533,6.13333 -1.04267,-0.245333 c -0.65422,-0.163555 -1.53333,-0.347555 -2.63733,-0.552 -1.104,-0.245333 -2.31022,-0.449777 -3.61867,-0.613333 -1.30844,-0.163555 -2.59644,-0.245333 -3.86399,-0.245333 -1.104,0 -1.94222,0.06133 -2.51467,0.184 -0.53155,0.122667 -0.92,0.306667 -1.16533,0.552 -0.24533,0.163555 -0.47022,0.470222 -0.67467,0.919999 -0.16355,0.408889 -0.24533,0.92 -0.24533,1.533333 0,1.226666 0.38844,2.187554 1.16533,2.882665 0.77689,0.654222 1.77866,1.185777 3.00533,1.594666 1.26756,0.408889 2.59645,0.817777 3.98667,1.226666 1.22667,0.368 2.45333,0.776889 3.68,1.226666 1.22667,0.408889 2.35111,1.001777 3.37333,1.778666 1.02222,0.735999 1.84,1.717332 2.45333,2.943998 0.61333,1.226666 0.92,2.800887 0.92,4.722664 0,3.475554 -1.104,6.296886 -3.312,8.463996 -2.16711,2.126221 -5.31555,3.189332 -9.44533,3.189332 z m 31.09597,0 c -2.00356,0 -3.72089,-0.306667 -5.152,-0.92 -1.43111,-0.613333 -2.53511,-1.819554 -3.312,-3.618665 -0.77689,-1.79911 -1.16533,-4.436442 -1.16533,-7.911996 V 48.24266 h -4.10933 v -4.845331 l 4.47733,-0.858666 1.34933,-8.463995 h 6.072 v 8.341329 h 7.23733 v 5.94933 h -7.29867 v 16.682658 c 0,1.717333 0.0613,2.984888 0.184,3.802665 0.16356,0.817777 0.47023,1.328888 0.92,1.533332 0.44978,0.204445 1.104,0.306667 1.96267,0.306667 0.61333,0 1.22667,-0.02044 1.84,-0.06133 0.65422,-0.04089 1.18577,-0.08177 1.59466,-0.122666 l 0.67467,-0.06133 v 6.255997 l -1.53333,0.245333 c -0.98133,0.163556 -2.22844,0.245334 -3.74133,0.245334 z m 13.30934,-0.797333 V 40.453331 h 4.96799 l 0.92,3.618665 h 0.30667 c 0.57245,-0.368 1.30845,-0.797333 2.208,-1.288 0.89955,-0.490666 1.88089,-0.981332 2.944,-1.471999 1.104,-0.490666 2.26933,-0.899555 3.496,-1.226666 1.22666,-0.327111 2.45332,-0.490666 3.67999,-0.490666 1.92178,0 3.51645,0.429333 4.784,1.287999 1.30845,0.817777 2.26934,1.942221 2.88267,3.373332 1.67644,-1.063111 3.53688,-2.105777 5.58133,-3.127999 2.08533,-1.022221 4.33421,-1.533332 6.74666,-1.533332 2.37155,0 4.21155,0.572444 5.52,1.717332 1.34933,1.103999 2.28978,2.657776 2.82133,4.661331 0.53155,1.962666 0.79733,4.252443 0.79733,6.86933 v 23.551988 h -7.78933 V 54.498657 c 0,-1.758221 -0.0409,-3.189332 -0.12266,-4.293331 -0.0818,-1.144889 -0.32711,-2.003555 -0.736,-2.575999 -0.32711,-0.449777 -0.77689,-0.756444 -1.34934,-0.919999 -0.53155,-0.163555 -1.06311,-0.245333 -1.59466,-0.245333 -0.77689,0 -1.59467,0.122666 -2.45333,0.367999 -0.85867,0.204445 -1.69689,0.470222 -2.51467,0.797333 -0.77689,0.327111 -1.49244,0.654222 -2.14667,0.981333 -0.61333,0.327111 -1.104,0.613333 -1.47199,0.858666 0.0409,0.572445 0.0818,1.165333 0.12266,1.778666 0.0409,0.572444 0.0613,1.185777 0.0613,1.839999 v 23.306655 h -7.728 V 54.437324 c 0,-1.962666 -0.0409,-3.45511 -0.12267,-4.477331 -0.0818,-1.022222 -0.32711,-1.819555 -0.736,-2.391999 -0.368,-0.449777 -0.81778,-0.735999 -1.34933,-0.858666 -0.49067,-0.163555 -0.98133,-0.245333 -1.472,-0.245333 -1.02222,0 -2.08533,0.163555 -3.18933,0.490666 -1.06311,0.327111 -2.06489,0.715555 -3.00533,1.165333 -0.94045,0.408889 -1.73778,0.797333 -2.392,1.165332 v 27.10932 z m 65.56533,0.797333 c -1.92178,0 -3.63911,-0.449778 -5.152,-1.349333 -1.51289,-0.899555 -2.71911,-2.207999 -3.61866,-3.925331 -0.89956,-1.758221 -1.34934,-3.863998 -1.34934,-6.31733 0,-2.943999 0.63378,-5.25422 1.90134,-6.930663 1.30844,-1.676444 3.10755,-2.882666 5.39733,-3.618665 2.33066,-0.736 5.07021,-1.104 8.21866,-1.104 h 5.336 c 0,-1.880888 -0.0613,-3.352887 -0.184,-4.415997 -0.12267,-1.063111 -0.368,-1.839999 -0.736,-2.330666 -0.28623,-0.408889 -0.71556,-0.715555 -1.288,-0.919999 -0.57245,-0.204445 -1.43111,-0.306667 -2.576,-0.306667 -1.51289,0 -3.04622,0.143111 -4.6,0.429333 -1.55378,0.245333 -2.98489,0.552 -4.29333,0.92 -1.30845,0.367999 -2.37156,0.69511 -3.18933,0.981333 l -1.22667,0.367999 -1.90133,-5.642663 1.22667,-0.490667 c 0.81777,-0.367999 1.92177,-0.756443 3.31199,-1.165332 1.39023,-0.449778 2.96445,-0.838222 4.72267,-1.165333 1.75822,-0.368 3.61866,-0.552 5.58133,-0.552 3.18933,0 5.72444,0.552 7.60533,1.655999 1.88089,1.063111 3.23022,2.596443 4.048,4.599998 0.81777,2.003555 1.22666,4.375109 1.22666,7.114663 v 23.367988 h -4.90666 l -1.04267,-3.863998 h -0.368 c -0.16355,0.122667 -0.61333,0.429333 -1.34933,0.919999 -0.736,0.490667 -1.656,1.022222 -2.76,1.594666 -1.104,0.572444 -2.35111,1.06311 -3.74133,1.471999 -1.34933,0.449778 -2.78044,0.674667 -4.29333,0.674667 z m 2.024,-6.439997 c 1.26755,0 2.51466,-0.204444 3.74133,-0.613333 1.26755,-0.408889 2.35111,-0.817777 3.25066,-1.226666 0.94045,-0.449777 1.51289,-0.756444 1.71734,-0.92 v -7.911996 c -0.20445,-0.04089 -0.81778,-0.10222 -1.84,-0.183999 -1.02223,-0.122667 -2.33067,-0.184 -3.92533,-0.184 -3.14845,0 -5.11111,0.347555 -5.888,1.042666 -0.368,0.286222 -0.67467,0.817777 -0.92,1.594666 -0.24533,0.776888 -0.368,1.778665 -0.368,3.005331 0,1.880888 0.32711,3.250665 0.98133,4.109332 0.65422,0.858666 1.73778,1.287999 3.25067,1.287999 z m 26.864,5.642664 V 40.453331 h 4.784 l 1.04267,3.741331 h 0.368 l 0.85866,-0.674666 c 0.61333,-0.449777 1.41067,-0.960888 2.392,-1.533332 1.02223,-0.613333 2.10578,-1.144889 3.25067,-1.594666 1.18577,-0.490667 2.31022,-0.736 3.37333,-0.736 1.104,0 1.94222,0.102222 2.51467,0.306667 l 0.85866,0.245333 -0.61333,6.86933 -0.98133,-0.06133 c -0.61333,-0.08178 -1.26756,-0.122666 -1.96267,-0.122666 -1.06311,0 -2.12622,0.143111 -3.18933,0.429333 -1.02222,0.245333 -1.96266,0.572444 -2.82133,0.981333 -0.85867,0.408889 -1.59467,0.797333 -2.208,1.165332 v 26.92532 z m 73.76873,0.858666 c -3.10755,0 -5.84711,-0.613333 -8.21866,-1.839999 -2.37155,-1.226666 -4.21155,-3.209776 -5.52,-5.94933 -1.30844,-2.780443 -1.96266,-6.480886 -1.96266,-11.101328 0,-4.783997 0.69511,-8.525329 2.08533,-11.223994 1.39022,-2.739554 3.25066,-4.681775 5.58133,-5.826664 2.33067,-1.144888 4.968,-1.717332 7.912,-1.717332 2.94399,0 5.43821,0.552 7.48266,1.655999 2.08533,1.103999 3.65955,2.903109 4.72266,5.39733 1.104,2.453333 1.656,5.785776 1.656,9.997329 v 4.599997 h -25.02398 l 3.49599,-1.226666 c -0.0818,2.003555 -0.0204,3.659554 0.184,4.967998 0.20445,1.308443 0.49067,2.330665 0.85867,3.066665 0.368,0.735999 0.75644,1.287999 1.16533,1.655999 0.44978,0.408889 1.02223,0.736 1.71734,0.981333 0.73599,0.204444 1.65599,0.306666 2.75999,0.306666 1.104,0 2.28978,-0.102222 3.55734,-0.306666 1.26755,-0.204445 2.47377,-0.449778 3.61866,-0.736 1.18578,-0.327111 2.208,-0.613333 3.06667,-0.858666 0.89955,-0.286222 1.53333,-0.490666 1.90133,-0.613333 l 1.90133,5.76533 c -0.368,0.163555 -1.18578,0.490666 -2.45333,0.981333 -1.26755,0.490667 -2.80089,0.940444 -4.6,1.349333 -1.79911,0.449777 -3.76177,0.674666 -5.888,0.674666 z m -7.78933,-20.05599 -3.49599,-1.655999 20.66932,-0.368 -3.43467,1.717333 c 0,-2.371555 -0.0818,-4.354665 -0.24533,-5.94933 -0.16355,-1.594666 -0.49066,-2.780443 -0.98133,-3.557332 -0.28623,-0.368 -0.75645,-0.715555 -1.41067,-1.042666 -0.61333,-0.327111 -1.71733,-0.490666 -3.312,-0.490666 -1.75822,0 -3.08711,0.184 -3.98666,0.551999 -0.89955,0.368 -1.57422,0.838222 -2.024,1.410666 -1.26755,1.471999 -1.86044,4.599998 -1.77867,9.383995 z m 40.66395,19.994657 c -2.00355,0 -3.72088,-0.306667 -5.15199,-0.92 -1.43111,-0.613333 -2.53511,-1.819554 -3.312,-3.618665 -0.77689,-1.79911 -1.16533,-4.436442 -1.16533,-7.911996 V 48.24266 h -4.10933 v -4.845331 l 4.47733,-0.858666 1.34933,-8.463995 h 6.072 v 8.341329 h 7.23733 v 5.94933 h -7.29867 v 16.682658 c 0,1.717333 0.0613,2.984888 0.184,3.802665 0.16356,0.817777 0.47023,1.328888 0.92,1.533332 0.44978,0.204445 1.104,0.306667 1.96267,0.306667 0.61333,0 1.22667,-0.02044 1.84,-0.06133 0.65422,-0.04089 1.18577,-0.08177 1.59466,-0.122666 l 0.67467,-0.06133 v 6.255997 l -1.53333,0.245333 c -0.98133,0.163556 -2.22845,0.245334 -3.74134,0.245334 z m 28.82668,0 c -2.33067,0 -4.55911,-0.327111 -6.68533,-0.981333 -2.08533,-0.654222 -3.92533,-1.778666 -5.52,-3.373332 -1.59467,-1.635555 -2.84178,-3.904887 -3.74133,-6.807996 -0.89955,-2.943999 -1.34933,-6.664886 -1.34933,-11.162661 0,-4.538665 0.44978,-8.239107 1.34933,-11.101328 0.89955,-2.903109 2.14666,-5.151997 3.74133,-6.746663 1.59467,-1.635555 3.43467,-2.759998 5.52,-3.373331 2.12622,-0.654222 4.35466,-0.981333 6.68533,-0.981333 2.37155,0 4.6,0.327111 6.68533,0.981333 2.08533,0.613333 3.92533,1.737776 5.51999,3.373331 1.59467,1.594666 2.84178,3.843554 3.74134,6.746663 0.89955,2.862221 1.34933,6.562663 1.34933,11.101328 0,4.497775 -0.44978,8.218662 -1.34933,11.162661 -0.89956,2.903109 -2.14667,5.172441 -3.74134,6.807996 -1.59466,1.594666 -3.43466,2.71911 -5.51999,3.373332 -2.08533,0.654222 -4.31378,0.981333 -6.68533,0.981333 z m 0,-6.86933 c 1.59467,0 2.96444,-0.184 4.10933,-0.552 1.14489,-0.368 2.08533,-1.063111 2.82133,-2.085332 0.77689,-1.063111 1.32889,-2.616888 1.656,-4.661331 0.368,-2.044443 0.552,-4.722664 0.552,-8.034663 0,-3.352887 -0.184,-6.051552 -0.552,-8.095995 -0.32711,-2.044443 -0.85867,-3.577776 -1.59467,-4.599998 -0.736,-1.063111 -1.69689,-1.778666 -2.88266,-2.146666 -1.14489,-0.408889 -2.51466,-0.613333 -4.10933,-0.613333 -1.63555,0 -3.02578,0.204444 -4.17067,0.613333 -1.14489,0.368 -2.08533,1.083555 -2.82133,2.146666 -0.736,1.022222 -1.288,2.555555 -1.656,4.599998 -0.32711,2.044443 -0.49066,4.743108 -0.49066,8.095995 0,3.352887 0.16355,6.051553 0.49066,8.095996 0.368,2.003555 0.92,3.536887 1.656,4.599998 0.77689,1.022221 1.73778,1.717332 2.88267,2.085332 1.14489,0.368 2.51466,0.552 4.10933,0.552 z m 37.16792,6.86933 c -1.84,0 -3.61867,-0.204444 -5.336,-0.613333 -1.67644,-0.368 -3.18933,-0.797333 -4.53866,-1.288 -1.30845,-0.490666 -2.35111,-0.919999 -3.128,-1.287999 l -1.16533,-0.613333 0.30666,-0.92 c 0.24533,-0.654221 0.51111,-1.390221 0.79734,-2.207998 0.28622,-0.817777 0.53155,-1.512888 0.736,-2.085333 l 0.368,-0.919999 1.104,0.490666 c 0.77689,0.327111 1.79911,0.695111 3.06666,1.104 1.30845,0.408889 2.73956,0.776888 4.29333,1.103999 1.55378,0.286222 3.128,0.429333 4.72267,0.429333 0.85867,0 1.53333,-0.06133 2.024,-0.184 0.53155,-0.163555 0.92,-0.327111 1.16533,-0.490666 0.61333,-0.408889 1.08355,-1.001777 1.41066,-1.778666 0.368,-0.776889 0.552,-1.839999 0.552,-3.189332 0,-1.226666 -0.38844,-2.248888 -1.16533,-3.066665 -0.736,-0.858666 -1.71733,-1.61511 -2.944,-2.269332 -1.22667,-0.654222 -2.53511,-1.287999 -3.92533,-1.901332 -1.43111,-0.654222 -2.84177,-1.328888 -4.232,-2.023999 -1.34933,-0.695111 -2.57599,-1.492444 -3.67999,-2.391999 -1.06311,-0.940444 -1.92178,-2.105777 -2.576,-3.495998 -0.61333,-1.390221 -0.92,-3.107554 -0.92,-5.151997 0,-2.207999 0.51111,-4.19111 1.53333,-5.949331 1.06311,-1.79911 2.65778,-3.209776 4.784,-4.231997 2.12622,-1.063111 4.74311,-1.594666 7.85066,-1.594666 1.43111,0 2.82133,0.102222 4.17066,0.306666 1.34933,0.163555 2.59645,0.368 3.74134,0.613333 1.14489,0.204445 2.04444,0.388445 2.69866,0.552 l 0.98133,0.245333 -1.22666,6.31733 -1.104,-0.184 c -0.69511,-0.122667 -1.61511,-0.265778 -2.76,-0.429333 -1.14489,-0.163555 -2.392,-0.306666 -3.74133,-0.429333 -1.34933,-0.122667 -2.65778,-0.184 -3.92533,-0.184 -0.85867,0 -1.55378,0.06133 -2.08533,0.184 -0.49067,0.122667 -0.92,0.286222 -1.288,0.490666 -0.40889,0.245333 -0.79734,0.674667 -1.16534,1.288 -0.32711,0.613333 -0.49066,1.533332 -0.49066,2.759998 0,1.144889 0.34755,2.126222 1.04266,2.943999 0.69511,0.817777 1.61511,1.533332 2.76,2.146665 1.14489,0.572445 2.37155,1.144889 3.68,1.717333 1.34933,0.572444 2.71911,1.206221 4.10933,1.901332 1.39022,0.654222 2.65778,1.471999 3.80267,2.453332 1.18577,0.940444 2.14666,2.126221 2.88266,3.557332 0.736,1.43111 1.104,3.209776 1.104,5.335997 0,2.616887 -0.59289,4.906664 -1.77867,6.86933 -1.18577,1.921777 -2.86222,3.41422 -5.02933,4.477331 -2.16711,1.063111 -4.66133,1.594666 -7.48266,1.594666 z"
       id="text3"
       style="font-size:61.3333px;line-height:1.25;font-family:Ruda;-inkscape-font-specification:'Ruda, @wght=750';font-variation-settings:'wght' 750;fill:#008443"
       aria-label="postmarketOS"
       sodipodi:nodetypes="cccccccsccscccssccccsccscscccsscccccssccsccsccsccssccsscscscccscccssccccccccscccsccccccscscsccccsscccscccccsscsssssccccccccccscsscccccsscccccscsscccsccsccscccscccccsccssccscccccsscsccscscsscsccccccscssccccsscsscccccscssssccccccccsccccscscccsscscssccscccssccssccccscsccccsccssccssssccccccccccscsscccccssscccscccscccsccssssccscccscccsccssscccccscccccscscscsccccsccsccscccssscccssccccsscss" />
    <g
       id="g8"
       style="display:inline"
       transform="translate(8)">
      <path
         d="m 358.04794,76.394646 0.24533,-19.68799 -0.24533,-26.802653 h 7.66666 v 46.490643 z"
         id="path6"
         style="font-size:61.3333px;line-height:1.25;font-family:Ruda;-inkscape-font-specification:'Ruda, @wght=750';font-variation-settings:'wght' 750;display:inline;fill:#008443"
         aria-label="postmarketOS"
         sodipodi:nodetypes="cccccccc" />
      <path
         d="m 381.5,76.394646 -11.90759,-14.759751 4.83781,-5.775648 c 2.66049,4.028841 5.5121,7.648107 16.83637,20.535399 z"
         id="path7"
         style="font-size:61.3333px;line-height:1.25;font-family:Ruda;-inkscape-font-specification:'Ruda, @wght=750';font-variation-settings:'wght' 750;display:inline;fill:#008443"
         aria-label="postmarketOS"
         sodipodi:nodetypes="ccccc"
         inkscape:label="path4" />
      <path
         d="m 365.59194,57.197322 12.87999,-16.743991 h 9.44533 l -22.45393,26.045954 z"
         id="path8"
         style="font-size:61.3333px;line-height:1.25;font-family:Ruda;-inkscape-font-specification:'Ruda, @wght=750';font-variation-settings:'wght' 750;fill:#008443"
         aria-label="postmarketOS"
         sodipodi:nodetypes="ccccc"
         inkscape:label="path4" />
    </g>
  </g>
  <g
     id="g5"
     style="display:none">
    <path
       d="m 406.73132,77.253312 c -3.10755,0 -5.84711,-0.613333 -8.21866,-1.839999 -2.37155,-1.226666 -4.21155,-3.209776 -5.52,-5.94933 C 391.68422,66.68354 391.03,62.983097 391.03,58.362655 c 0,-4.783997 0.69511,-8.525329 2.08533,-11.223994 1.39022,-2.739554 3.25066,-4.681775 5.58133,-5.826664 2.33067,-1.144888 4.968,-1.717332 7.912,-1.717332 2.94399,0 5.43821,0.552 7.48266,1.655999 2.08533,1.103999 3.65955,2.903109 4.72266,5.39733 1.104,2.453333 1.656,5.785776 1.656,9.997329 V 61.24532 H 395.446 l 3.49599,-1.226666 c -0.0818,2.003555 -0.0204,3.659554 0.184,4.967998 0.20445,1.308443 0.49067,2.330665 0.85867,3.066665 0.368,0.735999 0.75644,1.287999 1.16533,1.655999 0.44978,0.408889 1.02223,0.736 1.71734,0.981333 0.73599,0.204444 1.65599,0.306666 2.75999,0.306666 1.104,0 2.28978,-0.102222 3.55734,-0.306666 1.26755,-0.204445 2.47377,-0.449778 3.61866,-0.736 1.18578,-0.327111 2.208,-0.613333 3.06667,-0.858666 0.89955,-0.286222 1.53333,-0.490666 1.90133,-0.613333 l 1.90133,5.76533 c -0.368,0.163555 -1.18578,0.490666 -2.45333,0.981333 -1.26755,0.490667 -2.80089,0.940444 -4.6,1.349333 -1.79911,0.449777 -3.76177,0.674666 -5.888,0.674666 z m -7.78933,-20.05599 -3.49599,-1.655999 20.66932,-0.368 -3.43467,1.717333 c 0,-2.371555 -0.0818,-4.354665 -0.24533,-5.94933 -0.16355,-1.594666 -0.49066,-2.780443 -0.98133,-3.557332 -0.28623,-0.368 -0.75645,-0.715555 -1.41067,-1.042666 -0.61333,-0.327111 -1.71733,-0.490666 -3.312,-0.490666 -1.75822,0 -3.08711,0.184 -3.98666,0.551999 -0.89955,0.368 -1.57422,0.838222 -2.024,1.410666 -1.26755,1.471999 -1.86044,4.599998 -1.77867,9.383995 z m 38.66395,19.994657 c -2.00355,0 -3.72088,-0.306667 -5.15199,-0.92 -1.43111,-0.613333 -2.53511,-1.819554 -3.312,-3.618665 -0.77689,-1.79911 -1.16533,-4.436442 -1.16533,-7.911996 V 48.24266 h -4.10933 v -4.845331 l 4.47733,-0.858666 1.34933,-8.463995 h 6.072 v 8.341329 h 7.23733 v 5.94933 h -7.29867 v 16.682658 c 0,1.717333 0.0613,2.984888 0.184,3.802665 0.16356,0.817777 0.47023,1.328888 0.92,1.533332 0.44978,0.204445 1.104,0.306667 1.96267,0.306667 0.61333,0 1.22667,-0.02044 1.84,-0.06133 0.65422,-0.04089 1.18577,-0.08177 1.59466,-0.122666 l 0.67467,-0.06133 v 6.255997 l -1.53333,0.245333 c -0.98133,0.163556 -2.22845,0.245334 -3.74134,0.245334 z m 28.82668,0 c -2.33067,0 -4.55911,-0.327111 -6.68533,-0.981333 -2.08533,-0.654222 -3.92533,-1.778666 -5.52,-3.373332 -1.59467,-1.635555 -2.84178,-3.904887 -3.74133,-6.807996 -0.89955,-2.943999 -1.34933,-6.664886 -1.34933,-11.162661 0,-4.538665 0.44978,-8.239107 1.34933,-11.101328 0.89955,-2.903109 2.14666,-5.151997 3.74133,-6.746663 1.59467,-1.635555 3.43467,-2.759998 5.52,-3.373331 2.12622,-0.654222 4.35466,-0.981333 6.68533,-0.981333 2.37155,0 4.6,0.327111 6.68533,0.981333 2.08533,0.613333 3.92533,1.737776 5.51999,3.373331 1.59467,1.594666 2.84178,3.843554 3.74134,6.746663 0.89955,2.862221 1.34933,6.562663 1.34933,11.101328 0,4.497775 -0.44978,8.218662 -1.34933,11.162661 -0.89956,2.903109 -2.14667,5.172441 -3.74134,6.807996 -1.59466,1.594666 -3.43466,2.71911 -5.51999,3.373332 -2.08533,0.654222 -4.31378,0.981333 -6.68533,0.981333 z m 0,-6.86933 c 1.59467,0 2.96444,-0.184 4.10933,-0.552 1.14489,-0.368 2.08533,-1.063111 2.82133,-2.085332 0.77689,-1.063111 1.32889,-2.616888 1.656,-4.661331 0.368,-2.044443 0.552,-4.722664 0.552,-8.034663 0,-3.352887 -0.184,-6.051552 -0.552,-8.095995 -0.32711,-2.044443 -0.85867,-3.577776 -1.59467,-4.599998 -0.736,-1.063111 -1.69689,-1.778666 -2.88266,-2.146666 -1.14489,-0.408889 -2.51466,-0.613333 -4.10933,-0.613333 -1.63555,0 -3.02578,0.204444 -4.17067,0.613333 -1.14489,0.368 -2.08533,1.083555 -2.82133,2.146666 -0.736,1.022222 -1.288,2.555555 -1.656,4.599998 -0.32711,2.044443 -0.49066,4.743108 -0.49066,8.095995 0,3.352887 0.16355,6.051553 0.49066,8.095996 0.368,2.003555 0.92,3.536887 1.656,4.599998 0.77689,1.022221 1.73778,1.717332 2.88267,2.085332 1.14489,0.368 2.51466,0.552 4.10933,0.552 z m 35.16792,6.86933 c -1.84,0 -3.61867,-0.204444 -5.336,-0.613333 -1.67644,-0.368 -3.18933,-0.797333 -4.53866,-1.288 -1.30845,-0.490666 -2.35111,-0.919999 -3.128,-1.287999 l -1.16533,-0.613333 0.30666,-0.92 c 0.24533,-0.654221 0.51111,-1.390221 0.79734,-2.207998 0.28622,-0.817777 0.53155,-1.512888 0.736,-2.085333 l 0.368,-0.919999 1.104,0.490666 c 0.77689,0.327111 1.79911,0.695111 3.06666,1.104 1.30845,0.408889 2.73956,0.776888 4.29333,1.103999 1.55378,0.286222 3.128,0.429333 4.72267,0.429333 0.85867,0 1.53333,-0.06133 2.024,-0.184 0.53155,-0.163555 0.92,-0.327111 1.16533,-0.490666 0.61333,-0.408889 1.08355,-1.001777 1.41066,-1.778666 0.368,-0.776889 0.552,-1.839999 0.552,-3.189332 0,-1.226666 -0.38844,-2.248888 -1.16533,-3.066665 -0.736,-0.858666 -1.71733,-1.61511 -2.944,-2.269332 -1.22667,-0.654222 -2.53511,-1.287999 -3.92533,-1.901332 -1.43111,-0.654222 -2.84177,-1.328888 -4.232,-2.023999 -1.34933,-0.695111 -2.57599,-1.492444 -3.67999,-2.391999 -1.06311,-0.940444 -1.92178,-2.105777 -2.576,-3.495998 -0.61333,-1.390221 -0.92,-3.107554 -0.92,-5.151997 0,-2.207999 0.51111,-4.19111 1.53333,-5.949331 1.06311,-1.79911 2.65778,-3.209776 4.784,-4.231997 2.12622,-1.063111 4.74311,-1.594666 7.85066,-1.594666 1.43111,0 2.82133,0.102222 4.17066,0.306666 1.34933,0.163555 2.59645,0.368 3.74134,0.613333 1.14489,0.204445 2.04444,0.388445 2.69866,0.552 l 0.98133,0.245333 -1.22666,6.31733 -1.104,-0.184 c -0.69511,-0.122667 -1.61511,-0.265778 -2.76,-0.429333 -1.14489,-0.163555 -2.392,-0.306666 -3.74133,-0.429333 -1.34933,-0.122667 -2.65778,-0.184 -3.92533,-0.184 -0.85867,0 -1.55378,0.06133 -2.08533,0.184 -0.49067,0.122667 -0.92,0.286222 -1.288,0.490666 -0.40889,0.245333 -0.79734,0.674667 -1.16534,1.288 -0.32711,0.613333 -0.49066,1.533332 -0.49066,2.759998 0,1.144889 0.34755,2.126222 1.04266,2.943999 0.69511,0.817777 1.61511,1.533332 2.76,2.146665 1.14489,0.572445 2.37155,1.144889 3.68,1.717333 1.34933,0.572444 2.71911,1.206221 4.10933,1.901332 1.39022,0.654222 2.65778,1.471999 3.80267,2.453332 1.18577,0.940444 2.14666,2.126221 2.88266,3.557332 0.736,1.43111 1.104,3.209776 1.104,5.335997 0,2.616887 -0.59289,4.906664 -1.77867,6.86933 -1.18577,1.921777 -2.86222,3.41422 -5.02933,4.477331 -2.16711,1.063111 -4.66133,1.594666 -7.48266,1.594666 z"
       id="text2"
       style="font-size:61.3333px;line-height:1.25;font-family:Ruda;-inkscape-font-specification:'Ruda, @wght=750';font-variation-settings:'wght' 750;fill:#008443"
       aria-label="postmarketOS"
       sodipodi:nodetypes="sscscssccscccssccssccccscsccccsccssccssssccccccccccscsscccccssscccscccscccsccssssccscccscccsccssscccccscccccscscscsccccsccsccscccssscccssccccsscss" />
    <path
       d="M 116.66667,86.575974 V 40.453331 h 4.968 l 0.91999,3.679998 h 0.30667 c 0.85867,-0.613333 1.84,-1.24711 2.944,-1.901332 1.104,-0.695111 2.33067,-1.287999 3.68,-1.778666 1.39022,-0.531555 2.88266,-0.797333 4.47733,-0.797333 2.28977,0 4.31377,0.633777 6.072,1.901332 1.75822,1.226666 3.128,3.189332 4.10933,5.887997 0.98133,2.657777 1.472,6.112886 1.472,10.365328 0,3.966221 -0.42933,7.216886 -1.288,9.751995 -0.81778,2.494221 -1.92178,4.456887 -3.312,5.887997 -1.34933,1.390221 -2.88267,2.371554 -4.6,2.943999 -1.67644,0.531555 -3.35288,0.797333 -5.02933,0.797333 -0.94045,0 -1.92178,-0.04089 -2.944,-0.122667 -1.02222,-0.08178 -1.92177,-0.184 -2.69866,-0.306666 -0.736,-0.08178 -1.20622,-0.143111 -1.41067,-0.184 v 9.997328 z m 14.96532,-15.762659 c 0.736,0 1.39022,-0.06133 1.96267,-0.184 0.61333,-0.122667 1.14489,-0.347555 1.59467,-0.674666 0.49066,-0.368 0.91999,-0.981333 1.28799,-1.839999 0.368,-0.858666 0.65422,-2.146665 0.85867,-3.863998 0.24533,-1.717333 0.368,-4.047998 0.368,-6.991996 0,-2.16711 -0.0613,-3.904887 -0.184,-5.213331 -0.0818,-1.349333 -0.22489,-2.391999 -0.42933,-3.127998 -0.20445,-0.776889 -0.47023,-1.328889 -0.79734,-1.656 -0.24533,-0.327111 -0.59289,-0.592888 -1.04266,-0.797332 -0.44978,-0.204445 -1.14489,-0.306667 -2.08533,-0.306667 -1.18578,0 -2.43289,0.204444 -3.74134,0.613333 -1.26755,0.368 -2.392,0.797333 -3.37333,1.287999 -0.94044,0.490667 -1.51288,0.838222 -1.71733,1.042667 v 20.669322 c 0.368,0.08178 1.26756,0.286222 2.69867,0.613333 1.43111,0.286222 2.96444,0.429333 4.59999,0.429333 z m 33.81864,6.378664 c -3.72089,0 -6.66489,-0.756444 -8.832,-2.269333 -2.16711,-1.553777 -3.72088,-3.720887 -4.66133,-6.50133 -0.89955,-2.821331 -1.34933,-6.153774 -1.34933,-9.997328 0,-3.843553 0.44978,-7.155552 1.34933,-9.935995 0.94045,-2.821331 2.49422,-4.988441 4.66133,-6.501329 2.16711,-1.553777 5.11111,-2.330666 8.832,-2.330666 3.76177,0 6.70577,0.776889 8.83199,2.330666 2.16711,1.512888 3.70045,3.679998 4.6,6.501329 0.89955,2.780443 1.34933,6.092442 1.34933,9.935995 0,3.843554 -0.44978,7.175997 -1.34933,9.997328 -0.89955,2.780443 -2.43289,4.947553 -4.6,6.50133 -2.12622,1.512889 -5.07022,2.269333 -8.83199,2.269333 z m 0,-6.071997 c 1.34933,0 2.45333,-0.163556 3.312,-0.490667 0.89955,-0.367999 1.61511,-1.001777 2.14666,-1.901332 0.57245,-0.899555 0.96089,-2.187555 1.16534,-3.863998 0.20444,-1.676443 0.30666,-3.823109 0.30666,-6.439997 0,-2.616887 -0.12267,-4.763553 -0.368,-6.439996 -0.20444,-1.676444 -0.57244,-2.964443 -1.104,-3.863998 -0.53155,-0.899555 -1.24711,-1.512888 -2.14666,-1.839999 -0.85867,-0.327111 -1.96267,-0.490667 -3.312,-0.490667 -1.34933,0 -2.47378,0.163556 -3.37333,0.490667 -0.85867,0.327111 -1.57422,0.940444 -2.14667,1.839999 -0.53155,0.899555 -0.92,2.187554 -1.16533,3.863998 -0.20445,1.676443 -0.30667,3.823109 -0.30667,6.439996 0,2.616888 0.10222,4.763554 0.30667,6.439997 0.24533,1.676443 0.63378,2.964443 1.16533,3.863998 0.57245,0.899555 1.288,1.533333 2.14667,1.901332 0.89955,0.327111 2.024,0.490667 3.37333,0.490667 z m 32.65332,6.071997 c -1.75822,0 -3.43466,-0.184 -5.02933,-0.552 -1.59467,-0.327111 -3.02578,-0.695111 -4.29333,-1.104 -1.26755,-0.449777 -2.28977,-0.838221 -3.06666,-1.165332 l -1.104,-0.490667 1.90133,-6.194663 1.104,0.490666 c 0.77689,0.286222 1.77866,0.654222 3.00533,1.104 1.22667,0.408889 2.55555,0.776888 3.98666,1.103999 1.472,0.286222 2.86222,0.429333 4.17067,0.429333 0.736,0 1.36978,-0.06133 1.90133,-0.184 0.57245,-0.122667 1.00178,-0.306666 1.288,-0.551999 0.40889,-0.327111 0.736,-0.776889 0.98133,-1.349333 0.24533,-0.613333 0.368,-1.308444 0.368,-2.085332 0,-1.308444 -0.368,-2.310221 -1.104,-3.005332 -0.69511,-0.695111 -1.63555,-1.24711 -2.82133,-1.655999 -1.14489,-0.449777 -2.43289,-0.858666 -3.864,-1.226666 -1.22667,-0.408889 -2.47378,-0.817777 -3.74133,-1.226666 -1.26755,-0.449778 -2.43289,-1.042667 -3.496,-1.778666 -1.02222,-0.776889 -1.86044,-1.778666 -2.51466,-3.005332 -0.61333,-1.226666 -0.92,-2.821332 -0.92,-4.783997 0,-3.066665 1.00178,-5.540442 3.00533,-7.42133 2.00355,-1.921777 5.27466,-2.882665 9.81333,-2.882665 1.63555,0 3.20977,0.122667 4.72266,0.368 1.55378,0.204444 2.92356,0.449777 4.10933,0.735999 1.18578,0.286223 2.08534,0.531556 2.69867,0.736 l -1.16533,6.13333 -1.04267,-0.245333 c -0.65422,-0.163555 -1.53333,-0.347555 -2.63733,-0.552 -1.104,-0.245333 -2.31022,-0.449777 -3.61867,-0.613333 -1.30844,-0.163555 -2.59644,-0.245333 -3.86399,-0.245333 -1.104,0 -1.94222,0.06133 -2.51467,0.184 -0.53155,0.122667 -0.92,0.306667 -1.16533,0.552 -0.24533,0.163555 -0.47022,0.470222 -0.67467,0.919999 -0.16355,0.408889 -0.24533,0.92 -0.24533,1.533333 0,1.226666 0.38844,2.187554 1.16533,2.882665 0.77689,0.654222 1.77866,1.185777 3.00533,1.594666 1.26756,0.408889 2.59645,0.817777 3.98667,1.226666 1.22667,0.368 2.45333,0.776889 3.68,1.226666 1.22667,0.408889 2.35111,1.001777 3.37333,1.778666 1.02222,0.735999 1.84,1.717332 2.45333,2.943998 0.61333,1.226666 0.92,2.800887 0.92,4.722664 0,3.475554 -1.104,6.296886 -3.312,8.463996 -2.16711,2.126221 -5.31555,3.189332 -9.44533,3.189332 z m 31.09597,0 c -2.00356,0 -3.72089,-0.306667 -5.152,-0.92 -1.43111,-0.613333 -2.53511,-1.819554 -3.312,-3.618665 -0.77689,-1.79911 -1.16533,-4.436442 -1.16533,-7.911996 V 48.24266 h -4.10933 v -4.845331 l 4.47733,-0.858666 1.34933,-8.463995 h 6.072 v 8.341329 h 7.23733 v 5.94933 h -7.29867 v 16.682658 c 0,1.717333 0.0613,2.984888 0.184,3.802665 0.16356,0.817777 0.47023,1.328888 0.92,1.533332 0.44978,0.204445 1.104,0.306667 1.96267,0.306667 0.61333,0 1.22667,-0.02044 1.84,-0.06133 0.65422,-0.04089 1.18577,-0.08177 1.59466,-0.122666 l 0.67467,-0.06133 v 6.255997 l -1.53333,0.245333 c -0.98133,0.163556 -2.22844,0.245334 -3.74133,0.245334 z m 13.30934,-0.797333 V 40.453331 h 4.96799 l 0.92,3.618665 h 0.30667 c 0.57245,-0.368 1.30845,-0.797333 2.208,-1.288 0.89955,-0.490666 1.88089,-0.981332 2.944,-1.471999 1.104,-0.490666 2.26933,-0.899555 3.496,-1.226666 1.22666,-0.327111 2.45332,-0.490666 3.67999,-0.490666 1.92178,0 3.51645,0.429333 4.784,1.287999 1.30845,0.817777 2.26934,1.942221 2.88267,3.373332 1.67644,-1.063111 3.53688,-2.105777 5.58133,-3.127999 2.08533,-1.022221 4.33421,-1.533332 6.74666,-1.533332 2.37155,0 4.21155,0.572444 5.52,1.717332 1.34933,1.103999 2.28978,2.657776 2.82133,4.661331 0.53155,1.962666 0.79733,4.252443 0.79733,6.86933 V 76.394646 H 282.3759 V 54.498657 c 0,-1.758221 -0.0409,-3.189332 -0.12266,-4.293331 -0.0818,-1.144889 -0.32711,-2.003555 -0.736,-2.575999 -0.32711,-0.449777 -0.77689,-0.756444 -1.34934,-0.919999 -0.53155,-0.163555 -1.06311,-0.245333 -1.59466,-0.245333 -0.77689,0 -1.59467,0.122666 -2.45333,0.367999 -0.85867,0.204445 -1.69689,0.470222 -2.51467,0.797333 -0.77689,0.327111 -1.49244,0.654222 -2.14667,0.981333 -0.61333,0.327111 -1.104,0.613333 -1.47199,0.858666 0.0409,0.572445 0.0818,1.165333 0.12266,1.778666 0.0409,0.572444 0.0613,1.185777 0.0613,1.839999 v 23.306655 h -7.728 V 54.437324 c 0,-1.962666 -0.0409,-3.45511 -0.12267,-4.477331 -0.0818,-1.022222 -0.32711,-1.819555 -0.736,-2.391999 -0.368,-0.449777 -0.81778,-0.735999 -1.34933,-0.858666 -0.49067,-0.163555 -0.98133,-0.245333 -1.472,-0.245333 -1.02222,0 -2.08533,0.163555 -3.18933,0.490666 -1.06311,0.327111 -2.06489,0.715555 -3.00533,1.165333 -0.94045,0.408889 -1.73778,0.797333 -2.392,1.165332 v 27.10932 z m 63.56533,0.797333 c -1.92178,0 -3.63911,-0.449778 -5.152,-1.349333 -1.51289,-0.899555 -2.71911,-2.207999 -3.61866,-3.925331 -0.89956,-1.758221 -1.34934,-3.863998 -1.34934,-6.31733 0,-2.943999 0.63378,-5.25422 1.90134,-6.930663 1.30844,-1.676444 3.10755,-2.882666 5.39733,-3.618665 2.33066,-0.736 5.07021,-1.104 8.21866,-1.104 h 5.336 c 0,-1.880888 -0.0613,-3.352887 -0.184,-4.415997 -0.12267,-1.063111 -0.368,-1.839999 -0.736,-2.330666 -0.28623,-0.408889 -0.71556,-0.715555 -1.288,-0.919999 -0.57245,-0.204445 -1.43111,-0.306667 -2.576,-0.306667 -1.51289,0 -3.04622,0.143111 -4.6,0.429333 -1.55378,0.245333 -2.98489,0.552 -4.29333,0.92 -1.30845,0.367999 -2.37156,0.69511 -3.18933,0.981333 l -1.22667,0.367999 -1.90133,-5.642663 1.22667,-0.490667 c 0.81777,-0.367999 1.92177,-0.756443 3.31199,-1.165332 1.39023,-0.449778 2.96445,-0.838222 4.72267,-1.165333 1.75822,-0.368 3.61866,-0.552 5.58133,-0.552 3.18933,0 5.72444,0.552 7.60533,1.655999 1.88089,1.063111 3.23022,2.596443 4.048,4.599998 0.81777,2.003555 1.22666,4.375109 1.22666,7.114663 v 23.367988 h -4.90666 l -1.04267,-3.863998 h -0.368 c -0.16355,0.122667 -0.61333,0.429333 -1.34933,0.919999 -0.736,0.490667 -1.656,1.022222 -2.76,1.594666 -1.104,0.572444 -2.35111,1.06311 -3.74133,1.471999 -1.34933,0.449778 -2.78044,0.674667 -4.29333,0.674667 z m 2.024,-6.439997 c 1.26755,0 2.51466,-0.204444 3.74133,-0.613333 1.26755,-0.408889 2.35111,-0.817777 3.25066,-1.226666 0.94045,-0.449777 1.51289,-0.756444 1.71734,-0.92 v -7.911996 c -0.20445,-0.04089 -0.81778,-0.10222 -1.84,-0.183999 -1.02223,-0.122667 -2.33067,-0.184 -3.92533,-0.184 -3.14845,0 -5.11111,0.347555 -5.888,1.042666 -0.368,0.286222 -0.67467,0.817777 -0.92,1.594666 -0.24533,0.776888 -0.368,1.778665 -0.368,3.005331 0,1.880888 0.32711,3.250665 0.98133,4.109332 0.65422,0.858666 1.73778,1.287999 3.25067,1.287999 z m 24.864,5.642664 V 40.453331 h 4.784 l 1.04267,3.741331 h 0.368 l 0.85866,-0.674666 c 0.61333,-0.449777 1.41067,-0.960888 2.392,-1.533332 1.02223,-0.613333 2.10578,-1.144889 3.25067,-1.594666 1.18577,-0.490667 2.31022,-0.736 3.37333,-0.736 1.104,0 1.94222,0.102222 2.51467,0.306667 l 0.85866,0.245333 -0.61333,6.86933 -0.98133,-0.06133 c -0.61333,-0.08178 -1.26756,-0.122666 -1.96267,-0.122666 -1.06311,0 -2.12622,0.143111 -3.18933,0.429333 -1.02222,0.245333 -1.96266,0.572444 -2.82133,0.981333 -0.85867,0.408889 -1.59467,0.797333 -2.208,1.165332 v 26.92532 z"
       id="path2"
       style="font-size:61.3333px;line-height:1.25;font-family:Ruda;-inkscape-font-specification:'Ruda, @wght=750';font-variation-settings:'wght' 750;fill:#008443"
       aria-label="postmarketOS"
       sodipodi:nodetypes="cccccccsccscccssccccsccscscccsscccccssccsccsccsccssccsscscscccscccssccccccccscccsccccccscscsccccsscccscccccsscsssssccccccccccscsscccccsscccccscsscccsccsccscccscccccsccssccscccccsscsccscscsscsccccccscssccccsscsscccccscssssccccccccsccccscsccc" />
    <g
       id="g6">
      <path
         d="m 358.04794,76.394646 0.24533,-19.68799 -0.24533,-26.802653 h 7.66666 v 46.490643 z"
         id="path3"
         style="font-size:61.3333px;line-height:1.25;font-family:Ruda;-inkscape-font-specification:'Ruda, @wght=750';font-variation-settings:'wght' 750;display:inline;fill:#008443"
         aria-label="postmarketOS"
         sodipodi:nodetypes="cccccccc" />
      <path
         d="m 381.5,76.394646 -11.90759,-14.759751 4.83781,-5.775648 c 2.66049,4.028841 5.5121,7.648107 16.83637,20.535399 z"
         id="path4"
         style="font-size:61.3333px;line-height:1.25;font-family:Ruda;-inkscape-font-specification:'Ruda, @wght=750';font-variation-settings:'wght' 750;display:inline;fill:#008443"
         aria-label="postmarketOS"
         sodipodi:nodetypes="ccccc"
         inkscape:label="path4" />
      <path
         d="m 365.59194,57.197322 12.87999,-16.743991 h 9.44533 l -22.45393,26.045954 z"
         id="path5"
         style="font-size:61.3333px;line-height:1.25;font-family:Ruda;-inkscape-font-specification:'Ruda, @wght=750';font-variation-settings:'wght' 750;fill:#008443"
         aria-label="postmarketOS"
         sodipodi:nodetypes="ccccc"
         inkscape:label="path4" />
    </g>
  </g>
</svg>
