<svg height="128" viewBox="0 0 33.866667 33.866667" width="128" xmlns="http://www.w3.org/2000/svg">
  <path d="m24.527185 1.5236796c-2.017468.0000403-3.631622 1.3323294-3.59513 3.3791218.01549.8694893.286431 1.5311543.752926 2.0009114v5.2120852l-2.144055-2.084111-3.841109 3.669544v-1.169438l-8.1292198 7.307564h-5.8745767l3.7599772 3.236495h-2.2608439l-3.1951538 3.194637h5.7531372v4.832779l6.9752848-6.270934h4.688603l-.658358 7.510653h4.097941.470772 4.098458l-1.029911-.77928-2.018999-.358635-.880049-7.371127c2.844272-1.660303 5.310191-4.184548 5.198648-6.84661l-1.514119-1.471745v-7.3328853c1.108463-.3352761 2.491815-1.3099169 3.167764-2.2572266l.0031.00155 3.49798-.2201415.374653.080098.93586.2005046v-.0005161l.06511.013953.452686-.5245158.188103.00982-.486275-.9064048-1.117245-.013436-4.033862-.5405354-.0015.00103c-.724308-1.1476554-2.108348-2.5032434-3.700597-2.5032045zm.893485 1.7683675c.232014-.0003521.419613.1874666.419613.4180624 0 .2316483-.187599.418579-.419613.418579-.230931 0-.820105-.418579-.820105-.418579s.58881-.4180624.820105-.4180624zm-5.248775 21.2410809.651123 7.42797-.525032-.397391-2.018998-.358635.506945-6.372738h.717269c.222354-.09387.445842-.193566.668693-.299206z" />
</svg>
