<svg width="612" height="792" viewBox="0 0 612 792" fill="none" xmlns="http://www.w3.org/2000/svg">
<g clip-path="url(#clip0_55_290)">
<path d="M68.333 190.333H541.667L299.667 601L68.333 190.333Z" fill="#9ACA3C"/>
<path d="M53 329.667L171.667 277L167.667 305.667L181.667 296.333L179.667 268.333L209.667 247L220.333 245.667L238.333 224.333L273.667 217L295 206.333H336.333L345.667 221L355 215L374.333 214.333L401 230.333V277L409 278.333L411 287L434.333 287.667L416.333 257.667L533 241.667L561.667 314.333L479 307L499.667 342.333H416.333V375.667L353 440.333L350.5 514L299.667 601L234.5 485L233 429.667L195 348.333L115 347.667L121.667 327L53 329.667Z" fill="black"/>
<path d="M454.333 297L439 266.333L523.667 261.667L539.667 297.667L463 294.333L479.667 331L417 330.333L413.667 297.667L454.333 297Z" fill="#FFF200"/>
<path d="M103.667 317L153 297L153.667 320.333L189 307.667L210.333 323.667L205.667 338.333H133L137 316.333L103.667 317Z" fill="#FFF200"/>
<path d="M319.667 316.333L325.667 349.666C325.667 349.666 333.667 353.666 351 346.333C368.333 339 375 337 375 337C375 337 375.667 341 367.667 346.333C359.667 351.666 344.333 354.333 344.333 354.333C344.333 354.333 351 359.667 361 355.667C371 351.667 374.333 349.667 374.333 349.667C374.333 349.667 374.333 361.667 366.333 363.667C358.333 365.667 338.333 361 328.333 361.667C318.333 362.334 313.667 371 313 377.667C312.333 384.334 317 403.667 317 403.667C317 403.667 306.333 389.667 306.333 379.667C306.333 369.667 308.333 363 308.333 363L291.666 361L284.333 349.667L250.5 351.5C250.5 351.5 250.333 378.334 263 394.333C275.667 410.332 289.667 421.666 289.667 421.666L299.667 571.666L339.667 512.332L340.333 435L307.667 424.333C307.667 424.333 334.334 427 347.667 421C361 415 394.334 385 399.667 375C405 365 398.333 292.333 398.333 292.333C398.333 292.333 376.333 302.333 354.333 309C332.333 315.667 319.667 316.333 319.667 316.333Z" fill="#C4A43F"/>
<path d="M349 230.333C349 230.333 359.667 223.666 373 227.666C386.333 231.666 390.333 234.333 390.333 234.333V278.333C390.333 278.333 384.333 282.333 374.333 287C364.333 291.667 357.667 291.667 357.667 291.667C357.667 291.667 355.667 261.001 353 248.334C350.333 235.667 349 230.333 349 230.333Z" fill="#C4A43F"/>
<path d="M301 215H326.333C326.333 215 337.001 227 339.667 241C342.333 255 343.667 297.667 343.667 297.667C343.667 297.667 335.001 301.001 323.667 302.334C312.333 303.667 308.333 303 308.333 303C308.333 303 305.666 257 303.666 241.667C301.666 226.334 301 215 301 215Z" fill="#C4A43F"/>
<path d="M251 233L273 226.333C273 226.333 288.333 236.333 291 255C293.667 273.667 292.333 302.333 292.333 302.333L261.666 307.666C261.666 307.666 258.999 263.666 255.666 250.999C252.333 238.332 251 233 251 233Z" fill="#C4A43F"/>
<path d="M204.333 269C204.333 269 209 259.667 218.333 259C227.666 258.333 233 260.333 233 260.333L245 307C245 307 243.667 309.667 235 313C226.333 316.333 221 315.667 221 315.667C221 315.667 212.333 294.334 209.667 285.667C207.001 277 204.333 269 204.333 269Z" fill="#C4A43F"/>
<path d="M225 252.333L240.333 236.333C240.333 236.333 248.333 243.666 249.666 252.333C250.999 261 250.333 295 250.333 295C250.333 295 243 257 238.333 255C233.666 253 225 252.333 225 252.333Z" fill="#796621"/>
<path d="M198.333 267L189 275.667L189.667 295L210.333 310.333L200.333 283.667L198.333 267Z" fill="#796621"/>
<path d="M293.667 217.667L282.333 222.333L295 242.333L293.667 217.667Z" fill="#796621"/>
<path d="M289 321L310.333 319L317 353H297L289 321Z" fill="#796621"/>
<path d="M281.667 313L259.667 317L255 340.333L279 338.333L277.667 317L281.667 313Z" fill="#796621"/>
<path d="M246.333 317.667C246.333 317.667 241.666 321.667 233.666 322.334C225.666 323.001 222.333 323 222.333 323L220.333 339L241.666 340.333L246.333 317.667Z" fill="#796621"/>
<path d="M213 351L239 350L237.667 361L230.334 363L239.667 365C239.667 365 240.5 368.667 242.417 373.833C242.712 374.629 237.5 378 237.5 378C237.5 378 243.938 377.674 244.24 378.372C246.076 382.601 248.52 387.31 251.666 391.666C260.333 403.666 278.999 424.333 278.999 424.333L267 427L279.667 431L286.334 552.333L246.334 485.667L245 435L254.333 429.667L243 425.667L213 351Z" fill="#796621"/>
<path d="M99.727 123.433C108.004 123.433 121.498 126.994 121.498 135.767V140.569H116.035V137.341C116.035 131.877 106.598 128.897 99.892 128.897C86.978 128.897 77.045 138.996 77.045 153.069C77.045 166.976 86.896 178.152 100.141 178.152C112.143 178.152 119.18 169.956 119.18 169.956L122.492 174.178C122.492 174.178 114.462 183.615 100.059 183.615C83.006 183.615 71.003 170.039 71.003 153.069C71.002 136.264 83.336 123.433 99.727 123.433Z" fill="#9ACA3C" stroke="#9ACA3C" stroke-width="5"/>
<path d="M182.596 177.489H183.672C185.162 177.489 186.072 177.239 186.652 175.667L205.692 124.426H211.9L230.94 175.667C231.52 177.239 232.348 177.489 233.921 177.489H234.914V182.621H232.265C228.126 182.621 226.884 181.793 225.394 177.82L220.345 164.079H197.249L192.116 177.82C190.626 181.794 189.467 182.621 185.328 182.621H182.596V177.489ZM218.771 159.028L211.072 138.25C210.079 135.518 208.837 130.717 208.837 130.717H208.672C208.672 130.717 207.43 135.518 206.436 138.25L198.821 159.028H218.771Z" fill="#9ACA3C" stroke="#9ACA3C" stroke-width="5"/>
<path d="M301.145 131.38C301.145 130.138 300.483 129.56 299.325 129.56H295.765V124.427H301.891C305.451 124.427 306.94 125.917 306.94 129.476V175.668C306.94 176.91 307.603 177.49 308.762 177.49H328.05C329.208 177.49 329.87 176.91 329.87 175.668V171.777H335.333V177.571C335.333 181.131 333.844 182.621 330.285 182.621H306.195C302.635 182.621 301.145 181.131 301.145 177.571V131.38Z" fill="#9ACA3C" stroke="#9ACA3C" stroke-width="5"/>
<path d="M407.441 157.29L391.879 131.712C390.803 129.973 389.728 129.56 387.989 129.56H386.664V124.427H388.898C392.873 124.427 394.363 125.007 396.845 129.063L406.697 145.536C408.517 148.599 410.258 152.077 410.258 152.077H410.423C410.423 152.077 412.161 148.599 413.982 145.536L423.834 129.063C426.318 125.007 427.808 124.427 431.78 124.427H434.015V129.56H432.69C431.036 129.56 429.877 129.974 428.883 131.712L413.237 157.29V182.621H407.441V157.29Z" fill="#9ACA3C" stroke="#9ACA3C" stroke-width="5"/>
<path d="M510.925 152.241L498.341 131.712C497.183 129.807 495.859 129.56 494.201 129.56H492.464V124.427H495.526C499.583 124.427 501.24 125.172 503.555 129.063L511.006 141.563C512.743 144.543 514.732 148.185 514.732 148.185H514.896C514.896 148.185 516.635 144.543 518.457 141.563L525.906 129.063C528.224 125.172 529.882 124.427 533.937 124.427H537V129.56H535.262C533.607 129.56 532.283 129.808 531.123 131.712L518.457 152.241L537.082 182.621H530.46L518.374 162.588C516.554 159.526 514.649 156.214 514.649 156.214H514.483C514.483 156.214 512.828 159.691 511.006 162.671L499.004 182.621H492.38L510.925 152.241Z" fill="#9ACA3C" stroke="#9ACA3C" stroke-width="5"/>
<path d="M323.945 603.654C324.627 602.497 324.981 600.891 324.103 599.367L322.374 600.795C322.652 601.294 322.657 601.889 322.295 602.504C321.829 603.295 320.835 603.776 319.253 602.844C317.715 601.938 317.631 600.842 318.105 600.037C318.433 599.48 318.961 599.12 319.714 599.248L320.136 596.991C318.304 596.819 317.033 597.905 316.299 599.15C314.996 601.362 315.616 603.76 317.901 605.106C320.201 606.46 322.53 606.056 323.945 603.654ZM324.572 597.699C325.891 598.476 327.375 597.831 328.186 596.454C328.799 595.414 329.006 594.392 328.564 593.402L329.598 593.656L330.815 591.59C330.099 591.366 328.779 590.726 327.826 590.166L326.23 589.225C324.033 587.931 322.516 588.596 321.3 590.662C320.316 592.331 320.358 593.935 321.04 594.987L322.818 593.509C322.319 593.018 322.334 592.356 322.696 591.741C323.153 590.964 323.72 590.706 324.555 591.198L324.833 591.362C323.382 594.295 322.8 596.655 324.572 597.699ZM326.177 592.094L326.353 592.198C327.686 592.983 327.664 593.858 327.146 594.737C326.801 595.323 326.235 595.581 325.766 595.305C325.004 594.856 325.403 593.71 326.177 592.094ZM329.997 588.29C331.71 589.299 332.41 588.883 333.462 587.096L334.299 585.675L332.483 584.605L332.112 585.235C331.672 585.982 331.411 586.124 330.722 585.718L323.574 581.508L322.263 583.734L329.997 588.29ZM327.581 580.466L336.442 581.936L336.589 582.122C337.017 582.669 336.966 582.856 336.413 583.794L336.155 584.233L337.766 585.182L338.189 584.465C339.302 582.575 339.108 581.731 337.677 579.941L332.051 572.878L330.644 575.266L334.366 579.332L328.988 578.078L327.581 580.466ZM341.262 573.854L340.039 571.14L342.997 570.91L344.429 568.478L339.048 568.938L337.034 564.418L335.602 566.85L336.641 569.139L334.127 569.354L332.694 571.786L337.624 571.355L339.83 576.285L341.262 573.854ZM339.589 563.966L340.4 562.589L345.967 565.868L347.287 563.627L340.021 559.347L337.89 562.965L339.589 563.966ZM338.165 559.753C338.596 559.02 338.34 558.081 337.623 557.658C336.89 557.227 335.959 557.467 335.528 558.2C335.097 558.932 335.337 559.863 336.07 560.295C336.787 560.717 337.733 560.485 338.165 559.753ZM341.354 557.085L348.619 561.365L349.931 559.138L346.195 556.938C344.877 556.161 344.43 555.346 344.982 554.408C345.612 553.339 346.488 553.796 347.513 554.4L351.38 556.677L352.692 554.451L348.268 551.845C346.305 550.689 344.885 550.622 343.78 552.497C343.125 553.61 343.28 554.787 343.632 555.428L342.501 555.137L341.354 557.085ZM356.097 549.072C357.244 547.124 357.358 545.021 355.644 544.012C354.429 543.295 353.433 543.814 352.075 545.382L351.032 546.583C350.536 547.158 350.213 547.304 349.92 547.131C349.539 546.907 349.576 546.376 350.042 545.585C350.43 544.926 350.904 544.455 351.518 544.619L351.934 542.339C350.472 542.208 349.244 543.221 348.425 544.612C347.363 546.414 347.234 548.409 348.757 549.307C349.973 550.023 351.26 549.479 352.323 548.211L353.31 547.036C353.949 546.288 354.326 546.116 354.634 546.297C355.088 546.564 354.919 547.353 354.497 548.071C354.005 548.906 353.324 549.392 352.579 549.249L352.154 551.545C353.698 551.704 355.096 550.771 356.097 549.072ZM353.316 540.663L354.023 539.462L357.539 541.533C359.252 542.542 359.952 542.126 361.004 540.339L361.833 538.932L360.016 537.863L359.637 538.507C359.214 539.225 358.953 539.367 358.264 538.961L355.335 537.236L356.266 535.654L354.567 534.653L353.636 536.235L351.819 535.165L350.508 537.391L352.324 538.461L351.617 539.662L353.316 540.663ZM357.198 534.073L358.009 532.696L363.575 535.975L364.895 533.734L357.63 529.454L355.498 533.072L357.198 534.073ZM355.773 529.86C356.204 529.128 355.949 528.188 355.231 527.765C354.499 527.334 353.568 527.575 353.136 528.307C352.705 529.039 352.945 529.97 353.678 530.402C354.396 530.825 355.341 530.592 355.773 529.86ZM360.342 528.735L361.049 527.534L364.565 529.605C366.279 530.614 366.978 530.198 368.031 528.411L368.859 527.004L367.043 525.934L366.663 526.579C366.24 527.297 365.979 527.439 365.29 527.033L362.361 525.308L363.293 523.726L361.594 522.725L360.662 524.307L358.845 523.237L357.534 525.463L359.35 526.533L358.643 527.734L360.342 528.735ZM362.749 520.763L367.114 523.335C369.091 524.499 370.535 524.561 371.674 522.627C372.33 521.514 372.183 520.658 371.715 519.81L372.922 520.107L374.061 518.173L366.796 513.894L365.475 516.135L369.298 518.387C370.646 519.18 370.981 519.851 370.429 520.789C369.79 521.873 368.909 521.393 367.869 520.78L364.06 518.537L362.749 520.763ZM369.567 513.074L370.275 511.872L373.79 513.943C375.504 514.953 376.203 514.536 377.256 512.749L378.084 511.343L376.268 510.273L375.888 510.917C375.465 511.635 375.204 511.777 374.516 511.372L371.586 509.646L372.518 508.064L370.819 507.063L369.887 508.645L368.071 507.575L366.759 509.802L368.576 510.872L367.868 512.073L369.567 513.074ZM375.339 507.596C377.741 509.011 380.149 508.24 381.538 505.882C382.237 504.695 382.449 503.163 381.784 501.745L380.096 503.138C380.254 503.606 380.18 504.234 379.775 504.922C379.292 505.742 378.328 506.24 377.259 505.709L380.426 500.333C377.949 498.677 375.246 499.078 373.84 501.466C372.589 503.589 373.024 506.233 375.339 507.596ZM375.53 502.382C376.039 501.518 376.936 501.099 377.891 501.622L375.941 504.933C375.023 504.214 375.038 503.217 375.53 502.382ZM383.307 499.596C384.098 500.062 385.122 499.797 385.588 499.006C386.045 498.229 385.78 497.205 384.989 496.739C384.198 496.273 383.189 496.547 382.732 497.323C382.266 498.114 382.516 499.13 383.307 499.596ZM383.669 493.488C386.291 495.033 388.585 493.918 389.776 491.897C390.949 489.905 390.82 487.343 388.198 485.798C385.577 484.254 383.303 485.401 382.129 487.393C380.939 489.414 381.047 491.944 383.669 493.488ZM383.858 488.411C384.367 487.547 385.323 487.163 386.861 488.069C388.384 488.966 388.573 489.985 388.047 490.879C387.512 491.787 386.529 492.115 385.006 491.218C383.468 490.312 383.34 489.29 383.858 488.411ZM394.33 483.763L390.668 481.606C389.511 480.924 389.387 480.062 390.026 478.978C390.147 478.773 390.256 478.62 390.424 478.403L388.197 477.092C387.483 478.171 387.45 479.197 388.355 480.341L386.789 479.952L385.753 481.709L393.019 485.989L394.33 483.763ZM392.729 477.806C394.94 479.109 397.173 478.333 398.105 476.751C398.588 475.931 398.722 474.866 398.317 473.778L399.621 474.546C400.617 475.133 400.609 476.017 400.083 476.91C399.781 477.423 399.283 477.899 398.601 477.852L398.19 480.057C399.92 480.168 401.109 479.053 401.817 477.852C403.154 475.582 402.93 473.517 400.484 472.076L393.761 468.115L392.631 470.034L393.454 470.914C392.335 471.005 391.384 471.648 390.841 472.571C389.952 474.079 390.194 476.314 392.729 477.806ZM393.975 475.423C392.7 474.672 392.575 473.612 393.093 472.733C393.602 471.869 394.502 471.413 395.923 472.25C397.344 473.087 397.352 474.078 396.843 474.942C396.325 475.821 395.264 476.182 393.975 475.423ZM411.506 459.996L399.363 452.843L398.104 454.982L410.246 462.135L411.506 459.996ZM418.15 443.726C418.832 442.569 419.186 440.962 418.308 439.439L416.579 440.867C416.857 441.366 416.862 441.961 416.5 442.576C416.034 443.367 415.04 443.847 413.458 442.916C411.92 442.01 411.836 440.914 412.31 440.108C412.638 439.552 413.166 439.192 413.919 439.32L414.341 437.063C412.509 436.891 411.238 437.977 410.504 439.222C409.201 441.434 409.821 443.831 412.106 445.177C414.406 446.532 416.735 446.128 418.15 443.726ZM418.777 437.771C420.096 438.548 421.58 437.903 422.391 436.526C423.004 435.486 423.211 434.464 422.769 433.473L423.803 433.727L425.02 431.662C424.304 431.438 422.983 430.798 422.031 430.237L420.435 429.297C418.238 428.003 416.721 428.668 415.504 430.733C414.521 432.403 414.563 434.006 415.245 435.059L417.023 433.581C416.524 433.09 416.539 432.428 416.901 431.812C417.358 431.036 417.925 430.778 418.76 431.27L419.038 431.434C417.586 434.367 417.005 436.727 418.777 437.771ZM420.382 432.166L420.558 432.27C421.891 433.055 421.869 433.93 421.351 434.809C421.006 435.394 420.44 435.653 419.971 435.377C419.209 434.928 419.608 433.782 420.382 432.166ZM424.202 428.362C425.915 429.371 426.615 428.954 427.667 427.167L428.504 425.747L426.688 424.677L426.317 425.307C425.877 426.054 425.616 426.196 424.927 425.79L417.779 421.58L416.468 423.806L424.202 428.362ZM421.786 420.538L430.647 422.008L430.794 422.194C431.222 422.741 431.171 422.928 430.618 423.866L430.36 424.305L431.971 425.254L432.394 424.536C433.507 422.647 433.313 421.803 431.882 420.013L426.256 412.95L424.849 415.338L428.57 419.404L423.193 418.15L421.786 420.538ZM435.467 413.925L434.244 411.212L437.202 410.981L438.634 408.55L433.253 409.01L431.239 404.49L429.807 406.921L430.846 409.21L428.332 409.426L426.899 411.858L431.829 411.427L434.035 416.357L435.467 413.925ZM435.698 405.159C438.32 406.704 440.615 405.589 441.805 403.568C442.979 401.576 442.85 399.014 440.228 397.469C437.606 395.925 435.333 397.072 434.159 399.064C432.969 401.085 433.077 403.615 435.698 405.159ZM435.888 400.082C436.397 399.218 437.353 398.834 438.891 399.74C440.414 400.637 440.603 401.656 440.077 402.549C439.542 403.458 438.559 403.786 437.036 402.889C435.498 401.983 435.37 400.961 435.888 400.082ZM447.071 394.629C448.218 392.681 448.332 390.578 446.619 389.568C445.403 388.852 444.407 389.37 443.049 390.938L442.007 392.139C441.51 392.715 441.187 392.86 440.894 392.688C440.513 392.463 440.55 391.932 441.016 391.141C441.404 390.482 441.879 390.012 442.492 390.176L442.908 387.896C441.446 387.765 440.218 388.777 439.399 390.169C438.337 391.971 438.208 393.966 439.731 394.863C440.947 395.579 442.234 395.035 443.297 393.767L444.284 392.593C444.923 391.844 445.3 391.672 445.608 391.853C446.062 392.121 445.893 392.91 445.471 393.627C444.979 394.462 444.298 394.949 443.553 394.806L443.128 397.101C444.672 397.261 446.07 396.328 447.071 394.629ZM448.838 388.346C449.629 388.812 450.653 388.548 451.119 387.757C451.576 386.98 451.311 385.956 450.52 385.49C449.729 385.024 448.72 385.298 448.262 386.074C447.797 386.865 448.047 387.881 448.838 388.346ZM449.2 382.239C451.821 383.784 454.116 382.669 455.306 380.647C456.48 378.655 456.351 376.094 453.729 374.549C451.107 373.005 448.834 374.151 447.66 376.143C446.47 378.165 446.578 380.695 449.2 382.239ZM449.389 377.162C449.898 376.297 450.854 375.914 452.392 376.819C453.915 377.717 454.104 378.736 453.578 379.629C453.043 380.537 452.06 380.866 450.537 379.969C448.999 379.063 448.871 378.04 449.389 377.162ZM459.861 372.513L456.199 370.356C455.042 369.675 454.918 368.813 455.557 367.729C455.678 367.524 455.787 367.371 455.954 367.154L453.728 365.843C453.014 366.921 452.981 367.948 453.885 369.092L452.32 368.703L451.284 370.46L458.549 374.74L459.861 372.513ZM458.259 366.557C460.471 367.86 462.704 367.084 463.636 365.502C464.119 364.682 464.253 363.616 463.848 362.529L465.152 363.297C466.148 363.884 466.14 364.767 465.614 365.661C465.312 366.173 464.814 366.65 464.132 366.603L463.721 368.807C465.451 368.919 466.64 367.804 467.348 366.603C468.685 364.333 468.461 362.267 466.015 360.826L459.292 356.866L458.161 358.785L458.985 359.665C457.866 359.755 456.915 360.399 456.371 361.321C455.483 362.83 455.725 365.064 458.259 366.557ZM459.505 364.174C458.231 363.423 458.106 362.363 458.624 361.484C459.133 360.62 460.033 360.164 461.454 361C462.874 361.837 462.882 362.829 462.373 363.693C461.856 364.572 460.794 364.933 459.505 364.174Z" fill="black"/>
</g>
<defs>
<clipPath id="clip0_55_290">
<rect width="612" height="792" fill="white"/>
</clipPath>
</defs>
</svg>
