<?xml version="1.0" encoding="UTF-8" standalone="no"?>
<!-- Generator: Adobe Illustrator 9.0, SVG Export Plug-In  -->
<svg xmlns:dc="http://purl.org/dc/elements/1.1/" xmlns:cc="http://web.resource.org/cc/" xmlns:rdf="http://www.w3.org/1999/02/22-rdf-syntax-ns#" xmlns:svg="http://www.w3.org/2000/svg" xmlns="http://www.w3.org/2000/svg" xmlns:sodipodi="http://inkscape.sourceforge.net/DTD/sodipodi-0.dtd" xmlns:inkscape="http://www.inkscape.org/namespaces/inkscape" width="3390.47pt" height="395.219pt" viewBox="0 0 3390.47 395.219" xml:space="preserve" id="svg2" sodipodi:version="0.32" inkscape:version="0.43" sodipodi:docname="fsf-logo.svg" sodipodi:docbase="/home/johns/graphics/logos/fsf"><metadata id="metadata61"><rdf:RDF><cc:Work rdf:about=""><dc:format>image/svg+xml</dc:format><dc:type rdf:resource="http://purl.org/dc/dcmitype/StillImage"/></cc:Work></rdf:RDF></metadata><defs id="defs59"/><sodipodi:namedview inkscape:cy="417.84947" inkscape:cx="305.25953" inkscape:zoom="0.43415836" inkscape:window-height="862" inkscape:window-width="1150" inkscape:pageshadow="2" inkscape:pageopacity="0.0" borderopacity="1.0" bordercolor="#666666" pagecolor="#ffffff" id="base" inkscape:window-x="0" inkscape:window-y="0" inkscape:current-layer="svg2"/>
	<g id="Layer_x0020_1" style="fill-rule:nonzero;stroke:#000000;stroke-miterlimit:4" transform="matrix(0.999952,0,0,0.999952,2.36132e-5,1.868293e-2)">
		<g id="g5">
			<clipPath id="aiclp1" style="fill:none;stroke:none;">
				<path d="M 0,0 L 3390.47,0 L 3390.47,395.159 L 0,395.159 L 0,0 z " id="path8"/>
			</clipPath>
			<g id="g10">
				<path style="fill:#b11107;stroke:none" d="M 86.4,193.619 L 0,193.619 L 0,128.819 L 86.4,128.819 L 86.4,78.419 L 72,78.419 L 72,42.419 L 86.4,42.419 L 86.4,28.019 L 122.4,28.019 L 122.4,42.419 L 338.4,42.419 C 398.068,11.152 468.102,5.081 528.635,4.336 C 595.448,3.478 598.91,4.229 626.165,4.424 C 741.533,5.283 749.485,5.792 765.768,3.223 C 772.332,2.142 779.531,6.483 780.1,9.718 C 781.423,16.89 766.474,25.196 761.858,26.659 C 747.507,31.214 721.815,33.275 651.929,37.307 L 650.265,37.341 C 539.276,47.821 477.012,73.988 460.922,81.476 C 397.281,111.179 390.411,125.007 398.685,133.831 C 407.453,143.189 456.997,122.605 481.292,115.667 C 529.574,101.893 558.027,115.084 576,128.819 L 619.2,128.819 L 619.2,121.619 L 648,121.619 L 648,128.819 L 892.8,128.819 L 892.8,193.619 L 648,193.619 L 648,244.02 L 856.8,244.02 L 856.8,280.02 L 648,280.02 L 648,395.219 L 619.2,395.219 L 619.2,280.02 L 604.8,280.02 L 604.8,244.02 L 619.2,244.02 L 619.2,193.619 L 604.8,193.619 C 604.551,219.088 597.091,242.438 589.952,252.057 C 523.32,341.562 221.084,353.077 127.459,354.605 C 103.834,355.01 86.923,351.047 86.4,344.818 M 253.773,127.251 C 257.812,110.263 269.098,92.953 282.619,78.547 L 124.419,79.178 L 123.845,129.016 L 252.962,129.54 L 253.572,130.573 M 751.955,11.815 C 750.31,10.996 666.288,15.679 661.564,15.25 C 656.841,14.82 606.225,15.545 578.474,14.82 C 545.624,13.961 511.15,14.854 479.065,17.826 C 446.645,20.832 413.151,30.923 385.455,42.517 C 359.107,53.548 332.851,67.422 312.24,83.74 C 301.685,92.094 293.661,101.373 286.476,112.726 C 278.317,125.607 274.384,140.322 279.819,152.661 C 285.678,165.945 298.781,171.829 315.031,174.346 C 329.785,176.64 347.881,175.419 359.475,177.781 C 366.359,179.183 377.658,181.035 378.369,187.658 C 379.013,193.669 368.163,203.721 363.125,206.121 C 353.678,210.631 341.01,206.766 328.772,204.189 C 320.337,202.418 307.819,198.311 300.001,194.741 C 294.722,192.327 289.074,190.421 288,190.421 C 287.572,190.421 122.187,189.993 122.4,190.421 C 122.4,193.212 122.187,327.981 122.4,334.421 C 122.635,341.533 147.178,339.426 162.376,337.95 C 191.737,335.077 222.278,331.508 251.908,327.215 C 268.85,324.759 286.805,321.578 303.866,318.196 C 330.919,312.83 363.267,305.314 376.718,301.019 C 410.36,290.285 445.142,280.838 476.918,267.097 C 491.204,260.924 508.265,253.141 519.86,245.196 C 532.218,236.728 545.409,225.014 550.992,212.991 C 557.191,199.639 559.089,183.563 552.709,168.976 C 546.698,155.235 530.165,142.998 515.78,140.635 C 507.593,139.293 501.18,138.488 493.236,139.132 C 484.098,139.87 468.545,143.211 458.239,144.5 C 441.297,146.62 421.39,149.633 404.777,147.077 C 393.613,145.358 376.007,130.974 382.233,114.227 C 386.796,101.948 404.475,89.347 415.083,82.451 C 440.848,65.703 487.197,51.083 526.945,41.656 C 560.438,33.713 607.458,27.271 647.179,26.842 C 651.009,26.802 686.892,24.393 690.549,24.265 C 750.881,22.118 752.813,12.242 751.955,11.813" id="path12"/>
			</g>
		</g>
		<path style="fill:#b11107;stroke:none" d="M 1076.45,33.923 L 1076.45,79.87 L 1152.45,79.87 L 1152.45,109.07 L 1076.45,109.07 L 1076.45,198.387 L 1037.8,198.387 L 1037.8,3.436 L 1180.79,3.436 L 1180.79,33.923 L 1076.45,33.923" id="path14"/>
		<path style="fill:#b11107;stroke:none" d="M 1341.92,198.387 L 1283.97,118.087 C 1278.13,118.087 1269.96,117.792 1259.47,117.195 L 1259.47,198.387 L 1219.54,198.387 L 1219.54,3.791 C 1221.71,3.791 1230.06,3.448 1244.6,2.757 C 1259.13,2.067 1270.86,1.718 1279.76,1.718 C 1334.94,1.718 1362.531,20.894 1362.531,59.232 C 1362.531,70.798 1358.72,81.319 1351.101,90.807 C 1343.471,100.293 1333.871,106.969 1322.281,110.821 L 1386.581,198.387 L 1341.921,198.387 L 1341.92,198.387 z M 1259.47,33.803 L 1259.47,88.15 C 1266.62,88.646 1272.08,88.887 1275.85,88.887 C 1292.03,88.887 1303.86,86.862 1311.35,82.803 C 1318.84,78.75 1322.59,70.779 1322.59,58.896 C 1322.59,49.302 1318.57,42.592 1310.53,38.781 C 1302.49,34.97 1289.84,33.065 1272.57,33.065 C 1268.4,33.065 1264.03,33.313 1259.469,33.803" id="path16"/>
		<path style="fill:#b11107;stroke:none" d="M 1448.22,33.923 L 1448.22,79.87 L 1518.22,79.87 L 1518.22,109.07 L 1448.22,109.07 L 1448.22,167.898 L 1546.56,167.898 L 1546.56,198.387 L 1409.58,198.387 L 1409.58,3.436 L 1546.56,3.436 L 1546.56,33.923 L 1448.22,33.923" id="path18"/>
		<path style="fill:#b11107;stroke:none" d="M 1625.52,33.923 L 1625.52,79.87 L 1695.51,79.87 L 1695.51,109.07 L 1625.52,109.07 L 1625.52,167.898 L 1723.84,167.898 L 1723.84,198.387 L 1586.87,198.387 L 1586.87,3.436 L 1723.84,3.436 L 1723.84,33.923 L 1625.52,33.923" id="path20"/>
		<path style="fill:#b11107;stroke:none" d="M 1849.89,187.732 L 1864.13,156.734 C 1879.36,166.47 1894.35,171.334 1909.09,171.334 C 1931.74,171.334 1943.07,164.209 1943.07,149.944 C 1943.07,143.315 1940.389,136.975 1935.049,130.936 C 1929.699,124.898 1918.699,118.114 1902.029,110.586 C 1885.348,103.058 1874.119,96.872 1868.339,92.015 C 1862.56,87.157 1858.099,81.386 1854.989,74.697 C 1851.869,68.007 1850.319,60.647 1850.319,52.623 C 1850.319,37.46 1856.459,24.899 1868.768,14.942 C 1881.07,4.985 1896.85,0 1916.12,0 C 1941.22,0 1959.64,4.213 1971.41,12.634 L 1959.71,42.512 C 1946.2,33.923 1931.93,29.629 1916.939,29.629 C 1908.06,29.629 1901.179,31.736 1896.29,35.943 C 1891.41,40.156 1888.96,45.625 1888.96,52.354 C 1888.96,63.546 1902.72,75.187 1930.24,87.264 C 1944.73,93.691 1955.189,99.569 1961.599,104.903 C 1968.019,110.237 1972.9,116.484 1976.259,123.65 C 1979.61,130.815 1981.289,138.793 1981.289,147.582 C 1981.289,163.391 1974.349,176.387 1960.469,186.559 C 1946.599,196.736 1927.999,201.822 1904.689,201.822 C 1884.439,201.822 1866.179,197.128 1849.889,187.733" id="path22"/>
		<path style="fill:#b11107;stroke:none" d="M 2009.68,99.354 C 2009.68,71.578 2018.151,48.074 2035.111,28.844 C 2052.061,9.614 2074.72,0 2103.09,0 C 2134.33,0 2158.2,8.703 2174.71,26.1 C 2191.21,43.504 2199.481,67.92 2199.481,99.354 C 2199.481,130.795 2190.85,155.728 2173.6,174.165 C 2156.35,192.604 2131.861,201.822 2100.13,201.822 C 2070.97,201.822 2048.6,192.678 2033.03,174.387 C 2017.469,156.098 2009.679,131.091 2009.679,99.354 L 2009.68,99.354 z M 2049.62,99.495 C 2049.62,122.254 2053.92,139.92 2062.54,152.488 C 2071.15,165.054 2083.67,171.334 2100.13,171.334 C 2119.44,171.334 2134.16,165.201 2144.311,152.93 C 2154.46,140.666 2159.55,122.851 2159.55,99.495 C 2159.55,53.777 2140.72,30.917 2103.09,30.917 C 2085.861,30.917 2072.63,37.104 2063.43,49.476 C 2054.22,61.848 2049.62,78.521 2049.62,99.495" id="path24"/>
		<path style="fill:#b11107;stroke:none" d="M 2276.689,33.923 L 2276.689,79.87 L 2352.7,79.87 L 2352.7,109.07 L 2276.689,109.07 L 2276.689,198.387 L 2238.049,198.387 L 2238.049,3.436 L 2381.039,3.436 L 2381.039,33.923 L 2276.688,33.923" id="path26"/>
		<path style="fill:#b11107;stroke:none" d="M 2512.8,33.923 L 2512.8,198.387 L 2474.151,198.387 L 2474.151,33.923 L 2405.02,33.923 L 2405.02,3.436 L 2584.94,3.436 L 2584.94,33.923 L 2512.8,33.923" id="path28"/>
		<path style="fill:#b11107;stroke:none" d="M 2794,200.964 L 2778.11,200.964 L 2730.87,78.152 L 2684.93,200.964 L 2669.04,200.964 L 2597.76,3.436 L 2638.12,3.436 L 2678.7,121.094 L 2722.71,3.436 L 2739.46,3.436 L 2783.481,121.094 L 2824.061,3.436 L 2864.42,3.436 L 2794,200.964" id="path30"/>
		<path style="fill:#b11107;stroke:none" d="M 2997.39,198.387 L 2981.6,158.881 L 2907.281,158.881 L 2892.18,198.387 L 2849.241,198.387 L 2935.981,0.858 L 2952.731,0.858 L 3039.901,198.387 L 2997.39,198.387 L 2997.39,198.387 z M 2944.36,60.546 L 2918.23,132.258 L 2970.379,132.258 L 2944.359,60.546" id="path32"/>
		<path style="fill:#b11107;stroke:none" d="M 3185.83,198.387 L 3127.89,118.087 C 3122.04,118.087 3113.88,117.792 3103.39,117.195 L 3103.39,198.387 L 3063.451,198.387 L 3063.451,3.791 C 3065.621,3.791 3073.971,3.448 3088.52,2.757 C 3103.05,2.067 3114.77,1.718 3123.68,1.718 C 3178.85,1.718 3206.451,20.894 3206.451,59.232 C 3206.451,70.798 3202.64,81.319 3195.011,90.807 C 3187.391,100.293 3177.782,106.969 3166.201,110.821 L 3230.491,198.387 L 3185.831,198.387 L 3185.83,198.387 z M 3103.39,33.803 L 3103.39,88.15 C 3110.52,88.646 3115.991,88.887 3119.76,88.887 C 3135.94,88.887 3147.781,86.862 3155.27,82.803 C 3162.75,78.75 3166.51,70.779 3166.51,58.896 C 3166.51,49.302 3162.481,42.592 3154.45,38.781 C 3146.41,34.97 3133.75,33.065 3116.48,33.065 C 3112.31,33.065 3107.95,33.313 3103.389,33.803" id="path34"/>
		<path style="fill:#b11107;stroke:none" d="M 3292.14,33.923 L 3292.14,79.87 L 3362.13,79.87 L 3362.13,109.07 L 3292.14,109.07 L 3292.14,167.898 L 3390.47,167.898 L 3390.47,198.387 L 3253.49,198.387 L 3253.49,3.436 L 3390.469,3.436 L 3390.469,33.923 L 3292.139,33.923" id="path36"/>
		<path style="fill:#b11107;stroke:none" d="M 1105.12,288.797 L 1105.12,319.93 L 1152.79,319.93 L 1152.79,333.025 L 1105.12,333.025 L 1105.12,387.347 L 1086.66,387.347 L 1086.66,274.841 L 1170.4,274.841 L 1170.4,288.797 L 1105.12,288.797" id="path38"/>
		<path style="fill:#b11107;stroke:none" d="M 1314.58,330.127 C 1314.58,313.783 1319.51,300.148 1329.35,289.172 C 1339.19,278.194 1352.47,272.693 1369.2,272.693 C 1388.02,272.693 1402.44,277.765 1412.47,287.856 C 1422.5,297.975 1427.52,312.064 1427.52,330.127 C 1427.52,348.592 1422.49,363.084 1412.43,373.578 C 1402.37,384.045 1387.96,389.277 1369.201,389.277 C 1352.101,389.277 1338.721,383.75 1329.071,372.691 C 1319.411,361.608 1314.581,347.437 1314.581,330.127 L 1314.58,330.127 z M 1334.12,330.101 C 1334.12,343.063 1337.18,353.879 1343.3,362.548 C 1349.43,371.217 1358.06,375.537 1369.2,375.537 C 1381.82,375.537 1391.44,371.564 1398.05,363.595 C 1404.67,355.65 1407.98,344.485 1407.98,330.101 C 1407.98,301.008 1395.06,286.435 1369.2,286.435 C 1357.76,286.435 1349.05,290.354 1343.08,298.164 C 1337.11,305.945 1334.12,316.602 1334.12,330.101" id="path40"/>
		<path style="fill:#b11107;stroke:none" d="M 1583.65,274.841 L 1602.12,274.841 L 1602.12,351.92 C 1602.12,358.79 1604.74,364.426 1610,368.882 C 1615.24,373.336 1622.19,375.537 1630.84,375.537 C 1639.98,375.537 1647.18,373.391 1652.43,369.096 C 1657.68,364.828 1660.3,358.979 1660.3,351.545 L 1660.3,274.841 L 1678.77,274.841 L 1678.77,353.182 C 1678.77,364.536 1674.5,373.391 1665.95,379.752 C 1657.41,386.111 1645.77,389.277 1631.03,389.277 C 1615.85,389.277 1604.16,386.166 1595.96,379.938 C 1587.75,373.712 1583.65,364.749 1583.65,353.074 L 1583.65,274.841" id="path42"/>
		<path style="fill:#b11107;stroke:none" d="M 1929.07,388.849 L 1859.08,306.618 L 1859.08,387.347 L 1841.47,387.347 L 1841.47,274.841 L 1848.991,274.841 L 1917.051,352.563 L 1917.051,274.841 L 1934.652,274.841 L 1934.652,388.849 L 1929.072,388.849" id="path44"/>
		<path style="fill:#b11107;stroke:none" d="M 2124.68,387.347 L 2097.33,387.347 L 2097.33,274.733 C 2114.769,274.251 2125.92,273.982 2130.8,273.982 C 2149.77,273.982 2164.79,278.759 2175.85,288.312 C 2186.92,297.868 2192.451,310.617 2192.451,326.558 C 2192.451,367.082 2169.85,387.346 2124.68,387.346 L 2124.68,387.347 z M 2115.8,288.555 L 2115.8,372.881 C 2119.93,373.362 2125.071,373.605 2131.19,373.605 C 2144.17,373.605 2154.361,369.581 2161.791,361.501 C 2169.19,353.424 2172.911,342.204 2172.911,327.846 C 2172.911,301.116 2158.471,287.723 2129.611,287.723 C 2127.881,287.723 2123.27,288.018 2115.8,288.555" id="path46"/>
		<path style="fill:#b11107;stroke:none" d="M 2425.55,387.347 L 2416.21,363.728 L 2365.78,363.728 L 2355.769,387.347 L 2334.939,387.347 L 2390.12,273.338 L 2395.06,273.338 L 2446.16,387.347 L 2425.55,387.347 z M 2391.73,302.753 L 2370.689,352.35 L 2410.939,352.35 L 2391.73,302.753" id="path48"/>
		<path style="fill:#b11107;stroke:none" d="M 2626.11,288.797 L 2626.11,387.347 L 2607.65,387.347 L 2607.65,288.797 L 2564.49,288.797 L 2564.49,274.841 L 2671.2,274.841 L 2671.2,288.797 L 2626.11,288.797" id="path50"/>
		<path style="fill:#b11107;stroke:none" d="M 2824.87,274.841 L 2843.34,274.841 L 2843.34,387.347 L 2824.87,387.347 L 2824.87,274.841 z " id="path52"/>
		<path style="fill:#b11107;stroke:none" d="M 3002.78,330.127 C 3002.78,313.783 3007.71,300.148 3017.54,289.172 C 3027.39,278.194 3040.67,272.693 3057.4,272.693 C 3076.21,272.693 3090.639,277.765 3100.679,287.856 C 3110.7,297.975 3115.719,312.064 3115.719,330.127 C 3115.719,348.592 3110.689,363.084 3100.619,373.578 C 3090.569,384.045 3076.159,389.277 3057.399,389.277 C 3040.298,389.277 3026.919,383.75 3017.258,372.691 C 3007.609,361.608 3002.779,347.437 3002.779,330.127 L 3002.78,330.127 z M 3022.32,330.101 C 3022.32,343.063 3025.38,353.879 3031.5,362.548 C 3037.63,371.217 3046.26,375.537 3057.4,375.537 C 3070.009,375.537 3079.629,371.564 3086.25,363.595 C 3092.86,355.65 3096.18,344.485 3096.18,330.101 C 3096.18,301.008 3083.26,286.435 3057.401,286.435 C 3045.951,286.435 3037.241,290.354 3031.27,298.164 C 3025.3,305.945 3022.321,316.602 3022.321,330.101" id="path54"/>
		<path style="fill:#b11107;stroke:none" d="M 3359.45,388.849 L 3289.45,306.618 L 3289.45,387.347 L 3271.849,387.347 L 3271.849,274.841 L 3279.36,274.841 L 3347.42,352.563 L 3347.42,274.841 L 3365.03,274.841 L 3365.03,388.849 L 3359.45,388.849" id="path56"/>
	</g>
</svg>