<?xml version="1.0" encoding="UTF-8"?>
<svg width="120mm" height="120mm" version="1.1" viewBox="0 0 120 120" xmlns="http://www.w3.org/2000/svg" xmlns:cc="http://creativecommons.org/ns#" xmlns:dc="http://purl.org/dc/elements/1.1/" xmlns:rdf="http://www.w3.org/1999/02/22-rdf-syntax-ns#">
 <title>Seattle Matrix Logo</title>
 <metadata>
  <rdf:RDF>
   <cc:Work rdf:about="">
    <dc:format>image/svg+xml</dc:format>
    <dc:type rdf:resource="http://purl.org/dc/dcmitype/StillImage"/>
    <dc:title>Seattle Matrix Logo</dc:title>
    <cc:license rdf:resource="http://creativecommons.org/licenses/by-sa/4.0/"/>
    <dc:date>2021-11-04</dc:date>
    <dc:creator>
     <cc:Agent>
      <dc:title>Wm Salt Hale</dc:title>
     </cc:Agent>
    </dc:creator>
    <dc:rights>
     <cc:Agent>
      <dc:title>CC BY-SA 4.0</dc:title>
     </cc:Agent>
    </dc:rights>
    <dc:identifier>SeattleMatrixLogo</dc:identifier>
    <dc:source>https://seattlematrix.org</dc:source>
    <dc:description>Logo for Seattle Matrix</dc:description>
   </cc:Work>
   <cc:License rdf:about="http://creativecommons.org/licenses/by-sa/4.0/">
    <cc:permits rdf:resource="http://creativecommons.org/ns#Reproduction"/>
    <cc:permits rdf:resource="http://creativecommons.org/ns#Distribution"/>
    <cc:requires rdf:resource="http://creativecommons.org/ns#Notice"/>
    <cc:requires rdf:resource="http://creativecommons.org/ns#Attribution"/>
    <cc:permits rdf:resource="http://creativecommons.org/ns#DerivativeWorks"/>
    <cc:requires rdf:resource="http://creativecommons.org/ns#ShareAlike"/>
   </cc:License>
  </rdf:RDF>
 </metadata>
 <path d="M19.318 16.135v87.73H42.92v-2.433L27.548 99.31V20.69l15.372-2.122v-2.433zm57.762 0v2.433l15.372 2.122v78.62l-15.372 2.122v2.433h23.602v-87.73Zm-17.453 7.861-.528 9.85-.387.13c-.213.07-.387.513-.387.982v.853h-.883c-.485 0-.882-.16-.882-.353 0-.194-.237-.353-.528-.353h-.53v1.38l-2.41.45 2.23 2-.352.326c-.19.18-1.92.859-3.83 1.51-1.91.65-3.554 1.388-3.65 1.64s-.556.458-1.02.458h-.844v2.12l-2.88 1.15.47.297c.26.164 1.08.3 1.82.304.74.003 1.654.17 2.03.37l.681.366v1.74l-1.59.023.77.643c.43.352 1.73.83 2.9 1.06l2.13.418.202 1.13c.11.63.75 4.83 1.42 9.25s1.48 9.66 1.8 11.6l.58 3.53-.03 6.7c-.015 3.69-.164 7.85-.329 9.26l-.327 2.629h8.86l.086-21 2.74-23.3 1.99-.394c3.171-.625 3.83-.832 3.83-1.2 0-.19-.228-.345-.508-.345-.711 0-1.005-.606-.763-1.57l.206-.821 1.86-.232c1.02-.128 2.074-.368 2.34-.533l.485-.298-.664-.182c-.36-.1-1.096-.28-1.63-.399l-.97-.216v-2.04l-2.73-1.04c-1.5-.57-3.64-1.328-4.76-1.68l-2.03-.638v-.556c0-.306.318-.755.706-.997.89-.556.91-1.14.038-1.14-.367 0-.76-.238-.871-.53-.112-.29-.526-.528-.92-.528h-.717v-1.11l-1.41.448v-.553c0-.304-.16-.553-.353-.553-.194 0-.334-.115-.311-.265s-.001-2.41-.054-5.03zm-5.449 27.176c.628.06.69 1.153 1.182 7.718l-.007-.04c.432 5.8.576 13.029.226 11.399-.037-.18-.464-3.27-.949-6.88-.48-3.61-1.089-7.78-1.35-9.27l-.474-2.7.834-.16c.218-.04.393-.081.538-.067m12.276.117-.002.641c-.001.35-.16 1.6-.352 2.76-.2 1.16-.752 5.05-1.24 8.63l.006-.014c-.491 3.58-1.066 6.679-1.28 6.88l-.39.366.245-3.7c.134-2.03.43-6.32.659-9.52l.414-5.82zm-3.785.051h1.04l-.269 3.09c-.148 1.69-.461 5.78-.696 9.08l-.427 6-.051-6.92c-.028-3.8.051-7.89.176-9.08zm-6.575.02c.084.015.18.049.29.091l.544.209v1.6c0 .88.172 4.74.382 8.57h.002c.21 3.83.325 7.522.256 8.2l-.126 1.23-.242-1.409c-.133-.78-.339-3.09-.459-5.12s-.445-5.83-.723-8.43c-.464-4.338-.509-5.056.076-4.942"/>
</svg>
