<svg width="72" height="72" viewBox="0 0 72 72" fill="none" xmlns="http://www.w3.org/2000/svg">
<path fill-rule="evenodd" clip-rule="evenodd" d="M36 71C55.33 71 71 55.33 71 36C71 16.67 55.33 1 36 1C16.67 1 1 16.67 1 36C1 55.33 16.67 71 36 71ZM36 72C55.8823 72 72 55.8823 72 36C72 16.1177 55.8823 0 36 0C16.1177 0 0 16.1177 0 36C0 55.8823 16.1177 72 36 72Z" fill="#261005"/>
<path d="M53.5066 27.7042C51.0394 17.3712 41.0915 15.1354 33.7672 14.9818C26.442 14.8267 19.8877 20.148 18.5766 24.6969C17.2655 29.2463 17.6872 36.7668 18.7317 40.1953C19.8109 43.7431 22.4331 48.6016 27.2907 52.5335C29.1514 54.0399 33.9986 55.1549 33.9986 55.1549C36.7749 57.3134 41.2398 57.1435 43.2514 56.851C47.493 56.2337 49.7292 52.6872 50.5775 49.8349C51.425 46.9818 51.4249 43.2021 51.4249 43.2021C51.4249 43.2021 55.9734 38.0363 53.5066 27.7042ZM48.9577 35.5691C49.1105 36.0323 49.1882 36.1092 47.5689 35.8778C45.95 35.6464 43.9461 36.8038 43.406 37.4971C42.8659 38.1918 42.4031 38.8846 41.8635 38.73C41.3247 38.5764 41.4011 37.8835 41.4011 37.8835C41.4011 37.8835 42.2499 36.8029 43.3296 36.1855C44.4079 35.5695 45.4877 35.3386 46.3369 35.415C47.1843 35.4927 47.6457 34.799 45.7972 34.799C43.9488 34.799 43.4828 35.3386 42.7118 35.8009C41.9412 36.2646 41.4016 36.4178 41.4016 36.4178C41.4016 36.4178 41.0156 35.5704 42.1721 34.8758C43.33 34.1816 44.4536 33.8417 46.646 34.1052C48.5736 34.3366 48.8041 35.1072 48.9587 35.57L48.9577 35.5691ZM45.179 38.5764C45.6418 39.4238 46.2582 40.0411 46.2582 40.0411C46.2582 40.0411 44.7926 39.9648 43.636 39.6556C42.9662 39.478 42.7109 39.4238 42.7109 39.4238C42.7109 39.4238 43.3291 38.8078 43.8683 38.2686C44.4075 37.7281 44.9471 37.5753 44.9471 37.5753C44.9471 37.5753 44.8838 38.0349 45.179 38.5764ZM50.2684 46.6726C49.8047 49.3703 48.4177 54.6134 44.7926 55.6168C41.1697 56.6201 36.0256 56.8081 32.9962 53.2259C30.4521 50.2191 28.4473 45.9021 28.215 44.5132C27.9836 43.1253 27.9072 42.4324 27.9072 42.4324C27.9072 42.4324 30.3739 39.887 31.2227 38.9619C32.0719 38.0358 32.7648 37.4957 33.7672 37.5739C34.7696 37.6508 34.6928 36.1846 33.459 36.3397C32.2251 36.4938 30.7604 38.2677 29.7579 39.4247C28.7559 40.5808 27.5221 41.66 27.5221 41.66L27.3676 40.889C27.3676 40.889 30.881 35.9171 33.1507 35.5682C35.156 35.2604 36.3894 35.7227 37.2373 37.4962C38.0856 39.271 37.4691 39.887 38.2397 39.7316C38.6478 39.6507 38.4747 37.0334 37.1623 35.1054C35.8502 33.1778 32.5347 33.0228 30.3753 35.029C28.2159 37.0334 26.9829 39.6543 26.9829 39.6543C26.9829 39.6543 24.9776 31.0197 29.3729 27.3951C33.7676 23.7713 39.0889 23.2308 43.33 26.5463C47.5693 29.8627 47.2625 32.5613 47.4152 32.5613C47.568 32.5613 44.1752 32.099 42.7886 32.9464C41.4016 33.7947 39.7836 35.5682 40.7851 38.8837C41.7866 42.1997 44.0229 46.9027 42.7904 47.2109C41.557 47.52 40.7074 46.2862 40.1691 46.8263C39.6281 47.3664 40.0642 48.2576 40.0642 48.2576C39.0614 48.6431 38.914 48.1379 38.6831 47.5969C38.4535 47.0582 38.086 46.2862 37.8551 46.5953C37.6241 46.9045 37.5577 47.4884 38.0133 48.108C38.5439 48.8298 39.3221 49.1172 40.0891 49.0033C41.0097 48.8664 41.3405 48.2834 41.3405 48.2834C41.3405 48.2834 43.4837 48.522 44.1784 47.5978C44.873 46.6717 43.0209 43.1248 42.6358 41.8914C42.2512 40.6576 42.173 40.118 42.173 40.118C42.173 40.118 45.5654 41.0422 47.1852 40.7344C48.805 40.4271 49.6519 39.2706 49.6519 39.2706C49.6519 39.2706 50.7321 43.9718 50.2707 46.6717L50.2684 46.6726Z" fill="#261005"/>
<path d="M32.5338 38.8082C31.6082 39.5792 28.9101 42.662 28.9101 42.662C29.0637 43.0493 29.9889 42.8948 31.5309 43.2803C33.073 43.6653 35.1556 43.7417 36.3885 42.5092C37.6232 41.275 37.4696 39.8879 36.6976 39.1933C35.9257 38.4986 33.459 38.0376 32.5338 38.8082ZM31.686 42.5861C30.5285 42.2769 30.2203 42.2769 30.2203 42.2769C30.2203 42.2769 30.6831 41.5841 31.145 41.1213C31.6078 40.6585 32.4561 40.1189 32.4561 40.1189C32.4561 40.1189 32.5334 40.5817 32.8411 41.5059C33.1503 42.4329 33.6899 42.8175 33.6899 42.8175C33.6899 42.8175 32.8429 42.8952 31.686 42.5861Z" fill="#261005"/>
<path d="M45.564 48.8311C45.0258 49.1394 45.2567 50.0654 45.2567 50.0654C45.2567 50.0654 44.1006 49.9118 43.4064 50.2191L42.7118 50.5282C42.7118 50.5282 41.8639 50.2973 41.0156 50.45C40.1686 50.6046 39.3958 50.9901 39.3958 50.9901C38.933 50.8374 38.6252 50.2973 38.4707 50.6819C38.3174 51.0674 37.8546 53.0727 38.9339 52.8418C40.0132 52.6099 39.3958 51.8389 39.3958 51.8389C39.3958 51.8389 40.5532 51.2988 41.1702 51.2988C41.7871 51.2988 41.7862 51.9153 42.8663 51.7625C43.946 51.6079 43.2537 51.0679 44.1774 50.9897C45.1026 50.9133 45.5645 51.6075 46.1041 51.067C46.6456 50.5278 46.1037 48.5229 45.564 48.8311Z" fill="#261005"/>
<path d="M42.8671 53.2259C41.7874 53.4587 41.2491 53.1495 41.0941 53.611C40.9215 54.1289 41.5574 54.1511 42.9449 54.0747C44.3324 53.9965 45.4885 53.5351 44.9488 52.995C44.4092 52.4549 43.9473 52.9959 42.8671 53.2259Z" fill="#261005"/>
<path d="M20.9359 60.0337C21.2635 59.3657 22.2845 57.6429 24.6839 58.8197C26.8406 59.8778 26.4646 61.4894 26.1225 62.2885C26.0633 62.4353 25.9173 62.5018 25.7605 62.4625L24.5126 62.1646C24.2799 62.1009 24.1877 61.8794 24.2618 61.6521C24.4295 61.1816 24.3766 60.8291 23.8297 60.5606C23.0808 60.1932 22.7966 60.6443 22.4142 61.4239L21.6992 62.8819C21.3169 63.6615 21.1343 64.1623 21.8832 64.5297C22.44 64.8031 22.7211 64.6142 23.0103 64.1781C23.145 63.9806 23.3714 63.9286 23.5491 64.0782L24.5691 64.8926C24.6961 64.9925 24.7327 65.1484 24.6478 65.2953C24.2297 66.0451 23.1857 67.3286 21.029 66.2711C18.6296 65.0942 19.3667 63.2326 19.6948 62.5646L20.9359 60.0337Z" fill="#261005"/>
<path d="M39.2116 61.5735C39.4376 61.5717 39.551 61.6837 39.5528 61.9097L39.5618 63.1743C39.5632 63.389 39.4516 63.5142 39.2256 63.5155L36.3796 63.5363C36.1654 63.5377 36.0416 63.6515 36.0434 63.8775L36.0461 64.2391C36.0475 64.4533 36.1727 64.5767 36.3873 64.5753L38.2507 64.5618C38.4767 64.56 38.5906 64.6721 38.5919 64.898L38.6014 66.163C38.6028 66.3777 38.4912 66.5025 38.2652 66.5043L36.4018 66.5178C36.1876 66.5192 36.0637 66.6331 36.0655 66.8591L36.0823 69.1627C36.0836 69.3769 35.972 69.5021 35.746 69.5039L34.4137 69.5138C34.199 69.5152 34.0738 69.3922 34.0724 69.1776L34.0196 61.9504C34.0177 61.7244 34.1411 61.6105 34.3558 61.6092L39.2116 61.5735Z" fill="#261005"/>
<path d="M45.1825 60.0712C45.4013 60.0147 45.5387 60.0956 45.5952 60.3143L45.912 61.5387C45.9658 61.7466 45.8876 61.8953 45.6688 61.9518L42.9137 62.6649C42.7063 62.7187 42.6141 62.8593 42.6706 63.0776L42.761 63.4274C42.8148 63.6348 42.9662 63.7243 43.1736 63.6705L44.9773 63.2037C45.1961 63.1472 45.3339 63.2281 45.3904 63.4468L45.7072 64.6712C45.761 64.879 45.6828 65.0273 45.4641 65.0838L43.6604 65.5506C43.4529 65.6044 43.3607 65.745 43.4172 65.9637L43.9948 68.1941C44.0486 68.4016 43.9704 68.5502 43.7517 68.6067L42.4618 68.9407C42.2539 68.9945 42.1025 68.9055 42.0487 68.6976L40.2373 61.7009C40.1808 61.4822 40.2725 61.3416 40.4804 61.2878L45.1812 60.0707L45.1825 60.0712Z" fill="#261005"/>
<path d="M50.5354 57.3491C50.7383 57.2456 50.8915 57.2953 50.995 57.4987L51.574 58.6349C51.6725 58.8279 51.6278 58.991 51.4248 59.0945L48.9689 60.346C48.7764 60.444 48.7163 60.6027 48.8198 60.8056L48.9852 61.1306C49.0833 61.3231 49.2519 61.3782 49.4448 61.2797L51.0176 60.4779C51.2206 60.3744 51.3738 60.4242 51.4773 60.6271L52.0567 61.7637C52.1552 61.9567 52.1105 62.1199 51.9071 62.2234L50.3343 63.0251C50.1418 63.1232 50.0816 63.2819 50.1851 63.4848L50.3506 63.8093C50.4491 64.0023 50.6172 64.057 50.8102 63.9589L53.2661 62.7074C53.469 62.6039 53.6222 62.6536 53.7257 62.8566L54.3051 63.9932C54.4086 64.1962 54.3589 64.3494 54.156 64.4529L49.8936 66.6249C49.7011 66.723 49.5325 66.6683 49.434 66.4758L46.1244 59.9812C46.0209 59.7783 46.081 59.6197 46.2735 59.5216L50.5354 57.3491Z" fill="#261005"/>
<path d="M55.1309 53.3479C55.304 53.1997 55.4644 53.2119 55.6127 53.385L56.4429 54.3531C56.5839 54.5176 56.579 54.6866 56.4063 54.8349L54.3138 56.6291C54.1497 56.7697 54.1285 56.9378 54.2767 57.1109L54.514 57.3875C54.6545 57.5516 54.8312 57.5651 54.9958 57.4245L56.3358 56.2757C56.5089 56.1275 56.6693 56.1397 56.8176 56.3123L57.6478 57.2808C57.7888 57.4453 57.7838 57.6144 57.6108 57.7626L56.2707 58.9115C56.1067 59.052 56.0854 59.2202 56.2341 59.3933L56.4714 59.6698C56.6124 59.8344 56.7891 59.8479 56.9532 59.7069L59.0457 57.9127C59.2188 57.7644 59.3792 57.7766 59.5275 57.9497L60.3577 58.9183C60.506 59.0909 60.4938 59.2518 60.3207 59.4L56.6892 62.5135C56.5252 62.6541 56.3485 62.6405 56.2074 62.4765L51.4629 56.9428C51.3146 56.7697 51.3354 56.6015 51.4995 56.461L55.1309 53.3479Z" fill="#261005"/>
<path d="M3.11491 31.7383C3.3906 29.5979 4.36139 28.8897 6.22841 29.1301C6.61528 29.1798 7.35241 29.3904 7.80436 29.9233C8.08096 29.4844 8.69381 29.2164 9.39975 29.3073C10.8112 29.489 11.4137 30.203 11.138 32.3435L10.7759 35.1555C10.7479 35.372 10.6069 35.4809 10.3904 35.4529L3.11582 34.516C2.88803 34.4866 2.78905 34.3583 2.80668 34.1292L3.11491 31.7383ZM9.5028 32.2829C9.5733 31.7365 9.55161 31.4559 9.0165 31.3872C8.48139 31.3185 8.3693 31.5584 8.29925 32.1049L8.20389 32.8447C8.17587 33.0612 8.27349 33.2008 8.50127 33.2302L9.02509 33.2976C9.25287 33.3269 9.38258 33.2162 9.4106 32.9997L9.5028 32.2829ZM6.64511 32.0077C6.71561 31.4613 6.68217 31.1793 5.97667 31.0884C5.27072 30.9976 5.16723 31.262 5.09717 31.8084L5.01808 32.423C4.99006 32.6395 5.08813 32.7792 5.31546 32.8085L6.18095 32.9202C6.40874 32.9496 6.53845 32.8388 6.56647 32.6223L6.64511 32.0077Z" fill="#261005"/>
<path d="M27.4726 3.95502C29.5556 3.39189 30.5811 4.01875 31.0724 5.8356C31.1741 6.21207 31.2613 6.97361 30.9418 7.59504C31.4529 7.68272 31.9352 8.14688 32.1209 8.8343C32.4924 10.2082 32.0626 11.038 29.9791 11.6007L27.2421 12.3405C27.0315 12.3975 26.8769 12.3084 26.82 12.0978L24.906 5.01711C24.8459 4.79565 24.9268 4.65464 25.1455 4.58369L27.4726 3.95502ZM29.4097 10.0663C29.9416 9.9226 30.1924 9.79515 30.0519 9.2745C29.9113 8.75385 29.6465 8.7421 29.1145 8.88582L28.3941 9.08061C28.1835 9.13756 28.0913 9.28128 28.1514 9.50273L28.2893 10.0125C28.3494 10.234 28.5012 10.3117 28.7114 10.2552L29.4097 10.0663ZM28.5722 7.32026C29.1041 7.17654 29.3518 7.03824 29.1665 6.35127C28.9808 5.66431 28.6969 5.66973 28.165 5.81345L27.5666 5.97525C27.356 6.03219 27.2643 6.17592 27.3239 6.39737L27.5517 7.23981C27.6114 7.46127 27.7637 7.539 27.9738 7.48251L28.5722 7.32026Z" fill="#261005"/>
<path d="M52.2746 7.12999C52.4414 7.23077 52.5074 7.36455 52.4812 7.56296L51.8408 11.6323C51.8267 11.7444 51.9167 11.772 51.9763 11.6739L53.8904 8.50844C54.0088 8.3123 54.176 8.27976 54.3622 8.39229L55.4595 9.05576C55.6557 9.17417 55.6941 9.33145 55.5757 9.52759L51.7834 15.7993C51.6708 15.9855 51.5077 16.0339 51.3115 15.9155L49.8711 15.0446C49.7044 14.9438 49.6384 14.81 49.6646 14.6116L50.305 10.5422C50.319 10.4301 50.2286 10.4026 50.1694 10.5006L48.2554 13.6661C48.1429 13.8523 47.9797 13.9007 47.7836 13.7823L46.6858 13.1184C46.4996 13.0058 46.4571 12.8327 46.5696 12.6465L50.362 6.37478C50.4804 6.17863 50.6476 6.14564 50.8338 6.25863L52.2746 7.12999Z" fill="#261005"/>
<path d="M15.4671 9.9678C15.624 9.8521 15.7731 9.84216 15.9462 9.94204L19.4629 12.0879C19.5609 12.1435 19.621 12.0707 19.5528 11.9785L17.3581 9.00107C17.2221 8.81668 17.2555 8.64946 17.4309 8.52065L18.4631 7.75956C18.6475 7.62352 18.8075 7.64793 18.9436 7.83233L23.2922 13.7321C23.4215 13.9075 23.4039 14.0765 23.2195 14.2125L21.8645 15.2113C21.7077 15.327 21.559 15.337 21.3855 15.2371L17.8693 13.0912C17.7712 13.0356 17.7111 13.1084 17.7789 13.2006L19.9736 16.1785C20.1028 16.3539 20.0852 16.5229 19.9008 16.6589L18.8681 17.42C18.6927 17.5493 18.5169 17.5226 18.3877 17.3473L14.039 11.4475C13.9029 11.2631 13.9364 11.0963 14.1117 10.9671L15.4671 9.9678Z" fill="#261005"/>
<path d="M56.7263 20.8639C56.5301 21.0433 56.3417 21.0519 56.1785 20.8738L55.2647 19.8755C55.1096 19.706 55.1092 19.5261 55.2873 19.3634L56.0628 18.6534C56.2413 18.4902 56.249 18.3194 56.0859 18.1413L55.3844 17.3744C55.2294 17.2049 55.0504 17.1886 54.8719 17.3518L54.0964 18.0618C53.9183 18.2249 53.7475 18.2173 53.5843 18.0392L52.6705 17.0404C52.5154 16.8709 52.5326 16.6752 52.7288 16.4958L56.5093 13.0365C57.6329 12.0088 58.9906 11.0936 60.8264 13.0998C62.6622 15.106 61.6304 16.3778 60.5073 17.4056L56.7267 20.8648L56.7263 20.8639ZM59.1035 15.8707C59.5315 15.4793 59.6884 15.2208 59.1501 14.6324C58.6118 14.0439 58.3407 14.1773 57.9127 14.5691L56.9405 15.4585C56.771 15.6136 56.7629 15.8016 56.9179 15.9706L57.6193 16.7376C57.7915 16.908 57.9624 16.9152 58.1404 16.752L59.1035 15.8707Z" fill="#261005"/>
<path d="M9.72962 15.633C10.7325 14.3418 12.2786 13.8826 13.7285 14.937C14.326 15.3722 15.3085 16.1347 15.967 16.6739C17.3644 17.8141 17.2664 19.4389 16.2707 20.722C15.2683 22.0141 13.7533 22.4692 12.2633 21.4121C11.6057 20.9444 10.7117 20.2511 10.0424 19.6888C8.66753 18.5377 8.72719 16.9251 9.72962 15.633ZM14.8109 19.5894C15.0789 19.2441 15.0694 18.8541 14.6211 18.464C14.128 18.0392 12.8806 17.0716 12.2764 16.6449C11.8289 16.3268 11.4574 16.4212 11.1894 16.7665C10.9219 17.1113 10.9228 17.4942 11.3354 17.8575C11.8479 18.3113 13.0958 19.2794 13.6801 19.6762C14.1696 20.0138 14.5434 19.9347 14.8109 19.5894Z" fill="#261005"/>
<path d="M5.305 23.2498C5.9305 21.7389 7.30082 20.8879 8.97756 21.5215C9.6695 21.7832 10.8175 22.2591 11.5957 22.6053C13.2444 23.3361 13.5789 24.9292 12.9574 26.4292C12.3324 27.9401 10.991 28.7789 9.27449 28.1525C8.51657 27.875 7.4712 27.443 6.67712 27.0773C5.04784 26.3303 4.6795 24.7597 5.305 23.2498ZM11.2504 25.7233C11.4172 25.3192 11.3056 24.9455 10.77 24.6879C10.1829 24.4077 8.72401 23.8048 8.02801 23.553C7.51233 23.3636 7.17924 23.553 7.01247 23.9566C6.84525 24.3602 6.94649 24.7294 7.44092 24.9703C8.05467 25.2731 9.51403 25.877 10.1829 26.1056C10.7438 26.3018 11.0837 26.1264 11.2504 25.7233Z" fill="#261005"/>
<path d="M36.1534 2.76278C37.7886 2.77137 39.0938 3.71866 39.1404 5.51065C39.1589 6.24959 39.1526 7.49291 39.1255 8.34348C39.0717 10.1463 37.7231 11.0566 36.0997 11.048C34.4645 11.0403 33.1814 10.1147 33.1127 8.28925C33.0833 7.48297 33.0888 6.35218 33.1272 5.47856C33.204 3.68838 34.5187 2.75419 36.1534 2.76278ZM36.1087 9.20129C36.5453 9.20264 36.849 8.95814 36.8856 8.36518C36.9222 7.71617 36.9303 6.13705 36.901 5.39811C36.8815 4.8499 36.5801 4.61262 36.1439 4.61081C35.7074 4.60855 35.4037 4.84221 35.367 5.39043C35.3191 6.07333 35.311 7.65155 35.3521 8.35749C35.3824 8.95136 35.6726 9.19858 36.1087 9.20129Z" fill="#261005"/>
<path d="M44.8395 3.96C46.4168 4.39342 47.4315 5.64759 47.0111 7.38986C46.8371 8.10892 46.5077 9.30795 46.2609 10.1233C45.7407 11.8502 44.2009 12.3808 42.6349 11.951C41.058 11.5175 40.0588 10.2909 40.466 8.50935C40.6476 7.7225 40.9468 6.63149 41.2103 5.79809C41.7495 4.08745 43.2626 3.52748 44.8395 3.96ZM43.1239 10.168C43.5451 10.2833 43.9022 10.126 44.0911 9.56195C44.2954 8.94458 44.7143 7.4215 44.8775 6.69973C45.0009 6.16462 44.7717 5.85775 44.35 5.74205C43.9293 5.62635 43.5754 5.77278 43.3978 6.29343C43.1732 6.94062 42.7551 8.4637 42.6118 9.15655C42.4866 9.73776 42.7027 10.0519 43.1239 10.168Z" fill="#261005"/>
<path d="M30.4922 60.8549C32.0858 61.2241 33.1501 62.4367 32.8008 64.1957C32.6557 64.9211 32.3751 66.1323 32.1613 66.9567C31.7102 68.7035 30.1935 69.2955 28.6107 68.929C27.0172 68.5597 25.9691 67.3738 26.3049 65.5773C26.4536 64.7837 26.7094 63.6818 26.9394 62.838C27.409 61.1066 28.8995 60.4861 30.4922 60.8549ZM29.0279 67.128C29.4536 67.2265 29.8039 67.0547 29.9707 66.4839C30.1501 65.8589 30.5062 64.3195 30.6405 63.5919C30.7421 63.0518 30.5008 62.7544 30.0751 62.6554C29.6493 62.5569 29.3013 62.7183 29.145 63.2452C28.947 63.901 28.5909 65.4404 28.4752 66.1377C28.3739 66.7239 28.6022 67.0294 29.0279 67.128Z" fill="#261005"/>
</svg>