<?xml version="1.0" encoding="UTF-8" standalone="no"?>
<!-- Created with Inkscape (http://www.inkscape.org/) -->

<svg
   width="170.87001mm"
   height="75.050003mm"
   viewBox="0 0 170.87002 75.050002"
   version="1.1"
   id="svg1"
   xmlns="http://www.w3.org/2000/svg"
   xmlns:svg="http://www.w3.org/2000/svg"
   xmlns:rdf="http://www.w3.org/1999/02/22-rdf-syntax-ns#"
   xmlns:cc="http://creativecommons.org/ns#"
   xmlns:dc="http://purl.org/dc/elements/1.1/">
  <title
     id="title3">Digital Freedom Foundation logo</title>
  <defs
     id="defs1" />
  <g
     id="layer1"
     transform="translate(-5.7619255,-183.35565)">
    <g
       id="g140"
       transform="translate(1e-6,0.70121)"
       style="fill:#0b1728;fill-opacity:1">
      <path
         id="path121"
         style="fill:#0b1728;fill-opacity:1;stroke-width:7.00001;stroke-linecap:round;stroke-linejoin:round;stroke-miterlimit:555;paint-order:stroke markers fill"
         d="m 43.714388,193.23527 c -14.643286,8e-5 -26.514035,11.87093 -26.514035,26.5144 0,14.64346 11.870749,26.51433 26.514035,26.51441 14.643286,6e-5 26.514551,-11.87087 26.514551,-26.51441 0,-14.64355 -11.871265,-26.51446 -26.514551,-26.5144 z m -19.686072,19.43107 h 5.965561 c 4.833532,0 7.861923,2.93675 7.861923,7.83156 0,4.89481 -3.028572,7.83155 -7.800959,7.83155 h -1.774415 v -3.60988 h -4.25211 z m 4.25211,12.05323 h 1.621986 c 2.325002,0 3.67028,-0.94826 3.67028,-4.22167 0,-3.27341 -1.3454,-4.22168 -3.792739,-4.22168 H 28.280426 Z M 39.615235,212.66634 H 50.62864 v 3.42645 h -6.761303 v 2.69215 h 6.0875 v 3.42592 h -6.0875 v 6.11859 h -4.25262 z m 12.77233,0 H 63.40046 v 3.42645 h -6.761315 v 2.69215 h 6.08802 v 3.42592 h -6.08802 v 6.11859 h -4.25158 z" />
      <g
         id="g139"
         transform="translate(43.767067,-192.23276)"
         style="fill:#0b1728;fill-opacity:1">
        <g
           id="g138"
           style="fill:#0b1728;fill-opacity:1"
           transform="translate(-342.90484,-480.32819)">
          <g
             id="g128"
             transform="matrix(0.29362983,0,0,0.29362983,-2261.3477,-462.98506)"
             style="fill:#0b1728;fill-opacity:1;stroke-width:3.40564">
            <path
               style="font-weight:900;font-size:66.0004px;line-height:1.25;font-family:INTER;-inkscape-font-specification:'INTER Heavy';letter-spacing:0px;fill:#0b1728;fill-opacity:1;stroke-width:0.901079"
               d="m 9217.9744,4644.6548 h 12.9376 v -21.0001 c 0,-3.1407 1.6406,-5.0626 4.3125,-5.0626 2.6719,0 4.4063,1.9219 4.4063,5.0626 v 21.0001 h 12.3751 v -21.0001 c 0,-3.1407 1.6406,-5.0626 4.3125,-5.0626 2.6719,0 4.4063,1.9219 4.4063,5.0626 v 21.0001 h 12.9376 v -24.2814 c 0,-7.3829 -4.7344,-12.1876 -11.6251,-12.1876 -5.3438,0 -9.6563,2.9063 -10.8751,7.3126 h -0.375 c -0.75,-4.4063 -4.7812,-7.3126 -9.8438,-7.3126 -4.9922,0 -8.8125,2.8125 -10.3125,7.3126 h -0.375 v -6.8438 l -12.2814,2.2671 z"
               id="path122" />
            <path
               style="font-weight:900;font-size:66.0004px;line-height:1.25;font-family:INTER;-inkscape-font-specification:'INTER Heavy';letter-spacing:0px;fill:#0b1728;fill-opacity:1;stroke-width:0.901079"
               d="m 9194.0678,4645.311 c 11.7189,0 18.6564,-7.5 18.6564,-18.5626 0,-11.0625 -6.9375,-18.5626 -18.6564,-18.5626 -11.7188,0 -18.6563,7.5001 -18.6563,18.5626 0,11.0626 6.9375,18.5626 18.6563,18.5626 z m 0.094,-9.5625 c -3.4688,0 -5.5313,-3.4454 -5.5313,-9.0938 0,-5.6485 2.0625,-9.0938 5.5313,-9.0938 3.2813,0 5.3438,3.4453 5.3438,9.0938 0,5.6484 -2.0625,9.0938 -5.3438,9.0938 z"
               id="path123" />
            <path
               style="font-weight:900;font-size:66.0004px;line-height:1.25;font-family:INTER;-inkscape-font-specification:'INTER Heavy';letter-spacing:0px;fill:#0b1728;fill-opacity:1;stroke-width:0.901079"
               d="m 9147.1926,4645.1235 c 5.0625,0 8.5313,-2.7187 10.0313,-6.375 h 0.2812 v 5.9063 h 12.8439 v -48.0003 l -12.9376,2.3882 v 15.8932 h -0.1875 c -1.4063,-3.6563 -4.7813,-6.7501 -10.1251,-6.7501 -7.125,0 -14.0626,5.4375 -14.0626,18.4689 0,12.4688 6.4688,18.4688 14.1564,18.4688 z m 4.7813,-9.9375 c -3.5626,0 -5.6251,-3.1875 -5.6251,-8.5313 0,-5.3438 2.0625,-8.5313 5.6251,-8.5313 3.5625,0 5.7187,3.1875 5.7187,8.5313 0,5.25 -2.1562,8.5313 -5.7187,8.5313 z"
               id="path124" />
            <path
               style="font-weight:900;font-size:66.0004px;line-height:1.25;font-family:INTER;-inkscape-font-specification:'INTER Heavy';letter-spacing:0px;fill:#0b1728;fill-opacity:1;stroke-width:0.901079"
               d="m 9111.2861,4645.311 c 9.9845,0 16.4064,-4.7812 17.6251,-12.2813 h -11.8125 c -0.75,2.0391 -2.8829,3.1875 -5.5313,3.1875 -3.8438,0 -6.0938,-2.5312 -6.0938,-6 v -0.5625 h 23.4376 v -3 c 0,-11.461 -7.0313,-18.4689 -17.9063,-18.4689 -11.1563,0 -18.2814,7.4063 -18.2814,18.5626 0,11.6485 7.0313,18.5626 18.5626,18.5626 z m -5.8125,-22.7813 c 0.07,-3.1173 2.6485,-5.2501 5.8125,-5.2501 3.211,0 5.6485,2.1563 5.7188,5.2501 z"
               id="path125" />
            <path
               style="font-weight:900;font-size:66.0004px;line-height:1.25;font-family:INTER;-inkscape-font-specification:'INTER Heavy';letter-spacing:0px;fill:#0b1728;fill-opacity:1;stroke-width:0.901079"
               d="m 9071.161,4645.311 c 9.9844,0 16.4063,-4.7812 17.6251,-12.2813 h -11.8126 c -0.75,2.0391 -2.8828,3.1875 -5.5313,3.1875 -3.8438,0 -6.0938,-2.5312 -6.0938,-6 v -0.5625 h 23.4377 v -3 c 0,-11.461 -7.0313,-18.4689 -17.9064,-18.4689 -11.1563,0 -18.2814,7.4063 -18.2814,18.5626 0,11.6485 7.0313,18.5626 18.5627,18.5626 z m -5.8126,-22.7813 c 0.07,-3.1173 2.6485,-5.2501 5.8126,-5.2501 3.2109,0 5.6484,2.1563 5.7187,5.2501 z"
               id="path126" />
            <path
               style="font-weight:900;font-size:66.0004px;line-height:1.25;font-family:INTER;-inkscape-font-specification:'INTER Heavy';letter-spacing:0px;fill:#0b1728;fill-opacity:1;stroke-width:0.901079"
               d="m 9027.3794,4644.6548 h 12.9376 v -18.7501 c 0,-4.1251 2.8359,-6.8438 6.6563,-6.8438 1.3359,0 3.4922,0.2109 4.7813,0.6562 v -11.0391 c -1.0313,-0.3047 -2.1563,-0.4922 -3.2813,-0.4922 -3.8438,0 -6.8438,2.25 -8.1563,7.3126 h -0.375 v -6.8438 l -12.5626,2.319 z"
               id="path127" />
            <path
               style="font-weight:900;font-size:66.0004px;line-height:1.25;font-family:INTER;-inkscape-font-specification:'INTER Heavy';letter-spacing:0px;fill:#0b1728;fill-opacity:1;stroke-width:0.901079"
               d="m 8989.4104,4644.6548 h 13.0314 v -18.7501 h 18.6563 v -10.5001 h -18.6563 v -8.25 h 20.7188 v -10.5001 h -33.7502 z"
               id="path128" />
          </g>
          <g
             id="g137"
             transform="matrix(0.29362535,0,0,0.29362535,-2194.1952,-479.67785)"
             style="fill:#0b1728;fill-opacity:1;stroke-width:3.40569">
            <path
               style="font-weight:900;font-size:66.0004px;line-height:1.25;font-family:INTER;-inkscape-font-specification:'INTER Heavy';letter-spacing:0px;fill:#0b1728;fill-opacity:1;stroke-width:0.901093"
               d="m 8969.9103,4596.6545 -12.9375,2.3882 v 45.6121 h 12.9375 z"
               id="path129" />
            <path
               style="font-weight:900;font-size:66.0004px;line-height:1.25;font-family:INTER;-inkscape-font-specification:'INTER Heavy';letter-spacing:0px;fill:#0b1728;fill-opacity:1;stroke-width:0.901093"
               d="m 8928.0038,4645.2173 c 4.6875,0 8.2266,-1.5938 10.4063,-5.625 h 0.2812 v 5.0625 h 12.0939 v -24.6564 c 0,-6.6563 -6.3048,-11.8126 -16.5939,-11.8126 -10.7579,0 -16.0548,5.625 -16.5001,12.1876 h 11.9063 c 0.3047,-2.2266 1.9454,-3.2813 4.4063,-3.2813 2.25,0 3.8438,1.0313 3.8438,2.9063 v 0.094 c 0,2.086 -2.2969,2.7422 -8.3438,3.1876 -7.4298,0.539 -13.2188,3.539 -13.2188,11.4375 0,7.1719 4.8281,10.5001 11.7188,10.5001 z m 4.2187,-8.1563 c -2.2031,0 -3.75,-1.0781 -3.75,-3.0938 0,-1.8516 1.3125,-3.2812 4.3126,-3.75 2.0625,-0.3281 3.7968,-0.75 5.1562,-1.3125 v 3 c 0,3.2813 -2.789,5.1563 -5.7188,5.1563 z"
               id="path130" />
            <path
               style="font-weight:900;font-size:66.0004px;line-height:1.25;font-family:INTER;-inkscape-font-specification:'INTER Heavy';letter-spacing:0px;fill:#0b1728;fill-opacity:1;stroke-width:0.901093"
               d="m 8912.7225,4608.6546 h -6.1876 v -8.6251 l -12.9375,2.388 v 6.2371 h -4.5938 v 9.375 h 4.5938 v 16.2657 c -0.094,7.547 4.5703,11.3673 13.5,10.8751 2.9297,-0.1641 5.1094,-0.7734 6.2813,-1.125 l -1.875,-9.0938 c -0.4922,0.1172 -1.7578,0.375 -2.5313,0.375 -1.6875,0 -2.4375,-0.75 -2.4375,-2.25 v -15.047 h 6.1876 z"
               id="path131" />
            <path
               style="font-weight:900;font-size:66.0004px;line-height:1.25;font-family:INTER;-inkscape-font-specification:'INTER Heavy';letter-spacing:0px;fill:#0b1728;fill-opacity:1;stroke-width:0.901093"
               d="m 8878.2223,4604.9045 c 3.5156,0 6.375,-2.6484 6.375,-5.9062 0,-3.2579 -2.8594,-5.9063 -6.375,-5.9063 -3.5157,0 -6.3751,2.6484 -6.3751,5.9063 0,3.2578 2.8594,5.9062 6.3751,5.9062 z"
               id="path132" />
            <path
               style="font-weight:900;font-size:66.0004px;line-height:1.25;font-family:INTER;-inkscape-font-specification:'INTER Heavy';letter-spacing:0px;fill:#0b1728;fill-opacity:1;stroke-width:0.901093"
               d="m 8871.7535,4644.6548 h 12.9376 v -36.0002 l -12.9376,2.3882 z"
               id="path133" />
            <path
               id="path134"
               style="font-weight:900;font-size:66.0004px;line-height:1.25;font-family:INTER;-inkscape-font-specification:'INTER Heavy';letter-spacing:0px;fill:#0b1728;fill-opacity:1;stroke-width:0.901093"
               d="m 8841.8473,4608.1859 c -7.125,0 -14.0627,5.4373 -14.0627,18.4686 0,12.4688 6.4686,17.5313 14.1562,17.5313 4.875,0 8.7188,-2.0622 10.125,-5.7185 h 0.3752 v 6.0936 c 0,4.2422 -2.461,5.625 -5.8126,5.625 -2.9766,0 -5.1564,-0.8905 -5.5314,-3.1874 -0.1808,-1.3731 -0.064,-2.3037 4e-4,-2.8334 l -12.4322,2.295 c 0,0 -0.1262,1.0146 0.3441,2.7698 1.5705,5.7462 7.6175,9.6749 17.2439,9.6749 11.3907,0 18.9379,-5.2032 18.9379,-14.3439 v -35.9063 l -12.9377,2.388 v 3.8933 h -0.2811 c -1.4063,-3.6563 -4.7812,-6.75 -10.125,-6.75 z m 4.8746,9.9374 c 3.5626,0 5.7191,3.1875 5.7191,8.5312 0,5.25 -2.1565,8.3442 -5.7191,8.3442 -3.5625,0 -5.6249,-3.0004 -5.6249,-8.3442 0,-5.3437 2.0624,-8.5312 5.6249,-8.5312 z" />
            <path
               style="font-weight:900;font-size:66.0004px;line-height:1.25;font-family:INTER;-inkscape-font-specification:'INTER Heavy';letter-spacing:0px;fill:#0b1728;fill-opacity:1;stroke-width:0.901093"
               d="m 8815.8782,4604.9045 c 3.5157,0 6.3751,-2.6484 6.3751,-5.9062 0,-3.2579 -2.8594,-5.9063 -6.3751,-5.9063 -3.5156,0 -6.375,2.6484 -6.375,5.9063 0,3.2578 2.8594,5.9062 6.375,5.9062 z"
               id="path135" />
            <path
               style="font-weight:900;font-size:66.0004px;line-height:1.25;font-family:INTER;-inkscape-font-specification:'INTER Heavy';letter-spacing:0px;fill:#0b1728;fill-opacity:1;stroke-width:0.901093"
               d="m 8809.4095,4644.6548 h 12.9375 v -36.0002 l -12.9375,2.3882 z"
               id="path136" />
            <path
               style="font-weight:900;font-size:66.0004px;line-height:1.25;font-family:INTER;-inkscape-font-specification:'INTER Heavy';letter-spacing:0px;fill:#0b1728;fill-opacity:1;stroke-width:0.901093"
               d="m 8779.3156,4644.6548 c 14.625,0 23.9064,-9.0001 23.9064,-24.0002 0,-15 -9.2814,-24.0001 -24.0939,-24.0001 h -10.6576 -7.6238 v 48.0003 z m -5.4376,-11.0626 v -25.8751 h 4.5938 c 7.5,0 11.6251,2.9062 11.6251,12.9375 0,10.0314 -4.1251,12.9376 -11.2501,12.9376 z"
               id="path137" />
          </g>
        </g>
        <path
           id="path138"
           style="-inkscape-font-specification:'Open Sans Light';fill:#0b1728;fill-opacity:1;stroke-width:0.264583"
           d="m 80.453435,423.1151 -0.83199,0.15348 v 2.71302 c 0,0.28005 0.006,0.58745 0.0165,0.92242 0.011,0.33497 0.0272,0.64844 0.0491,0.93948 h -0.0656 c -0.14278,-0.34595 -0.3462,-0.65387 -0.60978,-0.92294 -0.25809,-0.27457 -0.57938,-0.49136 -0.96377,-0.65061 -0.3789,-0.15924 -0.82637,-0.23874 -1.34255,-0.23874 -1.20809,0 -2.14972,0.40633 -2.82515,1.21904 -0.67543,0.81272 -1.01338,1.99336 -1.01338,3.54191 0,1.47716 0.31851,2.60278 0.9555,3.37705 0.64248,0.76878 1.5763,1.15342 2.80086,1.15342 0.54913,0 1.01882,-0.08 1.4087,-0.23926 0.38989,-0.16474 0.71342,-0.38431 0.97152,-0.65888 0.26358,-0.27456 0.46978,-0.5764 0.61805,-0.90588 h 0.0491 l 0.10749,1.63917 h 0.67541 z m 17.97306,-0.2222 c -0.19768,0 -0.34609,0.0628 -0.44493,0.18913 -0.0988,0.12082 -0.14831,0.28588 -0.14831,0.49455 0,0.20867 0.0495,0.37322 0.14831,0.49402 0.0988,0.12081 0.24725,0.18139 0.44493,0.18139 0.20867,0 0.36211,-0.0606 0.46096,-0.18139 0.0988,-0.1208 0.14831,-0.28535 0.14831,-0.49402 0,-0.20867 -0.0495,-0.37373 -0.14831,-0.49455 -0.0989,-0.1263 -0.25229,-0.18913 -0.46096,-0.18913 z m -63.12018,0.22221 v 12.04267 h 0.84853 v -5.38727 h 5.42809 v -0.75757 h -5.42809 v -5.13147 h 5.74125 v -0.76636 z m 57.9391,-1e-5 -0.56637,0.10439 -0.27389,2.92696 -1.32601,0.25528 v 0.49402 h 1.33428 v 5.79913 c 0,0.59856 0.0851,1.09272 0.25528,1.4826 0.17023,0.38439 0.42261,0.67286 0.75758,0.86506 0.33497,0.1867 0.75519,0.27957 1.26039,0.27957 0.28554,0 0.54625,-0.0245 0.78238,-0.0739 0.23613,-0.0439 0.44232,-0.0962 0.61805,-0.15658 v -0.69195 c -0.17023,0.0604 -0.36811,0.10984 -0.59325,0.14831 -0.21965,0.0385 -0.45866,0.0579 -0.71675,0.0579 -0.54364,0 -0.93608,-0.16507 -1.1777,-0.49455 -0.23613,-0.33497 -0.35399,-0.82358 -0.35399,-1.46606 v -5.74952 h 2.79208 v -0.69195 h -2.79208 z m -46.15997,2.91611 c -0.84017,0 -1.56223,0.18676 -2.16628,0.56017 -0.59855,0.36792 -1.05991,0.90044 -1.38389,1.59784 -0.31849,0.6919 -0.47801,1.51845 -0.47801,2.47943 0,0.69739 0.0878,1.33163 0.26355,1.90273 0.17572,0.5656 0.43139,1.0542 0.76636,1.46606 0.34046,0.41184 0.75513,0.73036 1.24385,0.95549 0.48873,0.21966 1.04573,0.3297 1.67174,0.3297 0.65896,0 1.2359,-0.11282 1.73012,-0.33796 0.49971,-0.22515 0.91716,-0.54365 1.25212,-0.9555 0.33498,-0.41185 0.58735,-0.90045 0.75758,-1.46606 0.17023,-0.57109 0.25528,-1.20255 0.25528,-1.89446 0,-0.91156 -0.14562,-1.7159 -0.43666,-2.41329 -0.29104,-0.6974 -0.72741,-1.24154 -1.30948,-1.63142 -0.57659,-0.39538 -1.29865,-0.59273 -2.16628,-0.59273 z m 20.27938,0 c -0.53815,0 -1.01061,0.0823 -1.41697,0.24701 -0.40636,0.15925 -0.74934,0.37604 -1.02939,0.65061 -0.27457,0.26907 -0.49136,0.57144 -0.65061,0.9064 h -0.0496 l -0.1235,-1.63091 -0.67541,0.12454 v 8.82892 h 0.83199 v -4.93406 c 0,-1.15867 0.25792,-2.02358 0.77411,-2.59468 0.52167,-0.57658 1.27376,-0.86506 2.25671,-0.86506 0.77427,0 1.3646,0.20898 1.77095,0.62632 0.40636,0.41734 0.60978,1.0705 0.60978,1.96009 v 5.80739 h 0.82372 v -5.85649 c 0,-1.12572 -0.26903,-1.95227 -0.80718,-2.47943 -0.53815,-0.52717 -1.30968,-0.79065 -2.31459,-0.79065 z m 37.964095,0 c -0.84016,0 -1.56223,0.18676 -2.16627,0.56017 -0.59856,0.36792 -1.05991,0.90044 -1.3839,1.59784 -0.31849,0.6919 -0.47749,1.51845 -0.47749,2.47943 0,0.69739 0.0878,1.33163 0.26355,1.90273 0.17573,0.5656 0.43088,1.0542 0.76585,1.46606 0.34046,0.41184 0.75512,0.73036 1.24385,0.95549 0.48872,0.21966 1.04623,0.3297 1.67225,0.3297 0.65895,0 1.23539,-0.11282 1.72961,-0.33796 0.4997,-0.22515 0.91714,-0.54365 1.25212,-0.9555 0.33496,-0.41185 0.58734,-0.90045 0.75757,-1.46606 0.17023,-0.57109 0.25529,-1.20255 0.25529,-1.89446 0,-0.91156 -0.14563,-1.7159 -0.43667,-2.41329 -0.29104,-0.6974 -0.72741,-1.24154 -1.30948,-1.63142 -0.57659,-0.39538 -1.29864,-0.59273 -2.16628,-0.59273 z m 10.32082,0 c -0.53815,0 -1.01009,0.0823 -1.41645,0.24701 -0.40635,0.15925 -0.74985,0.37604 -1.02991,0.65061 -0.27457,0.26907 -0.49136,0.57144 -0.65061,0.9064 h -0.0496 l -0.12351,-1.63091 -0.67541,0.12454 v 8.82892 h 0.83199 v -4.93406 c 0,-1.15867 0.25794,-2.02358 0.77412,-2.59468 0.52167,-0.57658 1.27428,-0.86506 2.25722,-0.86506 0.77428,0 1.3646,0.20898 1.77096,0.62632 0.40635,0.41734 0.60926,1.0705 0.60926,1.96009 v 5.80739 h 0.82372 v -5.85649 c 0,-1.12572 -0.26904,-1.95227 -0.80718,-2.47943 -0.53816,-0.52717 -1.30968,-0.79065 -2.31459,-0.79065 z m -29.101075,0.0165 c -0.53814,0 -1.05453,0.0656 -1.54874,0.19741 -0.48873,0.13179 -0.9473,0.29964 -1.37563,0.50281 l 0.26407,0.69143 c 0.4393,-0.21965 0.87011,-0.38697 1.29295,-0.50229 0.42831,-0.12081 0.87301,-0.18139 1.33428,-0.18139 0.70838,0 1.24368,0.1951 1.6061,0.58498 0.36243,0.38989 0.54364,1.04356 0.54364,1.9606 v 0.65061 l -1.66346,0.0822 c -1.37832,0.0604 -2.43555,0.32441 -3.17139,0.79117 -0.73584,0.46127 -1.10381,1.13665 -1.10381,2.02623 0,0.52717 0.11005,0.97464 0.3297,1.34256 0.22515,0.36791 0.54088,0.64806 0.94723,0.84026 0.41185,0.19219 0.90601,0.28835 1.4826,0.28835 0.57109,0 1.05415,-0.0745 1.44952,-0.22272 0.40087,-0.14826 0.73881,-0.35118 1.01337,-0.60927 0.27457,-0.26359 0.50803,-0.56317 0.70022,-0.89814 h 0.0491 l 0.14831,1.56528 h 0.64234 v -6.0048 c 0,-1.08178 -0.24404,-1.86998 -0.73277,-2.3642 -0.48873,-0.49422 -1.22467,-0.74104 -2.20762,-0.74104 z m -32.37115,0.15658 -0.83199,0.15348 v 5.71077 c 0,0.72485 0.11787,1.32906 0.35399,1.81229 0.23612,0.48324 0.58517,0.84566 1.04644,1.08727 0.46676,0.23613 1.0432,0.3545 1.72961,0.3545 0.53815,0 1.0101,-0.08 1.41645,-0.23926 0.40636,-0.15925 0.74986,-0.37327 1.02992,-0.64234 0.28005,-0.26907 0.49684,-0.56814 0.6506,-0.89762 h 0.0496 l 0.12351,1.61437 h 0.67541 v -8.95346 h -0.83199 v 4.94182 c 0,0.76879 -0.11786,1.41135 -0.35398,1.92753 -0.23064,0.51069 -0.57136,0.89255 -1.02165,1.14515 -0.44479,0.2526 -0.99675,0.37879 -1.65571,0.37879 -0.77977,0 -1.37287,-0.21124 -1.77922,-0.63407 -0.40087,-0.42283 -0.601,-1.08205 -0.601,-1.97714 z m 44.65257,0 -0.83199,0.15348 v 8.79998 h 0.83199 z m -22.04206,0.55191 c 1.00491,0 1.72975,0.33742 2.17454,1.01286 0.4448,0.66994 0.66715,1.63656 0.66715,2.89956 v 0.13178 c 0,1.21907 -0.22235,2.15793 -0.66715,2.81688 -0.44479,0.65346 -1.19462,0.9803 -2.24896,0.9803 -1.01039,0 -1.76249,-0.32128 -2.2567,-0.96377 -0.48873,-0.64247 -0.73329,-1.58411 -0.73329,-2.82515 0,-1.31791 0.2607,-2.32289 0.78238,-3.0148 0.52716,-0.6919 1.2881,-1.03766 2.28203,-1.03766 z m -29.71085,0.008 c 0.72485,0 1.3124,0.17062 1.76268,0.51108 0.45029,0.33497 0.77991,0.79632 0.98857,1.38389 0.20868,0.58757 0.31265,1.25739 0.31265,2.0097 0,0.77427 -0.10953,1.45798 -0.32918,2.05104 -0.21966,0.59306 -0.56037,1.05441 -1.02165,1.38389 -0.46126,0.32948 -1.05159,0.49403 -1.77095,0.49403 -0.70288,0 -1.28487,-0.16455 -1.74614,-0.49403 -0.45578,-0.32948 -0.79599,-0.78806 -1.02113,-1.37562 -0.22515,-0.58758 -0.33796,-1.27406 -0.33796,-2.05931 0,-1.21907 0.26625,-2.17458 0.79891,-2.86649 0.53815,-0.6919 1.32634,-1.03818 2.3642,-1.03818 z m 58.243475,0 c 0.72486,0 1.3124,0.17062 1.76269,0.51108 0.45028,0.33497 0.7799,0.79632 0.98857,1.38389 0.20867,0.58757 0.31316,1.25739 0.31316,2.0097 0,0.77427 -0.11005,1.45798 -0.3297,2.05104 -0.21965,0.59306 -0.56038,1.05441 -1.02164,1.38389 -0.46127,0.32948 -1.05159,0.49403 -1.77095,0.49403 -0.70289,0 -1.28488,-0.16455 -1.74615,-0.49403 -0.45578,-0.32948 -0.79599,-0.78806 -1.02113,-1.37562 -0.22514,-0.58758 -0.33796,-1.27406 -0.33796,-2.05931 0,-1.21907 0.26626,-2.17458 0.79892,-2.86649 0.53814,-0.6919 1.32634,-1.03818 2.36419,-1.03818 z m -16.663585,3.83853 v 0.8816 c -0.005,0.96646 -0.26897,1.72967 -0.79065,2.28978 -0.51618,0.56011 -1.2655,0.84026 -2.24844,0.84026 -0.6315,0 -1.12566,-0.15119 -1.4826,-0.45321 -0.35144,-0.30202 -0.5271,-0.7356 -0.5271,-1.30121 0,-0.70288 0.2963,-1.23037 0.88936,-1.58181 0.59306,-0.35142 1.45797,-0.55434 2.59467,-0.60927 z" />
      </g>
    </g>
  </g>
  <metadata
     id="metadata3">
    <rdf:RDF>
      <cc:License
         rdf:about="http://creativecommons.org/licenses/by-nd/4.0/">
        <cc:permits
           rdf:resource="http://creativecommons.org/ns#Reproduction" />
        <cc:permits
           rdf:resource="http://creativecommons.org/ns#Distribution" />
        <cc:requires
           rdf:resource="http://creativecommons.org/ns#Notice" />
        <cc:requires
           rdf:resource="http://creativecommons.org/ns#Attribution" />
      </cc:License>
      <cc:Work
         rdf:about="">
        <cc:license
           rdf:resource="http://creativecommons.org/licenses/by-nd/4.0/" />
        <dc:title>Digital Freedom Foundation logo</dc:title>
        <dc:date>2023-10-18</dc:date>
        <dc:creator>
          <cc:Agent>
            <dc:title>RoadArchie</dc:title>
          </cc:Agent>
        </dc:creator>
        <dc:publisher>
          <cc:Agent>
            <dc:title>Digital Freedom Foundation</dc:title>
          </cc:Agent>
        </dc:publisher>
      </cc:Work>
    </rdf:RDF>
  </metadata>
</svg>
