<?xml version="1.0" encoding="UTF-8" standalone="no"?>
<svg xmlns:dc="http://purl.org/dc/elements/1.1/" xmlns:cc="http://creativecommons.org/ns#" xmlns:rdf="http://www.w3.org/1999/02/22-rdf-syntax-ns#" xmlns:svg="http://www.w3.org/2000/svg" xmlns="http://www.w3.org/2000/svg" xmlns:sodipodi="http://sodipodi.sourceforge.net/DTD/sodipodi-0.dtd" xmlns:inkscape="http://www.inkscape.org/namespaces/inkscape" width="115" height="115" viewBox="0 0 115 115" fill="none" version="1.1" id="svg46" sodipodi:docname="jmp.svg" inkscape:version="1.0.2 (e86c870879, 2021-01-15)">
  <metadata id="metadata50">
    <rdf:RDF>
      <cc:Work rdf:about="">
        <dc:format>image/svg+xml</dc:format>
        <dc:type rdf:resource="http://purl.org/dc/dcmitype/StillImage"/>
        <dc:title/>
      </cc:Work>
    </rdf:RDF>
  </metadata>
  <sodipodi:namedview pagecolor="#ffffff" bordercolor="#666666" borderopacity="1" objecttolerance="10" gridtolerance="10" guidetolerance="10" inkscape:pageopacity="0" inkscape:pageshadow="2" inkscape:window-width="1656" inkscape:window-height="1060" id="namedview48" showgrid="false" fit-margin-top="0" fit-margin-left="0" fit-margin-right="0" fit-margin-bottom="0" inkscape:zoom="5.7421875" inkscape:cx="73.79713" inkscape:cy="66.931973" inkscape:window-x="1088" inkscape:window-y="1092" inkscape:window-maximized="0" inkscape:current-layer="svg46"/>
  <g id="g59" transform="translate(-5.9920006,3.158316)">
    <path fill-rule="evenodd" clip-rule="evenodd" d="m 16.704825,15.9948 c -3.2129,6.2648 -3.2129,14.4714 -3.2129,30.8763 V 52.73 c 0,16.4049 0,24.6116 3.2129,30.8764 2.8256,5.5116 7.3354,9.9936 12.8812,12.8016 1.937,0.979 4.0551,1.661 6.5395,2.13 1.3223,0.251 2.2655,1.423 2.2318,2.762 l -0.1431,6.098 c -0.0253,1.13 1.3474,1.715 2.1559,0.916 l 6.3964,-6.344 c 1.558,-1.544 3.6719,-2.407 5.8742,-2.394 2.4381,0.025 5.0952,0.025 8.0134,0.025 h 5.8952 c 16.5068,0 24.7644,0 31.0681,-3.193 5.545595,-2.808 10.055595,-7.29 12.881595,-12.8016 3.213,-6.2648 3.213,-14.4715 3.213,-30.8764 v -5.8589 c 0,-16.4049 0,-24.6115 -3.213,-30.8763 -2.826,-5.5116 -7.336,-9.9936 -12.881595,-12.8017 C 91.313725,0 83.056125,0 66.549325,0 h -5.8952 c -16.5068,0 -24.7644,0 -31.0681,3.1931 -5.5458,2.8081 -10.0556,7.2901 -12.8812,12.8017 z" fill="url(#paint0_linear)" id="path2" style="fill:url(#paint0_linear)"/>
    <g filter="url(#filter0_f)" id="g6" transform="translate(-0.87597501,-11)">
      <path d="m 108.871,47.7873 c -4.309,-3.3562 -10.4736,-5.7251 -17.8188,-6.8392 -1.4007,-0.2135 -2.8248,0.1616 -3.9318,1.0364 -1.1034,0.8748 -1.7869,2.1631 -1.8832,3.5613 L 83.584,69.4622 c -0.0387,0.5423 -0.7991,0.5426 -0.8383,0.0012 L 80.746,42.1567 c -0.1964,-3.0864 -2.5224,-5.5232 -5.6722,-5.931 -3.1721,-0.4114 -6.0722,1.3687 -7.0567,4.3322 -0.0324,0.0932 -0.061,0.1903 -0.086,0.2834 l -4.5784,17.4958 c -0.2423,0.9237 -1.4808,0.9562 -1.7725,0.0459 L 56.2437,41.5769 c -0.9296,-2.9702 -3.895,-4.8506 -7.0549,-4.4726 -3.1562,0.3779 -5.5587,2.8997 -5.7107,6.0131 l -0.9297,20.4874 c -0.0241,0.5189 -0.7395,0.5613 -0.8229,0.0513 L 38.8057,46 c -0.4564,-2.774 -3.1066,-4.6694 -5.9098,-4.2294 -2.8069,0.44 -4.7077,3.0456 -4.2476,5.8234 l 4.1892,25.3251 c 0.4552,3.699 -0.6711,6.2383 -3.0205,6.7973 -2.1496,0.5105 -5.1418,-0.7582 -6.6387,-4.748 -0.9965,-2.6444 -3.96,-4.0024 -6.624,-3.0375 -2.664,0.9649 -4.0236,3.8898 -3.0345,6.5265 2.6768,7.1316 8.2539,10.7685 13.6912,11.419 1.7345,0.2061 3.4545,0.1104 5.0602,-0.2743 3.045,-0.7251 5.9596,-2.5286 8.0175,-5.3603 0.4277,-0.5889 1.3329,-0.2309 1.3,0.5087 l -0.1647,3.6592 c -0.1168,2.5904 1.9432,4.7862 4.6004,4.9128 2.6608,0.115 4.9094,-1.8789 5.0263,-4.4693 l 1.1368,-25.0295 c 0.027,-0.5924 0.8195,-0.7053 0.9999,-0.1422 l 3.5705,11.2478 c 0.8105,2.5883 3.2109,4.3548 5.9786,4.4144 0.0223,-2e-4 0.0445,-5e-4 0.0631,-6e-4 2.8008,0.0283 5.2564,-1.693 6.1188,-4.2836 0.0323,-0.0932 0.0573,-0.1902 0.0859,-0.2834 l 2.715,-10.3702 c 0.1533,-0.5783 0.9628,-0.4979 1.0063,0.1015 l 1.8391,25.1218 c 0.1783,2.4441 2.246,4.3224 4.7132,4.3736 0.1447,0.0024 0.2894,8e-4 0.4377,-0.0085 2.6539,-0.1791 4.6514,-2.418 4.4603,-5.0051 -0.0392,-0.5453 0.5134,-0.8995 0.9724,-0.6373 0.642,0.3686 1.3752,0.6007 2.1659,0.6543 0.1002,0.0066 0.2041,0.0094 0.3043,0.0122 2.6635,0.0298 4.9118,-1.9989 5.0984,-4.6597 l 0.4944,-7.142 c 0.0579,-0.825 0.6814,-1.4818 1.4707,-1.556 14.541,-1.3348 20.349,-8.6261 20.823,-14.9436 0.349,-4.737 -2.003,-9.3254 -6.634,-12.9298 z m -13.1269,17.633 c -0.8888,0.1371 -1.6722,-0.6208 -1.608,-1.5543 l 0.69,-10.0003 c 0.0677,-0.9528 0.9807,-1.5895 1.8483,-1.2813 6.1256,2.1758 8.8706,5.359 8.7216,7.3692 -0.142,1.9212 -3.242,4.4659 -9.6519,5.4667 z" fill="#013255" fill-opacity="0.2" id="path4"/>
    </g>
    <g filter="url(#filter1_f)" id="g10" transform="translate(-0.87597501,-11)">
      <path d="m 110.482,44.6829 c -4.503,-3.3541 -10.9466,-5.7201 -18.6251,-6.8307 -1.4642,-0.2128 -2.9532,0.163 -4.111,1.0383 -1.154,0.8754 -1.8692,2.164 -1.9705,3.5623 l -1.74,23.9173 c -0.0407,0.5423 -0.8357,0.543 -0.8764,0.0016 L 81.0817,39.0658 c -0.2038,-3.0863 -2.6343,-5.522 -5.9271,-5.9283 -3.3161,-0.4098 -6.3488,1.3717 -7.3795,4.3357 -0.0339,0.0932 -0.0639,0.1903 -0.09,0.2834 l -4.795,17.4981 c -0.2538,0.9238 -1.5487,0.9569 -1.8532,0.0468 L 55.4661,38.4979 c -0.9704,-2.9698 -4.0696,-4.8488 -7.3734,-4.4693 -3.2998,0.3795 -5.8127,2.9025 -5.9732,6.0159 l -0.9819,20.488 c -0.0254,0.5188 -0.7734,0.5616 -0.8603,0.0517 L 37.2334,42.9294 c -0.4758,-2.7738 -3.2456,-4.668 -6.1764,-4.2266 -2.9347,0.4414 -4.9231,3.0479 -4.4434,5.8255 l 4.3672,25.3232 c 0.4741,3.6988 -0.7047,6.2386 -3.1611,6.7988 -2.2476,0.5115 -5.3751,-0.7557 -6.9381,-4.7448 -1.0406,-2.644 -4.1381,-4.0005 -6.9236,-3.0343 -2.7856,0.9661 -4.20834,3.8917 -3.1756,6.528 2.795,7.1303 8.6237,10.7645 14.3079,11.4124 1.8132,0.2053 3.6115,0.1088 5.2903,-0.2767 3.1837,-0.7266 6.2317,-2.5315 8.3845,-5.3642 0.4474,-0.5892 1.3936,-0.2315 1.3589,0.508 L 39.95,85.338 c -0.1234,2.5905 2.0292,4.7853 4.8071,4.9106 2.7816,0.1137 5.1334,-1.8812 5.2568,-4.4717 l 1.2007,-25.0302 c 0.0286,-0.5924 0.8572,-0.7057 1.0455,-0.1427 l 3.7273,11.2462 c 0.8461,2.5879 3.3546,4.3532 6.2482,4.4115 0.0232,-2e-4 0.0465,-5e-4 0.0659,-7e-4 2.9281,0.027 5.4961,-1.6954 6.3989,-4.2865 0.0339,-0.0932 0.06,-0.1903 0.0901,-0.2835 l 2.8434,-10.3715 c 0.1606,-0.5784 1.0068,-0.4984 1.052,0.1011 l 1.9104,25.1209 c 0.1852,2.4441 2.346,4.3214 4.9253,4.3714 0.1513,0.0023 0.3025,7e-4 0.4575,-0.0087 2.7746,-0.1804 4.864,-2.4202 4.6656,-5.0073 -0.0408,-0.5453 0.5371,-0.8998 1.0169,-0.6378 0.6709,0.3683 1.4374,0.6001 2.2639,0.6533 0.1048,0.0066 0.2134,0.0093 0.3182,0.0121 2.7846,0.0285 5.136,-2.0013 5.3323,-4.6623 l 0.5205,-7.1423 c 0.0609,-0.825 0.7131,-1.4821 1.5383,-1.5566 15.2022,-1.3419 21.2782,-8.636 21.7762,-14.9537 0.368,-4.7373 -2.089,-9.3245 -6.929,-12.9267 z M 96.7501,62.3223 c -0.9292,0.1376 -1.7478,-0.62 -1.6803,-1.5535 L 95.796,50.7681 c 0.0712,-0.9529 1.0261,-1.59 1.933,-1.2823 6.402,2.173 9.271,5.3548 9.115,7.3652 -0.15,1.9212 -3.392,4.4674 -10.0939,5.4713 z" fill="#013255" fill-opacity="0.15" id="path8"/>
    </g>
    <path d="m 109.73502,32.1037 c -4.51,-3.3446 -10.962595,-5.7038 -18.652195,-6.8109 -1.4664,-0.2121 -2.9575,0.1626 -4.117,1.0356 -1.1557,0.873 -1.872,2.1581 -1.9735,3.5524 l -1.7436,23.8512 c -0.0408,0.5408 -0.8369,0.5415 -0.8777,0.0016 l -2.0791,-27.2301 c -0.2039,-3.0778 -2.6378,-5.5066 -5.9354,-5.9116 -3.3209,-0.4086 -6.3581,1.3682 -7.3904,4.324 -0.034,0.0929 -0.064,0.1898 -0.0902,0.2827 l -4.8027,17.4497 c -0.2542,0.9213 -1.5509,0.9544 -1.8558,0.0468 l -5.5782,-16.7568 c -0.9717,-2.9616 -4.0753,-4.8352 -7.3839,-4.4566 -3.3046,0.3786 -5.8213,2.8947 -5.9821,5.9995 l -0.9843,20.4312 c -0.0255,0.5175 -0.7745,0.5602 -0.8616,0.0517 l -3.0475,-17.6058 c -0.4763,-2.7661 -3.25,-4.6548 -6.1851,-4.2146 -2.9389,0.4403 -4.9304,3.0397 -4.4502,5.8096 l 4.3724,25.2528 c 0.4746,3.6886 -0.7059,6.2214 -3.1659,6.7801 -2.2509,0.5102 -5.3829,-0.7533 -6.948,-4.7313 -1.0419,-2.6366 -4.1438,-3.9893 -6.9335,-3.0256 -2.7896,0.9636 -4.2146,3.8811 -3.1805,6.51 2.7987,7.1105 8.6358,10.7344 14.3282,11.3802 1.8158,0.2046 3.6167,0.1083 5.298,-0.2762 3.1883,-0.7247 6.2408,-2.5248 8.3969,-5.3497 0.448,-0.5876 1.3955,-0.231 1.3608,0.5066 l -0.1744,3.6491 c -0.1237,2.5833 2.0319,4.772 4.8138,4.8968 2.7857,0.1133 5.141,-1.8763 5.2647,-4.4596 l 1.2036,-24.9608 c 0.0286,-0.5909 0.8584,-0.7039 1.047,-0.1424 l 3.7322,11.2148 c 0.8471,2.5808 3.3593,4.3411 6.257,4.3991 0.0233,-3e-4 0.0466,-5e-4 0.066,-7e-4 2.9323,0.0267 5.5042,-1.691 6.4084,-4.275 0.034,-0.0929 0.0601,-0.1897 0.0902,-0.2827 l 2.8481,-10.3429 c 0.1607,-0.5768 1.0082,-0.497 1.0535,0.1008 l 1.9119,25.0512 c 0.1855,2.4373 2.3493,4.3094 4.9323,4.3591 0.1515,0.0023 0.303,7e-4 0.4582,-0.0087 2.7787,-0.18 4.8712,-2.4137 4.6726,-4.9937 -0.0408,-0.5437 0.5379,-0.8972 1.0184,-0.636 0.6719,0.3672 1.4394,0.5984 2.2672,0.6513 0.1049,0.0066 0.2137,0.0093 0.3185,0.0121 2.7887,0.0283 5.1436,-1.996 5.3404,-4.6496 l 0.5215,-7.1225 c 0.061,-0.8227 0.7142,-1.4781 1.5406,-1.5524 15.224395,-1.3388 21.309395,-8.613 21.808395,-14.9132 0.369,-4.7242 -2.092,-9.2986 -6.938,-12.8906 z M 95.982025,49.6948 c -0.9306,0.1373 -1.7503,-0.6182 -1.6827,-1.5491 l 0.7278,-9.973 c 0.0713,-0.9502 1.0276,-1.5856 1.9358,-1.2788 6.412095,2.1666 9.284095,5.3395 9.127095,7.3443 -0.15,1.9159 -3.396,4.4552 -10.107995,5.4566 z" fill="#ffffff" id="path12"/>
    <path d="m 109.73402,32.1037 c -4.509,-3.3446 -10.961795,-5.7038 -18.651395,-6.8109 -1.4664,-0.2121 -2.9575,0.1626 -4.1171,1.0356 -1.1556,0.873 -1.8719,2.1581 -1.9734,3.5524 l -1.7437,23.8512 c -0.0408,0.5408 -0.8369,0.5415 -0.8776,0.0016 l -2.0791,-27.2301 c -0.204,-3.0778 -2.6379,-5.5066 -5.9354,-5.9116 -3.3209,-0.4086 -6.3582,1.3682 -7.3905,4.324 -0.0339,0.0929 -0.0639,0.1898 -0.0901,0.2827 l -4.8028,17.4497 c -0.2542,0.9213 -1.5509,0.9544 -1.8558,0.0468 l -5.5782,-16.7568 c -0.9716,-2.9616 -4.0752,-4.8352 -7.3838,-4.4566 -3.3047,0.3786 -5.8213,2.8947 -5.9821,5.9995 l -0.9843,20.4312 c -0.0255,0.5175 -0.7746,0.5602 -0.8616,0.0517 l -3.0475,-17.6058 c -0.4763,-2.7661 -3.25,-4.6548 -6.1851,-4.2146 -2.939,0.4403 -4.9305,3.0397 -4.4502,5.8096 l 4.3724,25.2528 c 0.4746,3.6886 -0.706,6.2214 -3.166,6.7801 -2.2508,0.5102 -5.3828,-0.7533 -6.9479,-4.7313 -1.042,-2.6366 -4.1439,-3.9893 -6.9335,-3.0256 -2.7897,0.9636 -4.21465,3.8811 -3.1806,6.51 2.7988,7.1105 8.6358,10.7344 14.3282,11.3802 1.8158,0.2046 3.6167,0.1083 5.298,-0.2762 3.1884,-0.7247 6.2409,-2.5248 8.3969,-5.3497 0.4481,-0.5876 1.3956,-0.231 1.3608,0.5066 l -0.1744,3.6491 c -0.1237,2.5833 2.0319,4.772 4.8138,4.8968 2.7857,0.1133 5.1411,-1.8763 5.2647,-4.4596 l 1.2036,-24.9608 c 0.0286,-0.5909 0.8585,-0.7039 1.047,-0.1424 l 3.7322,11.2148 c 0.8472,2.5808 3.3593,4.3411 6.257,4.3991 0.0233,-3e-4 0.0466,-5e-4 0.066,-7e-4 2.9324,0.0267 5.5042,-1.691 6.4085,-4.275 0.0339,-0.0929 0.0601,-0.1897 0.0901,-0.2827 l 2.8481,-10.3429 c 0.1608,-0.5768 1.0083,-0.497 1.0535,0.1008 l 1.912,25.0512 c 0.1854,2.4373 2.3492,4.3094 4.9323,4.3591 0.1515,0.0023 0.3029,7e-4 0.4582,-0.0087 2.7786,-0.18 4.8711,-2.4137 4.6725,-4.9937 -0.0408,-0.5437 0.5379,-0.8972 1.0184,-0.636 0.6719,0.3672 1.4395,0.5984 2.2672,0.6513 0.1049,0.0066 0.2137,0.0093 0.3186,0.0121 2.7887,0.0283 5.1436,-1.996 5.3403,-4.6496 l 0.5215,-7.1225 c 0.0611,-0.8227 0.7142,-1.4781 1.5406,-1.5524 15.224695,-1.3388 21.309695,-8.613 21.808695,-14.9132 0.369,-4.7242 -2.092,-9.2986 -6.939,-12.8906 z M 95.981725,49.6948 c -0.9305,0.1373 -1.7503,-0.6182 -1.6826,-1.5491 l 0.7277,-9.973 c 0.0714,-0.9502 1.0277,-1.5856 1.9358,-1.2788 6.411395,2.1666 9.284395,5.3395 9.127395,7.3443 -0.15,1.9159 -3.397,4.4552 -10.108295,5.4566 z" fill="url(#paint1_linear)" id="path14" style="fill:url(#paint1_linear)"/>
  </g>
  <defs id="defs44">
    <filter id="filter0_f" x="0.87597501" y="23.846201" width="126.984" height="82.4785" filterUnits="userSpaceOnUse" color-interpolation-filters="sRGB">
      <feFlood flood-opacity="0" result="BackgroundImageFix" id="feFlood16"/>
      <feBlend mode="normal" in="SourceGraphic" in2="BackgroundImageFix" result="shape" id="feBlend18"/>
      <feGaussianBlur stdDeviation="6.1604" result="effect1_foregroundBlur" id="feGaussianBlur20"/>
    </filter>
    <filter id="filter1_f" x="4.9011998" y="27.5347" width="118.09" height="68.923401" filterUnits="userSpaceOnUse" color-interpolation-filters="sRGB">
      <feFlood flood-opacity="0" result="BackgroundImageFix" id="feFlood23"/>
      <feBlend mode="normal" in="SourceGraphic" in2="BackgroundImageFix" result="shape" id="feBlend25"/>
      <feGaussianBlur stdDeviation="2.77218" result="effect1_foregroundBlur" id="feGaussianBlur27"/>
    </filter>
    <linearGradient id="paint0_linear" x1="64.477699" y1="11" x2="64.477699" y2="106.835" gradientUnits="userSpaceOnUse" gradientTransform="translate(-0.87597501,-11)">
      <stop stop-color="#93D2FF" id="stop30"/>
      <stop offset="0.229167" stop-color="#4A9BD5" id="stop32"/>
      <stop offset="0.7188" stop-color="#398BD7" id="stop34"/>
      <stop offset="1" stop-color="#1960CC" id="stop36"/>
    </linearGradient>
    <linearGradient id="paint1_linear" x1="63.664001" y1="31.646099" x2="64.276802" y2="89.372299" gradientUnits="userSpaceOnUse" gradientTransform="translate(-0.87597501,-11)">
      <stop stop-color="white" stop-opacity="0" id="stop39"/>
      <stop offset="1" stop-color="#8DCDFC" stop-opacity="0.24" id="stop41"/>
    </linearGradient>
  </defs>
</svg>