<?xml version="1.0" encoding="UTF-8" standalone="no"?>
<svg
   xmlns:dc="http://purl.org/dc/elements/1.1/"
   xmlns:cc="http://creativecommons.org/ns#"
   xmlns:rdf="http://www.w3.org/1999/02/22-rdf-syntax-ns#"
   xmlns:svg="http://www.w3.org/2000/svg"
   xmlns="http://www.w3.org/2000/svg"
   xmlns:sodipodi="http://sodipodi.sourceforge.net/DTD/sodipodi-0.dtd"
   xmlns:inkscape="http://www.inkscape.org/namespaces/inkscape"
   sodipodi:docname="lcl-logo-print-purplegold.svg"
   inkscape:version="1.0 (b51213c273, 2020-08-10)"
   id="svg8"
   version="1.1"
   viewBox="0 0 210 297"
   height="297mm"
   width="210mm">
  <defs
     id="defs2">
    <rect
       id="rect945"
       height="53.699136"
       width="115.4628"
       y="261.24357"
       x="74.443327" />
    <rect
       x="74.443329"
       y="261.24356"
       width="115.4628"
       height="53.699135"
       id="rect945-6" />
    <rect
       x="74.443329"
       y="261.24356"
       width="115.4628"
       height="53.699135"
       id="rect957" />
    <rect
       x="74.443329"
       y="261.24356"
       width="115.4628"
       height="53.699135"
       id="rect945-2" />
    <rect
       x="74.443329"
       y="261.24356"
       width="115.4628"
       height="53.699135"
       id="rect957-0" />
    <rect
       x="74.443329"
       y="261.24356"
       width="115.4628"
       height="53.699135"
       id="rect945-0" />
    <rect
       x="74.443329"
       y="261.24356"
       width="115.4628"
       height="53.699135"
       id="rect1154" />
    <rect
       id="rect945-0-3"
       height="53.699135"
       width="115.4628"
       y="261.24356"
       x="74.443329" />
    <rect
       id="rect1263"
       height="53.699135"
       width="115.4628"
       y="261.24356"
       x="74.443329" />
    <rect
       x="74.443329"
       y="261.24356"
       width="115.4628"
       height="53.699135"
       id="rect945-0-36" />
    <rect
       x="74.443329"
       y="261.24356"
       width="115.4628"
       height="53.699135"
       id="rect1017" />
    <rect
       x="74.443329"
       y="261.24356"
       width="115.4628"
       height="53.699135"
       id="rect945-6-2" />
    <rect
       x="74.443329"
       y="261.24356"
       width="115.4628"
       height="53.699135"
       id="rect1126" />
    <rect
       x="74.443329"
       y="261.24356"
       width="115.4628"
       height="53.699135"
       id="rect945-6-0" />
    <rect
       x="74.443329"
       y="261.24356"
       width="115.4628"
       height="53.699135"
       id="rect1235" />
    <rect
       x="74.443329"
       y="261.24356"
       width="115.4628"
       height="53.699135"
       id="rect945-0-7" />
    <rect
       x="74.443329"
       y="261.24356"
       width="115.4628"
       height="53.699135"
       id="rect1346" />
  </defs>
  <sodipodi:namedview
     showguides="false"
     inkscape:window-maximized="1"
     inkscape:window-y="0"
     inkscape:window-x="0"
     inkscape:window-height="1572"
     inkscape:window-width="2560"
     showgrid="false"
     inkscape:document-rotation="0"
     inkscape:current-layer="g989"
     inkscape:document-units="mm"
     inkscape:cy="655.02441"
     inkscape:cx="895.70248"
     inkscape:zoom="0.7071068"
     inkscape:pageshadow="2"
     inkscape:pageopacity="0.0"
     borderopacity="1.0"
     bordercolor="#666666"
     pagecolor="#ffffff"
     id="base" />
  <metadata
     id="metadata5">
    <rdf:RDF>
      <cc:Work
         rdf:about="">
        <dc:format>image/svg+xml</dc:format>
        <dc:type
           rdf:resource="http://purl.org/dc/dcmitype/StillImage" />
        <dc:title />
      </cc:Work>
    </rdf:RDF>
  </metadata>
  <g
     id="layer1"
     inkscape:groupmode="layer"
     inkscape:label="Layer 1">
    <g
       transform="translate(0,7.4083337)"
       id="g989"
       inkscape:export-xdpi="96"
       inkscape:export-ydpi="96">
      <g
         id="g1143"
         inkscape:export-filename="/home/infrared/InSync/sync/Research/othello-logo/lcl-purplegold-print.png"
         inkscape:export-xdpi="96"
         inkscape:export-ydpi="96"
         transform="matrix(1.3456954,0,0,1.3456954,-35.86702,-23.038373)">
        <circle
           inkscape:export-ydpi="96"
           inkscape:export-xdpi="96"
           r="74"
           cy="91.135284"
           cx="103.75326"
           id="path10-6-4"
           style="fill:#33006f;fill-opacity:1;fill-rule:evenodd;stroke:#e8d3a2;stroke-width:3;stroke-miterlimit:4;stroke-dasharray:none;stroke-opacity:1"
           inkscape:export-filename="/home/infrared/InSync/sync/Research/othello-logo/lcl-purplegold-print.png" />
        <text
           inkscape:export-ydpi="96"
           inkscape:export-xdpi="96"
           xml:space="preserve"
           id="text943-2-30"
           style="font-style:normal;font-variant:normal;font-weight:bold;font-stretch:normal;font-size:14.1111px;line-height:0.95;font-family:Ubuntu;-inkscape-font-specification:'Ubuntu Bold';white-space:pre;shape-inside:url(#rect945-0-7);fill:#e8d3a2;fill-opacity:1;stroke:none;stroke-width:0.617;stroke-miterlimit:4;stroke-dasharray:none;stroke-opacity:1;"
           x="29.173838"
           y="0"
           transform="translate(-28.708615,-156.33059)"
           inkscape:export-filename="/home/infrared/InSync/sync/Research/othello-logo/lcl-purplegold-print.png"><tspan
             x="110.89242"
             y="274.49432"><tspan
               style="font-style:normal;font-variant:normal;font-weight:bold;font-stretch:normal;font-size:16.9333px;font-family:Ubuntu;-inkscape-font-specification:'Ubuntu Bold';text-align:center;text-anchor:middle;fill:#e8d3a2;fill-opacity:1;stroke:none;stroke-width:0.617;stroke-miterlimit:4;stroke-dasharray:none;stroke-opacity:1">Local
</tspan></tspan><tspan
             x="80.829203"
             y="290.58096"><tspan
               style="font-style:normal;font-variant:normal;font-weight:bold;font-stretch:normal;font-size:16.9333px;font-family:Ubuntu;-inkscape-font-specification:'Ubuntu Bold';text-align:center;text-anchor:middle;fill:#e8d3a2;fill-opacity:1;stroke:none;stroke-width:0.617;stroke-miterlimit:4;stroke-dasharray:none;stroke-opacity:1">Connectivity
</tspan></tspan><tspan
             x="117.52353"
             y="306.66759"><tspan
               style="font-style:normal;font-variant:normal;font-weight:bold;font-stretch:normal;font-size:16.9333px;font-family:Ubuntu;-inkscape-font-specification:'Ubuntu Bold';text-align:center;text-anchor:middle;fill:#e8d3a2;fill-opacity:1;stroke:none;stroke-width:0.617;stroke-miterlimit:4;stroke-dasharray:none;stroke-opacity:1">Lab</tspan></tspan></text>
        <g
           inkscape:export-ydpi="96"
           inkscape:export-xdpi="96"
           id="g1015-0-7"
           transform="translate(-2.2502648,3.6567606)"
           style="stroke:#33006f;stroke-opacity:1"
           inkscape:export-filename="/home/infrared/InSync/sync/Research/othello-logo/lcl-purplegold-print.png">
          <path
             sodipodi:nodetypes="cccccccccccc"
             id="path941-61-86"
             d="m 109.803,61.981419 3.13208,9.74181 2.3859,-0.76019 -3.31419,-9.69886 c 0,0 1.35793,-1.50935 1.40202,-2.86785 -0.41654,-1.25931 -0.68699,-2.21497 -2.30188,-2.67645 -0.40557,-0.0938 0.71839,1.83115 0.38994,2.75055 l -1.09158,1.25002 -1.77808,-0.24572 c -1.43364,-1.13009 -1.09711,-2.6023 -1.63316,-2.43536 -0.70838,0.97457 -0.95369,1.97343 -0.0991,3.51297 0.99283,0.87661 1.88567,1.28775 2.90805,1.42913 z"
             style="fill:#e8d3a2;fill-opacity:1;stroke:#33006f;stroke-width:0.617361;stroke-linecap:round;stroke-linejoin:round;stroke-miterlimit:4;stroke-dasharray:none;stroke-opacity:1" />
          <g
             style="fill:#e8d3a2;fill-opacity:1;stroke:#33006f;stroke-opacity:1"
             transform="translate(-0.69009818,-131.68938)"
             id="g894-5-88">
            <path
               sodipodi:nodetypes="cccccc"
               id="path867-5-43"
               d="m 119.53399,223.11368 23.39143,0.0386 c 0,0 0.93726,-22.51219 -7.00687,-26.44144 l -9.42523,0.14466 c -7.12872,3.30054 -6.95933,26.25819 -6.95933,26.25819 z"
               style="fill:#e8d3a2;fill-opacity:1;stroke:#33006f;stroke-width:0.617361;stroke-linecap:butt;stroke-linejoin:miter;stroke-miterlimit:4;stroke-dasharray:none;stroke-opacity:1" />
            <circle
               r="8.8900003"
               cy="189.53479"
               cx="-131.50815"
               id="circle871-4-14"
               style="fill:#e8d3a2;fill-opacity:1;stroke:#33006f;stroke-width:0.617361;stroke-miterlimit:4;stroke-dasharray:none;stroke-opacity:1"
               transform="scale(-1,1)" />
            <path
               sodipodi:nodetypes="cccc"
               id="path873-7-9"
               d="m 128.96574,202.32304 c 1.0875,-0.68758 4.09766,5.0513 -2.19717,6.4945 -3.84503,-0.0837 -15.87009,-7.95918 -13.36382,-11.60022 4.89785,3.59107 11.41977,3.76923 15.56099,5.10572 z"
               style="fill:#e8d3a2;fill-opacity:1;stroke:#33006f;stroke-width:0.617361;stroke-linecap:butt;stroke-linejoin:miter;stroke-miterlimit:4;stroke-dasharray:none;stroke-opacity:1" />
            <path
               style="fill:#e8d3a2;fill-opacity:1;stroke:#33006f;stroke-width:0.617361;stroke-linecap:butt;stroke-linejoin:miter;stroke-miterlimit:4;stroke-dasharray:none;stroke-opacity:1"
               d="m 123.61972,223.18715 6.63363,0.14085 c -0.0536,1.80169 -0.81239,3.25415 -2.0966,4.41541 -5.48044,2.28867 -11.96402,0.60036 -4.53703,-4.55622 z"
               id="path875-6-2"
               sodipodi:nodetypes="ccccc" />
            <path
               sodipodi:nodetypes="ccccc"
               id="path869-5-06"
               d="m 138.59439,223.12752 -6.63364,0.14085 c 0.0536,1.80169 0.8124,3.25415 2.09661,4.41541 5.48044,2.28867 11.96402,0.60036 4.53703,-4.55622 z"
               style="fill:#e8d3a2;fill-opacity:1;stroke:#33006f;stroke-width:0.617361;stroke-linecap:butt;stroke-linejoin:miter;stroke-miterlimit:4;stroke-dasharray:none;stroke-opacity:1" />
          </g>
          <g
             style="fill:#e8d3a2;fill-opacity:1;stroke:#33006f;stroke-opacity:1"
             id="g995-6-8">
            <path
               style="fill:#e8d3a2;fill-opacity:1;stroke:#33006f;stroke-width:0.617361;stroke-linecap:butt;stroke-linejoin:miter;stroke-miterlimit:4;stroke-dasharray:none;stroke-opacity:1"
               d="m 98.581614,52.416559 c -0.324555,0.17422 -0.989002,1.66443 -1.105676,3.51455 l 0.05777,15.83389 4.780712,-8.3e-4 -0.076,-15.72625 c 0.0641,-0.51272 0.18196,-0.88321 0.31819,-1.20519"
               id="path939-9-9"
               sodipodi:nodetypes="cccccc" />
            <path
               style="fill:#e8d3a2;fill-opacity:1;stroke:#33006f;stroke-width:0.617361;stroke-linecap:butt;stroke-linejoin:miter;stroke-miterlimit:4;stroke-dasharray:none;stroke-opacity:1"
               d="m 112.83989,24.826479 c -7.49169,-2.94027 -19.92824,5.65608 -19.92824,5.65608 -0.0047,0.001 -1.047417,0.73164 -1.094541,3.50072 -0.115211,6.76999 0.966211,15.82403 11.569701,21.3729 1.05123,0.43031 2.3436,0.75191 3.3968,0.39325 0,0 15.65952,-7.15122 15.82869,-17.12304 -4.14153,-2.14005 -8.99046,-9.21539 -9.77241,-13.79991 z"
               id="path903-3-2"
               sodipodi:nodetypes="ccscccc" />
            <path
               style="fill:#e8d3a2;fill-opacity:1;stroke:#33006f;stroke-width:0.617361;stroke-linecap:butt;stroke-linejoin:miter;stroke-miterlimit:4;stroke-dasharray:none;stroke-opacity:1"
               d="m 96.003527,28.609149 c -0.621074,1.33123 -1.063523,3.16878 -1.108505,4.25246 -0.406706,3.75646 1.183179,11.26575 10.534428,16.39841 0.99385,0.0336 4.92529,0.29728 13.25517,-7.91975 0.83407,-0.82276 1.92283,-3.9639 1.92283,-3.9639"
               id="path907-7-66"
               sodipodi:nodetypes="cccsc" />
            <path
               style="fill:#e8d3a2;fill-opacity:1;stroke:#33006f;stroke-width:0.617361;stroke-linecap:butt;stroke-linejoin:miter;stroke-miterlimit:4;stroke-dasharray:none;stroke-opacity:1"
               d="m 108.80607,38.029089 c 2.30607,-1.88144 4.97625,-3.85638 10.19279,-6.48512 -0.20775,-1.2867 -0.52706,-2.52913 -2.31417,-3.18914 -8.80914,7.62916 -6.52942,5.09981 -9.33648,7.23046 -0.16373,1.28112 0.32184,2.09071 1.45786,2.4438 z"
               id="path949-4-4"
               sodipodi:nodetypes="ccccc" />
          </g>
          <g
             style="fill:#e8d3a2;fill-opacity:1;stroke:#33006f;stroke-opacity:1"
             transform="translate(3.6453102,-126.89601)"
             id="g901-5-9">
            <path
               style="fill:#e8d3a2;fill-opacity:1;stroke:#33006f;stroke-width:0.617361;stroke-linecap:butt;stroke-linejoin:miter;stroke-miterlimit:4;stroke-dasharray:none;stroke-opacity:1"
               d="m 89.228544,218.61403 -23.391433,0.0386 c 0,0 -0.937259,-22.51219 7.00687,-26.44144 l 9.425231,0.14466 c 7.12872,3.30054 6.959332,26.25819 6.959332,26.25819 z"
               id="path837-2-5"
               sodipodi:nodetypes="cccccc" />
            <circle
               style="fill:#e8d3a2;fill-opacity:1;stroke:#33006f;stroke-width:0.617361;stroke-miterlimit:4;stroke-dasharray:none;stroke-opacity:1"
               id="path835-54-0"
               cx="77.254379"
               cy="185.03514"
               r="8.8900003" />
            <path
               style="fill:#e8d3a2;fill-opacity:1;stroke:#33006f;stroke-width:0.617361;stroke-linecap:butt;stroke-linejoin:miter;stroke-miterlimit:4;stroke-dasharray:none;stroke-opacity:1"
               d="m 79.796796,197.82339 c -1.0875,-0.68758 -4.097662,5.0513 2.197161,6.4945 3.845031,-0.0837 15.870091,-7.95918 13.36382,-11.60022 -4.897841,3.59107 -11.419761,3.76923 -15.560981,5.10572 z"
               id="path843-7-48"
               sodipodi:nodetypes="cccc" />
            <path
               style="fill:#e8d3a2;fill-opacity:1;stroke:#33006f;stroke-width:0.617361;stroke-linecap:butt;stroke-linejoin:miter;stroke-miterlimit:4;stroke-dasharray:none;stroke-opacity:1"
               d="m 70.168145,218.62787 6.633633,0.14085 c -0.0536,1.80169 -0.812395,3.25415 -2.096609,4.41541 -5.480438,2.28867 -11.964016,0.60036 -4.537024,-4.55622 z"
               id="path839-4-7"
               sodipodi:nodetypes="ccccc" />
            <path
               sodipodi:nodetypes="ccccc"
               id="path839-3-4-1"
               d="m 85.14281,218.6875 -6.633633,0.14085 c 0.0536,1.80169 0.812395,3.25415 2.096609,4.41541 5.480438,2.28867 11.964016,0.60036 4.537024,-4.55622 z"
               style="fill:#e8d3a2;fill-opacity:1;stroke:#33006f;stroke-width:0.617361;stroke-linecap:butt;stroke-linejoin:miter;stroke-miterlimit:4;stroke-dasharray:none;stroke-opacity:1" />
          </g>
        </g>
      </g>
    </g>
  </g>
</svg>
