<?xml version="1.0" encoding="utf-8"?>
<svg viewBox="0.486 0.569 309.814 59.731" xmlns="http://www.w3.org/2000/svg">
  <defs>
    <style type="text/css">
	.st0{fill:#FFFFFF;}
	.st1{fill:#86DA2F;}
	.st2{fill:#24C2FF;}
	.st3{fill:#FFCB12;}
	.st4{fill:#0069DA;}
	.st5{fill:#FF4649;}
	.st6{fill:#00245E;}
</style>
  </defs>
  <g>
    <title>Light Logo</title>
    <path class="st0" d="M 96.2 48.5 L 94.1 42.2 L 80.1 42.2 L 78 48.5 L 70.5 48.5 L 82.7 13.5 L 91.3 13.5 L 103.6 48.5 L 96.2 48.5 Z M 82.3 35.7 L 91.9 35.7 L 87.1 21.4 L 82.3 35.7 Z"/>
    <path class="st0" d="M 106.8 48.5 L 106.8 12 L 113.3 12 L 113.3 48.5 L 106.8 48.5 Z"/>
    <path class="st0" d="M 146.8 22.8 C 149.7 22.8 151.9 23.7 153.6 25.6 C 155.3 27.5 156.2 30 156.2 33.1 L 156.2 48.5 L 149.8 48.5 L 149.8 33.5 C 149.8 32 149.4 30.8 148.7 30 C 148 29.2 146.9 28.8 145.6 28.8 C 144.1 28.8 143 29.3 142.2 30.3 C 141.4 31.3 141 32.7 141 34.5 L 141 48.5 L 134.6 48.5 L 134.6 33.5 C 134.6 32 134.2 30.8 133.5 30 C 132.8 29.2 131.7 28.8 130.4 28.8 C 129 28.8 127.8 29.3 126.9 30.3 C 126.1 31.3 125.7 32.7 125.7 34.5 L 125.7 48.5 L 119.3 48.5 L 119.3 23.5 L 125.7 23.5 L 125.7 26.1 C 127.2 23.9 129.5 22.7 132.7 22.7 C 135.8 22.7 138 23.9 139.5 26.3 C 141 24 143.5 22.8 146.8 22.8 Z"/>
    <path class="st0" d="M 180.7 23.5 L 187.1 23.5 L 187.1 48.5 L 180.7 48.5 L 180.7 45.5 C 178.8 47.9 176 49.2 172.5 49.2 C 169.2 49.2 166.3 47.9 163.9 45.4 C 161.5 42.8 160.3 39.7 160.3 36 C 160.3 32.3 161.5 29.2 163.9 26.6 C 166.3 24 169.2 22.7 172.5 22.7 C 176 22.7 178.7 23.9 180.7 26.4 L 180.7 23.5 Z M 168.8 41.1 C 170.1 42.4 171.7 43.1 173.7 43.1 C 175.7 43.1 177.4 42.5 178.7 41.1 C 180 39.8 180.7 38.1 180.7 36 C 180.7 33.9 180 32.2 178.7 31 C 177.4 29.7 175.7 29 173.7 29 C 171.7 29 170.1 29.7 168.8 31 C 167.5 32.3 166.9 34 166.9 36 C 166.9 38 167.5 39.8 168.8 41.1 Z"/>
    <path class="st0" d="M 200.2 41.9 L 213.5 41.9 L 213.5 48.5 L 193.3 48.5 L 193.3 13.5 L 200.2 13.5 L 200.2 41.9 Z"/>
    <path class="st0" d="M 220.4 20.5 C 219.3 20.5 218.4 20.1 217.6 19.4 C 216.8 18.6 216.4 17.7 216.4 16.6 C 216.4 15.5 216.8 14.6 217.6 13.8 C 218.4 13 219.3 12.6 220.4 12.6 C 221.5 12.6 222.4 13 223.2 13.8 C 224 14.6 224.4 15.5 224.4 16.6 C 224.4 17.7 224 18.6 223.2 19.4 C 222.4 20.1 221.5 20.5 220.4 20.5 Z M 217.2 48.5 L 217.2 23.5 L 223.7 23.5 L 223.7 48.5 L 217.2 48.5 Z"/>
    <path class="st0" d="M 243.4 22.8 C 246.1 22.8 248.4 23.7 250.2 25.6 C 252 27.4 252.9 30 252.9 33.2 L 252.9 48.5 L 246.5 48.5 L 246.5 33.9 C 246.5 32.2 246 31 245.1 30.1 C 244.2 29.2 243 28.7 241.5 28.7 C 239.8 28.7 238.5 29.2 237.5 30.3 C 236.5 31.4 236 32.9 236 35 L 236 48.5 L 229.6 48.5 L 229.6 23.5 L 236 23.5 L 236 26.3 C 237.6 24 240 22.8 243.4 22.8 Z"/>
    <path class="st0" d="M 274.9 23.5 L 281.4 23.5 L 281.4 48.5 L 274.9 48.5 L 274.9 45.7 C 273.3 48 270.9 49.2 267.5 49.2 C 264.8 49.2 262.5 48.3 260.7 46.4 C 258.9 44.6 258.1 42 258.1 38.8 L 258.1 23.5 L 264.6 23.5 L 264.6 38 C 264.6 39.7 265 41 265.9 41.9 C 266.8 42.8 268 43.2 269.5 43.2 C 271.2 43.2 272.5 42.7 273.5 41.7 C 274.5 40.7 275 39.1 275 37 L 275 23.5 L 274.9 23.5 Z"/>
    <path class="st0" d="M 310.3 48.5 L 302.8 48.5 L 297.4 40.9 L 291.9 48.5 L 284.5 48.5 L 293.6 35.7 L 284.8 23.5 L 292.2 23.5 L 297.3 30.5 L 302.3 23.5 L 309.7 23.5 L 300.9 35.7 L 310.3 48.5 Z"/>
    <path class="st1" d="M 56.6 34.3 C 59.2 34.1 61.3 35.8 61.5 38.4 C 61.7 41.1 59.8 43.3 57.2 43.5 C 54.7 43.7 52.5 41.8 52.3 39.3 C 52.1 36.6 53.9 34.6 56.6 34.3 Z"/>
    <path class="st2" d="M 25 55.6 C 25 53 27 51 29.4 51 C 31.8 51 34.1 53.2 34.1 55.7 C 34.1 58.1 32.1 60.2 29.8 60.3 C 26.9 60.3 25 58.5 25 55.6 Z"/>
    <path class="st3" d="M 32.1 26.4 C 31.7 26.6 31.5 26.3 31.4 26 C 27.7 19.1 28.8 10.4 35.3 5.2 C 37 3.8 40.2 3.5 41.6 4.9 C 42.2 5.4 42.3 6 42.4 6.7 C 42.6 8.2 42.9 9.7 43.9 10.9 C 45 12.2 46.4 12.7 48 12.6 C 49.4 12.6 50.8 12.4 51.7 14 C 52.2 14.9 52 18.4 51.2 19.1 C 50.8 19.4 50.5 19.2 50.2 19.1 C 47.9 18.2 45.5 18.2 43.1 18.6 C 42.3 18.7 41.9 18.5 41.9 17.6 C 41.8 16.1 41.5 14.7 40.7 13.4 C 39.2 10.7 36.4 10.6 34.6 13.1 C 33.1 15.1 32.7 17.5 32.3 19.9 C 31.9 22 32 24.2 32.1 26.4 C 32.1 26.4 32 26.4 32.1 26.4 Z"/>
    <path class="st1" d="M 34.6 27.9 C 34.4 27.6 34.5 27.3 34.8 27.1 C 40.5 21.9 49 20.9 55.6 26 C 57.3 27.4 58.4 30.3 57.5 32 C 57.1 32.7 56.6 33 56 33.2 C 54.6 33.8 53.3 34.4 52.4 35.7 C 51.5 37 51.3 38.5 51.7 40.1 C 52 41.4 52.5 42.8 51.2 44 C 50.5 44.7 47.1 45.3 46.2 44.7 C 45.8 44.4 45.9 44.1 46 43.7 C 46.3 41.2 45.7 38.9 44.8 36.7 C 44.5 35.9 44.6 35.5 45.4 35.3 C 46.8 34.9 48.1 34.2 49.1 33.2 C 51.3 31.1 50.8 28.4 47.9 27.2 C 45.6 26.2 43.2 26.4 40.9 26.6 C 38.7 26.7 36.6 27.3 34.6 27.9 C 34.6 27.9 34.6 27.9 34.6 27.9 Z"/>
    <path class="st2" d="M 33.3 30.5 C 33.6 30.2 33.8 30.3 34.1 30.5 C 40.7 34.5 44.1 42.4 41.1 50.1 C 40.3 52.1 37.7 54.1 35.8 53.6 C 35 53.4 34.6 53 34.2 52.5 C 33.3 51.3 32.3 50.2 30.8 49.7 C 29.2 49.2 27.8 49.5 26.4 50.3 C 25.2 51 24 51.9 22.5 51 C 21.6 50.5 20.1 47.4 20.4 46.4 C 20.6 46 21 46 21.4 46 C 23.9 45.6 25.9 44.4 27.8 42.8 C 28.4 42.3 28.9 42.3 29.4 43 C 30.2 44.2 31.2 45.2 32.5 45.9 C 35.1 47.4 37.6 46.1 37.9 43.1 C 38.2 40.6 37.3 38.4 36.5 36.2 C 35.6 34.2 34.5 32.3 33.3 30.5 C 33.3 30.5 33.3 30.5 33.3 30.5 Z"/>
    <path class="st4" d="M 30.1 31.1 C 29.7 33.1 28.8 35 27.6 36.7 C 24 42.1 18.8 44.3 12.4 43.7 C 10.1 43.5 8.2 41.6 8 39.7 C 7.9 38.9 8.1 38.3 8.6 37.7 C 9.3 36.8 9.9 36 10.2 34.9 C 10.8 32.7 10 30.9 8.4 29.3 C 6.2 27.1 6.5 25.1 9.1 23.5 C 9.4 23.3 9.8 23.1 10.2 22.9 C 10.8 22.6 11.3 22.6 11.5 23.3 C 12.4 25.6 14.2 27.3 16.2 28.7 C 16.9 29.3 16.9 29.7 16.3 30.4 C 15.1 31.7 14.4 33.3 14.3 35.1 C 14.1 37.3 15.4 38.7 17.6 38.7 C 19 38.7 20.3 38.2 21.5 37.6 C 24.6 36 27 33.7 29.3 31.3 C 29.6 31.2 29.7 31 30.1 31.1 Z"/>
    <path class="st5" d="M 13.7 10.1 C 13.9 10.1 14.4 10.2 14.9 10.3 C 18.6 11 20.9 9.7 22.1 6.2 C 22.9 3.9 24.6 3.2 26.8 4.4 C 26.9 4.4 26.9 4.5 27 4.5 C 29.3 5.8 29.3 6 27.9 8 C 26.7 9.6 26.1 11.4 25.8 13.3 C 25.6 14.4 25.2 14.6 24.2 14.2 C 22.6 13.6 20.9 13.6 19.2 14.2 C 17.3 14.8 16.5 16.5 17.1 18.4 C 17.9 20.9 20.1 22 22 23.3 C 23.9 24.6 26.1 25.3 28.2 26.2 C 28.5 26.3 29 26.3 28.9 26.8 C 28.8 27.1 28.4 27.1 28 27.1 C 23.5 27.3 19.2 26.6 15.7 23.6 C 12.4 20.9 10 17.6 10.4 13 C 10.7 11.5 11.8 10.4 13.7 10.1 Z"/>
    <path class="st4" d="M 5.5 38.2 C 3.1 38.5 0.7 36.5 0.5 34 C 0.3 31.6 2.3 29.2 4.6 29 C 7.2 28.7 9.6 30.5 9.8 32.9 C 9.9 35.2 8.4 38 5.5 38.2 Z"/>
    <path class="st3" d="M 47.5 2.6 C 50 2.4 52.4 4.4 52.6 6.9 C 52.8 9.3 50.8 11.6 48.4 11.8 C 45.8 12 43.5 10.1 43.3 7.6 C 43.1 5.1 44.9 2.8 47.5 2.6 Z"/>
    <path class="st5" d="M 21.4 4.5 C 21.7 7.1 19.9 9.3 17.2 9.7 C 14.9 10 12.5 8.1 12.2 5.9 C 11.9 3 13.5 0.9 16.2 0.6 C 18.7 0.3 21.1 2.2 21.4 4.5 Z"/>
  </g>
</svg>