<?xml version="1.0" encoding="utf-8"?>
<svg viewBox="0.486 -81.431 309.814 59.731" xmlns="http://www.w3.org/2000/svg">
  <defs>
    <style type="text/css">
	.st0{fill:#FFFFFF;}
	.st1{fill:#86DA2F;}
	.st2{fill:#24C2FF;}
	.st3{fill:#FFCB12;}
	.st4{fill:#0069DA;}
	.st5{fill:#FF4649;}
	.st6{fill:#00245E;}
</style>
  </defs>
  <g>
    <title>Dark Logo</title>
    <path class="st6" d="M 96.2 -33.5 L 94.1 -39.8 L 80.1 -39.8 L 78 -33.5 L 70.5 -33.5 L 82.7 -68.5 L 91.3 -68.5 L 103.6 -33.5 L 96.2 -33.5 Z M 82.3 -46.3 L 91.9 -46.3 L 87.1 -60.6 L 82.3 -46.3 Z"/>
    <path class="st6" d="M 106.8 -33.5 L 106.8 -70 L 113.3 -70 L 113.3 -33.5 L 106.8 -33.5 Z"/>
    <path class="st6" d="M 146.8 -59.2 C 149.7 -59.2 151.9 -58.3 153.6 -56.4 C 155.3 -54.5 156.2 -52 156.2 -48.9 L 156.2 -33.5 L 149.8 -33.5 L 149.8 -48.5 C 149.8 -50 149.4 -51.2 148.7 -52 C 148 -52.8 146.9 -53.2 145.6 -53.2 C 144.1 -53.2 143 -52.7 142.2 -51.7 C 141.4 -50.7 141 -49.3 141 -47.5 L 141 -33.5 L 134.6 -33.5 L 134.6 -48.5 C 134.6 -50 134.2 -51.2 133.5 -52 C 132.8 -52.8 131.7 -53.2 130.4 -53.2 C 129 -53.2 127.8 -52.7 126.9 -51.7 C 126.1 -50.7 125.7 -49.3 125.7 -47.5 L 125.7 -33.5 L 119.3 -33.5 L 119.3 -58.5 L 125.7 -58.5 L 125.7 -55.8 C 127.2 -58 129.5 -59.2 132.7 -59.2 C 135.8 -59.2 138 -58 139.5 -55.6 C 141 -58 143.5 -59.2 146.8 -59.2 Z"/>
    <path class="st6" d="M 180.7 -58.5 L 187.1 -58.5 L 187.1 -33.5 L 180.7 -33.5 L 180.7 -36.5 C 178.8 -34.1 176 -32.8 172.5 -32.8 C 169.2 -32.8 166.3 -34.1 163.9 -36.6 C 161.5 -39.2 160.3 -42.3 160.3 -46 C 160.3 -49.7 161.5 -52.8 163.9 -55.3 C 166.3 -57.9 169.2 -59.2 172.5 -59.2 C 176 -59.2 178.7 -58 180.7 -55.5 L 180.7 -58.5 Z M 168.8 -40.9 C 170.1 -39.6 171.7 -38.9 173.7 -38.9 C 175.7 -38.9 177.4 -39.5 178.7 -40.9 C 180 -42.2 180.7 -43.9 180.7 -46 C 180.7 -48.1 180 -49.8 178.7 -51 C 177.4 -52.3 175.7 -53 173.7 -53 C 171.7 -53 170.1 -52.3 168.8 -51 C 167.5 -49.7 166.9 -48 166.9 -46 C 166.9 -44 167.5 -42.2 168.8 -40.9 Z"/>
    <path class="st6" d="M 200.2 -40.1 L 213.5 -40.1 L 213.5 -33.5 L 193.3 -33.5 L 193.3 -68.5 L 200.2 -68.5 L 200.2 -40.1 Z"/>
    <path class="st6" d="M 220.4 -61.5 C 219.3 -61.5 218.4 -61.9 217.6 -62.6 C 216.8 -63.4 216.4 -64.3 216.4 -65.4 C 216.4 -66.5 216.8 -67.4 217.6 -68.2 C 218.4 -69 219.3 -69.4 220.4 -69.4 C 221.5 -69.4 222.4 -69 223.2 -68.2 C 224 -67.4 224.4 -66.5 224.4 -65.4 C 224.4 -64.3 224 -63.4 223.2 -62.6 C 222.4 -61.9 221.5 -61.5 220.4 -61.5 Z M 217.2 -33.5 L 217.2 -58.5 L 223.7 -58.5 L 223.7 -33.5 L 217.2 -33.5 Z"/>
    <path class="st6" d="M 243.4 -59.2 C 246.1 -59.2 248.4 -58.3 250.2 -56.4 C 252 -54.6 252.9 -52 252.9 -48.8 L 252.9 -33.5 L 246.5 -33.5 L 246.5 -48 C 246.5 -49.7 246 -50.9 245.1 -51.8 C 244.2 -52.7 243 -53.2 241.5 -53.2 C 239.8 -53.2 238.5 -52.7 237.5 -51.6 C 236.5 -50.6 236 -49 236 -47 L 236 -33.5 L 229.6 -33.5 L 229.6 -58.5 L 236 -58.5 L 236 -55.7 C 237.6 -58 240 -59.2 243.4 -59.2 Z"/>
    <path class="st6" d="M 274.9 -58.5 L 281.4 -58.5 L 281.4 -33.5 L 274.9 -33.5 L 274.9 -36.3 C 273.3 -34 270.9 -32.8 267.5 -32.8 C 264.8 -32.8 262.5 -33.7 260.7 -35.6 C 258.9 -37.4 258.1 -40 258.1 -43.2 L 258.1 -58.5 L 264.6 -58.5 L 264.6 -44 C 264.6 -42.3 265 -41 265.9 -40.1 C 266.8 -39.2 268 -38.8 269.5 -38.8 C 271.2 -38.8 272.5 -39.3 273.5 -40.3 C 274.5 -41.3 275 -42.9 275 -45 L 275 -58.5 L 274.9 -58.5 Z"/>
    <path class="st6" d="M 310.3 -33.5 L 302.8 -33.5 L 297.4 -41.1 L 291.9 -33.5 L 284.5 -33.5 L 293.6 -46.3 L 284.8 -58.5 L 292.2 -58.5 L 297.3 -51.5 L 302.3 -58.5 L 309.7 -58.5 L 300.9 -46.3 L 310.3 -33.5 Z"/>
    <path class="st1" d="M 56.6 -47.7 C 59.2 -47.9 61.3 -46.2 61.5 -43.6 C 61.7 -40.9 59.8 -38.7 57.2 -38.5 C 54.7 -38.3 52.5 -40.2 52.3 -42.7 C 52.1 -45.4 53.9 -47.4 56.6 -47.7 Z"/>
    <path class="st2" d="M 25 -26.4 C 25 -29 27 -31 29.4 -31 C 31.8 -31 34.1 -28.8 34.1 -26.3 C 34.1 -23.9 32.1 -21.8 29.8 -21.7 C 26.9 -21.7 25 -23.5 25 -26.4 Z"/>
    <path class="st3" d="M 32.1 -55.6 C 31.7 -55.4 31.5 -55.7 31.4 -56 C 27.7 -62.9 28.8 -71.6 35.3 -76.8 C 37 -78.2 40.2 -78.5 41.6 -77.1 C 42.2 -76.6 42.3 -76 42.4 -75.3 C 42.6 -73.8 42.9 -72.3 43.9 -71.1 C 45 -69.8 46.4 -69.3 48 -69.4 C 49.4 -69.4 50.8 -69.6 51.7 -68 C 52.2 -67.1 52 -63.6 51.2 -62.9 C 50.8 -62.6 50.5 -62.8 50.2 -62.9 C 47.9 -63.8 45.5 -63.8 43.1 -63.4 C 42.3 -63.3 41.9 -63.5 41.9 -64.4 C 41.8 -65.9 41.5 -67.3 40.7 -68.6 C 39.2 -71.3 36.4 -71.4 34.6 -68.9 C 33.1 -66.9 32.7 -64.5 32.3 -62.1 C 31.9 -60 32 -57.8 32.1 -55.6 C 32.1 -55.6 32 -55.6 32.1 -55.6 Z"/>
    <path class="st1" d="M 34.6 -54.1 C 34.4 -54.4 34.5 -54.7 34.8 -54.9 C 40.5 -60.1 49 -61.1 55.6 -56 C 57.3 -54.6 58.4 -51.7 57.5 -50 C 57.1 -49.3 56.6 -49 56 -48.8 C 54.6 -48.2 53.3 -47.6 52.4 -46.3 C 51.5 -45 51.3 -43.5 51.7 -41.9 C 52 -40.6 52.5 -39.2 51.2 -38 C 50.5 -37.3 47.1 -36.7 46.2 -37.3 C 45.8 -37.6 45.9 -37.9 46 -38.3 C 46.3 -40.8 45.7 -43.1 44.8 -45.3 C 44.5 -46.1 44.6 -46.5 45.4 -46.7 C 46.8 -47.1 48.1 -47.8 49.1 -48.8 C 51.3 -50.9 50.8 -53.6 47.9 -54.8 C 45.6 -55.8 43.2 -55.6 40.9 -55.4 C 38.7 -55.3 36.6 -54.7 34.6 -54.1 C 34.6 -54.1 34.6 -54.1 34.6 -54.1 Z"/>
    <path class="st2" d="M 33.3 -51.5 C 33.6 -51.8 33.8 -51.7 34.1 -51.5 C 40.7 -47.5 44.1 -39.6 41.1 -31.9 C 40.3 -29.9 37.7 -27.9 35.8 -28.4 C 35 -28.6 34.6 -29 34.2 -29.5 C 33.3 -30.7 32.3 -31.8 30.8 -32.3 C 29.2 -32.8 27.8 -32.5 26.4 -31.7 C 25.2 -31 24 -30.1 22.5 -31 C 21.6 -31.5 20.1 -34.6 20.4 -35.6 C 20.6 -36 21 -36 21.4 -36 C 23.9 -36.4 25.9 -37.6 27.8 -39.2 C 28.4 -39.7 28.9 -39.7 29.4 -39 C 30.2 -37.8 31.2 -36.8 32.5 -36.1 C 35.1 -34.6 37.6 -35.9 37.9 -38.9 C 38.2 -41.4 37.3 -43.6 36.5 -45.8 C 35.6 -47.8 34.5 -49.7 33.3 -51.5 C 33.3 -51.5 33.3 -51.5 33.3 -51.5 Z"/>
    <path class="st4" d="M 30.1 -50.9 C 29.7 -48.9 28.8 -47 27.6 -45.3 C 24 -39.9 18.8 -37.7 12.4 -38.3 C 10.1 -38.5 8.2 -40.4 8 -42.3 C 7.9 -43.1 8.1 -43.7 8.6 -44.3 C 9.3 -45.2 9.9 -46 10.2 -47.1 C 10.8 -49.3 10 -51.1 8.4 -52.7 C 6.2 -54.9 6.5 -56.9 9.1 -58.5 C 9.4 -58.7 9.8 -58.9 10.2 -59.1 C 10.8 -59.4 11.3 -59.4 11.5 -58.7 C 12.4 -56.4 14.2 -54.7 16.2 -53.3 C 16.9 -52.7 16.9 -52.3 16.3 -51.6 C 15.1 -50.3 14.4 -48.7 14.3 -46.9 C 14.1 -44.7 15.4 -43.3 17.6 -43.3 C 19 -43.3 20.3 -43.8 21.5 -44.4 C 24.6 -46 27 -48.3 29.3 -50.7 C 29.6 -50.8 29.7 -51 30.1 -50.9 Z"/>
    <path class="st5" d="M 13.7 -71.9 C 13.9 -71.9 14.4 -71.8 14.9 -71.7 C 18.6 -71 20.9 -72.3 22.1 -75.8 C 22.9 -78.1 24.6 -78.8 26.8 -77.6 C 26.9 -77.6 26.9 -77.5 27 -77.5 C 29.2 -76.2 29.2 -76 27.7 -74 C 26.5 -72.4 25.9 -70.6 25.6 -68.7 C 25.4 -67.6 25 -67.4 24 -67.8 C 22.4 -68.4 20.7 -68.4 19 -67.8 C 17.1 -67.2 16.3 -65.5 16.9 -63.6 C 17.7 -61.1 19.9 -60 21.8 -58.7 C 23.7 -57.4 25.9 -56.7 28 -55.8 C 28.3 -55.7 28.8 -55.7 28.7 -55.2 C 28.6 -54.9 28.2 -54.9 27.8 -54.9 C 23.3 -54.7 19 -55.4 15.5 -58.4 C 12.2 -61.1 9.8 -64.4 10.2 -69 C 10.7 -70.5 11.8 -71.6 13.7 -71.9 Z"/>
    <path class="st4" d="M 5.5 -43.8 C 3.1 -43.5 0.7 -45.5 0.5 -48 C 0.3 -50.4 2.3 -52.8 4.6 -53 C 7.2 -53.3 9.6 -51.5 9.8 -49.1 C 9.9 -46.8 8.4 -44 5.5 -43.8 Z"/>
    <path class="st3" d="M 47.5 -79.4 C 50 -79.6 52.4 -77.6 52.6 -75.1 C 52.8 -72.7 50.8 -70.4 48.4 -70.2 C 45.8 -70 43.5 -71.9 43.3 -74.4 C 43.1 -76.9 44.9 -79.2 47.5 -79.4 Z"/>
    <path class="st5" d="M 21.4 -77.5 C 21.7 -74.9 19.9 -72.7 17.2 -72.3 C 14.9 -72 12.5 -73.9 12.2 -76.1 C 11.9 -79 13.5 -81.1 16.2 -81.4 C 18.7 -81.7 21.1 -79.8 21.4 -77.5 Z"/>
  </g>
</svg>