<?xml version="1.0" encoding="utf-8"?>
<!-- Generator: Adobe Illustrator 17.0.2, SVG Export Plug-In . SVG Version: 6.00 Build 0)  -->
<!DOCTYPE svg PUBLIC "-//W3C//DTD SVG 1.1//EN" "http://www.w3.org/Graphics/SVG/1.1/DTD/svg11.dtd">
<svg version="1.1" xmlns="http://www.w3.org/2000/svg" xmlns:xlink="http://www.w3.org/1999/xlink" x="0px" y="0px" width="250px"
	 height="70px" viewBox="0 0 250 70" enable-background="new 0 0 250 70" xml:space="preserve">
<g id="Layer_1" display="none">
	<rect display="inline" width="250" height="70"/>
</g>
<g id="Layer_2">
	<g>
		<path fill="#FFFFFF" d="M41.137,18.824c-0.727,0.122-2.976-0.041-4.26-0.073c-0.298-0.009-0.255-0.013-0.518,0
			c-1.479,0.058-4.033,0.229-4.718-0.019c-0.213-0.076-0.224-0.239,0-0.291l0.446-0.174c0.934-0.217,2.919-0.983,3.786-1.122
			c0.256-0.041,0.703-0.136,1.037-0.106c1.458,0.141,3.808,1.15,4.22,1.401C41.314,18.552,41.276,18.797,41.137,18.824
			 M39.699,20.664c0,0.561-1.346,0.032-3.187,0.076c-1.849,0.044-3.38,0.255-3.333,0.011c0.087-0.439-0.08-0.788-0.224-1.144v-0.103
			c-0.115-0.282,2.005,0.298,3.485,0.215c1.865-0.106,3.539-0.432,3.539-0.12C39.98,19.91,39.699,20.206,39.699,20.664
			 M36.155,14.912l0.008-0.056c0-0.192,0.43-0.586,0.54-0.209c0.101,0.344,0.348,1.93,0.267,1.93c-0.187,0-1.02,0.254-1.02-0.063
			C35.95,16.2,36.155,15.046,36.155,14.912 M0.799,2.893v42.45h2.558c0.139-1.964,1.236-11.575,1.166-14.954
			c-0.086-4.161-0.354-7.973-0.135-8.456c0.477-1.028,5.7-0.397,5.7-0.397S8.123,27.81,9.044,31.552
			c0.176,0.712,0.291,1.319,0.418,1.828c0.651-3.477,1.313-6.184,0.843-10.838c-0.518-5.149-1.123-8.597-0.543-8.74
			c0.778-0.195,1.48-0.472,1.48-0.472s0.598-3.02,1.097-2.09c0.516,0.964,0.873,1.932,0.873,1.932s0.969-0.18,1.674-0.045
			c0.752,0.144-1.279,7.261-0.804,12.942c0.096,1.169,0.289,2.754,0.5,3.697c0.146-0.546,0.386-1.014,0.478-1.519
			c0.84-4.574-0.207-9.369,0.565-9.301c1.057,0.09,1.048,0.752,3.416,1.019c2.678,0.304,3.03-0.208,2.876,0.335
			c-0.182,0.644-1.3,2.956-0.514,6.966c0.109,0.549,0.35,0.926,0.47,1.441c0.441-1.776,0.843-3.57,1.007-4.748
			c0.429-3.111-1.138-7.158-0.675-7.135c0.287,0.013,0.949-0.083,0.949-0.083s-0.164-0.798,0-0.795c0.291,0,1.104-0.082,1.104-0.082
			s0.234-1.191,0.367-1.198c0.186-0.007,1.781-0.089,2.018-0.079c0.192,0.009,0.243,1.037,0.243,1.037s0.994,0.006,1.159-0.002
			c0.209-0.006,0.183,0.881,0.183,0.881s0.747-0.118,1.223-0.08c0.604,0.047-1.049,1.418-0.87,8.438
			c0.085,3.173,0.349,5.09,0.879,6.598c0.328-1.017,0.545-2.291,0.673-3.67c0.093-1.056-0.745-3.153,0.008-2.951
			c1.245,0.331,3.017,1.545,5.143,2.01c-0.277-1.122-0.681-4.042-0.949-4.87c-0.288-0.896,1.243-0.334,2.011-0.334
			c0.778,0,2.512-0.498,2.026,0.303c-0.65,1.081-1.211,3.975-1.521,5.052c0.365-0.035,0.735-0.123,1.59-0.19
			c1.358-0.105-0.099,2.206-0.397,5.744c-0.16,1.974,2.406,10.429,2.466,12.789h2.738V2.893H0.799z"/>
		<path fill="#FFFFFF" d="M30.01,36.954l0.063-0.177c0,0-0.094-0.02-0.463-0.016c-1.955,0.016-8.142,0.322-8.091,2.506
			c0.039,1.592,2.481,4.693,6.069,6.076h0.497c-1.058-1.471-2.559-4.041-2.487-4.985C25.776,37.873,30.01,36.954,30.01,36.954"/>
		<path fill="#FFFFFF" d="M18.897,44.641c0.11-0.075,0.213-0.192,0.275-0.278c0.569-0.737-1.171-2.151-2.87-3.393
			c-1.167-0.848-1.555-2.096-0.847-3.314c0.531-0.916,2.335-2.297,5.061-2.201c2.725,0.097,3.679,0.986,3.679,0.986
			s-1.37-0.1-2.703,0.208c-1.315,0.304-3.144,1.123-2.644,2.933c0.599,2.179,4.709,3.485,4.169,5.021
			c-0.269,0.501-0.665,0.74-0.665,0.74h-3.589h-1.91C16.853,45.342,17.846,45.166,18.897,44.641"/>
		<path fill="#FFFFFF" d="M41.137,18.848c-0.727,0.123-2.976-0.041-4.26-0.073c-0.298-0.008-0.255-0.012-0.518,0
			c-1.479,0.058-4.033,0.229-4.718-0.019c-0.213-0.076-0.224-0.237,0-0.29l0.446-0.175c0.934-0.217,2.919-0.982,3.786-1.122
			c0.256-0.041,0.703-0.136,1.037-0.105c1.458,0.141,3.808,1.15,4.22,1.401C41.314,18.575,41.276,18.822,41.137,18.848
			 M39.699,20.687c0,0.562-1.346,0.033-3.187,0.077c-1.849,0.042-3.38,0.255-3.333,0.011c0.087-0.441-0.08-0.789-0.224-1.145v-0.103
			c-0.115-0.282,2.005,0.298,3.485,0.215c1.865-0.106,3.539-0.431,3.539-0.119C39.98,19.933,39.699,20.229,39.699,20.687
			 M36.155,14.936l0.008-0.056c0-0.192,0.43-0.586,0.54-0.209c0.101,0.344,0.348,1.93,0.267,1.93c-0.187,0-1.02,0.255-1.02-0.063
			C35.95,16.223,36.155,15.07,36.155,14.936 M0.799,2.916v42.45h2.558c0.139-1.964,1.236-11.575,1.166-14.954
			c-0.086-4.161-0.354-7.973-0.135-8.456c0.477-1.028,5.7-0.397,5.7-0.397s-1.966,6.275-1.045,10.017
			c0.176,0.712,0.291,1.32,0.418,1.829c0.651-3.478,1.313-6.185,0.843-10.839c-0.518-5.148-1.123-8.597-0.543-8.74
			c0.778-0.195,1.48-0.471,1.48-0.471s0.598-3.021,1.097-2.091c0.516,0.964,0.873,1.934,0.873,1.934s0.969-0.181,1.674-0.045
			c0.752,0.144-1.279,7.261-0.804,12.941c0.096,1.169,0.289,2.754,0.5,3.698c0.146-0.546,0.386-1.015,0.478-1.52
			c0.84-4.574-0.207-9.37,0.565-9.3c1.057,0.09,1.048,0.752,3.416,1.017c2.678,0.304,3.03-0.208,2.876,0.336
			c-0.182,0.644-1.3,2.956-0.514,6.966c0.109,0.549,0.35,0.925,0.47,1.44c0.441-1.776,0.843-3.57,1.007-4.747
			c0.429-3.111-1.138-7.159-0.675-7.136c0.287,0.014,0.949-0.082,0.949-0.082s-0.164-0.799,0-0.796c0.291,0,1.104-0.082,1.104-0.082
			s0.234-1.191,0.367-1.198c0.186-0.007,1.781-0.088,2.018-0.078c0.192,0.008,0.243,1.036,0.243,1.036s0.994,0.007,1.159-0.002
			c0.209-0.006,0.183,0.881,0.183,0.881s0.747-0.116,1.223-0.08c0.604,0.047-1.049,1.419-0.87,8.439
			c0.085,3.172,0.349,5.089,0.879,6.597c0.328-1.017,0.545-2.29,0.673-3.67c0.093-1.056-0.745-3.153,0.008-2.951
			c1.245,0.331,3.017,1.545,5.143,2.01c-0.277-1.122-0.681-4.041-0.949-4.87c-0.288-0.896,1.243-0.332,2.011-0.332
			c0.778,0,2.512-0.498,2.026,0.303c-0.65,1.079-1.211,3.974-1.521,5.051c0.365-0.034,0.735-0.123,1.59-0.189
			c1.358-0.105-0.099,2.206-0.397,5.743c-0.16,1.975,2.406,10.429,2.466,12.789h2.738V2.916H0.799z"/>
		<path fill="#FFFFFF" d="M30.01,36.977l0.063-0.176c0,0-0.094-0.021-0.463-0.016c-1.955,0.016-8.142,0.321-8.091,2.506
			c0.039,1.591,2.481,4.692,6.069,6.076h0.497c-1.058-1.472-2.559-4.042-2.487-4.987C25.776,37.898,30.01,36.977,30.01,36.977"/>
		<path fill="#FFFFFF" d="M18.897,44.664c0.11-0.075,0.213-0.192,0.275-0.278c0.569-0.735-1.171-2.15-2.87-3.391
			c-1.167-0.849-1.555-2.097-0.847-3.314c0.531-0.917,2.335-2.298,5.061-2.201c2.725,0.097,3.679,0.984,3.679,0.984
			s-1.37-0.1-2.703,0.209c-1.315,0.304-3.144,1.122-2.644,2.932c0.599,2.18,4.709,3.487,4.169,5.021
			c-0.269,0.5-0.665,0.74-0.665,0.74h-3.589h-1.91C16.853,45.366,17.846,45.19,18.897,44.664"/>
		<path fill="#FFFFFF" d="M64.777,5.527l-2.133,1.266c-0.401-0.694-0.78-1.145-1.141-1.354c-0.377-0.243-0.863-0.363-1.457-0.363
			c-0.732,0-1.336,0.208-1.817,0.623c-0.483,0.406-0.724,0.92-0.724,1.534c0,0.854,0.632,1.54,1.896,2.058l1.74,0.714
			c1.416,0.57,2.452,1.268,3.105,2.096c0.655,0.825,0.984,1.836,0.984,3.032c0,1.606-0.536,2.931-1.607,3.976
			c-1.075,1.058-2.411,1.586-4.008,1.586c-1.511,0-2.761-0.452-3.747-1.351c-0.97-0.9-1.578-2.162-1.816-3.79l2.664-0.585
			c0.12,1.021,0.329,1.731,0.631,2.12c0.544,0.753,1.334,1.129,2.372,1.129c0.82,0,1.501-0.271,2.044-0.823
			c0.541-0.549,0.813-1.243,0.813-2.088c0-0.338-0.047-0.648-0.141-0.928c-0.094-0.284-0.241-0.544-0.441-0.778
			c-0.2-0.238-0.458-0.46-0.774-0.668c-0.317-0.206-0.693-0.406-1.128-0.591l-1.682-0.703c-2.387-1.007-3.58-2.479-3.58-4.419
			c0-1.309,0.502-2.405,1.501-3.287c1.002-0.886,2.247-1.33,3.738-1.33C62.078,2.605,63.649,3.579,64.777,5.527"/>
		<polygon fill="#FFFFFF" points="77.396,5.415 70.409,5.415 70.409,9.604 77.193,9.604 77.193,12.077 70.409,12.077 70.409,17.906 
			77.396,17.906 77.396,20.376 67.777,20.376 67.777,2.943 77.396,2.943 		"/>
		<path fill="#FFFFFF" d="M90.019,13.668l-2.584-5.929l-2.709,5.929H90.019z M91.093,16.141h-7.464l-1.941,4.236h-2.835
			l8.625-18.529l8.323,18.529h-2.878L91.093,16.141z"/>
		<polygon fill="#FFFFFF" points="101.123,5.415 101.123,20.376 98.494,20.376 98.494,5.415 94.486,5.415 94.486,2.943 
			105.12,2.943 105.12,5.415 		"/>
		<polygon fill="#FFFFFF" points="113.574,5.415 113.574,20.376 110.946,20.376 110.946,5.415 106.935,5.415 106.935,2.943 
			117.571,2.943 117.571,5.415 		"/>
		<polygon fill="#FFFFFF" points="122.552,2.943 122.552,17.906 127.676,17.906 127.676,20.377 119.921,20.377 119.921,2.943 		"/>
		<polygon fill="#FFFFFF" points="139.791,5.415 132.804,5.415 132.804,9.604 139.59,9.604 139.59,12.077 132.804,12.077 
			132.804,17.906 139.791,17.906 139.791,20.376 130.174,20.376 130.174,2.943 139.791,2.943 		"/>
		<path fill="#FFFFFF" d="M163.266,3.876v3.111c-1.52-1.27-3.093-1.91-4.72-1.91c-1.792,0-3.299,0.644-4.527,1.931
			c-1.233,1.281-1.849,2.848-1.849,4.697c0,1.831,0.616,3.374,1.849,4.632c1.237,1.256,2.746,1.883,4.541,1.883
			c0.923,0,1.712-0.15,2.358-0.452c0.362-0.15,0.737-0.351,1.124-0.61c0.388-0.255,0.795-0.564,1.224-0.924v3.179
			c-1.506,0.853-3.087,1.283-4.742,1.283c-2.489,0-4.619-0.869-6.379-2.609c-1.753-1.757-2.63-3.868-2.63-6.348
			c0-2.22,0.735-4.199,2.204-5.938c1.807-2.127,4.141-3.194,7.01-3.194C160.294,2.605,161.807,3.026,163.266,3.876"/>
		<polygon fill="#FFFFFF" points="176.206,5.415 169.218,5.415 169.218,9.604 176.002,9.604 176.002,12.077 169.218,12.077 
			169.218,17.906 176.206,17.906 176.206,20.376 166.585,20.376 166.585,2.943 176.206,2.943 		"/>
		<polygon fill="#FFFFFF" points="179.66,20.377 179.66,1.755 192.375,15.058 192.375,2.943 195.004,2.943 195.004,21.439 
			182.291,8.171 182.291,20.377 		"/>
		<polygon fill="#FFFFFF" points="203.993,5.415 203.993,20.376 201.362,20.376 201.362,5.415 197.354,5.415 197.354,2.943 
			207.99,2.943 207.99,5.415 		"/>
		<path fill="#FFFFFF" d="M212.97,10.948h0.832c2.493,0,3.74-0.949,3.74-2.856c0-1.782-1.212-2.677-3.637-2.677h-0.935V10.948z
			 M216.243,12.95l5.397,7.427h-3.219l-4.979-7.135h-0.472v7.135h-2.631V2.943h3.082c2.3,0,3.966,0.436,4.99,1.297
			c1.13,0.966,1.694,2.237,1.694,3.818c0,1.233-0.355,2.295-1.062,3.181C218.337,12.131,217.404,12.699,216.243,12.95"/>
		<path fill="#FFFFFF" d="M233.427,13.668l-2.582-5.929l-2.711,5.929H233.427z M234.501,16.141h-7.462l-1.943,4.236h-2.831
			l8.622-18.529l8.322,18.529h-2.878L234.501,16.141z"/>
		<polygon fill="#FFFFFF" points="244.018,2.943 244.018,17.906 249.142,17.906 249.142,20.377 241.387,20.377 241.387,2.943 		"/>
		<path fill="#FFFFFF" d="M67.801,27.773v3.111c-1.518-1.27-3.094-1.909-4.717-1.909c-1.794,0-3.305,0.645-4.529,1.934
			c-1.235,1.278-1.852,2.845-1.852,4.694c0,1.83,0.618,3.374,1.852,4.631c1.233,1.258,2.746,1.885,4.537,1.885
			c0.928,0,1.715-0.152,2.364-0.452c0.359-0.15,0.735-0.354,1.121-0.61c0.388-0.255,0.799-0.565,1.224-0.925v3.178
			c-1.504,0.853-3.085,1.283-4.741,1.283c-2.493,0-4.617-0.87-6.376-2.609c-1.757-1.755-2.631-3.866-2.631-6.347
			c0-2.22,0.731-4.198,2.199-5.937c1.807-2.131,4.144-3.195,7.013-3.195C64.829,26.504,66.342,26.926,67.801,27.773"/>
		<path fill="#FFFFFF" d="M72.326,35.508c0,1.925,0.648,3.508,1.944,4.751c1.284,1.241,2.772,1.861,4.458,1.861
			c1.828,0,3.37-0.631,4.628-1.895c1.259-1.279,1.887-2.835,1.887-4.671c0-1.857-0.623-3.415-1.865-4.671
			c-1.233-1.263-2.758-1.895-4.583-1.895c-1.815,0-3.344,0.632-4.597,1.895C72.953,32.133,72.326,33.674,72.326,35.508
			 M69.674,35.48c0-2.455,0.899-4.563,2.697-6.322c1.789-1.763,3.944-2.643,6.457-2.643c2.483,0,4.617,0.889,6.393,2.665
			c1.782,1.776,2.671,3.909,2.671,6.402c0,2.504-0.895,4.631-2.683,6.378c-1.798,1.754-3.973,2.632-6.516,2.632
			c-2.25,0-4.272-0.78-6.063-2.338C70.658,40.531,69.674,38.272,69.674,35.48"/>
		<polygon fill="#FFFFFF" points="92.912,26.843 92.912,41.803 98.036,41.803 98.036,44.277 90.278,44.277 90.278,26.843 		"/>
		<polygon fill="#FFFFFF" points="103.162,26.843 103.162,41.803 108.289,41.803 108.289,44.277 100.531,44.277 100.531,26.843 		
			"/>
		<polygon fill="#FFFFFF" points="120.402,29.314 113.415,29.314 113.415,33.505 120.203,33.505 120.203,35.976 113.415,35.976 
			113.415,41.803 120.402,41.803 120.402,44.277 110.784,44.277 110.784,26.843 120.402,26.843 		"/>
		<path fill="#FFFFFF" d="M132.363,35.199h7.204v0.574c0,1.311-0.155,2.469-0.464,3.477c-0.301,0.935-0.811,1.806-1.527,2.621
			c-1.618,1.82-3.676,2.731-6.172,2.731c-2.439,0-4.529-0.88-6.268-2.642c-1.739-1.769-2.606-3.891-2.606-6.368
			c0-2.529,0.883-4.674,2.651-6.435c1.77-1.766,3.922-2.653,6.457-2.653c1.363,0,2.634,0.276,3.817,0.833
			c1.129,0.553,2.243,1.454,3.333,2.701l-1.877,1.795c-1.431-1.904-3.173-2.858-5.226-2.858c-1.844,0-3.393,0.638-4.637,1.91
			c-1.252,1.25-1.878,2.817-1.878,4.698c0,1.941,0.697,3.541,2.09,4.796c1.302,1.166,2.714,1.753,4.232,1.753
			c1.297,0,2.459-0.437,3.488-1.307c1.033-0.878,1.609-1.93,1.73-3.154h-4.348V35.199z"/>
		<polygon fill="#FFFFFF" points="151.569,29.314 144.582,29.314 144.582,33.505 151.365,33.505 151.365,35.976 144.582,35.976 
			144.582,41.803 151.569,41.803 151.569,44.277 141.951,44.277 141.951,26.843 151.569,26.843 		"/>
		<path fill="#FFFFFF" d="M175.49,64.552c0.665,0.863,1.513,1.271,2.664,1.271c1.548,0,2.486-0.847,2.486-2.211
			c0-1.062-0.559-1.472-1.68-1.956c-0.85-0.364-1.382-0.562-1.382-1.137c0-0.516,0.517-0.987,1.229-0.987
			c0.698,0,1.257,0.289,1.668,0.835l0.712-0.849c-0.623-0.666-1.393-0.998-2.302-0.998c-1.471,0-2.455,0.922-2.455,2.136
			c0,0.97,0.545,1.365,1.605,1.88c0.926,0.455,1.471,0.577,1.471,1.244c0,0.637-0.514,1.076-1.379,1.076
			c-0.775,0-1.393-0.41-1.88-1.197L175.49,64.552z M174.653,62.352c0.016-0.181,0.016-0.363,0.016-0.529
			c0-2.107-1.104-3.303-2.986-3.303c-2.077,0-3.637,1.65-3.637,3.924c0,2.063,1.271,3.38,3.303,3.38c1.123,0,2.063-0.514,2.85-1.529
			l-0.818-0.667c-0.621,0.805-1.273,1.184-2.077,1.184c-1.273,0-2.077-0.881-2.077-2.336v-0.122H174.653z M173.535,61.384h-4.201
			c0.257-1.183,1.182-1.911,2.335-1.911C172.821,59.473,173.518,60.157,173.535,61.384 M162.8,64.643
			c-1.243,0-2.136-0.925-2.136-2.319c0-1.607,1.045-2.791,2.561-2.791c1.123,0,1.941,0.881,1.941,2.275
			C165.166,63.461,164.075,64.643,162.8,64.643 M165.606,58.762l-0.181,1.332c-0.441-1.044-1.273-1.574-2.472-1.574
			c-1.985,0-3.484,1.635-3.484,3.879c0,1.941,1.226,3.303,2.923,3.303c1.031,0,1.819-0.409,2.472-1.286l-0.122,1.029
			c-0.166,1.561-0.955,2.381-2.122,2.381c-1.318,0-2.091-0.698-2.122-1.942l-1.165,0.152c0.031,1.668,1.196,2.758,3.014,2.758
			c1.471,0,2.38-0.409,3-1.453c0.5-0.819,0.577-1.896,0.744-3.199l0.683-5.38H165.606z M158.21,62.352
			c0.014-0.181,0.014-0.363,0.014-0.529c0-2.107-1.104-3.303-2.984-3.303c-2.078,0-3.637,1.65-3.637,3.924
			c0,2.063,1.271,3.38,3.303,3.38c1.121,0,2.062-0.514,2.849-1.529l-0.817-0.667c-0.623,0.805-1.274,1.184-2.078,1.184
			c-1.275,0-2.078-0.881-2.078-2.336v-0.122H158.21z M157.089,61.384h-4.201c0.258-1.183,1.184-1.911,2.335-1.911
			C156.377,59.473,157.074,60.157,157.089,61.384 M149.283,65.536l1.5-11.472h-1.182l-1.515,11.472H149.283z M145.556,65.536
			l1.499-11.472h-1.182l-1.515,11.472H145.556z M139.476,59.473c1.35,0,2.29,1.047,2.29,2.502c0,1.698-1.091,2.911-2.563,2.911
			c-1.379,0-2.305-1.001-2.305-2.487C136.898,60.685,138.006,59.473,139.476,59.473 M135.718,62.43c0,2.016,1.332,3.394,3.409,3.394
			c2.213,0,3.804-1.62,3.804-4.061c0-1.789-1.377-3.242-3.395-3.242C137.369,58.52,135.718,60.201,135.718,62.43 M134.807,56.958
			l0.349-1.304c-1.016-0.818-2.137-1.196-3.471-1.196c-1.545,0-2.925,0.545-3.971,1.589c-1.151,1.152-1.787,2.729-1.787,4.472
			c0,3.154,2.105,5.304,5.137,5.304c1.06,0,1.999-0.227,2.864-0.681l0.288-1.514c-1.015,0.666-1.939,1.015-2.94,1.015
			c-2.471,0-4.001-1.621-4.001-4.214c0-1.35,0.484-2.593,1.379-3.548c0.773-0.819,1.849-1.273,3.046-1.273
			C132.806,55.608,133.807,56.048,134.807,56.958 M119.863,62.352c0.015-0.181,0.015-0.363,0.015-0.529
			c0-2.107-1.105-3.303-2.986-3.303c-2.077,0-3.636,1.65-3.636,3.924c0,2.063,1.272,3.38,3.303,3.38c1.122,0,2.062-0.514,2.85-1.529
			l-0.819-0.667c-0.621,0.805-1.273,1.184-2.077,1.184c-1.273,0-2.077-0.881-2.077-2.336v-0.122H119.863z M118.744,61.384h-4.201
			c0.258-1.183,1.184-1.911,2.335-1.911C118.032,59.473,118.728,60.157,118.744,61.384 M110.937,65.536l1.499-11.472h-1.181
			l-1.514,11.472H110.937z M105.573,65.536h1.182l0.757-5.79h1.501l0.12-0.983h-1.485l0.364-2.729h-1.198l-0.348,2.729h-1.257
			l-0.136,0.983h1.257L105.573,65.536z M101.146,65.536h1.182l0.758-5.79h1.5l0.12-0.983h-1.484l0.363-2.729h-1.197l-0.348,2.729
			h-1.258l-0.136,0.983h1.257L101.146,65.536z M95.43,64.735c-1.243,0-2.136-0.925-2.136-2.335c0-1.638,1.046-2.835,2.561-2.835
			c1.122,0,1.941,0.894,1.941,2.305C97.796,63.552,96.705,64.735,95.43,64.735 M98.235,58.762l-0.181,1.363
			c-0.456-1.075-1.273-1.605-2.472-1.605c-1.985,0-3.484,1.62-3.484,3.879c0,2.063,1.226,3.409,2.923,3.409
			c1.031,0,1.818-0.409,2.472-1.286l-0.167,1.014h1.183l0.894-6.773H98.235z M90.839,62.352c0.014-0.181,0.014-0.363,0.014-0.529
			c0-2.107-1.104-3.303-2.984-3.303c-2.078,0-3.637,1.65-3.637,3.924c0,2.063,1.271,3.38,3.303,3.38
			c1.121,0,2.062-0.514,2.848-1.529l-0.815-0.667c-0.623,0.805-1.275,1.184-2.078,1.184c-1.274,0-2.078-0.881-2.078-2.336v-0.122
			H90.839z M89.719,61.384h-4.201c0.258-1.183,1.183-1.911,2.335-1.911S89.703,60.157,89.719,61.384 M76.108,63.552
			c0.606,1.5,1.727,2.272,3.272,2.272c2.139,0,3.441-1.286,3.441-3.273c0-1.469-0.665-2.167-2.03-2.94
			c-1.228-0.683-2.093-0.97-2.093-2.198c0-1.061,0.759-1.835,1.926-1.835c0.834,0,1.456,0.439,1.924,1.349l0.94-0.804
			c-0.713-1.135-1.635-1.68-2.895-1.68c-1.911,0-3.213,1.332-3.213,3.167c0,1.44,0.863,2.122,2.44,2.985
			c1.062,0.577,1.699,0.926,1.699,1.986c0,1.258-0.849,2.092-2.169,2.092c-1.062,0-1.713-0.606-2.287-1.925L76.108,63.552z
			 M70.879,62.352c0.014-0.181,0.014-0.363,0.014-0.529c0-2.107-1.104-3.303-2.985-3.303c-2.077,0-3.636,1.65-3.636,3.924
			c0,2.063,1.27,3.38,3.303,3.38c1.121,0,2.06-0.514,2.848-1.529l-0.816-0.667c-0.621,0.805-1.275,1.184-2.078,1.184
			c-1.273,0-2.077-0.881-2.077-2.336v-0.122H70.879z M69.758,61.384h-4.201c0.259-1.183,1.183-1.911,2.335-1.911
			C69.045,59.473,69.742,60.157,69.758,61.384 M56.163,65.536h1.151l0.455-3.424c0.228-1.699,1.015-2.593,2.244-2.593
			c0.954,0,1.454,0.439,1.454,1.243c0,0.152-0.031,0.364-0.061,0.621l-0.53,4.153h1.181l0.562-4.274
			c0.045-0.318,0.06-0.577,0.06-0.758c0-1.228-0.816-1.984-2.105-1.984c-1,0-1.849,0.453-2.532,1.347l0.804-5.804h-1.167
			L56.163,65.536z M52.024,65.536h1.182l0.758-5.79h1.5l0.12-0.983h-1.485l0.364-2.729h-1.197l-0.348,2.729h-1.257l-0.137,0.983
			h1.257L52.024,65.536z M42.977,65.536h1.196l0.758-5.79h1.486l0.135-0.983h-1.5l0.289-2.107c0.15-1.152,0.287-1.683,0.954-1.683
			c0.228,0,0.484,0.106,0.787,0.243l0.197-1.029c-0.364-0.182-0.712-0.258-1.076-0.258c-1.393,0-1.817,0.878-2.075,2.849
			l-0.258,1.986h-1.257l-0.121,0.983h1.242L42.977,65.536z M37.67,59.473c1.35,0,2.29,1.047,2.29,2.502
			c0,1.698-1.091,2.911-2.563,2.911c-1.379,0-2.305-1.001-2.305-2.487C35.092,60.685,36.201,59.473,37.67,59.473 M33.912,62.43
			c0,2.016,1.332,3.394,3.409,3.394c2.214,0,3.804-1.62,3.804-4.061c0-1.789-1.377-3.242-3.394-3.242
			C35.563,58.52,33.912,60.201,33.912,62.43 M28.303,62.352c0.015-0.181,0.015-0.363,0.015-0.529c0-2.107-1.104-3.303-2.985-3.303
			c-2.078,0-3.637,1.65-3.637,3.924c0,2.063,1.272,3.38,3.303,3.38c1.122,0,2.062-0.514,2.849-1.529l-0.818-0.667
			c-0.62,0.805-1.273,1.184-2.077,1.184c-1.273,0-2.077-0.881-2.077-2.336v-0.122H28.303z M27.184,61.384h-4.201
			c0.257-1.183,1.182-1.911,2.335-1.911C26.469,59.473,27.167,60.157,27.184,61.384 M13.587,65.536h1.151l0.456-3.424
			c0.227-1.699,1.016-2.593,2.244-2.593c0.954,0,1.454,0.439,1.454,1.243c0,0.152-0.031,0.364-0.061,0.621L18.3,65.536h1.182
			l0.56-4.274c0.046-0.318,0.06-0.577,0.06-0.758c0-1.228-0.816-1.984-2.105-1.984c-0.998,0-1.802,0.439-2.544,1.347l0.15-1.105
			H14.48L13.587,65.536z M10.982,59.731c0,1.364-0.531,2.668-1.443,3.578c-0.878,0.865-2.045,1.333-3.32,1.333
			c-2.484,0-4.107-1.667-4.107-4.108c0-1.35,0.53-2.637,1.485-3.609c0.834-0.848,1.986-1.318,3.231-1.318
			C9.344,55.608,10.982,57.306,10.982,59.731 M6.888,54.458c-1.653,0-3.168,0.574-4.26,1.62c-1.151,1.107-1.802,2.698-1.802,4.472
			c0,3.138,2.119,5.273,5.258,5.273c1.698,0,3.243-0.605,4.35-1.664c1.182-1.123,1.849-2.698,1.849-4.428
			C12.283,56.548,10.178,54.458,6.888,54.458"/>
		<path fill="#FFFFFF" d="M67.802,27.787v3.111c-1.519-1.27-3.094-1.909-4.717-1.909c-1.795,0-3.305,0.645-4.53,1.932
			c-1.233,1.279-1.851,2.845-1.851,4.695c0,1.83,0.618,3.373,1.851,4.63c1.233,1.259,2.748,1.887,4.538,1.887
			c0.927,0,1.714-0.152,2.362-0.452c0.359-0.15,0.735-0.354,1.121-0.61c0.389-0.255,0.799-0.565,1.225-0.926v3.179
			c-1.505,0.853-3.086,1.282-4.742,1.282c-2.493,0-4.617-0.869-6.376-2.609c-1.756-1.755-2.631-3.866-2.631-6.346
			c0-2.221,0.732-4.198,2.199-5.938c1.807-2.13,4.144-3.194,7.013-3.194C64.829,26.519,66.342,26.94,67.802,27.787"/>
		<path fill="#FFFFFF" d="M72.326,35.522c0,1.924,0.648,3.508,1.945,4.751c1.284,1.241,2.772,1.861,4.457,1.861
			c1.828,0,3.371-0.632,4.628-1.895c1.259-1.279,1.887-2.835,1.887-4.671c0-1.857-0.623-3.415-1.864-4.671
			c-1.235-1.263-2.759-1.895-4.583-1.895c-1.816,0-3.346,0.632-4.597,1.895C72.954,32.147,72.326,33.687,72.326,35.522
			 M69.676,35.495c0-2.455,0.897-4.564,2.697-6.324c1.789-1.763,3.942-2.642,6.456-2.642c2.485,0,4.617,0.888,6.394,2.665
			c1.782,1.775,2.671,3.909,2.671,6.402c0,2.504-0.895,4.631-2.684,6.378c-1.797,1.754-3.973,2.631-6.515,2.631
			c-2.251,0-4.274-0.779-6.064-2.337C70.658,40.544,69.676,38.285,69.676,35.495"/>
		<polygon fill="#FFFFFF" points="92.913,26.857 92.913,41.816 98.036,41.816 98.036,44.291 90.278,44.291 90.278,26.857 		"/>
		<polygon fill="#FFFFFF" points="103.162,26.857 103.162,41.816 108.289,41.816 108.289,44.291 100.531,44.291 100.531,26.857 		
			"/>
		<polygon fill="#FFFFFF" points="120.404,29.329 113.415,29.329 113.415,33.518 120.203,33.518 120.203,35.989 113.415,35.989 
			113.415,41.817 120.404,41.817 120.404,44.29 110.785,44.29 110.785,26.856 120.404,26.856 		"/>
		<path fill="#FFFFFF" d="M132.363,35.211h7.206v0.576c0,1.311-0.155,2.469-0.465,3.477c-0.301,0.935-0.811,1.806-1.526,2.62
			c-1.618,1.821-3.676,2.732-6.172,2.732c-2.439,0-4.529-0.881-6.27-2.643c-1.739-1.768-2.604-3.891-2.604-6.367
			c0-2.529,0.882-4.674,2.651-6.435c1.769-1.767,3.922-2.653,6.456-2.653c1.363,0,2.635,0.275,3.818,0.832
			c1.129,0.553,2.241,1.454,3.333,2.701l-1.878,1.796c-1.43-1.904-3.172-2.858-5.225-2.858c-1.844,0-3.393,0.638-4.638,1.909
			c-1.251,1.251-1.877,2.817-1.877,4.699c0,1.941,0.698,3.539,2.09,4.796c1.3,1.166,2.715,1.753,4.233,1.753
			c1.297,0,2.458-0.437,3.487-1.309c1.034-0.876,1.612-1.929,1.732-3.154h-4.349V35.211z"/>
		<polygon fill="#FFFFFF" points="151.57,29.329 144.583,29.329 144.583,33.518 151.366,33.518 151.366,35.989 144.583,35.989 
			144.583,41.817 151.57,41.817 151.57,44.29 141.951,44.29 141.951,26.856 151.57,26.856 		"/>
	</g>
</g>
</svg>
