<?xml version="1.0" encoding="UTF-8" standalone="no"?>
<!-- Generator: Adobe Illustrator 28.0.0, SVG Export Plug-In . SVG Version: 6.00 Build 0)  -->

<svg
   version="1.1"
   id="Layer_1"
   x="0px"
   y="0px"
   viewBox="0 0 518400 165811.84"
   xml:space="preserve"
   width="518400"
   height="165811.84"
   xmlns="http://www.w3.org/2000/svg"
   xmlns:svg="http://www.w3.org/2000/svg"><defs
   id="defs45" />
<style
   type="text/css"
   id="style1">
	.st0{fill:#010101;}
	.st1{fill:#231F20;}
	.st2{fill:#020202;}
</style>
<g
   id="g45"
   style="fill:#623c97;fill-opacity:1">
	<g
   id="g20"
   style="fill:#623c97;fill-opacity:1">
		<path
   id="path27_00000073700717608286714270000015442661458585114301_"
   class="st0"
   d="m 162.5,256.9 c -7.5,0.3 -25.9,71.3 -39.2,71.9 -7.9,0.3 -3.3,-19.5 2.6,-37.7 4.4,-13.7 9.4,-24.8 9.3,-27 -0.2,-5.3 -9.9,-7.2 -14.6,-6.8 -6.5,0.6 -20.6,41.2 -20.8,60.9 -0.2,19.9 7,26.3 17.6,25.8 12.2,-0.5 21.4,-15.6 25.5,-23.8 0.1,-0.2 0.4,-0.1 0.4,0.1 -1.9,12.6 -8.1,40.5 -27.2,41.4 -21.4,0.9 -28.3,-16.1 -30,-24.2 -1.6,-7.5 0.5,-11.8 -0.9,-12.6 -1.4,-0.8 -8.3,0.3 -11.6,5.9 -8.8,14.8 10,48.1 42.4,46.7 41.3,-1.8 40.6,-37.1 49.5,-73.2 5.7,-23.2 12.2,-39.1 12.2,-40.7 -0.3,-4.2 -8.8,-6.9 -15.2,-6.7 z"
   style="fill:#623c97;fill-opacity:1" />
		<path
   id="path28_00000085249024314859096470000016735578625780208062_"
   class="st0"
   d="m 720,262.1 c 0,-3.3 -11.1,-6.1 -14.1,-6.1 -6.9,0 -16.4,11.3 -24.4,25.5 0,0 -25.1,50.4 -43.9,50.4 -5.9,0 -7.8,-6.4 -7.6,-14.4 0.3,0 0.5,0 0.7,0 12.8,0 28.4,-10.6 34.2,-29.1 6.9,-22.3 -0.7,-33.8 -16,-33.8 -20.9,0 -28.8,19.5 -36.4,39.4 -7.4,19.3 -10.6,35.3 -17.7,35.3 -7.1,0 2.4,-34.5 6.7,-49.4 4.2,-14.3 22.2,-55.3 22.2,-57.8 0,-4.9 -12.1,-7.3 -17.5,-7.3 -5.4,0 -16.5,33.1 -20.2,44.6 -2.5,-2.5 -6.7,-5.2 -13.2,-5.2 -22.6,0 -31.6,17.5 -42.1,45.2 -3.8,9.9 -15.4,30.1 -20.5,30.1 -5.1,0 -2,-15.8 3,-30.4 4.9,-14.3 13.5,-27.6 13.5,-30.1 0,-4.9 -11.1,-7.3 -14.9,-7.3 -2,0 -4.1,1.5 -5.6,3 -3.1,-3.8 -9.5,-10.3 -18,-10.3 -22.6,0 -31.4,17.5 -41.8,45.2 -3.8,9.9 -18.4,32 -29.5,32 -11.1,0 -9,-24 -5.4,-34.4 4.2,-12.1 14.6,-28.5 23,-28.5 5.1,0 1.9,9.5 0.4,12.2 -1.5,2.7 -4,6.1 -5.8,8 -3.7,3.9 -6.9,4.4 -6.9,5.5 0.1,1.1 3.6,3.8 8.1,3.5 6.4,-0.4 15.8,-12.7 15.8,-23.8 0,-7.9 -1.9,-19.2 -18,-19.2 -16.1,0 -35.1,17.6 -40.5,49.6 -5.4,32 15.5,39.5 26.5,39.5 13.7,0 22.7,-10.7 30.6,-22.8 1.2,8.3 5,22.2 16.7,22.2 9.5,0 20.1,-14.8 26.1,-24.7 1.7,9.9 6,24.4 16.6,24.4 11.5,0 17.8,-10.8 25,-23 1,8.1 4.7,23.1 16.8,23.3 11.5,0.1 21.2,-17 26,-27.5 1.4,10.5 5.5,27.3 16.7,27.3 11.2,0 16,-8.4 23,-21.6 1.3,9.5 6,22.7 22.3,22.7 25.4,0 45.9,-34.4 55.4,-53.3 2.5,-5 6.2,-10.7 8.3,-13.8 0,-0.1 0.1,0 0.1,0 -0.7,2.7 -1.7,8.6 -1.4,19.3 -0.3,13.9 2.2,52 -9.5,52 -5.8,0 -7.7,-7.3 -8,-13.7 -0.1,-3.8 0.4,-7.9 0,-8.2 -1.1,-0.7 -6.9,0 -9.8,4.4 -4.4,6.7 2.8,29.8 21.1,29.8 31.7,0 26.7,-32.6 26.6,-66.9 0.1,-12.9 3.3,-25.3 3.3,-31.8 z m -234.9,35.6 c -7.9,15.2 -16.8,30.5 -21.1,30.5 -12.5,0 11.9,-68.4 26.8,-63.6 12.1,4 -1.1,24.4 -5.7,33.1 z m 85.3,0.4 c -7.9,15.2 -15.5,30.9 -21.9,30.4 -12.4,-1.1 10.5,-67.9 25.6,-63.6 10,2.9 0.9,24.5 -3.7,33.2 z m 83.9,-29.2 c 3.5,0 5.8,5.6 -0.5,19.4 -6,13 -16.7,19.9 -22.6,19.9 -0.1,0 -0.2,0 -0.3,0 0.6,-4.1 1.5,-8.1 2.5,-11.6 3.7,-13.3 14.7,-27.7 20.9,-27.7 z"
   style="fill:#623c97;fill-opacity:1" />
		<path
   id="path29_00000099641435775982225970000003948495198619009192_"
   class="st0"
   d="m 368.7,254.2 c -6.9,0 -16.2,11.3 -24.3,25.5 -12,21.3 -24.1,49.9 -30.1,49.9 -4.1,0 -1.7,-15.8 3.3,-30.4 4.9,-14.3 13.5,-27.6 13.5,-30.1 0,-4.9 -11.1,-7.3 -14.9,-7.3 -2,0 -4.1,1.5 -5.6,3 -3.1,-3.8 -9.5,-10.3 -18,-10.3 -23.6,0 -30.9,18.7 -41.4,46.4 -3.5,8.4 -22,35.3 -39.6,35.3 -8.4,0 -13.1,-8.2 -11.9,-23.6 2.8,-36.1 33.5,-79.2 48.2,-79.2 4,0 2,8.7 2,8.7 -2.4,12.6 -9,22.7 -14.8,28.7 -5.3,5.6 -10,6.3 -9.8,7.9 0.1,1.6 5.2,5.5 11.6,5.1 12,-0.8 24.5,-27.1 24.5,-40.6 0,-2.4 1.6,-26.2 -19.9,-26.2 -30.2,0 -60.7,46.8 -63,91.6 -0.9,16.7 4,42.9 27.6,42.9 18.1,0 33.7,-15.5 43.2,-30 1.1,8.4 4.8,21.9 16.3,21.9 10.3,0 20.4,-14.4 26.1,-24.3 1.7,9.9 6,24 16.6,24 8.6,0 15.4,-5.5 21.2,-13.3 2.6,6.9 8.2,13.7 20.5,13.7 25.8,0 28.2,-17.2 29.1,-51.9 0.3,-12.6 3.6,-25.9 3.6,-31.1 0.1,-3.4 -11,-6.2 -14,-6.3 z M 291.1,298 c -7.9,15.2 -16.8,30.5 -21.1,30.5 -12.5,0 11.7,-67.8 26.8,-63.6 12.7,3.6 -1.1,24.4 -5.7,33.1 z m 54.8,34 c -7.8,0 -10.1,-6.2 -10.7,-11.2 5.7,-10.2 10.4,-21.9 14.9,-30.2 5.4,-10.1 9.4,-15.2 11.9,-17.8 0.1,-0.1 0.2,0 0.2,0.1 -0.9,4 -1.9,10.1 -2.6,18.4 -1,24.5 -4.1,40.7 -13.7,40.7 z"
   style="fill:#623c97;fill-opacity:1" />
		<path
   id="path30_00000109024804392943598290000006837106873729413770_"
   class="st0"
   d="M 74.8,213.3 C 40.1,213.3 0,234.7 0,255.6 c 0,8.9 5.8,13 8,13 2.2,0 2.7,-6.5 10,-14.4 10.5,-11.5 31,-25.6 57.1,-25.6 16.2,0 17.5,10.7 17.5,16.6 0,17.8 -28.5,42.3 -44.2,44 7.6,-19.9 16.3,-37.2 16.3,-38.7 0,-3.8 -12.9,-6.8 -17.7,-6.8 -4.8,0 -14.5,28 -22.2,54.1 -6.1,20.6 -10.6,39.9 -10.8,43.4 -0.2,3.2 6.2,9.8 14.5,9.8 3.3,0 6.7,-20.7 13.4,-42.9 0,0 0.1,0 0.1,0 28.2,-2.2 65.8,-27.2 65.8,-62.6 0.2,-23 -19.3,-32.2 -33,-32.2 z"
   style="fill:#623c97;fill-opacity:1" />
		<path
   class="st1"
   d="m 408.2,137.4 -23.9,-23.2 -11,-0.9 -14.1,-12.5 -47.3,38 -24.9,5.1 -6.8,3.5 20.2,20.2 19.4,-11.3 2.2,-1.3 2.5,0.4 13.7,2.2 11.5,-10.1 5.6,-4.9 4.7,5.8 8.3,10.3 13,-9.2 6.2,-4.4 4,6.5 7.8,12.8 13,7 2,1.1 20,-20 z"
   id="path1"
   style="fill:#da3763;fill-opacity:1" />
		<path
   class="st1"
   d="m 394.2,169.6 -8.8,-14.4 -18.5,13.1 -12.5,-15.5 v 0 l -14,12.3 -17,-2.7 -17.8,10.4 54.1,54.1 49.3,-49.4 z m -34.5,53.1 -49.3,-49.3 13.5,-7.9 17.4,2.7 12.7,-11.2 12.3,15.3 18.2,-12.9 7.6,12.4 12,6.4 z"
   id="path2"
   style="fill:#da3763;fill-opacity:1" />
		<path
   class="st1"
   d="M 445,97.5 429.4,94.9 399.2,68 381.6,70.4 350,59.9 v 0 l -44.5,20.7 -18.2,19.7 -24.9,7 -12.5,10 24.8,24.8 0.2,-0.1 8.6,-4.4 0.9,-0.4 1,-0.2 23.2,-4.7 46,-36.9 4.7,-3.8 4.5,4 12.3,10.9 8.7,0.7 2.6,0.2 1.8,1.8 23.2,22.5 27.1,15.5 30,-30 z m -5.9,45.6 -24.6,-14.1 -22.9,-22.3 -1.8,-1.8 -0.8,-0.8 -1.1,-0.1 -2.6,-0.2 -7.6,-0.6 -11.7,-10.1 -4.5,-4 -2,-1.8 -2.1,1.7 -4.7,3.8 -45.4,36.4 -22.4,4.6 -1,0.2 -0.4,0.1 -0.4,0.2 -0.9,0.4 -6.8,3.5 -20.7,-20.7 9.2,-7.4 24.2,-6.8 0.9,-0.2 0.6,-0.7 17.8,-19.2 42.8,-19.9 v 0 l 30.4,10 0.7,0.2 0.7,-0.1 16.2,-2.2 29.1,25.9 0.7,0.6 0.9,0.2 14.8,2.5 21.1,16.9 z"
   id="path3"
   style="fill:#da3763;fill-opacity:1" />
		<g
   id="g19"
   style="fill:#623c97;fill-opacity:1">
			<path
   class="st1"
   d="m 169.5,381.6 c 0,-1.4 -0.7,-3.4 1.9,-3.4 h 7.1 c 6.1,0 9.4,3.5 9.2,8.2 -0.1,4.6 -3.1,8.3 -9,8.3 h -3.3 c 0,0.9 0,3.2 0,3.6 0.1,1.4 0.8,3.4 -1.9,3.4 h -2.2 c -2,0 -2,-1.7 -2,-3 0.1,-3.3 0.2,-16.1 0.2,-17.1 z m 8.3,9.1 c 3,0 4.1,-1.7 4.2,-4.1 0.1,-2.3 -1,-4.2 -4,-4.2 h -2.6 c -0.1,1.6 -0.1,6.4 -0.1,8.3 z"
   id="path4"
   style="fill:#623c97;fill-opacity:1" />
			<path
   class="st1"
   d="m 203.1,377.9 c 7,0 10.8,5.2 10.7,12.1 -0.1,6.8 -3.7,12.1 -10.6,12.1 -7.3,0 -10.9,-5.2 -10.8,-12.1 0.1,-6.8 3.5,-12.1 10.7,-12.1 z m 4.7,12 c 0,-3.8 -1.1,-7.1 -4.7,-7.1 -3.7,0 -4.8,3.3 -4.7,7.1 0,3.7 1,7.2 4.7,7.2 3.7,0 4.7,-3.5 4.7,-7.2 z"
   id="path5"
   style="fill:#623c97;fill-opacity:1" />
			<path
   class="st1"
   d="m 220,381.6 c 0,-1.4 -0.6,-3.3 2.1,-3.3 h 7.1 c 6,0 9.2,3.3 9.1,8 -0.1,3.2 -1.9,5.4 -4.3,6.5 l 2.8,3.7 c 0.6,1 1.3,1.1 2.2,1.1 0.8,3.3 -0.7,4.4 -3,4.4 -2.2,0 -3.1,-1.1 -4,-2.8 l -3.2,-5.4 H 226 c 0,0.8 -0.1,4.3 0,5.4 0.1,1.8 -0.3,2.4 -1.8,2.4 H 222 c -2,0 -2,-1.7 -2,-3 0,-3.2 0,-16 0,-17 z m 8.5,8.5 c 2.5,0 4,-1.3 4,-3.8 0,-1.8 -1,-3.8 -4,-3.8 h -2.9 c -0.1,1.8 0,6.3 0,7.6 z"
   id="path6"
   style="fill:#623c97;fill-opacity:1" />
			<path
   class="st1"
   d="m 248.9,383.1 c -1,0 -4.2,0 -4.8,0.1 -1.2,0.1 -1.6,-0.5 -1.6,-1.7 v -1.9 c 0,-1.1 0.2,-1.3 1.8,-1.3 0,0 13.2,0.1 15.7,-0.1 1.3,-0.1 1.6,0.7 1.6,1.8 v 1.8 c 0,1.1 -0.2,1.3 -1.8,1.3 h -4.9 c -0.2,4.8 -0.1,14.4 -0.1,15.2 0,1.4 0.8,3.4 -1.9,3.4 h -2.2 c -2,0 -2.1,-1.7 -2,-3 0,-1.2 0.2,-11.7 0.2,-15.6 z"
   id="path7"
   style="fill:#623c97;fill-opacity:1" />
			<path
   class="st1"
   d="m 266.6,397.1 c 0.1,-4.2 0.1,-11.9 0.1,-14.4 0,-1 -0.1,-2 -0.1,-3.1 0.1,-0.8 0.4,-1.3 1.8,-1.3 h 2.3 c 1.6,0 1.8,1.1 1.9,2.1 0,0.4 0,1 0,1.9 0,2.9 -0.2,11.1 -0.1,14.6 2.3,0 6.4,0 7.4,-0.1 1.2,-0.1 1.8,0.6 1.8,1.8 0,0.6 0,1.1 0,1.7 0,1.1 -0.2,1.4 -1.8,1.4 h -11.4 c -1.6,0 -1.9,-1.1 -2,-2.2 0.1,-0.5 0.1,-1.4 0.1,-2.4 z"
   id="path8"
   style="fill:#623c97;fill-opacity:1" />
			<path
   class="st1"
   d="m 286.2,399.1 c 1,-3.4 5.2,-17.2 5.5,-18.5 0.3,-1.4 0.6,-2.4 2.8,-2.4 h 4.3 c 1.8,0 2.4,1 2.7,2.3 0.3,1.3 4.5,16.3 5.1,18.4 0.3,1.4 0.5,2.7 -1.3,2.7 h -1.9 c -2,0 -2.2,-1.5 -2.4,-2.2 -0.2,-0.4 -0.4,-1.6 -0.9,-2.8 h -7.2 c -0.4,1.4 -0.8,2.4 -0.9,2.8 -0.2,1.4 -0.4,2.3 -2.1,2.3 h -2.7 c -1.2,0 -1.3,-1.4 -1,-2.6 z m 13.1,-6.4 c -1.1,-4.2 -2.4,-9.1 -2.7,-10.5 h -0.2 c -0.3,1.7 -1.6,6.4 -2.7,10.5 z"
   id="path9"
   style="fill:#623c97;fill-opacity:1" />
			<path
   class="st1"
   d="m 312.4,381.3 c 0,-1.4 -0.4,-3 2,-3 h 3 l 9.3,12.4 h 0.3 c -0.1,-1.6 -0.2,-10.5 -0.2,-11 0,-0.7 0,-1.5 2,-1.5 h 2.1 c 2,0 2,1.7 2,3 0,1.4 -0.3,15 -0.2,17.1 0.1,1.4 0.8,3.4 -1.9,3.4 h -2.1 c -1.7,0 -2,-1.4 -2,-2.5 0,-1.3 -6.7,-9.6 -8.4,-12.3 H 318 c 0,2.3 0.4,10.7 0.4,11.5 0.1,1.4 0.8,3.4 -1.9,3.4 h -2.2 c -2,0 -2,-1.7 -2,-3 0.1,-3.4 0.1,-16.6 0.1,-17.5 z"
   id="path10"
   style="fill:#623c97;fill-opacity:1" />
			<path
   class="st1"
   d="m 340,381.6 c 0,-1.4 -0.7,-3.4 1.9,-3.4 h 6.3 c 8.3,0 11.9,4.9 11.7,11.7 -0.1,6.8 -3.4,11.7 -11.6,11.7 h -6.5 c -2,0 -2,-1.7 -2,-3 0.2,-3.2 0.2,-16 0.2,-17 z m 8.1,15.5 c 5.1,0 5.9,-3.6 5.9,-7.2 0,-3.7 -1.1,-7.1 -5.9,-7.1 h -2.2 c -0.1,3.3 -0.1,10.4 -0.1,14.3 z"
   id="path11"
   style="fill:#623c97;fill-opacity:1" />
			<path
   class="st1"
   d="m 368.4,395.1 c 2.1,0 3.8,1.1 3.8,4.4 0,4.9 -2,7.7 -4.4,7.7 -2.6,0 -2.4,-1.8 -2.4,-1.8 0,0 2.5,-1.2 2.7,-3.7 -1.4,0 -3.2,-0.7 -3.2,-3.2 0,-2.5 1.5,-3.4 3.5,-3.4 z"
   id="path12"
   style="fill:#623c97;fill-opacity:1" />
			<path
   class="st1"
   d="m 399.9,377.9 c 7,0 10.8,5.2 10.7,12.1 -0.1,6.8 -3.7,12.1 -10.6,12.1 -7.3,0 -10.9,-5.2 -10.8,-12.1 0.1,-6.8 3.5,-12.1 10.7,-12.1 z m 4.7,12 c 0,-3.8 -1.1,-7.1 -4.7,-7.1 -3.7,0 -4.8,3.3 -4.7,7.1 0,3.7 1,7.2 4.7,7.2 3.7,0 4.7,-3.5 4.7,-7.2 z"
   id="path13"
   style="fill:#623c97;fill-opacity:1" />
			<path
   class="st1"
   d="m 416.8,381.6 c 0,-1.4 -0.6,-3.3 2.1,-3.3 h 7.1 c 6,0 9.2,3.3 9.1,8 -0.1,3.2 -1.9,5.4 -4.3,6.5 l 2.8,3.7 c 0.6,1 1.3,1.1 2.2,1.1 0.8,3.3 -0.7,4.4 -3,4.4 -2.2,0 -3.1,-1.1 -4,-2.8 l -3.2,-5.4 h -2.8 c 0,0.8 -0.1,4.3 0,5.4 0.1,1.8 -0.3,2.4 -1.8,2.4 h -2.2 c -2,0 -2,-1.7 -2,-3 -0.1,-3.2 0,-16 0,-17 z m 8.5,8.5 c 2.5,0 4,-1.3 4,-3.8 0,-1.8 -1,-3.8 -4,-3.8 h -2.9 c -0.1,1.8 0,6.3 0,7.6 z"
   id="path14"
   style="fill:#623c97;fill-opacity:1" />
			<path
   class="st1"
   d="m 453.1,378.4 c 0,-1.3 0.3,-1.6 1.1,-1.6 h 1.1 c 0.8,0 1.3,0.2 1.3,1.6 0,1.7 -0.2,23.8 -0.1,26.3 0,1.1 -0.3,1.4 -1.2,1.4 H 454 c -0.8,0 -1,-0.4 -1,-1.4 0.2,-2.7 0.1,-25.2 0.1,-26.3 z"
   id="path15"
   style="fill:#623c97;fill-opacity:1" />
			<path
   class="st1"
   d="m 474.1,397 c 3.1,-3.2 10,-8 10,-11.9 0,-1.3 -1,-2.4 -3,-2.4 -3,0 -5.3,1.4 -5.3,1.4 0,0 -0.4,-0.5 -0.8,-1.3 -1.1,-2.5 0,-3.1 1,-3.7 0.9,-0.4 3,-1.3 6.1,-1.3 4.5,0 7.6,2.2 7.9,6 0.3,5.2 -4.9,9 -8.5,12.7 v 0.3 c 1.7,0 5.9,-0.2 6.6,-0.3 1.3,-0.1 1.8,0.6 1.8,1.8 v 2 c 0,1.1 -0.3,1.3 -1.9,1.3 h -11.7 c -1.4,0 -2,-0.5 -2.1,-1.7 z"
   id="path16"
   style="fill:#623c97;fill-opacity:1" />
			<path
   class="st1"
   d="m 495.2,390 c 0,-6.8 3,-12.1 9.7,-12.1 6.8,0 9.3,5.2 9.3,12.1 0,6.8 -3,12.1 -9.7,12.1 -6.8,-0.1 -9.3,-5.3 -9.3,-12.1 z m 13.4,0 c 0,-3.8 -1,-7.2 -3.8,-7.2 -3,0 -4.1,3.4 -4.1,7.1 0,3.6 0.9,7.2 3.8,7.2 3,0 4.1,-3.5 4.1,-7.1 z"
   id="path17"
   style="fill:#623c97;fill-opacity:1" />
			<path
   class="st1"
   d="m 519,397 c 3.1,-3.2 10,-8 10,-11.9 0,-1.3 -1,-2.4 -3,-2.4 -3,0 -5.3,1.4 -5.3,1.4 0,0 -0.4,-0.5 -0.8,-1.3 -1.1,-2.5 0,-3.1 1,-3.7 0.9,-0.4 3,-1.3 6.1,-1.3 4.5,0 7.6,2.2 7.9,6 0.3,5.2 -4.9,9 -8.5,12.7 v 0.3 c 1.7,0 5.9,-0.2 6.6,-0.3 1.3,-0.1 1.8,0.6 1.8,1.8 v 2 c 0,1.1 -0.3,1.3 -1.9,1.3 h -11.7 c -1.4,0 -2,-0.5 -2.1,-1.7 z"
   id="path18"
   style="fill:#623c97;fill-opacity:1" />
			<path
   class="st1"
   d="m 541.4,395.7 c 0,0 3,1.6 6.5,1.6 2.5,0 3.8,-1.5 3.7,-3.3 0,-1.8 -1.4,-3.1 -5.4,-3.1 -1.2,0 -2.4,0.1 -3.2,0.1 -1,0 -1.7,-0.5 -1.6,-1.9 0.1,-0.8 0.1,-6.2 0.1,-7.9 0,-1.7 -0.2,-3 2.3,-3 H 554 c 1.5,0 1.7,0.7 1.7,1.8 v 1.7 c 0,1.1 -0.8,1.5 -2.4,1.4 -1.6,0 -4.4,0 -6.5,0 0,1.3 -0.1,3.2 -0.1,3.8 6.5,-0.3 10.9,1.9 10.9,7.1 0,4.6 -3.3,8 -9.3,8 -5.2,0 -8.3,-1.4 -7.9,-3.8 0.1,-1.1 0.8,-2.3 1,-2.5 z"
   id="path19"
   style="fill:#623c97;fill-opacity:1" />
		</g>
	</g>
	<path
   id="path20"
   class="st2"
   d="m 121.4,178 c -0.8,-0.7 -1.1,-1.5 -1.1,-1.5 0,0 2.3,-1.3 3.7,-4.4 0.8,-1.7 0.4,-3.2 -0.8,-3.7 -0.9,-0.4 -2,0.1 -3.3,1.7 l -1.4,1.8 c -1.8,2.3 -4,3.6 -7.1,2.3 -3.9,-1.6 -5,-5.6 -3.1,-9.9 1.1,-2.4 2.4,-3.9 3.1,-4.5 1.1,-1 1.9,-1.1 3.4,0.4 0.6,0.6 0.9,1.2 0.9,1.2 0,0 -2.2,1.6 -3.4,4.2 -0.8,1.7 -0.4,3 0.9,3.5 1.1,0.4 1.9,-0.4 2.9,-1.6 l 1.5,-1.9 c 2.7,-3.2 5,-3.5 7.5,-2.6 4.1,1.6 4.8,6 2.9,10.3 -1,2.2 -2.4,3.9 -3,4.4 -1.4,1.6 -2.3,1.4 -3.6,0.3 z"
   style="fill:#623c97;fill-opacity:1" />
	<path
   id="path21"
   class="st2"
   d="m 118.3,151.3 c -1.1,-0.6 -3,-0.9 -1.8,-3 l 5.2,-9.4 c 0.7,-1.2 1.3,-1.1 2.2,-0.6 l 1.1,0.6 c 0.9,0.5 1.1,1.2 0.5,2.2 -0.8,1.3 -2.1,3.7 -3.4,6.1 l 3.8,2.1 c 1,-1.8 2.5,-4.5 2.8,-5.2 0.3,-0.6 0.9,-1 1.7,-0.6 l 1.2,0.7 c 0.9,0.5 0.9,0.8 0.4,1.6 -0.4,0.8 -2,3.5 -2.9,5.3 1.4,0.8 2.6,1.5 3.8,2.1 1.1,-1.9 2.9,-5.4 3.3,-6.3 0.5,-1 1.2,-1.2 2.1,-0.7 l 1.5,0.8 c 0.9,0.5 1,0.8 0.3,2 l -5.1,9.3 c -0.9,1.6 -2.2,0.9 -3.2,0.3 -2.7,-1.4 -12.8,-6.9 -13.5,-7.3 z"
   style="fill:#623c97;fill-opacity:1" />
	<path
   id="path22"
   class="st2"
   d="m 141.9,141.4 c -2.1,-2.4 -10.2,-12.6 -11,-13.4 -0.9,-1 -1.5,-1.6 -0.4,-3.3 l 2.1,-3.2 c 0.9,-1.4 1.9,-1.3 3.1,-0.9 1.1,0.4 14.5,4.8 16.3,5.5 1.2,0.5 2.3,1 1.4,2.3 l -0.9,1.4 c -1,1.5 -2.2,0.9 -2.8,0.7 -0.4,-0.1 -1.4,-0.4 -2.6,-0.7 l -3.6,5.4 c 0.8,1 1.4,1.8 1.6,2 1,0.8 1.5,1.5 0.6,2.7 l -1.3,2 c -0.7,1 -1.7,0.4 -2.5,-0.5 z m 1.8,-13 c -3.7,-1.3 -8,-2.8 -9.2,-3.3 l -0.1,0.2 c 1.1,1.1 4,4.4 6.5,7.3 z"
   style="fill:#623c97;fill-opacity:1" />
	<path
   id="path23"
   class="st2"
   d="m 146.4,110 c -0.6,0.7 -2.4,3 -2.6,3.4 -0.6,0.9 -1.2,0.9 -2.1,0.2 l -1.3,-1.1 c -0.8,-0.6 -0.8,-0.9 0,-2 0,0 7.5,-9.3 8.7,-11.1 0.7,-0.9 1.4,-0.8 2.2,-0.1 l 1.2,1 c 0.8,0.6 0.8,0.9 0,2 l -2.7,3.4 c 3.3,2.8 10.1,8.2 10.6,8.6 1,0.8 2.8,1.3 1.3,3.2 l -1.2,1.6 c -1.1,1.4 -2.3,0.5 -3.2,-0.2 -0.8,-0.7 -8.1,-6.7 -10.9,-8.9 z"
   style="fill:#623c97;fill-opacity:1" />
	<path
   id="path24"
   class="st2"
   d="m 161.1,92.7 c -0.6,0.7 -2.6,2.8 -2.9,3.2 -0.7,0.9 -1.3,0.8 -2.1,0 l -1.2,-1.2 c -0.7,-0.7 -0.7,-1 0.2,-2 0,0 8.2,-8.6 9.6,-10.3 0.7,-0.9 1.4,-0.7 2.2,0.1 l 1.2,1.1 c 0.7,0.7 0.7,1 -0.2,2 l -3,3.2 c 3,3.1 9.4,9 9.9,9.5 0.9,0.8 2.7,1.6 1.1,3.3 l -1.4,1.5 c -1.2,1.3 -2.4,0.3 -3.2,-0.5 -0.9,-0.9 -7.6,-7.5 -10.2,-9.9 z"
   style="fill:#623c97;fill-opacity:1" />
	<path
   id="path25"
   class="st2"
   d="m 182.6,88.8 c -2.5,-2.9 -7.1,-8 -8.6,-9.7 -0.6,-0.7 -1.3,-1.3 -1.9,-2 -0.4,-0.6 -0.5,-1.2 0.4,-2 l 1.5,-1.4 c 1.1,-1 1.9,-0.4 2.6,0.3 0.3,0.2 0.7,0.7 1.1,1.2 1.7,2 6.6,7.5 8.7,9.8 1.6,-1.4 4.3,-3.9 4.9,-4.6 0.7,-0.8 1.6,-0.7 2.3,0.1 0.4,0.4 0.7,0.8 1,1.2 0.7,0.7 0.7,1.1 -0.3,2 l -7.6,6.9 c -1.1,1 -1.9,0.4 -2.6,-0.3 -0.4,-0.2 -0.9,-0.8 -1.5,-1.5 z"
   style="fill:#623c97;fill-opacity:1" />
	<path
   id="path26"
   class="st2"
   d="m 189.5,64.1 c -0.8,-1 -2.4,-2 -0.5,-3.5 l 8.5,-6.5 c 1.1,-0.8 1.6,-0.5 2.2,0.3 l 0.8,1 c 0.7,0.8 0.5,1.5 -0.4,2.2 -1.2,0.9 -3.4,2.6 -5.5,4.2 l 2.6,3.5 c 1.6,-1.2 4.1,-3.2 4.7,-3.6 0.5,-0.4 1.2,-0.5 1.8,0.2 l 0.8,1.1 c 0.6,0.8 0.4,1.1 -0.2,1.7 -0.7,0.5 -3.2,2.4 -4.8,3.7 1,1.3 1.8,2.4 2.7,3.4 1.7,-1.3 4.8,-3.8 5.5,-4.4 0.8,-0.7 1.6,-0.6 2.2,0.2 l 1,1.4 c 0.6,0.8 0.6,1.1 -0.5,2 l -8.4,6.5 c -1.4,1.1 -2.4,-0.1 -3.1,-1 -1.8,-2.6 -8.9,-11.7 -9.4,-12.4 z"
   style="fill:#623c97;fill-opacity:1" />
	<path
   id="path27"
   class="st2"
   d="m 221.4,50.7 c -1.5,-2.4 -0.5,-3.4 1.1,-4.3 1.5,-0.9 2.9,-1.4 4.4,1 1.5,2.4 0.4,3.4 -1.1,4.3 -1.6,0.9 -3,1.4 -4.4,-1 z"
   style="fill:#623c97;fill-opacity:1" />
	<path
   id="path28"
   class="st2"
   d="m 241.4,31 c -0.6,-1.2 -1.9,-2.5 0.3,-3.5 l 5.8,-2.7 c 5,-2.3 9,-0.7 10.6,3.2 1.6,3.8 0.6,7.9 -4.3,10.2 l -2.7,1.2 c 0.3,0.7 1.2,2.7 1.4,3 0.6,1.1 1.9,2.5 -0.3,3.5 l -1.8,0.8 c -1.6,0.8 -2.3,-0.6 -2.8,-1.7 -1.1,-2.7 -5.8,-13.2 -6.2,-14 z m 10.2,4.3 c 2.4,-1.1 2.8,-2.9 1.9,-4.9 -0.8,-1.9 -2.4,-3.1 -4.9,-2 l -2.1,1 c 0.5,1.3 2.3,5.3 3,6.8 z"
   style="fill:#623c97;fill-opacity:1" />
	<path
   id="path29"
   class="st2"
   d="m 271,15.1 c 5.9,-2.1 10.8,1.2 12.7,7.1 1.9,5.8 0.5,11.4 -5.5,13.4 -6.2,2.2 -10.8,-1.2 -12.8,-7.1 -1.9,-5.8 -0.6,-11.2 5.6,-13.4 z m 7.5,8.8 c -1.1,-3.2 -3,-5.8 -6.1,-4.7 -3.1,1.1 -3.1,4.3 -1.9,7.5 1.1,3.2 3,5.8 6.2,4.7 3.1,-1 2.9,-4.3 1.8,-7.5 z"
   style="fill:#623c97;fill-opacity:1" />
	<path
   id="path30"
   class="st2"
   d="m 289.4,12.7 c -0.3,-1.2 -1.2,-2.8 1.1,-3.4 l 6.2,-1.5 c 5.2,-1.3 8.7,0.9 9.6,5.1 0.6,2.8 -0.5,5.1 -2.4,6.7 l 3.2,2.7 c 0.8,0.7 1.3,0.7 2.2,0.5 1.4,2.8 0.4,4 -1.7,4.5 -1.9,0.5 -3,-0.3 -4.1,-1.6 l -4,-4 -2.4,0.6 c 0.1,0.7 0.8,3.8 1.2,4.8 0.5,1.5 0.2,2.2 -1.1,2.5 l -1.9,0.5 c -1.7,0.4 -2.1,-1 -2.4,-2.2 -0.6,-3.1 -3.3,-14.3 -3.5,-15.2 z m 9.2,5.6 c 2.2,-0.5 3.3,-2 2.7,-4.2 -0.4,-1.6 -1.7,-3.1 -4.3,-2.5 l -2.5,0.6 c 0.3,1.6 1.3,5.5 1.6,6.7 z"
   style="fill:#623c97;fill-opacity:1" />
	<path
   id="path31"
   class="st2"
   d="m 317.7,8 c -0.9,0.1 -3.7,0.6 -4.3,0.7 -1.1,0.3 -1.5,-0.2 -1.7,-1.2 l -0.2,-1.7 c -0.1,-1 0,-1.2 1.4,-1.4 0,0 11.8,-1.7 13.9,-2.2 1.1,-0.2 1.5,0.4 1.7,1.4 l 0.2,1.6 c 0.1,1 0,1.2 -1.4,1.4 L 323,7.2 c 0.5,4.3 1.9,12.8 2,13.5 0.2,1.2 1.2,2.9 -1.2,3.3 l -2,0.3 c -1.8,0.3 -2.1,-1.2 -2.2,-2.4 -0.1,-1.1 -1.3,-10.4 -1.9,-13.9 z"
   style="fill:#623c97;fill-opacity:1" />
	<path
   id="path32"
   class="st2"
   d="M 337.1,18.2 C 336.9,14.4 336.4,7.5 336.3,5.2 336.2,4.3 336,3.4 336,2.4 c 0,-0.7 0.3,-1.2 1.5,-1.3 L 339.6,1 c 1.4,-0.1 1.7,0.9 1.9,1.8 0.1,0.3 0.1,0.9 0.1,1.7 0.2,2.6 0.5,10 0.8,13.1 2.1,-0.1 5.8,-0.4 6.7,-0.6 1.1,-0.2 1.6,0.4 1.7,1.5 0,0.5 0.1,1 0.1,1.6 0.1,1 -0.1,1.3 -1.5,1.4 l -10.2,0.8 c -1.4,0.1 -1.8,-0.9 -1.9,-1.8 -0.1,-0.7 -0.2,-1.4 -0.2,-2.3 z"
   style="fill:#623c97;fill-opacity:1" />
	<path
   id="path33"
   class="st2"
   d="M 356.3,18.7 C 357.2,15.6 361.2,3.3 361.4,2.1 361.7,0.8 362,0 364,0 h 3.9 c 1.6,0 2.1,0.9 2.4,2.1 0.3,1.2 4,14.7 4.4,16.6 0.3,1.3 0.4,2.5 -1.2,2.4 h -1.7 c -1.8,0 -2,-1.4 -2.1,-2 -0.2,-0.4 -0.4,-1.4 -0.8,-2.6 l -6.5,-0.1 c -0.4,1.2 -0.7,2.2 -0.8,2.5 -0.2,1.3 -0.4,2 -1.9,2 h -2.4 c -1.2,0.1 -1.3,-1.1 -1,-2.2 z M 368.2,13 c -1,-3.8 -2.1,-8.2 -2.3,-9.5 h -0.2 c -0.3,1.5 -1.5,5.8 -2.5,9.5 z"
   style="fill:#623c97;fill-opacity:1" />
	<path
   id="path34"
   class="st2"
   d="m 383,3.3 c 0.1,-1.3 -0.1,-2.7 2.1,-2.5 l 2.7,0.3 7.1,12 h 0.2 c 0.1,-1.4 0.8,-9.5 0.8,-9.8 0,-0.7 0.2,-1.3 1.9,-1.1 l 1.9,0.2 c 1.8,0.2 1.6,1.7 1.5,2.8 -0.2,1.3 -1.7,13.4 -1.8,15.3 -0.1,1.3 0.4,3.1 -2,2.8 l -1.9,-0.2 c -1.5,-0.2 -1.6,-1.5 -1.6,-2.5 0.1,-1.2 -5.1,-9.3 -6.4,-11.8 h -0.3 c -0.2,2.1 -0.7,9.6 -0.7,10.3 -0.1,1.3 0.4,3.1 -2,2.8 l -2,-0.2 C 380.7,21.5 380.8,20 381,18.8 381.7,16 383,4.2 383,3.3 Z"
   style="fill:#623c97;fill-opacity:1" />
	<path
   id="path35"
   class="st2"
   d="m 410.6,7.1 c 0.2,-1.2 0,-3.1 2.3,-2.6 l 5.6,1.2 c 7.3,1.5 9.6,6.5 8.2,12.5 -1.4,6 -5.1,9.7 -12.4,8.2 l -5.7,-1.2 c -1.8,-0.4 -1.5,-1.9 -1.2,-3 0.7,-3 3,-14.2 3.2,-15.1 z m 4.4,15.2 c 4.5,0.9 5.9,-2.1 6.5,-5.3 0.7,-3.3 0.4,-6.5 -3.9,-7.3 l -2,-0.4 c -0.7,2.9 -2,9.2 -2.7,12.6 z"
   style="fill:#623c97;fill-opacity:1" />
	<path
   id="path36"
   class="st2"
   d="m 445.2,23.4 c 0.8,-2.7 2.3,-2.5 4,-2 1.6,0.5 2.9,1.3 2,4 -0.9,2.7 -2.3,2.5 -4,1.9 -1.7,-0.4 -3,-1.2 -2,-3.9 z"
   style="fill:#623c97;fill-opacity:1" />
	<path
   id="path37"
   class="st2"
   d="m 471.1,24.5 c 0.3,-1.3 0.7,-2.4 2.1,-1.7 l 1.6,0.7 c 1.6,0.8 1.2,2 1.1,2.7 -0.4,1.8 -2.6,13.5 -3.1,15.8 l 0.2,0.1 c 1.6,-2.3 9.4,-11.7 10,-12.5 0.8,-1.1 1.1,-1.7 2.6,-1 l 2.1,1 c 1.1,0.5 0.7,1.7 0,2.6 -2.1,2.4 -10.7,12.1 -11.4,13 -0.8,1 -1.4,1.7 -3.2,0.8 l -3.5,-1.6 c -1.5,-0.7 -1.6,-1.7 -1.4,-2.9 0.1,-1.2 2.5,-15 2.9,-17 z"
   style="fill:#623c97;fill-opacity:1" />
	<path
   id="path38"
   class="st2"
   d="m 484.3,48.9 c 2.3,-2.2 11.9,-11 12.7,-11.9 0.9,-0.9 1.5,-1.6 3.3,-0.6 l 3.3,1.9 c 1.4,0.8 1.4,1.8 1.1,3 -0.3,1.1 -3.8,14.7 -4.4,16.7 -0.4,1.3 -0.8,2.3 -2.2,1.6 l -1.5,-0.8 c -1.6,-0.9 -1,-2.1 -0.9,-2.8 0.1,-0.4 0.4,-1.4 0.5,-2.6 l -5.6,-3.2 c -1,0.9 -1.7,1.6 -1.9,1.8 -0.8,1.1 -1.4,1.6 -2.7,0.8 l -2.1,-1.2 c -0.9,-0.8 -0.5,-1.9 0.4,-2.7 z m 13.1,0.9 c 1.1,-3.8 2.3,-8.2 2.7,-9.4 l -0.2,-0.1 c -1,1.1 -4.2,4.3 -6.9,7 z"
   style="fill:#623c97;fill-opacity:1" />
	<path
   id="path39"
   class="st2"
   d="m 515.2,48.6 c 0.7,-1 1.2,-2.4 3.1,-1.1 l 2.2,1.6 0.3,14 0.2,0.1 c 0.8,-1.2 5.4,-7.9 5.6,-8.2 0.4,-0.5 0.8,-1.1 2.2,0 l 1.5,1.1 c 1.5,1.1 0.6,2.3 -0.1,3.2 -0.8,1 -8.1,10.8 -9.1,12.4 -0.7,1.1 -1.2,2.9 -3.2,1.5 l -1.5,-1.1 c -1.3,-0.9 -0.7,-2.1 -0.2,-2.9 0.7,-1 0.1,-10.6 0.3,-13.4 l -0.2,-0.2 c -1.2,1.7 -5.3,8 -5.7,8.7 -0.7,1.1 -1.2,2.9 -3.2,1.5 l -1.6,-1.2 c -1.5,-1.1 -0.6,-2.3 0.1,-3.2 1.9,-2.4 8.8,-12.1 9.3,-12.8 z"
   style="fill:#623c97;fill-opacity:1" />
	<path
   id="path40"
   class="st2"
   d="m 546.1,68.7 c 2.6,2.2 3.2,4.3 3.4,5 0.1,0.7 0.1,1.8 -1.8,2.4 -1.1,0.4 -1.9,0.2 -1.9,0.2 0,0 -0.2,-2 -2.3,-3.9 -2.7,-2.4 -5.6,-1.1 -7.9,1.5 -2.3,2.7 -2.9,5.9 -0.5,8 1.3,1.1 2.6,1.4 3.2,1.5 0.6,0.1 1.3,0.3 1.1,1.4 l -0.4,2 c -0.1,0.7 -0.2,1.2 -1.1,1.1 -1.2,0 -3.5,-0.6 -5.9,-2.7 -5,-4.3 -4.5,-10.1 -0.4,-14.7 4,-4.6 9.4,-6.1 14.5,-1.8 z"
   style="fill:#623c97;fill-opacity:1" />
	<path
   id="path41"
   class="st2"
   d="m 563.4,85.3 c 4.3,4.5 3.3,10.3 -1.1,14.5 -4.5,4.2 -10.1,5.1 -14.5,0.6 -4.5,-4.7 -3.4,-10.3 1.1,-14.5 4.5,-4.2 10,-5.3 14.5,-0.6 z m -4.9,10.6 c 2.5,-2.4 4,-5.1 1.7,-7.5 -2.3,-2.4 -5.1,-1 -7.6,1.4 -2.4,2.4 -4,5.2 -1.7,7.6 2.3,2.3 5.2,0.8 7.6,-1.5 z"
   style="fill:#623c97;fill-opacity:1" />
	<path
   id="path42"
   class="st2"
   d="m 573.2,100.6 c 1,-0.8 1.8,-2.2 3.2,-0.4 l 1.2,1.6 c 1.1,1.4 0.2,2.3 -0.8,3 -1,0.7 -4.7,3.5 -7.1,5.5 -2.8,2.3 -3.9,4.2 -2.2,6.3 1.7,2.1 3.7,1.6 6.7,-0.7 2.7,-2.1 5.9,-4.7 6.7,-5.3 1,-0.8 1.9,-2.2 3.2,-0.4 l 1.2,1.6 c 1.1,1.4 0.2,2.3 -0.8,3 -1,0.8 -5.9,4.5 -7.1,5.4 -4.9,3.6 -9.1,4.7 -13.3,-0.6 -4.5,-5.7 -2.4,-9.3 2.3,-13.3 3.2,-3 6.1,-5.1 6.8,-5.7 z"
   style="fill:#623c97;fill-opacity:1" />
	<path
   id="path43"
   class="st2"
   d="m 589.1,120.8 c 0.9,-0.9 1.8,-1.7 2.7,-0.4 l 0.9,1.5 c 1,1.5 0,2.4 -0.5,2.9 -1.3,1.3 -9.4,10.1 -11,11.7 l 0.1,0.2 c 2.6,-1 14.2,-5 15.1,-5.3 1.2,-0.5 1.9,-0.9 2.8,0.5 l 1.3,2 c 0.7,1 -0.3,1.8 -1.4,2.2 -3,1 -15.5,4.6 -16.6,5 -1.2,0.4 -2.1,0.7 -3.2,-1 l -2.1,-3.2 c -0.9,-1.4 -0.4,-2.3 0.4,-3.2 0.8,-1.1 10.1,-11.5 11.5,-12.9 z"
   style="fill:#623c97;fill-opacity:1" />
	<path
   id="path44"
   class="st2"
   d="m 602.4,143.2 c 1.1,-0.6 2.4,-2 3.5,0.1 l 5,9.4 c 0.7,1.2 0.2,1.7 -0.7,2.2 l -1.2,0.6 c -0.9,0.5 -1.6,0.2 -2.1,-0.8 -0.7,-1.4 -2,-3.8 -3.2,-6.2 l -3.9,2 c 0.9,1.8 2.4,4.6 2.8,5.2 0.4,0.6 0.3,1.3 -0.5,1.7 l -1.2,0.7 c -0.9,0.5 -1.2,0.3 -1.6,-0.5 -0.4,-0.8 -1.8,-3.5 -2.8,-5.3 -1.5,0.8 -2.7,1.4 -3.8,2.1 1,1.9 2.9,5.4 3.4,6.2 0.6,1 0.4,1.6 -0.6,2.1 l -1.5,0.8 c -0.9,0.5 -1.2,0.4 -1.8,-0.9 l -5,-9.4 c -0.8,-1.6 0.5,-2.3 1.5,-2.9 2.8,-1.2 12.9,-6.7 13.7,-7.1 z"
   style="fill:#623c97;fill-opacity:1" />
	<path
   id="path45"
   class="st2"
   d="m 612.8,163.4 c 1.2,-0.5 2.6,-1.6 3.5,0.5 l 2.5,5.9 c 2.1,5 0.5,8.8 -3.5,10.3 -2.7,1.1 -5.1,0.3 -7,-1.3 l -2.1,3.6 c -0.6,0.9 -0.4,1.4 -0.1,2.2 -2.5,1.8 -3.9,1 -4.7,-1 -0.8,-1.8 -0.1,-3 0.9,-4.3 l 3.3,-4.6 -1,-2.3 c -0.7,0.3 -3.6,1.4 -4.5,1.9 -1.4,0.8 -2.1,0.5 -2.6,-0.7 l -0.8,-1.8 c -0.7,-1.7 0.7,-2.3 1.8,-2.7 2.8,-0.9 13.5,-5.3 14.3,-5.7 z m -4,10 c 0.9,2.1 2.5,2.9 4.6,2 1.5,-0.6 2.8,-2.2 1.7,-4.6 l -1,-2.4 c -1.5,0.6 -5.2,2.2 -6.3,2.7 z"
   style="fill:#623c97;fill-opacity:1" />
</g>
</svg>
