<?xml version="1.0" encoding="UTF-8" standalone="no"?>
<svg
   width="294"
   height="80"
   viewBox="0 0 294 80"
   xml:space="preserve"
   version="1.1"
   id="svg479"
   sodipodi:docname="devhack-s.svg"
   inkscape:version="1.2.2 (b0a8486541, 2022-12-01)"
   xmlns:inkscape="http://www.inkscape.org/namespaces/inkscape"
   xmlns:sodipodi="http://sodipodi.sourceforge.net/DTD/sodipodi-0.dtd"
   xmlns="http://www.w3.org/2000/svg"
   xmlns:svg="http://www.w3.org/2000/svg"><defs
   id="defs483" /><sodipodi:namedview
   id="namedview481"
   pagecolor="#ffffff"
   bordercolor="#000000"
   borderopacity="0.25"
   inkscape:showpageshadow="2"
   inkscape:pageopacity="0.0"
   inkscape:pagecheckerboard="0"
   inkscape:deskcolor="#d1d1d1"
   showgrid="false"
   inkscape:zoom="2.454708"
   inkscape:cx="92.271668"
   inkscape:cy="67.421462"
   inkscape:window-width="1124"
   inkscape:window-height="714"
   inkscape:window-x="0"
   inkscape:window-y="16"
   inkscape:window-maximized="1"
   inkscape:current-layer="svg479" />
 <rect
   style="fill:#000000;stroke-width:0.557657"
   id="rect641"
   width="294.64581"
   height="80.942818"
   x="-0.19334741"
   y="-0.50625223" /><g
   id="mainlayer"
   font-size="10"
   style="font-family: monospace">
<text
   style="fill:#0f0"
   x="0"
   y="8"
   id="text2">┌</text>
<text
   style="fill:#0f0"
   x="6"
   y="8"
   id="text4">─</text>
<text
   style="fill:#0f0"
   x="12"
   y="8"
   id="text6">─</text>
<text
   style="fill:#0f0"
   x="18"
   y="8"
   id="text8">─</text>
<text
   style="fill:#0f0"
   x="24"
   y="8"
   id="text10">─</text>
<text
   style="fill:#0f0"
   x="30"
   y="8"
   id="text12">─</text>
<text
   style="fill:#0f0"
   x="36"
   y="8"
   id="text14">─</text>
<text
   style="fill:#0f0"
   x="42"
   y="8"
   id="text16">─</text>
<text
   style="fill:#0f0"
   x="48"
   y="8"
   id="text18">─</text>
<text
   style="fill:#0f0"
   x="54"
   y="8"
   id="text20">─</text>
<text
   style="fill:#0f0"
   x="60"
   y="8"
   id="text22">─</text>
<text
   style="fill:#0f0"
   x="66"
   y="8"
   id="text24">─</text>
<text
   style="fill:#0f0"
   x="72"
   y="8"
   id="text26">─</text>
<text
   style="fill:#0f0"
   x="78"
   y="8"
   id="text28">─</text>
<text
   style="fill:#0f0"
   x="84"
   y="8"
   id="text30">─</text>
<text
   style="fill:#0f0"
   x="90"
   y="8"
   id="text32">─</text>
<text
   style="fill:#0f0"
   x="96"
   y="8"
   id="text34">─</text>
<text
   style="fill:#0f0"
   x="102"
   y="8"
   id="text36">─</text>
<text
   style="fill:#0f0"
   x="108"
   y="8"
   id="text38">─</text>
<text
   style="fill:#0f0"
   x="114"
   y="8"
   id="text40">─</text>
<text
   style="fill:#0f0"
   x="120"
   y="8"
   id="text42">─</text>
<text
   style="fill:#0f0"
   x="126"
   y="8"
   id="text44">─</text>
<text
   style="fill:#0f0"
   x="132"
   y="8"
   id="text46">─</text>
<text
   style="fill:#0f0"
   x="138"
   y="8"
   id="text48">─</text>
<text
   style="fill:#0f0"
   x="144"
   y="8"
   id="text50">─</text>
<text
   style="fill:#0f0"
   x="150"
   y="8"
   id="text52">─</text>
<text
   style="fill:#0f0"
   x="156"
   y="8"
   id="text54">─</text>
<text
   style="fill:#0f0"
   x="162"
   y="8"
   id="text56">─</text>
<text
   style="fill:#0f0"
   x="168"
   y="8"
   id="text58">─</text>
<text
   style="fill:#0f0"
   x="174"
   y="8"
   id="text60">─</text>
<text
   style="fill:#0f0"
   x="180"
   y="8"
   id="text62">─</text>
<text
   style="fill:#0f0"
   x="186"
   y="8"
   id="text64">─</text>
<text
   style="fill:#0f0"
   x="192"
   y="8"
   id="text66">─</text>
<text
   style="fill:#0f0"
   x="198"
   y="8"
   id="text68">─</text>
<text
   style="fill:#0f0"
   x="204"
   y="8"
   id="text70">─</text>
<text
   style="fill:#0f0"
   x="210"
   y="8"
   id="text72">─</text>
<text
   style="fill:#0f0"
   x="216"
   y="8"
   id="text74">─</text>
<text
   style="fill:#0f0"
   x="222"
   y="8"
   id="text76">─</text>
<text
   style="fill:#0f0"
   x="228"
   y="8"
   id="text78">─</text>
<text
   style="fill:#0f0"
   x="234"
   y="8"
   id="text80">─</text>
<text
   style="fill:#0f0"
   x="240"
   y="8"
   id="text82">─</text>
<text
   style="fill:#0f0"
   x="246"
   y="8"
   id="text84">─</text>
<text
   style="fill:#0f0"
   x="252"
   y="8"
   id="text86">─</text>
<text
   style="fill:#0f0"
   x="258"
   y="8"
   id="text88">─</text>
<text
   style="fill:#0f0"
   x="264"
   y="8"
   id="text90">─</text>
<text
   style="fill:#0f0"
   x="270"
   y="8"
   id="text92">─</text>
<text
   style="fill:#0f0"
   x="276"
   y="8"
   id="text94">─</text>
<text
   style="fill:#0f0"
   x="282"
   y="8"
   id="text96">─</text>
<text
   style="fill:#0f0"
   x="288"
   y="8"
   id="text98">┐</text>
<text
   style="fill:#0f0"
   x="0"
   y="18"
   id="text100">│</text>
<text
   style="fill:#0f0"
   x="30"
   y="18"
   id="text102">_</text>
<text
   style="fill:#0f0"
   x="36"
   y="18"
   id="text104">_</text>
<text
   style="fill:#0f0"
   x="54"
   y="18"
   id="text106">_</text>
<text
   style="fill:#0f0"
   x="138"
   y="18"
   id="text108">_</text>
<text
   style="fill:#0f0"
   x="144"
   y="18"
   id="text110">_</text>
<text
   style="fill:#0f0"
   x="150"
   y="18"
   id="text112">_</text>
<text
   style="fill:#0f0"
   x="252"
   y="18"
   id="text114">_</text>
<text
   style="fill:#0f0"
   x="288"
   y="18"
   id="text116">│</text>
<text
   style="fill:#0f0"
   x="0"
   y="28"
   id="text118">│</text>
<text
   style="fill:#0f0"
   x="24"
   y="28"
   id="text120">/</text>
<text
   style="fill:#0f0"
   x="36"
   y="28"
   id="text122">/</text>
<text
   style="fill:#0f0"
   x="42"
   y="28"
   id="text124">_</text>
<text
   style="fill:#0f0"
   x="48"
   y="28"
   id="text126">|</text>
<text
   style="fill:#0f0"
   x="60"
   y="28"
   id="text128">|</text>
<text
   style="fill:#0f0"
   x="72"
   y="28"
   id="text130">_</text>
<text
   style="fill:#0f0"
   x="78"
   y="28"
   id="text132">_</text>
<text
   style="fill:#0f0"
   x="84"
   y="28"
   id="text134">_</text>
<text
   style="fill:#0f0"
   x="90"
   y="28"
   id="text136">_</text>
<text
   style="fill:#0f0"
   x="96"
   y="28"
   id="text138">_</text>
<text
   style="fill:#0f0"
   x="120"
   y="28"
   id="text140">_</text>
<text
   style="fill:#0f0"
   x="126"
   y="28"
   id="text142">_</text>
<text
   style="fill:#0f0"
   x="132"
   y="28"
   id="text144">/</text>
<text
   style="fill:#0f0"
   x="144"
   y="28"
   id="text146">/</text>
<text
   style="fill:#0f0"
   x="156"
   y="28"
   id="text148">|</text>
<text
   style="fill:#0f0"
   x="162"
   y="28"
   id="text150">_</text>
<text
   style="fill:#0f0"
   x="168"
   y="28"
   id="text152">_</text>
<text
   style="fill:#0f0"
   x="192"
   y="28"
   id="text154">_</text>
<text
   style="fill:#0f0"
   x="198"
   y="28"
   id="text156">_</text>
<text
   style="fill:#0f0"
   x="210"
   y="28"
   id="text158">_</text>
<text
   style="fill:#0f0"
   x="228"
   y="28"
   id="text160">_</text>
<text
   style="fill:#0f0"
   x="234"
   y="28"
   id="text162">_</text>
<text
   style="fill:#0f0"
   x="240"
   y="28"
   id="text164">_</text>
<text
   style="fill:#0f0"
   x="246"
   y="28"
   id="text166">|</text>
<text
   style="fill:#0f0"
   x="258"
   y="28"
   id="text168">|</text>
<text
   style="fill:#0f0"
   x="270"
   y="28"
   id="text170">_</text>
<text
   style="fill:#0f0"
   x="276"
   y="28"
   id="text172">_</text>
<text
   style="fill:#0f0"
   x="288"
   y="28"
   id="text174">│</text>
<text
   style="fill:#0f0"
   x="0"
   y="38"
   id="text176">│</text>
<text
   style="fill:#0f0"
   x="18"
   y="38"
   id="text178">/</text>
<text
   style="fill:#0f0"
   x="30"
   y="38"
   id="text180">/</text>
<text
   style="fill:#0f0"
   x="42"
   y="38"
   id="text182">_</text>
<text
   style="fill:#0f0"
   x="48"
   y="38"
   id="text184">`</text>
<text
   style="fill:#0f0"
   x="60"
   y="38"
   id="text186">|</text>
<text
   style="fill:#0f0"
   x="66"
   y="38"
   id="text188">/</text>
<text
   style="fill:#0f0"
   x="78"
   y="38"
   id="text190">_</text>
<text
   style="fill:#0f0"
   x="90"
   y="38"
   id="text192">\</text>
<text
   style="fill:#0f0"
   x="102"
   y="38"
   id="text194">\</text>
<text
   style="fill:#0f0"
   x="114"
   y="38"
   id="text196">/</text>
<text
   style="fill:#0f0"
   x="126"
   y="38"
   id="text198">/</text>
<text
   style="fill:#0f0"
   x="138"
   y="38"
   id="text200">/</text>
<text
   style="fill:#0f0"
   x="144"
   y="38"
   id="text202">|</text>
<text
   style="fill:#0f0"
   x="156"
   y="38"
   id="text204">'</text>
<text
   style="fill:#0f0"
   x="162"
   y="38"
   id="text206">_</text>
<text
   style="fill:#0f0"
   x="174"
   y="38"
   id="text208">\</text>
<text
   style="fill:#0f0"
   x="186"
   y="38"
   id="text210">/</text>
<text
   style="fill:#0f0"
   x="198"
   y="38"
   id="text212">_</text>
<text
   style="fill:#0f0"
   x="204"
   y="38"
   id="text214">`</text>
<text
   style="fill:#0f0"
   x="216"
   y="38"
   id="text216">|</text>
<text
   style="fill:#0f0"
   x="222"
   y="38"
   id="text218">/</text>
<text
   style="fill:#0f0"
   x="234"
   y="38"
   id="text220">_</text>
<text
   style="fill:#0f0"
   x="240"
   y="38"
   id="text222">_</text>
<text
   style="fill:#0f0"
   x="246"
   y="38"
   id="text224">|</text>
<text
   style="fill:#0f0"
   x="258"
   y="38"
   id="text226">|</text>
<text
   style="fill:#0f0"
   x="264"
   y="38"
   id="text228">/</text>
<text
   style="fill:#0f0"
   x="276"
   y="38"
   id="text230">/</text>
<text
   style="fill:#0f0"
   x="288"
   y="38"
   id="text232">│</text>
<text
   style="fill:#0f0"
   x="0"
   y="48"
   id="text234">│</text>
<text
   style="fill:#0f0"
   x="12"
   y="48"
   id="text236">/</text>
<text
   style="fill:#0f0"
   x="24"
   y="48"
   id="text238">/</text>
<text
   style="fill:#0f0"
   x="36"
   y="48"
   id="text240">(</text>
<text
   style="fill:#0f0"
   x="42"
   y="48"
   id="text242">_</text>
<text
   style="fill:#0f0"
   x="48"
   y="48"
   id="text244">|</text>
<text
   style="fill:#0f0"
   x="60"
   y="48"
   id="text246">|</text>
<text
   style="fill:#0f0"
   x="78"
   y="48"
   id="text248">_</text>
<text
   style="fill:#0f0"
   x="84"
   y="48"
   id="text250">_</text>
<text
   style="fill:#0f0"
   x="90"
   y="48"
   id="text252">/</text>
<text
   style="fill:#0f0"
   x="96"
   y="48"
   id="text254">\</text>
<text
   style="fill:#0f0"
   x="108"
   y="48"
   id="text256">V</text>
<text
   style="fill:#0f0"
   x="120"
   y="48"
   id="text258">/</text>
<text
   style="fill:#0f0"
   x="132"
   y="48"
   id="text260">/</text>
<text
   style="fill:#0f0"
   x="144"
   y="48"
   id="text262">|</text>
<text
   style="fill:#0f0"
   x="156"
   y="48"
   id="text264">|</text>
<text
   style="fill:#0f0"
   x="168"
   y="48"
   id="text266">|</text>
<text
   style="fill:#0f0"
   x="180"
   y="48"
   id="text268">|</text>
<text
   style="fill:#0f0"
   x="192"
   y="48"
   id="text270">(</text>
<text
   style="fill:#0f0"
   x="198"
   y="48"
   id="text272">_</text>
<text
   style="fill:#0f0"
   x="204"
   y="48"
   id="text274">|</text>
<text
   style="fill:#0f0"
   x="216"
   y="48"
   id="text276">|</text>
<text
   style="fill:#0f0"
   x="228"
   y="48"
   id="text278">(</text>
<text
   style="fill:#0f0"
   x="234"
   y="48"
   id="text280">_</text>
<text
   style="fill:#0f0"
   x="240"
   y="48"
   id="text282">_</text>
<text
   style="fill:#0f0"
   x="246"
   y="48"
   id="text284">|</text>
<text
   style="fill:#0f0"
   x="270"
   y="48"
   id="text286">&lt;</text>
<text
   style="fill:#0f0"
   x="288"
   y="48"
   id="text288">│</text>
<text
   style="fill:#0f0"
   x="0"
   y="58"
   id="text290">│</text>
<text
   style="fill:#0f0"
   x="6"
   y="58"
   id="text292">/</text>
<text
   style="fill:#0f0"
   x="12"
   y="58"
   id="text294">_</text>
<text
   style="fill:#0f0"
   x="18"
   y="58"
   id="text296">/</text>
<text
   style="fill:#0f0"
   x="30"
   y="58"
   id="text298">\</text>
<text
   style="fill:#0f0"
   x="36"
   y="58"
   id="text300">_</text>
<text
   style="fill:#0f0"
   x="42"
   y="58"
   id="text302">_</text>
<text
   style="fill:#0f0"
   x="48"
   y="58"
   id="text304">,</text>
<text
   style="fill:#0f0"
   x="54"
   y="58"
   id="text306">_</text>
<text
   style="fill:#0f0"
   x="60"
   y="58"
   id="text308">|</text>
<text
   style="fill:#0f0"
   x="66"
   y="58"
   id="text310">\</text>
<text
   style="fill:#0f0"
   x="72"
   y="58"
   id="text312">_</text>
<text
   style="fill:#0f0"
   x="78"
   y="58"
   id="text314">_</text>
<text
   style="fill:#0f0"
   x="84"
   y="58"
   id="text316">_</text>
<text
   style="fill:#0f0"
   x="90"
   y="58"
   id="text318">|</text>
<text
   style="fill:#0f0"
   x="102"
   y="58"
   id="text320">\</text>
<text
   style="fill:#0f0"
   x="108"
   y="58"
   id="text322">_</text>
<text
   style="fill:#0f0"
   x="114"
   y="58"
   id="text324">/</text>
<text
   style="fill:#0f0"
   x="120"
   y="58"
   id="text326">_</text>
<text
   style="fill:#0f0"
   x="126"
   y="58"
   id="text328">/</text>
<text
   style="fill:#0f0"
   x="144"
   y="58"
   id="text330">|</text>
<text
   style="fill:#0f0"
   x="150"
   y="58"
   id="text332">_</text>
<text
   style="fill:#0f0"
   x="156"
   y="58"
   id="text334">|</text>
<text
   style="fill:#0f0"
   x="168"
   y="58"
   id="text336">|</text>
<text
   style="fill:#0f0"
   x="174"
   y="58"
   id="text338">_</text>
<text
   style="fill:#0f0"
   x="180"
   y="58"
   id="text340">|</text>
<text
   style="fill:#0f0"
   x="186"
   y="58"
   id="text342">\</text>
<text
   style="fill:#0f0"
   x="192"
   y="58"
   id="text344">_</text>
<text
   style="fill:#0f0"
   x="198"
   y="58"
   id="text346">_</text>
<text
   style="fill:#0f0"
   x="204"
   y="58"
   id="text348">,</text>
<text
   style="fill:#0f0"
   x="210"
   y="58"
   id="text350">_</text>
<text
   style="fill:#0f0"
   x="216"
   y="58"
   id="text352">|</text>
<text
   style="fill:#0f0"
   x="222"
   y="58"
   id="text354">\</text>
<text
   style="fill:#0f0"
   x="228"
   y="58"
   id="text356">_</text>
<text
   style="fill:#0f0"
   x="234"
   y="58"
   id="text358">_</text>
<text
   style="fill:#0f0"
   x="240"
   y="58"
   id="text360">_</text>
<text
   style="fill:#0f0"
   x="246"
   y="58"
   id="text362">|</text>
<text
   style="fill:#0f0"
   x="252"
   y="58"
   id="text364">_</text>
<text
   style="fill:#0f0"
   x="258"
   y="58"
   id="text366">|</text>
<text
   style="fill:#0f0"
   x="264"
   y="58"
   id="text368">\</text>
<text
   style="fill:#0f0"
   x="270"
   y="58"
   id="text370">_</text>
<text
   style="fill:#0f0"
   x="276"
   y="58"
   id="text372">\</text>
<text
   style="fill:#0f0"
   x="288"
   y="58"
   id="text374">│</text>
<text
   style="fill:#0f0"
   x="0"
   y="68"
   id="text376">│</text>
<text
   style="fill:#0f0"
   x="288"
   y="68"
   id="text378">│</text>
<text
   style="fill:#0f0"
   x="0"
   y="78"
   id="text380">└</text>
<text
   style="fill:#0f0"
   x="6"
   y="78"
   id="text382">─</text>
<text
   style="fill:#0f0"
   x="12"
   y="78"
   id="text384">─</text>
<text
   style="fill:#0f0"
   x="18"
   y="78"
   id="text386">─</text>
<text
   style="fill:#0f0"
   x="24"
   y="78"
   id="text388">─</text>
<text
   style="fill:#0f0"
   x="30"
   y="78"
   id="text390">─</text>
<text
   style="fill:#0f0"
   x="36"
   y="78"
   id="text392">─</text>
<text
   style="fill:#0f0"
   x="42"
   y="78"
   id="text394">─</text>
<text
   style="fill:#0f0"
   x="48"
   y="78"
   id="text396">─</text>
<text
   style="fill:#0f0"
   x="54"
   y="78"
   id="text398">─</text>
<text
   style="fill:#0f0"
   x="60"
   y="78"
   id="text400">─</text>
<text
   style="fill:#0f0"
   x="66"
   y="78"
   id="text402">─</text>
<text
   style="fill:#0f0"
   x="72"
   y="78"
   id="text404">─</text>
<text
   style="fill:#0f0"
   x="78"
   y="78"
   id="text406">─</text>
<text
   style="fill:#0f0"
   x="84"
   y="78"
   id="text408">─</text>
<text
   style="fill:#0f0"
   x="90"
   y="78"
   id="text410">─</text>
<text
   style="fill:#0f0"
   x="96"
   y="78"
   id="text412">─</text>
<text
   style="fill:#0f0"
   x="102"
   y="78"
   id="text414">─</text>
<text
   style="fill:#0f0"
   x="108"
   y="78"
   id="text416">─</text>
<text
   style="fill:#0f0"
   x="114"
   y="78"
   id="text418">─</text>
<text
   style="fill:#0f0"
   x="120"
   y="78"
   id="text420">─</text>
<text
   style="fill:#0f0"
   x="126"
   y="78"
   id="text422">─</text>
<text
   style="fill:#0f0"
   x="132"
   y="78"
   id="text424">─</text>
<text
   style="fill:#0f0"
   x="138"
   y="78"
   id="text426">─</text>
<text
   style="fill:#0f0"
   x="144"
   y="78"
   id="text428">─</text>
<text
   style="fill:#0f0"
   x="150"
   y="78"
   id="text430">─</text>
<text
   style="fill:#0f0"
   x="156"
   y="78"
   id="text432">─</text>
<text
   style="fill:#0f0"
   x="162"
   y="78"
   id="text434">─</text>
<text
   style="fill:#0f0"
   x="168"
   y="78"
   id="text436">─</text>
<text
   style="fill:#0f0"
   x="174"
   y="78"
   id="text438">─</text>
<text
   style="fill:#0f0"
   x="180"
   y="78"
   id="text440">─</text>
<text
   style="fill:#0f0"
   x="186"
   y="78"
   id="text442">─</text>
<text
   style="fill:#0f0"
   x="192"
   y="78"
   id="text444">─</text>
<text
   style="fill:#0f0"
   x="198"
   y="78"
   id="text446">─</text>
<text
   style="fill:#0f0"
   x="204"
   y="78"
   id="text448">─</text>
<text
   style="fill:#0f0"
   x="210"
   y="78"
   id="text450">─</text>
<text
   style="fill:#0f0"
   x="216"
   y="78"
   id="text452">─</text>
<text
   style="fill:#0f0"
   x="222"
   y="78"
   id="text454">─</text>
<text
   style="fill:#0f0"
   x="228"
   y="78"
   id="text456">─</text>
<text
   style="fill:#0f0"
   x="234"
   y="78"
   id="text458">─</text>
<text
   style="fill:#0f0"
   x="240"
   y="78"
   id="text460">─</text>
<text
   style="fill:#0f0"
   x="246"
   y="78"
   id="text462">─</text>
<text
   style="fill:#0f0"
   x="252"
   y="78"
   id="text464">─</text>
<text
   style="fill:#0f0"
   x="258"
   y="78"
   id="text466">─</text>
<text
   style="fill:#0f0"
   x="264"
   y="78"
   id="text468">─</text>
<text
   style="fill:#0f0"
   x="270"
   y="78"
   id="text470">─</text>
<text
   style="fill:#0f0"
   x="276"
   y="78"
   id="text472">─</text>
<text
   style="fill:#0f0"
   x="282"
   y="78"
   id="text474">─</text>
<text
   style="fill:#0f0"
   x="288"
   y="78"
   id="text476">┘</text>
 </g>
</svg>
