<?xml version="1.0" encoding="UTF-8" standalone="no"?>
<svg xmlns:dc="http://purl.org/dc/elements/1.1/" xmlns:cc="http://creativecommons.org/ns#" xmlns:rdf="http://www.w3.org/1999/02/22-rdf-syntax-ns#" xmlns:svg="http://www.w3.org/2000/svg" xmlns="http://www.w3.org/2000/svg" xmlns:sodipodi="http://sodipodi.sourceforge.net/DTD/sodipodi-0.dtd" xmlns:inkscape="http://www.inkscape.org/namespaces/inkscape" version="1.0" width="1000" height="423.14896" viewBox="0 0 1000 423.14896" id="svg1936" inkscape:version="0.91 r13725" sodipodi:docname="Amazon II.svg">
  <metadata id="metadata21">
    <rdf:RDF>
      <cc:Work rdf:about="">
        <dc:format>image/svg+xml</dc:format>
        <dc:type rdf:resource="http://purl.org/dc/dcmitype/StillImage"/>
        <dc:title/>
      </cc:Work>
    </rdf:RDF>
  </metadata>
  <sodipodi:namedview pagecolor="#ffffff" bordercolor="#666666" borderopacity="1" objecttolerance="10" gridtolerance="10" guidetolerance="10" inkscape:pageopacity="0" inkscape:pageshadow="2" inkscape:window-width="1366" inkscape:window-height="705" id="namedview19" showgrid="false" inkscape:zoom="0.72245926" inkscape:cx="426.12453" inkscape:cy="94.816171" inkscape:window-x="-8" inkscape:window-y="-8" inkscape:window-maximized="1" inkscape:current-layer="svg1936"/>
  <defs id="defs1938"/>
  <path d="m 620.38044,357.46314 c -58.11169,42.83292 -142.34105,65.68583 -214.86092,65.68583 -101.68461,0 -193.22683,-37.60937 -262.48206,-100.16107 -5.44116,-4.91885 -0.5659,-11.62235 5.96353,-7.79179 74.7399,43.48586 167.15276,69.64701 262.61265,69.64701 64.37988,0 135.20216,-13.32001 200.32209,-40.96113 9.83763,-4.17885 18.06468,6.44234 8.44471,13.58115" id="path8" style="fill:#ff9900;fill-opacity:1;fill-rule:evenodd;stroke:none" />
  <path d="m 644.53924,329.82201 c -7.40002,-9.4894 -49.10114,-4.48353 -67.81875,-2.26353 -5.70237,0.69648 -6.57292,-4.26588 -1.43649,-7.83531 33.21291,-23.37526 87.71169,-16.6282 94.06697,-8.79293 6.35527,7.87883 -1.65411,62.5082 -32.86468,88.58226 -4.78823,4.00469 -9.35881,1.87178 -7.22586,-3.43882 7.00822,-17.49881 22.72234,-56.71874 15.27881,-66.25167" id="path10" style="fill:#ff9900;fill-opacity:1;fill-rule:evenodd;stroke:none" />
  <path d="m 578.02637,154.70337 v -22.72232 c 0,-3.43882 2.61176,-5.74587 5.74588,-5.74587 h 101.72809 c 3.26472,0 5.87648,2.35059 5.87648,5.74587 v 19.45763 c -0.0435,3.26469 -2.78588,7.53057 -7.66119,14.27762 l -52.71404,75.26227 c 19.58823,-0.47879 40.26468,2.43764 58.02466,12.4494 4.00469,2.26352 5.09293,5.57175 5.39763,8.83648 v 24.24586 c 0,3.30822 -3.65647,7.1823 -7.48705,5.17997 -31.29762,-16.41058 -72.86816,-18.19528 -107.474,0.17413 -3.52587,1.9153 -7.22586,-1.91528 -7.22586,-5.22353 v -23.02702 c 0,-3.69999 0.0435,-10.01178 3.74349,-15.62706 l 61.07171,-87.58108 h -53.14934 c -3.2647,0 -5.87646,-2.30703 -5.87646,-5.70235" id="path12" style="fill:#000000;fill-rule:evenodd;stroke:none" />
  <path d="m 206.93856,296.4785 h -30.94937 c -2.95998,-0.21762 -5.31057,-2.43762 -5.52823,-5.26706 v -158.8386 c 0,-3.17764 2.6553,-5.70236 5.96352,-5.70236 h 28.85996 c 3.00356,0.1305 5.39764,2.43763 5.61531,5.31057 v 20.76353 h 0.56588 c 7.53057,-20.06706 21.6776,-29.42587 40.74347,-29.42587 19.37056,0 31.47173,9.35881 40.1776,29.42587 7.48705,-20.06706 24.50702,-29.42587 42.74584,-29.42587 12.97175,0 27.16232,5.35411 35.82467,17.36821 9.7941,13.36352 7.79174,32.77761 7.79174,49.79761 l -0.0435,100.24812 c 0,3.17763 -2.6553,5.74585 -5.96352,5.74585 h -30.90587 c -3.09056,-0.21762 -5.57173,-2.69879 -5.57173,-5.74585 v -84.1858 c 0,-6.70351 0.60937,-23.41879 -0.8706,-29.77409 -2.30705,-10.66467 -9.22821,-13.66822 -18.19529,-13.66822 -7.48705,0 -15.32232,5.00588 -18.49997,13.0153 -3.17765,8.0094 -2.87294,21.41642 -2.87294,30.42701 v 84.1858 c 0,3.17763 -2.65529,5.74585 -5.96353,5.74585 h -30.90582 c -3.13412,-0.21762 -5.57177,-2.69879 -5.57177,-5.74585 l -0.0435,-84.1858 c 0,-17.71644 2.91643,-43.79054 -19.06586,-43.79054 -22.24353,0 -21.37294,25.42114 -21.37294,43.79054 v 84.1858 c 0,3.17763 -2.6553,5.74585 -5.96352,5.74585" id="path14" style="fill:#000000;fill-rule:evenodd;stroke:none" />
  <path d="m 778.9579,123.31871 c 45.92348,0 70.77872,39.4376 70.77872,89.58343 0,48.44817 -27.46705,86.88459 -70.77872,86.88459 -45.09643,0 -69.647,-39.4376 -69.647,-88.58224 0,-49.44936 24.85527,-87.88578 69.647,-87.88578 m 0.26116,32.42939 c -22.80937,0 -24.24586,31.07994 -24.24586,50.45053 0,19.41409 -0.3047,60.85403 23.9847,60.85403 23.98467,0 25.11645,-33.43052 25.11645,-53.80231 0,-13.40701 -0.56589,-29.42582 -4.61414,-42.13641 -3.48235,-11.05643 -10.40349,-15.36584 -20.24115,-15.36584" id="path16" style="fill:#000000;fill-rule:evenodd;stroke:none" />
  <path d="m 909.2848,296.4785 h -30.81878 c -3.0906,-0.21762 -5.57177,-2.69879 -5.57177,-5.74585 l -0.0435,-158.88219 c 0.26118,-2.91647 2.82943,-5.17998 5.96353,-5.17998 h 28.68587 c 2.69879,0.1305 4.91879,1.95882 5.52823,4.43999 v 24.28937 h 0.56585 c 8.66237,-21.72114 20.80702,-32.08113 42.17994,-32.08113 13.88587,0 27.42351,5.00588 36.12938,18.71762 C 1000,154.74691 1000,176.11984 1000,191.48568 v 99.98697 c -0.34822,2.78585 -2.91647,5.00585 -5.96349,5.00585 h -31.03645 c -2.82943,-0.21762 -5.18002,-2.30703 -5.48469,-5.00585 v -86.2752 c 0,-17.36822 2.00234,-42.78938 -19.37059,-42.78938 -7.53056,0 -14.45174,5.04943 -17.89056,12.71057 -4.35292,9.70707 -4.91881,19.37059 -4.91881,30.07881 v 85.5352 c -0.0435,3.17763 -2.74234,5.74585 -6.05056,5.74585" id="path18" style="fill:#000000;fill-rule:evenodd;stroke:none" />
  <path d="m 496.93116,220.60684 c 0,12.05762 0.3047,22.1129 -5.78941,32.82113 -4.91881,8.7059 -12.75409,14.06 -21.41642,14.06 -11.88352,0 -18.84822,-9.05413 -18.84822,-22.41764 0,-26.37878 23.63643,-31.16701 46.05405,-31.16701 v 6.70352 m 31.21056,75.43637 c -2.04586,1.82823 -5.00589,1.95881 -7.31293,0.74001 -10.27295,-8.53175 -12.1447,-12.49291 -17.75998,-20.6329 -16.97646,17.32467 -29.03411,22.50465 -51.01643,22.50465 -26.07409,0 -46.31522,-16.06234 -46.31522,-48.2305 0,-25.11646 13.58118,-42.2235 32.99527,-50.58113 16.80232,-7.40002 40.26461,-8.70587 58.19873,-10.75175 v -4.0047 c 0,-7.35649 0.56589,-16.06236 -3.78705,-22.41762 -3.74352,-5.70236 -10.96942,-8.05295 -17.36822,-8.05295 -11.79647,0 -22.28702,6.05058 -24.85527,18.58703 -0.52235,2.7859 -2.56821,5.52825 -5.39765,5.65884 l -29.99171,-3.2212 c -2.52472,-0.56585 -5.35411,-2.61176 -4.61411,-6.48584 6.87764,-36.39054 39.78585,-47.35997 69.21167,-47.35997 15.06117,0 34.73643,4.00471 46.61995,15.40939 15.06114,14.05998 13.62469,32.82114 13.62469,53.23643 v 48.23052 c 0,14.4953 6.00705,20.85055 11.66586,28.68587 1.95885,2.78585 2.39414,6.13761 -0.13071,8.22702 -6.31175,5.26708 -17.54234,15.06118 -23.7235,20.54587 l -0.0435,-0.0872" id="path28" style="fill:#000000;fill-rule:evenodd;stroke:none" />
  <path d="m 91.194013,220.60684 c 0,12.05762 0.304675,22.1129 -5.789406,32.82113 -4.918845,8.7059 -12.710593,14.06 -21.416467,14.06 -11.883518,0 -18.804673,-9.05413 -18.804673,-22.41764 0,-26.37878 23.636433,-31.16701 46.010546,-31.16701 v 6.70352 m 31.210537,75.43637 c -2.04587,1.82823 -5.0059,1.95881 -7.31295,0.74001 -10.2729,-8.53175 -12.10116,-12.49291 -17.759972,-20.6329 -16.976454,17.32467 -28.990526,22.50465 -51.016411,22.50465 -26.030569,0 -46.315219141151,-16.06234 -46.315219141151,-48.2305 0,-25.11646 13.624686141151,-42.2235 32.995243141151,-50.58113 16.802329,-7.40002 40.264656,-8.70587 58.198772,-10.75175 v -4.0047 c 0,-7.35649 0.565884,-16.06236 -3.743527,-22.41762 -3.78708,-5.70236 -11.012928,-8.05295 -17.368233,-8.05295 -11.796431,0 -22.330559,6.05058 -24.898786,18.58703 -0.522364,2.7859 -2.568242,5.52825 -5.354107,5.65884 l -30.0352558,-3.2212 c -2.5247081,-0.56585 -5.3105904,-2.61176 -4.6141198,-6.48584 6.9211716,-36.39054 39.7858266,-47.35997 69.2116966,-47.35997 15.061131,0 34.736399,4.00471 46.619919,15.40939 15.06117,14.05998 13.62468,32.82114 13.62468,53.23643 v 48.23052 c 0,14.4953 6.00708,20.85055 11.6659,28.68587 2.00234,2.78585 2.43763,6.13761 -0.0871,8.22702 -6.31175,5.26708 -17.54231,15.06118 -23.72351,20.54587 l -0.087,-0.0872" id="path30" style="fill:#000000;fill-rule:evenodd;stroke:none" />
</svg>
