<svg baseProfile="tiny-ps" height="512" viewBox="0 0 512 512" width="512" version="1.2" xmlns="http://www.w3.org/2000/svg"><title>SeaGL</title><path d="m0 0h512v512h-512z" fill="#fff"/><circle cx="256" cy="230.76968" fill="#1d7193" r="154.17909"/><path d="m256 203.58819a354.86681 354.86681 0 0 0 -153.88788 35.43672 154.17909 154.17909 0 0 0 153.88788 145.92376 154.17909 154.17909 0 0 0 153.76153-145.82548 354.86681 354.86681 0 0 0 -153.76153-35.535z" fill="#0c5a73"/><circle cx="256" cy="230.76968" fill="none" r="154.17909" stroke="#000" stroke-width="7.1884"/><path d="m284.53605 324.78339-7.22023-60.48401h-9.69914l6.01685 68.64528h32.7654l-7.38385-5.58855z" fill="#b1742a"/><path d="m299.95543 111.92516c-14.46814.00028-26.04247 9.55444-25.78077 24.23287.11104 6.2355 2.05291 10.98346 5.39835 14.35229v37.37775l-15.37721-14.94899-111.10479 106.14518 109.71834-5.25092 47.2513-35.47883 5.44399-15.53165-10.85638-10.5545-4.25759-12.12697v-41.59673c10.97747-1.72483 27.60774-12.11425 29.21703-22.56914-3.04985-8.39193-15.1657-24.05072-29.65227-24.05036z" fill="#fff"/><path d="m153.88826 279.084h110.03884c25.59396-10.80494 52.56025-32.78377 51.57656-56.26027-12.45964 18.36153-24.79015 30.83582-42.05948 39.08698-36.32746 17.35703-88.52001 11.6637-119.55592 17.17329zm175.67734-143.01723c-4.41129 10.35454-19.48584 20.81767-31.08786 20.81768-.54542 0-1.07198-.0265-1.60406-.0455v47.86905l7.77458 7.56048v-52.58646c10.94269-3.30982 25.67198-15.30953 25.67198-23.52386z" fill="#e0e0e0"/><path d="m165.31943 277.04683 35.66512-43.08889 35.66509-21.03679v47.00634l-71.33021 64.12568z" fill="#b3b3b3"/><path d="m165.31943 254.99473 71.33021-64.12568v22.0521l-71.33021 64.12568z" fill="#ccc"/><path d="m136.22206 243.27549 26.96364 23.21147h-16.21258l-22.91313 22.90963h56.25791l26.18091-22.90963h-39.88386l13.04658-12.56572-10.79668-7.09716z" fill="#0d0d0d"/><path d="m136.22206 243.27549 43.43947 10.64575 11.05292-10.64575z" fill="#565656"/><path d="m316.67055 137.78715 10.71512 5.71784 25.08695-1.57787 9.86462 2.10866 3.6554-4.23392-41.55127-4.36309z" fill="#b1742a"/><path d="m326.50622 129.87053-9.83567 7.91662 50.26208 2.55456-3.48695-6.49993-8.01101-.0935z" fill="#fcb320"/><path d="m360.82688 140.99026-5.67289 1.50999 6.71803 1.43611z" fill="#96412a"/><path d="m309.37013 127.60401c0 1.66125-1.34386 3.00513-3.00774 3.00513-1.65611 0-5.88231-3.00513-5.88231-3.00513s4.22359-2.99758 5.88231-2.99758c1.66388-.003 3.00774 1.34388 3.00774 2.99758z" fill="#0d0d0d"/><path d="m255.14491 324.78339 4.81347-60.48401s-1.22743-2.84474-5.49704-2.84474c-4.26715 0-4.19972 2.84474-4.19972 2.84474l-6.01692 68.64528h32.7631l-7.38393-5.58855z" fill="#fcb320"/><path d="m128.55277 333.08877v3.1695 20.68078h-37.886684l3.158978 4.89641 21.119526 32.83582-24.278504 37.74629h71.385894v-14.76998h187.89604v14.76998h71.38589l-24.27851-37.74629 21.11954-32.83582 3.15897-4.89641h-37.88666v-23.85028z"/><path d="m102.31219 363.29529 20.19289 31.37546-20.19289 31.379h45.30677l-19.06619-8.41077v-54.34369zm307.37564 0-20.19292 31.37546 20.19292 31.379h-45.30679l19.06621-8.41077v-54.34369z" fill="#ccc"/><path d="m144.34766 417.63898 11.34775 5.01275v-5.01275zm223.30468 0-11.34775 5.01275v-5.01275z" fill="#828282"/><path d="m134.92163 339.44289h242.15851v71.83567h-242.15851z" fill="#efefef"/><path d="m309.86841 396.94142v-43.63476q0-1.3426 1.28538-2.0139 1.2854-.67135 3.112-.67135 1.8266 0 3.11199.67135 1.28539.67134 1.28539 2.0139v38.73422h16.50708q1.21773 0 1.89425 1.14123.74417 1.14123.74417 2.6852 0 1.54401-.74417 2.6852-.67657 1.14123-1.89425 1.14123h-21.44568q-1.55599 0-2.70607-.73844-1.15009-.73841-1.15009-2.01388zm-38.72759-12.21774v-18.72938q0-7.92138 4.26207-11.61355 4.32973-3.75931 11.29789-3.75931 7.17111 0 11.63614 3.49078 4.53268 3.49079 4.53268 9.39826 0 2.41669-1.08243 3.28939-1.01478.87269-3.31495.87269-4.32972 0-4.39738-2.75235-.20304-2.95373-1.6913-4.76625-1.48834-1.87965-5.3445-1.87965-7.10346 0-7.10346 7.71999v18.72938q0 7.71998 7.03581 7.71998 3.38259 0 5.2092-1.94675 1.89425-1.9468 1.89425-5.77323v-3.96068h-5.47981q-1.28538 0-2.02955-1.00698-.67657-1.00694-.67657-2.41669 0-1.3426.74417-2.34956.7442-1.07409 1.96194-1.07409h11.50083q1.28539 0 2.02956.87271.74418.80556.74418 1.94677v7.98852q0 7.98852-4.32973 11.68066-4.32973 3.69219-11.56849 3.69219-7.23876 0-11.56849-3.69219-4.26207-3.69214-4.26207-11.68066zm-31.88204 6.57876q0-5.23616 4.05911-7.25008 4.05913-2.08105 11.77145-2.08105h3.24729v-1.40972q0-3.35651-1.89425-5.84034-1.82661-2.48382-5.54747-2.48382-2.84138 0-5.00624 1.00695-2.16487.93983-2.36782.93983-.94712 0-1.55599-.8727-.5412-.93983-.5412-1.94678 0-1.54399 3.04433-2.68521 3.11199-1.20835 6.56225-1.20835 6.62989 0 9.74188 3.7593 3.17964 3.69217 3.17964 9.26399v17.18536q0 .87269-.81182 1.47689-.74417.53699-1.9619.53699-1.08244 0-1.82661-.53699-.74418-.60416-.74418-1.47689v-2.6852q-4.60032 5.23616-10.21544 5.23616-4.05912 0-6.62989-2.28242-2.50313-2.28242-2.50313-6.64592zm5.68277-.60416q0 2.48383 1.42069 3.75931 1.42068 1.27547 3.78851 1.27547 2.84138 0 5.47981-2.21529 2.70607-2.28246 2.70607-4.632v-3.49077h-2.36781q-1.96191 0-3.3826.13417-1.4207.0673-2.97669.40278-1.48834.26835-2.50312.8727-.94713.53695-1.556 1.54397-.60885.93982-.60885 2.34958zm-36.25089-3.49077v-7.04871q0-5.16903 3.92381-8.92833 3.99147-3.7593 9.53893-3.7593 5.27686 0 9.13301 3.55791 3.85617 3.49078 3.85617 8.7941 0 1.94676-.47356 3.15511-.47355 1.14123-1.48834 1.67826-.94713.46987-1.8266.60409-.81183.13417-2.23252.13417h-14.81577v2.01392q0 3.69218 2.63842 5.90748 2.70608 2.21529 6.96815 2.21529 2.23253 0 3.85617-.67136 1.6913-.67132 2.70608-1.27547 1.01478-.67132 1.62364-.67132.94713 0 1.62365.87269.67657.80557.67657 1.67826 0 1.54398-3.112 3.15511-3.04433 1.61114-7.57701 1.61114-6.6299 0-10.82432-3.5579-4.19442-3.62505-4.19442-9.46541zm5.61511-5.57182h12.51561q1.75897 0 2.36782-.40278.60893-.46991.60893-1.74539 0-3.02087-2.23252-5.30331-2.23251-2.28243-5.47981-2.28243-3.17964 0-5.47981 2.14817-2.30017 2.08104-2.30017 5.16904zm-40.11445 11.00939q0-1.07411.74417-2.08105.81183-1.00698 1.75896-1.00698.60886 0 1.55599.87269.94713.80557 1.96191 1.87968 1.01478 1.00694 3.17964 1.87963 2.16486.80557 4.87094.80557 4.39739 0 6.9005-2.08105 2.50313-2.14817 2.50313-6.2431 0-3.69218-2.30016-5.9746-2.30017-2.34958-5.54747-3.55793-3.24729-1.20834-6.56224-2.55095-3.2473-1.40973-5.54746-4.22921-2.30017-2.88661-2.30017-7.38434 0-3.49078 1.35304-6.04174 1.35304-2.61808 3.58555-3.89355 2.30017-1.34262 4.73564-1.94679 2.43547-.60417 5.2092-.60417 4.19443 0 7.98294 1.20834 3.85616 1.14122 3.85616 3.22226 0 .93982-.67658 2.01391-.6765 1.07409-1.75895 1.07409-.27061 0-3.11199-1.27548-2.84138-1.27547-6.29163-1.27547-4.12677 0-6.69754 1.67826-2.50313 1.67826-2.50313 5.30329 0 3.088 2.30016 5.03478 2.30017 1.87965 5.54747 3.02086 3.31495 1.14122 6.56224 2.61809 3.24729 1.47687 5.54746 4.76626 2.30017 3.22224 2.30017 8.25702 0 6.98158-4.05912 10.53948-4.05912 3.5579-10.75666 3.5579-6.02103 0-10.21545-2.55096-4.12677-2.55095-4.12677-5.03474z" fill="#0c5a73"/></svg>
