<svg xmlns="http://www.w3.org/2000/svg" version="1.2" baseProfile="tiny-ps" width="600" height="600">
  <title>SeaGL</title>
  <path d="m0 0h600v600h-600z" fill="#ffffff"/>
  <g transform="matrix(2.03804 0 0 2.03804 112.5 96.391)">
    <circle fill="#1d7193" cx="92" cy="87.631" r="85.827"/>
    <path fill="#0c5a73" d="M92 72.502A197.55 197.55 0 0 0 6.501 92.229a85.827 85.827 0 0 0 85.5 81.23 85.827 85.827 0 0 0 85.513-81.46A197.55 197.55 0 0 0 92 72.501"/>
    <path fill="#000000" d="M92.002.056c-48.347 0-87.577 39.23-87.577 87.577s39.23 87.577 87.577 87.577 87.577-39.23 87.577-87.577S140.349.056 92.002.056zm0 3.5c46.455 0 84.077 37.622 84.077 84.077s-37.622 84.077-84.077 84.077S7.925 134.088 7.925 87.633 45.547 3.557 92.002 3.557z"/>
    <path fill="#ffffff" d="M104.871 37.121v48.203h12.09V37.12Z"/>
    <path fill="#e0e0e0" d="M114.753 38.121v46.203h4.327V38.12Z"/>
    <path fill="#b1742a" d="m107.885 140.206-4.019-33.67s-.685-1.584-3.06-1.584-2.34 1.584-2.34 1.584l3.35 38.213h18.24l-4.11-3.111z"/>
    <path fill="#ffffff" d="m34.714 114.766 15.873-.624 43.453-.547 20.496-13.362 9.308-13.143 1.28-3.642-28.562-27.77z"/>
    <path fill="#e0e0e0" d="M35.157 114.766h61.256c14.247-6.015 29.259-18.25 28.711-31.318-6.936 10.221-13.8 17.165-23.413 21.758-20.223 9.662-49.277 6.493-66.554 9.56z"/>
    <path fill="#fcb320" d="m91.524 140.206 2.68-33.67s-.684-1.584-3.06-1.584-2.338 1.584-2.338 1.584l-3.35 38.213h18.239l-4.11-3.111z"/>
    <path fill="#b3b3b3" d="M41.52 101.356 81.229 65.66v38.443L41.521 139.8z"/>
    <path fill="#cccccc" d="M41.52 101.356 81.229 65.66v12.276l-39.707 35.697Z"/>
    <path fill="#0d0d0d" d="m25.324 94.834 16.018 13.79 14.314-13.79Z"/>
    <path fill="#565656" d="m25.324 94.834 24.182 5.924 6.15-5.924z"/>
    <path fill="#0d0d0d" d="M31.308 107.753h33.137l-14.576 12.754H18.552Z"/>
    <path fill="#e0e0e0" d="M133.372 35.203c0 5.346-11.217 13.597-17.157 13.597l.156-3.46c-4.9.603-8.721-6.551-8.721-13.534 0-4.222 4.992-9.496 8.82-9.496 8.015 1.198 16.902 11.218 16.902 12.893z"/>
    <path fill="#ffffff" d="M132.975 35.1c-2.428 5.781-10.852 11.641-17.33 11.641-7.93 0-13.386-3.612-13.528-11.538-.145-8.17 6.298-13.489 14.352-13.489 8.065 0 14.809 8.715 16.506 13.387z"/>
    <path fill="#0d0d0d" d="M121.71 30.441c0 .925-.748 1.673-1.675 1.673-.922 0-3.274-1.673-3.274-1.673s2.351-1.668 3.274-1.668a1.67 1.67 0 0 1 1.675 1.668z"/>
    <path fill="#b1742a" d="m125.774 36.11 5.964 3.183 13.966-.878 5.491 1.173 2.035-2.356-23.13-2.43z"/>
    <path fill="#fcb320" d="m131.249 31.703-5.475 4.407 27.98 1.422-1.942-3.618-4.46-.052z"/>
    <path fill="#96412a" d="m150.354 37.893-3.158.84 3.74.8z"/>
    <path fill="#cccccc" d="M3.208 159.78h34.723v38.468H3.208l12.375-19.235Zm177.584 0h-34.723v38.468h34.723l-12.375-19.235z"/>
    <path fill="#000000" d="m0 158.032 13.5 20.98L0 200h39.679v-41.968zm6.417 3.5h29.761V196.5H6.418l11.247-17.488Zm177.583-3.5-13.5 20.98L184 200h-39.679v-41.968zm-6.417 3.5h-29.761V196.5h29.76l-11.247-17.488z"/>
    <path fill="#828282" d="m21.76 190.161 16.171 7.14v-19.957m124.31 12.817-16.172 7.14v-19.957"/>
    <path fill="#000000" d="M36.178 177.343v17.273l-13.713-6.055-1.41 3.205 18.624 8.22v-22.643zm111.644 0v17.273l13.713-6.055 1.41 3.205-18.624 8.22v-22.643z"/>
    <path fill="#efefef" d="M22.825 146.493h138.35v43.532H22.825Z"/>
    <path fill="#000000" d="M21.066 144.752v47.017H162.93v-47.017zm3.518 3.485h134.835v40.047H24.584Z"/>
    <path fill="#0c5a73" d="M54.415 178.517c-4.18 0-5.084-2.952-6.44-2.952-.941 0-1.732 1.233-1.732 2.13 0 1.868 3.427 4.41 8.323 4.41 4.971 0 8.586-2.616 8.586-7.96 0-9.94-12.24-7.437-12.24-12.967 0-2.355 1.96-3.401 4.708-3.401 3.202 0 4.18 1.42 5.198 1.42 1.13 0 1.657-1.383 1.657-2.13 0-2.055-4.407-2.69-6.855-2.69-4.03 0-8.7 1.644-8.7 7.174 0 8.969 12.24 6.39 12.24 13.005 0 2.69-2.033 3.961-4.745 3.961zm19.245-14.649c-4.331 0-7.834 3.326-7.834 7.25v3.55c0 4.447 3.616 7.437 8.737 7.437 3.804 0 6.252-1.72 6.252-2.84 0-.673-.603-1.757-1.544-1.757-1.017 0-1.92 1.42-4.595 1.42-2.9 0-4.895-1.57-4.895-4.073v-.86h7.946c1.695 0 3.427-.112 3.427-3.213 0-4.074-3.465-6.914-7.494-6.914zm-3.88 7.698v-1.195c0-2.056 1.77-3.513 3.842-3.513 2.147 0 3.804 1.607 3.804 3.587 0 .897-.302 1.121-1.394 1.121zm20.262-7.698c-2.561 0-5.687 1.047-5.687 2.392 0 .897.49 1.98 1.431 1.98.753 0 1.431-1.12 4.18-1.12 2.75 0 3.729 2.13 3.729 4.035v.673h-1.657c-5.235 0-8.813 1.121-8.813 5.344 0 3.363 2.26 4.933 5.009 4.933 2.56 0 4.369-1.383 5.687-2.915v1.308c0 .71.79 1.308 1.807 1.308 1.093 0 1.921-.598 1.921-1.308v-9.38c0-3.737-2.071-7.25-7.607-7.25zm3.653 11.51c0 1.794-2.147 3.737-4.03 3.737-1.393 0-2.448-.747-2.448-2.429 0-2.392 2.674-2.69 5.536-2.69h.942zM114.483 162c.038.971.942 1.308 1.996 1.308 1.318 0 1.996-.374 1.996-1.906 0-4.223-3.54-6.914-8.586-6.914-4.595 0-8.323 2.28-8.323 8.334v10.874c0 6.054 3.653 8.334 8.436 8.334 4.745 0 8.473-2.28 8.473-8.334v-4.895c0-.71-.49-1.345-1.318-1.345h-6.478c-.828 0-1.28.822-1.28 1.57 0 .821.452 1.606 1.28 1.606h3.804v3.064c0 3.289-1.695 4.821-4.481 4.821-2.825 0-4.444-1.532-4.444-4.82v-10.875c0-3.289 1.619-4.82 4.444-4.82 3.276 0 4.255 1.83 4.481 3.998zm22.069 19.806c.79 0 1.205-.897 1.205-1.757 0-.897-.414-1.756-1.205-1.756h-9.792v-22.534c0-.897-.979-1.27-1.996-1.27-.979 0-1.996.373-1.996 1.27v24.739c0 .86.904 1.308 1.77 1.308z"/>  
  </g>
</svg>
