<svg height="200" viewBox="0 0 48.683334 52.916667" width="184" xmlns="http://www.w3.org/2000/svg">
  <circle cx="24.341667" cy="23.228591" fill="#1d7193" r="22.699371" />
  <path d="m24.34166728 19.22673394904a52.2460841706 52.2460841706 0 0 0 -22.65649878712 5.21725273562 22.6993717657 22.6993717657 0 0 0 22.65649878712 21.48396109758 22.6993717657 22.6993717657 0 0 0 22.63789609124-21.46949182846 52.2460841706 52.2460841706 0 0 0 -22.63789609124-5.23172200474z" fill="#0c5a73" />
  <circle cx="24.341667" cy="23.228591" fill="none" r="22.699371" stroke="#000" stroke-width="1.058333" />
  <path d="m28.542953 37.069976-1.063015-8.904897h-1.427978l.885844 10.106459h4.823962l-1.087105-.822787z" fill="#b1742a" />
  <path d="m30.81310590139 5.73143315066c-2.13010490784.00004206875-3.83416184661 1.40667399586-3.79563322064 3.56774097531.01635125041.91803460438.30224413262 1.61706484699.79478454086 2.11304933658v5.50302364491l-2.26394518413-2.20089947212-16.35765835591 15.62746919168 16.15353627785-.77307812365 6.95668129195-5.22345403995.80150231186-2.28668215345-1.59835324861-1.55391039124-.62683497413-1.78542081374v-6.12417404598c1.61618351989-.25394206265 4.06461393575-1.78354915119 4.30154567089-3.32279474622-.44902174048-1.23552111863-2.23280557709-3.5409222788-4.36562511-3.54086936214z" fill="#fff" />
  <path d="m9.3080308 30.341778h16.2007222c3.768129-1.590781 7.738303-4.826665 7.593478-8.283047-1.8344 2.703318-3.649788 4.539875-6.192304 5.754671-5.348394 2.555428-13.032563 1.717215-17.6018962 2.528376zm25.8645012-21.05604c-.649462 1.524471-2.868848 3.064929-4.576982 3.06493-.0803 0-.157824-.0039-.236162-.0067v7.047632l1.144632 1.11311v-7.742163c1.611062-.487296 3.779616-2.253981 3.779616-3.463355z" fill="#e0e0e0" />
  <path d="m10.991011 30.041852 5.250879-6.343862 5.250875-3.097189v6.920616l-10.501754 9.441051z" fill="#b3b3b3" />
  <path d="m10.991011 26.79518 10.501754-9.44105v3.246671l-10.501754 9.441051z" fill="#ccc" />
  <path d="m6.70708421691 25.06978819626 3.96978382711 3.41736291736h-2.38693463306l-3.373437585 3.37292164749h8.2826989087l3.85454508254-3.37292164749h-5.87199305004l1.92081287132-1.85001698411-1.58956696505-1.04489728883z" fill="#0d0d0d" />
  <path d="m6.70708421691 25.06978819626 6.39547542156 1.56734593324 1.62729099309-1.56734593324z" fill="#565656" />
  <path d="m33.274028 9.539025 1.577559.841821 3.693483-.232305 1.452342.310452.538175-.623348-6.117481-.642367z" fill="#b1742a" />
  <path d="m34.722108 8.373481-1.44808 1.165544 7.399951.376101-.513374-.956968-1.179439-.01376z" fill="#fcb320" />
  <path d="m39.775045 10.010609-.835204.222313.989078.211434z" fill="#96412a" />
  <path d="m32.199207 8.039788c0 .244581-.197853.442437-.442821.442437-.243825 0-.866036-.442437-.866036-.442437s.621827-.441325.866036-.441325c.244968-.000371.442821.197855.442821.441325z" fill="#0d0d0d" />
  <path d="m24.215774 37.069976.708675-8.904897s-.180712-.418823-.809315-.418823c-.628241 0-.618313.418823-.618313.418823l-.885855 10.106459h4.823622l-1.087116-.822787z" fill="#fcb320" />
  <path d="m5.57795417596 38.29275521486v.46663769926 3.04477480589h-5.57795417596l.46508790234.720886414 3.10937110855 4.83432920514-3.5744590109 5.55728466086h10.50995299815v-2.17454432563h27.66342750536v2.17454432563h10.50995405648l-3.57446006923-5.55728466086 3.10937282835-4.83432920514.46508724089-.720886414h-5.57795391138v-3.51141250514z" />
  <path d="m1.7146241 42.73998 2.9729452 4.619327-2.9729452 4.619845h6.6703939l-2.8070638-1.238298v-8.000874zm45.2540859 0-2.972945 4.619327 2.972945 4.619845h-6.670394l2.807064-1.238298v-8.000874z" fill="#ccc" />
  <path d="m7.9033938 50.740854 1.6706991.738015v-.738015zm32.8765462 0-1.670699.738015v-.738015z" fill="#828282" />
  <path d="m6.515625 39.228255h35.652344v10.576172h-35.652344z" fill="#efefef" />
  <path d="m32.272568 47.693606v-6.424225q0-.197668.189243-.296502.189245-.09884.458171-.09884.268926 0 .45817.09884.189244.09884.189244.296502v5.702736h2.430293q.179284 0 .278886.168017.109562.168019.109562.395337 0 .227319-.109562.395337-.09961.168019-.278886.168019h-3.157389q-.229084 0-.398408-.108718-.169324-.108718-.169324-.296503zm-5.701759-1.798783v-2.757475q0-1.166244.627494-1.709832.637454-.553472 1.663357-.553472 1.055783 0 1.713157.513938.667335.513939.667335 1.38368 0 .355802-.159364.484287-.149403.128485-.48805.128485-.637454 0-.647415-.405221-.02989-.43487-.249005-.701723-.219125-.276736-.786857-.276736-1.045823 0-1.045823 1.136594v2.757475q0 1.136594 1.035863 1.136594.49801 0 .766936-.286619.278886-.28662.278886-.849975v-.583122h-.806777q-.189244 0-.298806-.148251-.09961-.148251-.09961-.355804 0-.197668.109562-.345919.109568-.158135.288852-.158135h1.693237q.189244 0 .298806.128485.109563.118601.109563.286619v1.176127q0 1.176127-.637454 1.719716-.637454.543588-1.703197.543588-1.065744 0-1.703198-.543588-.627494-.543589-.627494-1.719716zm-4.693907.968575q0-.770907.597613-1.067409.597614-.306386 1.733078-.306386h.47809v-.207552q0-.494171-.278885-.859858-.268927-.365686-.816739-.365686-.418329 0-.737056.148251-.318727.138368-.348607.138368-.139443 0-.229085-.128485-.07968-.138368-.07968-.286619 0-.227318.448209-.395337.458171-.177901.966142-.177901.976101 0 1.434271.553471.46813.543588.46813 1.363912v2.530156q0 .128485-.119522.217436-.109563.07906-.288846.07906-.159364 0-.268926-.07906-.109563-.08895-.109563-.217436v-.395336q-.677294.770907-1.503992.770907-.597614 0-.976101-.336037-.368529-.336036-.368529-.978459zm.836659-.08895q0 .365686.209164.553472.209164.187785.557772.187785.41833 0 .806778-.326153.398408-.336036.398408-.681956v-.513938h-.348607q-.288846 0-.498011.01976-.209165.0099-.43825.0593-.219124.03954-.368527.128484-.139444.07906-.229086.227319-.08964.138368-.08964.34592zm-5.337121-.513938v-1.037759q0-.761024.577693-1.314496.587653-.553471 1.404391-.553471.776897 0 1.344628.523821.567733.513938.567733 1.294729 0 .286619-.06972.46452-.06972.168019-.219125.247086-.139443.06918-.268926.08894-.119523.01976-.328687.01976h-2.181287v.296502q0 .543588.388448.869742.398409.326152 1.025903.326152.328688 0 .567733-.09884.249005-.09884.398409-.187785.149403-.09884.239044-.09884.139444 0 .239045.128484.09961.118601.09961.247086 0 .227319-.458171.464521-.448209.237202-1.115543.237202-.976102 0-1.593636-.523822-.617533-.533704-.617533-1.393562zm.826698-.820324h1.84264q.258967 0 .348608-.0593.08965-.06918.08965-.25697 0-.444753-.328688-.78079-.328686-.336036-.806777-.336036-.46813 0-.806777.316269-.338648.306386-.338648.761023zm-5.905942 1.620881q0-.158135.109562-.306386.119523-.148251.258967-.148251.08964 0 .229084.128484.139443.118602.288846.276736.149404.148252.46813.276736.318727.118601.717136.118601.647415 0 1.015942-.306387.368529-.316268.368529-.919157 0-.543589-.338647-.879625-.338648-.34592-.816739-.523822-.478089-.177901-.966141-.375569-.47809-.207552-.816737-.622656-.338648-.424987-.338648-1.087176 0-.513939.199204-.889509.199205-.385454.527892-.573238.338647-.197669.697215-.28662.358568-.08895.766937-.08895.617534 0 1.175306.177901.567732.168018.567732.474404 0 .138368-.09961.296503-.0996.158135-.258966.158135-.03984 0-.45817-.187785-.418329-.187785-.9263-.187785-.607573 0-.986061.247086-.368529.247085-.368529.78079 0 .454637.338647.741257.338648.276735.816739.444753.48805.168019.966141.385454.47809.217436.816737.701723.338648.474404.338648 1.215661 0 1.027876-.597613 1.551697-.597613.523822-1.583675.523822-.886459 0-1.503993-.375571-.607573-.375569-.607573-.741256z" fill="#0c5a73" />
</svg>
