<?xml version="1.0" encoding="utf-8"?>
<!-- Generator: Adobe Illustrator 15.0.2, SVG Export Plug-In . SVG Version: 6.00 Build 0)  -->
<!DOCTYPE svg PUBLIC "-//W3C//DTD SVG 1.1//EN" "http://www.w3.org/Graphics/SVG/1.1/DTD/svg11.dtd">
<svg version="1.1" id="Layer_1" xmlns="http://www.w3.org/2000/svg" xmlns:xlink="http://www.w3.org/1999/xlink" x="0px" y="0px"
	 width="139.573px" height="139.573px" viewBox="27.658 0 139.573 139.573" enable-background="new 27.658 0 139.573 139.573"
	 xml:space="preserve">
<g>
	<path fill="#1D7193" d="M165.231,69.785c0,37.438-30.351,67.789-67.788,67.789s-67.786-30.351-67.786-67.789
		C29.658,32.35,60.007,2,97.444,2S165.231,32.35,165.231,69.785z"/>
	<path d="M97.444,139.573c-38.48,0-69.786-31.307-69.786-69.789C27.658,31.305,58.964,0,97.444,0s69.788,31.305,69.788,69.785
		C167.231,108.267,135.925,139.573,97.444,139.573z M97.444,4C61.17,4,31.658,33.511,31.658,69.785
		c0,36.276,29.512,65.789,65.786,65.789c36.275,0,65.788-29.513,65.788-65.789C163.231,33.511,133.72,4,97.444,4z"/>
</g>
<path fill="#0C5A73" d="M32.158,65.296c0,37.438,18.689,65.289,64.786,65.289c46.098,0,65.788-27.85,65.788-65.289
	c0-0.176-9.689-13.265-64.189-13.265S32.158,65.119,32.158,65.296z"/>
<g>
	<path fill="#FFFFFF" d="M70.372,120.368c0-0.134,0.059-0.26,0.173-0.38c0.115-0.12,0.235-0.181,0.357-0.181
		c0.094,0,0.232,0.088,0.416,0.261l0.624,0.58c0.231,0.214,0.604,0.408,1.12,0.58c0.515,0.174,1.111,0.261,1.788,0.261
		c1.186,0,2.094-0.254,2.725-0.761c0.632-0.507,0.946-1.253,0.946-2.24c0-0.747-0.191-1.367-0.576-1.862
		c-0.386-0.492-0.862-0.847-1.432-1.06c-0.57-0.213-1.188-0.434-1.859-0.66c-0.669-0.228-1.289-0.45-1.857-0.67
		c-0.57-0.222-1.047-0.585-1.432-1.091c-0.385-0.507-0.576-1.148-0.576-1.923c0-0.692,0.145-1.283,0.438-1.77
		c0.293-0.487,0.685-0.854,1.178-1.102c0.492-0.247,0.989-0.421,1.489-0.521c0.499-0.1,1.034-0.149,1.604-0.149
		c0.924,0,1.781,0.116,2.573,0.351c0.794,0.233,1.188,0.496,1.188,0.79c0,0.12-0.053,0.247-0.16,0.38
		c-0.108,0.134-0.23,0.2-0.369,0.2c-0.077,0-0.246-0.063-0.508-0.19c-0.262-0.126-0.635-0.253-1.121-0.381
		c-0.484-0.126-1.027-0.189-1.627-0.189c-1,0-1.839,0.189-2.516,0.57c-0.677,0.38-1.016,1.023-1.016,1.932
		c0,0.546,0.142,1.003,0.426,1.37c0.285,0.367,0.654,0.65,1.109,0.852c0.453,0.199,0.953,0.379,1.5,0.54
		c0.546,0.16,1.096,0.339,1.65,0.539c0.554,0.2,1.059,0.447,1.512,0.741c0.455,0.293,0.823,0.71,1.108,1.251
		c0.285,0.539,0.429,1.189,0.429,1.95c0,1.36-0.429,2.378-1.281,3.052c-0.855,0.673-1.998,1.01-3.43,1.01
		c-1.324,0-2.42-0.247-3.289-0.74C70.807,121.216,70.372,120.769,70.372,120.368z"/>
	<path fill="#FFFFFF" d="M81.324,118.748v-2.381c0-0.988,0.415-1.834,1.245-2.542c0.831-0.706,1.832-1.061,3.002-1.061
		c1.133,0,2.112,0.348,2.938,1.042c0.827,0.693,1.239,1.554,1.239,2.58c0,0.36-0.05,0.65-0.149,0.871s-0.257,0.377-0.471,0.47
		c-0.217,0.094-0.41,0.15-0.588,0.17c-0.178,0.021-0.426,0.031-0.748,0.031h-5.338v0.84c0,0.841,0.346,1.515,1.038,2.02
		c0.692,0.509,1.585,0.762,2.678,0.762c0.553,0,1.021-0.066,1.405-0.2c0.384-0.134,0.676-0.267,0.875-0.4
		c0.201-0.134,0.354-0.2,0.461-0.2c0.137,0,0.258,0.053,0.363,0.161c0.104,0.106,0.158,0.213,0.158,0.319
		c0,0.254-0.318,0.521-0.954,0.801s-1.42,0.42-2.354,0.42c-1.416,0-2.57-0.34-3.463-1.021S81.324,119.855,81.324,118.748z
		 M82.455,117.107h4.916c0.523,0,0.871-0.047,1.039-0.141c0.17-0.093,0.255-0.286,0.255-0.58c0-0.706-0.292-1.341-0.878-1.9
		c-0.584-0.561-1.322-0.841-2.216-0.841c-0.862,0-1.597,0.261-2.204,0.78c-0.609,0.521-0.912,1.141-0.912,1.86V117.107z"/>
	<path fill="#FFFFFF" d="M90.889,119.808c0-1,0.459-1.696,1.374-2.091c0.915-0.394,2.251-0.59,4.006-0.59h1.248v-0.521
		c0-0.8-0.243-1.49-0.729-2.069c-0.484-0.581-1.211-0.871-2.181-0.871c-0.585,0-1.132,0.094-1.64,0.281
		c-0.507,0.187-0.77,0.278-0.783,0.278c-0.155,0-0.278-0.059-0.37-0.18c-0.093-0.12-0.138-0.24-0.138-0.361
		c0-0.226,0.318-0.436,0.957-0.628c0.639-0.194,1.312-0.291,2.02-0.291c1.371,0,2.379,0.362,3.025,1.091
		c0.646,0.727,0.97,1.644,0.97,2.75v5.283c0,0.12-0.055,0.223-0.162,0.31c-0.108,0.087-0.238,0.131-0.393,0.131
		s-0.285-0.044-0.393-0.131s-0.161-0.189-0.161-0.31v-0.961c-1.016,1.015-2.17,1.521-3.463,1.521c-0.939,0-1.705-0.223-2.298-0.67
		C91.186,121.332,90.889,120.676,90.889,119.808z M92.02,119.769c0,0.601,0.205,1.051,0.613,1.35
		c0.407,0.302,0.942,0.451,1.604,0.451c0.786,0,1.529-0.243,2.229-0.729c0.7-0.487,1.052-0.964,1.052-1.432v-1.48h-1.132
		c-0.663,0-1.217,0.021-1.663,0.061s-0.893,0.116-1.338,0.229c-0.447,0.114-0.786,0.3-1.017,0.562
		C92.136,119.039,92.02,119.368,92.02,119.769z"/>
	<path fill="#FFFFFF" d="M102.278,117.867v-5.582c0-1.574,0.487-2.731,1.466-3.473c0.977-0.74,2.259-1.11,3.843-1.11
		c1.632,0,2.959,0.347,3.982,1.041c1.024,0.694,1.535,1.627,1.535,2.802c0,0.479-0.118,0.807-0.356,0.98
		c-0.24,0.173-0.621,0.259-1.144,0.259c-0.985,0-1.485-0.271-1.501-0.819c-0.046-0.587-0.238-1.064-0.577-1.432
		c-0.339-0.365-0.946-0.55-1.823-0.55c-1.615,0-2.424,0.768-2.424,2.302v5.582c0,1.534,0.801,2.301,2.401,2.301
		c0.769,0,1.364-0.193,1.787-0.58c0.425-0.388,0.636-0.96,0.636-1.722v-1.18h-1.868c-0.293,0-0.521-0.101-0.681-0.301
		c-0.162-0.2-0.243-0.439-0.243-0.72c0-0.267,0.083-0.504,0.253-0.71c0.17-0.207,0.394-0.311,0.671-0.311h3.924
		c0.293,0,0.524,0.084,0.692,0.25c0.17,0.167,0.255,0.364,0.255,0.591v2.381c0,1.588-0.493,2.749-1.478,3.482
		c-0.986,0.733-2.302,1.1-3.946,1.1c-1.646,0-2.96-0.366-3.937-1.1C102.766,120.616,102.278,119.455,102.278,117.867z"/>
	<path fill="#FFFFFF" d="M114.983,121.629v-13.006c0-0.267,0.146-0.467,0.438-0.601c0.292-0.133,0.646-0.199,1.061-0.199
		c0.417,0,0.771,0.066,1.063,0.199c0.292,0.134,0.438,0.334,0.438,0.601v11.545h5.633c0.277,0,0.496,0.114,0.658,0.341
		c0.162,0.228,0.242,0.493,0.242,0.801c0,0.307-0.08,0.572-0.242,0.8s-0.381,0.34-0.658,0.34h-7.318
		c-0.354,0-0.66-0.073-0.923-0.221C115.114,122.083,114.983,121.882,114.983,121.629z"/>
</g>
<g>
	<path fill="#B1742A" d="M106.074,100.554l-3-25.131c0,0-0.511-1.182-2.284-1.182c-1.773,0-1.746,1.182-1.746,1.182l2.5,28.521
		h13.614l-3.068-2.321L106.074,100.554z"/>
	<path fill="#E0E0E0" d="M114.942,57.75c0,1.951-1.58,3.529-3.528,3.529h-2.171c-1.949,0-3.529-1.578-3.529-3.529V23.625
		c0-1.948,1.58-3.528,3.529-3.528h2.171c1.948,0,3.528,1.58,3.528,3.528V57.75z"/>
	<path fill="#FFFFFF" d="M112.289,57.75c0,1.951-1.579,3.529-3.526,3.529h-2.172c-1.949,0-3.529-1.578-3.529-3.529V23.625
		c0-1.948,1.58-3.528,3.529-3.528h2.172c1.947,0,3.526,1.58,3.526,3.528V57.75z"/>
	<path fill="#E0E0E0" d="M121.015,21.777c0,5.562-4.506,10.072-10.065,10.072c-5.564,0-10.072-4.509-10.072-10.072
		c0-5.564,4.508-10.07,10.072-10.07C116.509,11.707,121.015,16.213,121.015,21.777z"/>
	<path fill="#FFFFFF" d="M51.459,81.566h45.722c0,0,21.759-9.262,21.759-23.376L97.622,37.463L51.459,81.566z"/>
	<path fill="#E0E0E0" d="M51.79,81.566h45.721c0,0,21.167-9.262,21.167-23.376c0,0-3.273,6.175-14.811,14.775
		C92.333,81.566,51.79,81.566,51.79,81.566z"/>
	<path fill="#FFFFFF" d="M119.222,21.777c0,5.562-4.508,10.072-10.068,10.072c-5.565,0-10.072-4.509-10.072-10.072
		c0-5.564,4.507-10.07,10.072-10.07C114.714,11.707,119.222,16.213,119.222,21.777z"/>
	<polygon fill="#B2B3B3" points="85.8,46.066 56.178,72.216 56.178,101.39 85.8,74.751 	"/>
	<polygon fill="#CCCCCC" points="85.8,45.098 56.178,71.248 56.178,80.697 85.8,54.059 	"/>
	<polygon fill="#090D11" points="66.709,67.841 44.068,67.841 56.024,78.133 	"/>
	<polygon fill="#565656" points="66.379,67.841 43.736,67.841 61.61,72.216 	"/>
	<polygon fill="#090D11" points="62.389,87.004 39.014,87.004 48.535,77.484 73.268,77.484 	"/>
	<path fill="#FCB320" d="M93.862,100.554l2-25.131c0,0-0.51-1.182-2.284-1.182c-1.773,0-1.745,1.182-1.745,1.182l-2.5,28.521h13.613
		l-3.068-2.321L93.862,100.554z"/>
	<path d="M115.772,16.683c0,0.649-0.525,1.174-1.176,1.174c-0.646,0-2.298-1.174-2.298-1.174s1.65-1.171,2.298-1.171
		C115.247,15.511,115.772,16.037,115.772,16.683z"/>
	<polygon fill="#FCB320" points="120.599,18.907 130.624,20.969 133.282,20.68 135.703,23.171 131.306,23.171 128.718,24.65 
		120.663,24.65 115.683,22.414 	"/>
	<polygon fill="#B1742A" points="134.261,23.171 131.674,24.65 120.663,24.65 115.683,22.416 	"/>
	<path fill="#E0E0E0" d="M103.062,42.751l1.806,1.804V30.949c0,0-0.298-0.104-0.902-0.375c-0.604-0.271-0.901-0.775-0.901-0.775
		v12.952H103.062z"/>
</g>
</svg>
