<?xml version="1.0" encoding="utf-8"?>
<!-- Generator: Adobe Illustrator 16.0.0, SVG Export Plug-In . SVG Version: 6.00 Build 0)  -->
<!DOCTYPE svg PUBLIC "-//W3C//DTD SVG 1.1//EN" "http://www.w3.org/Graphics/SVG/1.1/DTD/svg11.dtd">
<svg version="1.1" id="Layer_1" xmlns="http://www.w3.org/2000/svg" xmlns:xlink="http://www.w3.org/1999/xlink" x="0px" y="0px"
	 width="305.5px" height="200px" viewBox="-5.5 -50 305.5 200" enable-background="new -5.5 -50 305.5 200" xml:space="preserve">
<g>
	<defs>
		<rect id="SVGID_1_" x="-36.884" y="-40" width="329.446" height="190.5"/>
	</defs>
	<clipPath id="SVGID_2_">
		<use xlink:href="#SVGID_1_"  overflow="visible"/>
	</clipPath>
	<g clip-path="url(#SVGID_2_)">
		<path fill="#207294" d="M256.324,77.072c0,61.669-49.996,111.665-111.663,111.665c-61.667,0-111.658-49.996-111.658-111.665
			c0-61.664,49.991-111.658,111.658-111.658C206.328-34.585,256.324,15.408,256.324,77.072z"/>
	</g>
	<g clip-path="url(#SVGID_2_)">
		<path fill="#B1752A" d="M187.992,282.517l-9.648-80.84c0,0-1.644-3.803-7.348-3.803c-5.701,0-5.616,3.803-5.616,3.803
			l8.042,91.746h43.795l-9.869-7.467L187.992,282.517z"/>
		<path fill="#E0E1E0" d="M216.52,144.825c0,6.276-5.083,11.354-11.35,11.354h-6.981c-6.274,0-11.354-5.077-11.354-11.354V35.05
			c0-6.268,5.08-11.35,11.354-11.35h6.981c6.267,0,11.35,5.082,11.35,11.35V144.825z"/>
		<path fill="#FFFFFF" d="M207.984,144.825c0,6.276-5.08,11.354-11.344,11.354h-6.984c-6.274,0-11.355-5.077-11.355-11.354V35.05
			c0-6.268,5.081-11.35,11.355-11.35h6.984c6.264,0,11.344,5.082,11.344,11.35V144.825z"/>
		<path fill="#E0E1E0" d="M236.052,29.105c0,17.892-14.493,32.399-32.377,32.399c-17.898,0-32.401-14.504-32.401-32.399
			c0-17.897,14.503-32.393,32.401-32.393C221.562-3.288,236.052,11.206,236.052,29.105z"/>
		<path fill="#FFFFFF" d="M12.304,221.438h147.084c0,0,69.99-29.792,69.99-75.197l-68.575-66.676L12.304,221.438z"/>
		<path fill="#E0E1E0" d="M13.37,221.438h147.08c0,0,68.091-29.792,68.091-75.197c0,0-10.53,19.865-47.644,47.53
			C143.791,221.438,13.37,221.438,13.37,221.438z"/>
		<path fill="#FFFFFF" d="M230.286,29.105c0,17.892-14.503,32.399-32.388,32.399c-17.902,0-32.404-14.504-32.404-32.399
			c0-17.897,14.502-32.393,32.404-32.393C215.786-3.288,230.286,11.206,230.286,29.105z"/>
		<polygon fill="#B3B4B4" points="122.773,107.237 27.487,191.357 27.487,285.206 122.773,199.514 		"/>
		<polygon fill="#CDCCCC" points="122.773,104.127 27.487,188.245 27.487,218.642 122.773,132.955 		"/>
		<polygon fill="#0E1013" points="61.362,177.285 -11.47,177.285 26.989,210.393 		"/>
		<polygon fill="#575757" points="60.3,177.285 -12.54,177.285 44.959,191.357 		"/>
		<polygon fill="#0E1013" points="47.466,238.928 -27.727,238.928 2.9,208.308 82.462,208.308 		"/>
		<path fill="#FBB31F" d="M148.705,282.517l6.435-80.84c0,0-1.64-3.803-7.343-3.803c-5.708,0-5.615,3.803-5.615,3.803l-8.043,91.746
			h43.792l-9.87-7.467L148.705,282.517z"/>
		<path fill="#010101" d="M219.19,12.718c0,2.09-1.689,3.775-3.782,3.775c-2.08,0-7.392-3.775-7.392-3.775s5.309-3.763,7.392-3.763
			C217.501,8.948,219.19,10.641,219.19,12.718z"/>
		<polygon fill="#FBB31F" points="234.715,19.874 266.965,26.505 275.515,25.578 283.304,33.589 269.159,33.589 260.831,38.346 
			234.923,38.346 218.902,31.156 		"/>
		<polygon fill="#B1752A" points="278.664,33.589 270.342,38.346 234.923,38.346 218.902,31.163 		"/>
		<path fill="#E0E1E0" d="M178.303,96.575l5.807,5.805V58.612c0,0-0.957-0.338-2.902-1.207c-1.946-0.871-2.901-2.495-2.901-2.495
			v41.665H178.303z"/>
	</g>
</g>
</svg>
